G04 #@! TF.GenerationSoftware,KiCad,Pcbnew,(5.1.0)-1*
G04 #@! TF.CreationDate,2019-05-22T12:11:48+02:00*
G04 #@! TF.ProjectId,ArtNet_Node_WSLEDS,4172744e-6574-45f4-9e6f-64655f57534c,rev?*
G04 #@! TF.SameCoordinates,Original*
G04 #@! TF.FileFunction,Legend,Top*
G04 #@! TF.FilePolarity,Positive*
%FSLAX46Y46*%
G04 Gerber Fmt 4.6, Leading zero omitted, Abs format (unit mm)*
G04 Created by KiCad (PCBNEW (5.1.0)-1) date 2019-05-22 12:11:48*
%MOMM*%
%LPD*%
G04 APERTURE LIST*
%ADD10C,0.150000*%
%ADD11C,0.250000*%
%ADD12C,0.120000*%
G04 APERTURE END LIST*
D10*
X70515219Y-101663523D02*
X70515219Y-101854000D01*
X70562838Y-101949238D01*
X70610457Y-101996857D01*
X70753314Y-102092095D01*
X70943790Y-102139714D01*
X71324742Y-102139714D01*
X71419980Y-102092095D01*
X71467600Y-102044476D01*
X71515219Y-101949238D01*
X71515219Y-101758761D01*
X71467600Y-101663523D01*
X71419980Y-101615904D01*
X71324742Y-101568285D01*
X71086647Y-101568285D01*
X70991409Y-101615904D01*
X70943790Y-101663523D01*
X70896171Y-101758761D01*
X70896171Y-101949238D01*
X70943790Y-102044476D01*
X70991409Y-102092095D01*
X71086647Y-102139714D01*
X70464419Y-96481923D02*
X70464419Y-95910495D01*
X70464419Y-96196209D02*
X71464419Y-96196209D01*
X71321561Y-96100971D01*
X71226323Y-96005733D01*
X71178704Y-95910495D01*
X71464419Y-97100971D02*
X71464419Y-97196209D01*
X71416800Y-97291447D01*
X71369180Y-97339066D01*
X71273942Y-97386685D01*
X71083466Y-97434304D01*
X70845371Y-97434304D01*
X70654895Y-97386685D01*
X70559657Y-97339066D01*
X70512038Y-97291447D01*
X70464419Y-97196209D01*
X70464419Y-97100971D01*
X70512038Y-97005733D01*
X70559657Y-96958114D01*
X70654895Y-96910495D01*
X70845371Y-96862876D01*
X71083466Y-96862876D01*
X71273942Y-96910495D01*
X71369180Y-96958114D01*
X71416800Y-97005733D01*
X71464419Y-97100971D01*
X70489819Y-91427323D02*
X70489819Y-90855895D01*
X70489819Y-91141609D02*
X71489819Y-91141609D01*
X71346961Y-91046371D01*
X71251723Y-90951133D01*
X71204104Y-90855895D01*
X70489819Y-92379704D02*
X70489819Y-91808276D01*
X70489819Y-92093990D02*
X71489819Y-92093990D01*
X71346961Y-91998752D01*
X71251723Y-91903514D01*
X71204104Y-91808276D01*
X70439019Y-86194923D02*
X70439019Y-85623495D01*
X70439019Y-85909209D02*
X71439019Y-85909209D01*
X71296161Y-85813971D01*
X71200923Y-85718733D01*
X71153304Y-85623495D01*
X71343780Y-86575876D02*
X71391400Y-86623495D01*
X71439019Y-86718733D01*
X71439019Y-86956828D01*
X71391400Y-87052066D01*
X71343780Y-87099685D01*
X71248542Y-87147304D01*
X71153304Y-87147304D01*
X71010447Y-87099685D01*
X70439019Y-86528257D01*
X70439019Y-87147304D01*
X70831104Y-105754466D02*
X71307295Y-105754466D01*
X70735866Y-106040180D02*
X71069200Y-105040180D01*
X71402533Y-106040180D01*
X84680800Y-130932180D02*
X84680800Y-129932180D01*
X85014133Y-130646466D01*
X85347466Y-129932180D01*
X85347466Y-130932180D01*
X85776038Y-130646466D02*
X86252228Y-130646466D01*
X85680800Y-130932180D02*
X86014133Y-129932180D01*
X86347466Y-130932180D01*
X86585561Y-129932180D02*
X87252228Y-130932180D01*
X87252228Y-129932180D02*
X86585561Y-130932180D01*
X88918895Y-130932180D02*
X88347466Y-130932180D01*
X88633180Y-130932180D02*
X88633180Y-129932180D01*
X88537942Y-130075038D01*
X88442704Y-130170276D01*
X88347466Y-130217895D01*
X89299847Y-130027419D02*
X89347466Y-129979800D01*
X89442704Y-129932180D01*
X89680800Y-129932180D01*
X89776038Y-129979800D01*
X89823657Y-130027419D01*
X89871276Y-130122657D01*
X89871276Y-130217895D01*
X89823657Y-130360752D01*
X89252228Y-130932180D01*
X89871276Y-130932180D01*
X90156990Y-129932180D02*
X90490323Y-130932180D01*
X90823657Y-129932180D01*
X111253542Y-122818990D02*
X111301161Y-122866609D01*
X111348780Y-123009466D01*
X111348780Y-123104704D01*
X111301161Y-123247561D01*
X111205923Y-123342800D01*
X111110685Y-123390419D01*
X110920209Y-123438038D01*
X110777352Y-123438038D01*
X110586876Y-123390419D01*
X110491638Y-123342800D01*
X110396400Y-123247561D01*
X110348780Y-123104704D01*
X110348780Y-123009466D01*
X110396400Y-122866609D01*
X110444019Y-122818990D01*
X110682114Y-121961847D02*
X111348780Y-121961847D01*
X110682114Y-122390419D02*
X111205923Y-122390419D01*
X111301161Y-122342800D01*
X111348780Y-122247561D01*
X111348780Y-122104704D01*
X111301161Y-122009466D01*
X111253542Y-121961847D01*
X110682114Y-121628514D02*
X110682114Y-121247561D01*
X110348780Y-121485657D02*
X111205923Y-121485657D01*
X111301161Y-121438038D01*
X111348780Y-121342800D01*
X111348780Y-121247561D01*
X110348780Y-120295180D02*
X111348780Y-119961847D01*
X110348780Y-119628514D01*
X110348780Y-119295180D02*
X111158304Y-119295180D01*
X111253542Y-119247561D01*
X111301161Y-119199942D01*
X111348780Y-119104704D01*
X111348780Y-118914228D01*
X111301161Y-118818990D01*
X111253542Y-118771371D01*
X111158304Y-118723752D01*
X110348780Y-118723752D01*
X111301161Y-118295180D02*
X111348780Y-118152323D01*
X111348780Y-117914228D01*
X111301161Y-117818990D01*
X111253542Y-117771371D01*
X111158304Y-117723752D01*
X111063066Y-117723752D01*
X110967828Y-117771371D01*
X110920209Y-117818990D01*
X110872590Y-117914228D01*
X110824971Y-118104704D01*
X110777352Y-118199942D01*
X110729733Y-118247561D01*
X110634495Y-118295180D01*
X110539257Y-118295180D01*
X110444019Y-118247561D01*
X110396400Y-118199942D01*
X110348780Y-118104704D01*
X110348780Y-117866609D01*
X110396400Y-117723752D01*
X110824971Y-116961847D02*
X110872590Y-116818990D01*
X110920209Y-116771371D01*
X111015447Y-116723752D01*
X111158304Y-116723752D01*
X111253542Y-116771371D01*
X111301161Y-116818990D01*
X111348780Y-116914228D01*
X111348780Y-117295180D01*
X110348780Y-117295180D01*
X110348780Y-116961847D01*
X110396400Y-116866609D01*
X110444019Y-116818990D01*
X110539257Y-116771371D01*
X110634495Y-116771371D01*
X110729733Y-116818990D01*
X110777352Y-116866609D01*
X110824971Y-116961847D01*
X110824971Y-117295180D01*
X110682114Y-115676133D02*
X110682114Y-115295180D01*
X110348780Y-115533276D02*
X111205923Y-115533276D01*
X111301161Y-115485657D01*
X111348780Y-115390419D01*
X111348780Y-115295180D01*
X111348780Y-114961847D02*
X110682114Y-114961847D01*
X110872590Y-114961847D02*
X110777352Y-114914228D01*
X110729733Y-114866609D01*
X110682114Y-114771371D01*
X110682114Y-114676133D01*
X111348780Y-113914228D02*
X110824971Y-113914228D01*
X110729733Y-113961847D01*
X110682114Y-114057085D01*
X110682114Y-114247561D01*
X110729733Y-114342800D01*
X111301161Y-113914228D02*
X111348780Y-114009466D01*
X111348780Y-114247561D01*
X111301161Y-114342800D01*
X111205923Y-114390419D01*
X111110685Y-114390419D01*
X111015447Y-114342800D01*
X110967828Y-114247561D01*
X110967828Y-114009466D01*
X110920209Y-113914228D01*
X111301161Y-113009466D02*
X111348780Y-113104704D01*
X111348780Y-113295180D01*
X111301161Y-113390419D01*
X111253542Y-113438038D01*
X111158304Y-113485657D01*
X110872590Y-113485657D01*
X110777352Y-113438038D01*
X110729733Y-113390419D01*
X110682114Y-113295180D01*
X110682114Y-113104704D01*
X110729733Y-113009466D01*
X111348780Y-112580895D02*
X110348780Y-112580895D01*
X110967828Y-112485657D02*
X111348780Y-112199942D01*
X110682114Y-112199942D02*
X111063066Y-112580895D01*
X111348780Y-110866609D02*
X111301161Y-110961847D01*
X111253542Y-111009466D01*
X111158304Y-111057085D01*
X110872590Y-111057085D01*
X110777352Y-111009466D01*
X110729733Y-110961847D01*
X110682114Y-110866609D01*
X110682114Y-110723752D01*
X110729733Y-110628514D01*
X110777352Y-110580895D01*
X110872590Y-110533276D01*
X111158304Y-110533276D01*
X111253542Y-110580895D01*
X111301161Y-110628514D01*
X111348780Y-110723752D01*
X111348780Y-110866609D01*
X110682114Y-110247561D02*
X110682114Y-109866609D01*
X111348780Y-110104704D02*
X110491638Y-110104704D01*
X110396400Y-110057085D01*
X110348780Y-109961847D01*
X110348780Y-109866609D01*
X110348780Y-108914228D02*
X110348780Y-108342800D01*
X111348780Y-108628514D02*
X110348780Y-108628514D01*
X111301161Y-107628514D02*
X111348780Y-107723752D01*
X111348780Y-107914228D01*
X111301161Y-108009466D01*
X111205923Y-108057085D01*
X110824971Y-108057085D01*
X110729733Y-108009466D01*
X110682114Y-107914228D01*
X110682114Y-107723752D01*
X110729733Y-107628514D01*
X110824971Y-107580895D01*
X110920209Y-107580895D01*
X111015447Y-108057085D01*
X111301161Y-106771371D02*
X111348780Y-106866609D01*
X111348780Y-107057085D01*
X111301161Y-107152323D01*
X111205923Y-107199942D01*
X110824971Y-107199942D01*
X110729733Y-107152323D01*
X110682114Y-107057085D01*
X110682114Y-106866609D01*
X110729733Y-106771371D01*
X110824971Y-106723752D01*
X110920209Y-106723752D01*
X111015447Y-107199942D01*
X110682114Y-106295180D02*
X111348780Y-106295180D01*
X110777352Y-106295180D02*
X110729733Y-106247561D01*
X110682114Y-106152323D01*
X110682114Y-106009466D01*
X110729733Y-105914228D01*
X110824971Y-105866609D01*
X111348780Y-105866609D01*
X111301161Y-105438038D02*
X111348780Y-105342800D01*
X111348780Y-105152323D01*
X111301161Y-105057085D01*
X111205923Y-105009466D01*
X111158304Y-105009466D01*
X111063066Y-105057085D01*
X111015447Y-105152323D01*
X111015447Y-105295180D01*
X110967828Y-105390419D01*
X110872590Y-105438038D01*
X110824971Y-105438038D01*
X110729733Y-105390419D01*
X110682114Y-105295180D01*
X110682114Y-105152323D01*
X110729733Y-105057085D01*
X110682114Y-104676133D02*
X111348780Y-104438038D01*
X110682114Y-104199942D02*
X111348780Y-104438038D01*
X111586876Y-104533276D01*
X111634495Y-104580895D01*
X111682114Y-104676133D01*
X105327795Y-99423480D02*
X105327795Y-98423480D01*
X105899223Y-99423480D01*
X105899223Y-98423480D01*
X106518271Y-99423480D02*
X106423033Y-99375861D01*
X106375414Y-99328242D01*
X106327795Y-99233004D01*
X106327795Y-98947290D01*
X106375414Y-98852052D01*
X106423033Y-98804433D01*
X106518271Y-98756814D01*
X106661128Y-98756814D01*
X106756366Y-98804433D01*
X106803985Y-98852052D01*
X106851604Y-98947290D01*
X106851604Y-99233004D01*
X106803985Y-99328242D01*
X106756366Y-99375861D01*
X106661128Y-99423480D01*
X106518271Y-99423480D01*
X108042080Y-99423480D02*
X108042080Y-98423480D01*
X108423033Y-98423480D01*
X108518271Y-98471100D01*
X108565890Y-98518719D01*
X108613509Y-98613957D01*
X108613509Y-98756814D01*
X108565890Y-98852052D01*
X108518271Y-98899671D01*
X108423033Y-98947290D01*
X108042080Y-98947290D01*
X109184938Y-99423480D02*
X109089700Y-99375861D01*
X109042080Y-99328242D01*
X108994461Y-99233004D01*
X108994461Y-98947290D01*
X109042080Y-98852052D01*
X109089700Y-98804433D01*
X109184938Y-98756814D01*
X109327795Y-98756814D01*
X109423033Y-98804433D01*
X109470652Y-98852052D01*
X109518271Y-98947290D01*
X109518271Y-99233004D01*
X109470652Y-99328242D01*
X109423033Y-99375861D01*
X109327795Y-99423480D01*
X109184938Y-99423480D01*
X109946842Y-98899671D02*
X110280176Y-98899671D01*
X110423033Y-99423480D02*
X109946842Y-99423480D01*
X109946842Y-98423480D01*
X110423033Y-98423480D01*
X110851604Y-99328242D02*
X110899223Y-99375861D01*
X110851604Y-99423480D01*
X110803985Y-99375861D01*
X110851604Y-99328242D01*
X110851604Y-99423480D01*
X110851604Y-99042528D02*
X110803985Y-98471100D01*
X110851604Y-98423480D01*
X110899223Y-98471100D01*
X110851604Y-99042528D01*
X110851604Y-98423480D01*
X139009523Y-106640380D02*
X139580952Y-106640380D01*
X139295238Y-107640380D02*
X139295238Y-106640380D01*
X139819047Y-107640380D02*
X140342857Y-106973714D01*
X139819047Y-106973714D02*
X140342857Y-107640380D01*
X139604761Y-105100380D02*
X139271428Y-104624190D01*
X139033333Y-105100380D02*
X139033333Y-104100380D01*
X139414285Y-104100380D01*
X139509523Y-104148000D01*
X139557142Y-104195619D01*
X139604761Y-104290857D01*
X139604761Y-104433714D01*
X139557142Y-104528952D01*
X139509523Y-104576571D01*
X139414285Y-104624190D01*
X139033333Y-104624190D01*
X139938095Y-105100380D02*
X140461904Y-104433714D01*
X139938095Y-104433714D02*
X140461904Y-105100380D01*
X137953904Y-109180380D02*
X138572952Y-109180380D01*
X138239619Y-109561333D01*
X138382476Y-109561333D01*
X138477714Y-109608952D01*
X138525333Y-109656571D01*
X138572952Y-109751809D01*
X138572952Y-109989904D01*
X138525333Y-110085142D01*
X138477714Y-110132761D01*
X138382476Y-110180380D01*
X138096761Y-110180380D01*
X138001523Y-110132761D01*
X137953904Y-110085142D01*
X138858666Y-109180380D02*
X139192000Y-110180380D01*
X139525333Y-109180380D01*
X139763428Y-109180380D02*
X140382476Y-109180380D01*
X140049142Y-109561333D01*
X140192000Y-109561333D01*
X140287238Y-109608952D01*
X140334857Y-109656571D01*
X140382476Y-109751809D01*
X140382476Y-109989904D01*
X140334857Y-110085142D01*
X140287238Y-110132761D01*
X140192000Y-110180380D01*
X139906285Y-110180380D01*
X139811047Y-110132761D01*
X139763428Y-110085142D01*
X138430095Y-101608000D02*
X138334857Y-101560380D01*
X138192000Y-101560380D01*
X138049142Y-101608000D01*
X137953904Y-101703238D01*
X137906285Y-101798476D01*
X137858666Y-101988952D01*
X137858666Y-102131809D01*
X137906285Y-102322285D01*
X137953904Y-102417523D01*
X138049142Y-102512761D01*
X138192000Y-102560380D01*
X138287238Y-102560380D01*
X138430095Y-102512761D01*
X138477714Y-102465142D01*
X138477714Y-102131809D01*
X138287238Y-102131809D01*
X138906285Y-102560380D02*
X138906285Y-101560380D01*
X139477714Y-102560380D01*
X139477714Y-101560380D01*
X139953904Y-102560380D02*
X139953904Y-101560380D01*
X140192000Y-101560380D01*
X140334857Y-101608000D01*
X140430095Y-101703238D01*
X140477714Y-101798476D01*
X140525333Y-101988952D01*
X140525333Y-102131809D01*
X140477714Y-102322285D01*
X140430095Y-102417523D01*
X140334857Y-102512761D01*
X140192000Y-102560380D01*
X139953904Y-102560380D01*
X138207904Y-93178380D02*
X138826952Y-93178380D01*
X138493619Y-93559333D01*
X138636476Y-93559333D01*
X138731714Y-93606952D01*
X138779333Y-93654571D01*
X138826952Y-93749809D01*
X138826952Y-93987904D01*
X138779333Y-94083142D01*
X138731714Y-94130761D01*
X138636476Y-94178380D01*
X138350761Y-94178380D01*
X138255523Y-94130761D01*
X138207904Y-94083142D01*
X139112666Y-93178380D02*
X139446000Y-94178380D01*
X139779333Y-93178380D01*
X140017428Y-93178380D02*
X140636476Y-93178380D01*
X140303142Y-93559333D01*
X140446000Y-93559333D01*
X140541238Y-93606952D01*
X140588857Y-93654571D01*
X140636476Y-93749809D01*
X140636476Y-93987904D01*
X140588857Y-94083142D01*
X140541238Y-94130761D01*
X140446000Y-94178380D01*
X140160285Y-94178380D01*
X140065047Y-94130761D01*
X140017428Y-94083142D01*
X138684095Y-88146000D02*
X138588857Y-88098380D01*
X138446000Y-88098380D01*
X138303142Y-88146000D01*
X138207904Y-88241238D01*
X138160285Y-88336476D01*
X138112666Y-88526952D01*
X138112666Y-88669809D01*
X138160285Y-88860285D01*
X138207904Y-88955523D01*
X138303142Y-89050761D01*
X138446000Y-89098380D01*
X138541238Y-89098380D01*
X138684095Y-89050761D01*
X138731714Y-89003142D01*
X138731714Y-88669809D01*
X138541238Y-88669809D01*
X139160285Y-89098380D02*
X139160285Y-88098380D01*
X139731714Y-89098380D01*
X139731714Y-88098380D01*
X140207904Y-89098380D02*
X140207904Y-88098380D01*
X140446000Y-88098380D01*
X140588857Y-88146000D01*
X140684095Y-88241238D01*
X140731714Y-88336476D01*
X140779333Y-88526952D01*
X140779333Y-88669809D01*
X140731714Y-88860285D01*
X140684095Y-88955523D01*
X140588857Y-89050761D01*
X140446000Y-89098380D01*
X140207904Y-89098380D01*
X137644380Y-91590761D02*
X137787238Y-91638380D01*
X138025333Y-91638380D01*
X138120571Y-91590761D01*
X138168190Y-91543142D01*
X138215809Y-91447904D01*
X138215809Y-91352666D01*
X138168190Y-91257428D01*
X138120571Y-91209809D01*
X138025333Y-91162190D01*
X137834857Y-91114571D01*
X137739619Y-91066952D01*
X137692000Y-91019333D01*
X137644380Y-90924095D01*
X137644380Y-90828857D01*
X137692000Y-90733619D01*
X137739619Y-90686000D01*
X137834857Y-90638380D01*
X138072952Y-90638380D01*
X138215809Y-90686000D01*
X138549142Y-90971714D02*
X138787238Y-91638380D01*
X139025333Y-90971714D02*
X138787238Y-91638380D01*
X138692000Y-91876476D01*
X138644380Y-91924095D01*
X138549142Y-91971714D01*
X139406285Y-90971714D02*
X139406285Y-91638380D01*
X139406285Y-91066952D02*
X139453904Y-91019333D01*
X139549142Y-90971714D01*
X139692000Y-90971714D01*
X139787238Y-91019333D01*
X139834857Y-91114571D01*
X139834857Y-91638380D01*
X140739619Y-91590761D02*
X140644380Y-91638380D01*
X140453904Y-91638380D01*
X140358666Y-91590761D01*
X140311047Y-91543142D01*
X140263428Y-91447904D01*
X140263428Y-91162190D01*
X140311047Y-91066952D01*
X140358666Y-91019333D01*
X140453904Y-90971714D01*
X140644380Y-90971714D01*
X140739619Y-91019333D01*
X88519047Y-131821228D02*
X89280952Y-131821228D01*
X86004447Y-131821228D02*
X86766352Y-131821228D01*
X86385400Y-132202180D02*
X86385400Y-131440276D01*
X105296271Y-96645480D02*
X105534366Y-97645480D01*
X105724842Y-96931195D01*
X105915319Y-97645480D01*
X106153414Y-96645480D01*
X106486747Y-97597861D02*
X106629604Y-97645480D01*
X106867700Y-97645480D01*
X106962938Y-97597861D01*
X107010557Y-97550242D01*
X107058176Y-97455004D01*
X107058176Y-97359766D01*
X107010557Y-97264528D01*
X106962938Y-97216909D01*
X106867700Y-97169290D01*
X106677223Y-97121671D01*
X106581985Y-97074052D01*
X106534366Y-97026433D01*
X106486747Y-96931195D01*
X106486747Y-96835957D01*
X106534366Y-96740719D01*
X106581985Y-96693100D01*
X106677223Y-96645480D01*
X106915319Y-96645480D01*
X107058176Y-96693100D01*
X107439128Y-96740719D02*
X107486747Y-96693100D01*
X107581985Y-96645480D01*
X107820080Y-96645480D01*
X107915319Y-96693100D01*
X107962938Y-96740719D01*
X108010557Y-96835957D01*
X108010557Y-96931195D01*
X107962938Y-97074052D01*
X107391509Y-97645480D01*
X108010557Y-97645480D01*
X108581985Y-97074052D02*
X108486747Y-97026433D01*
X108439128Y-96978814D01*
X108391509Y-96883576D01*
X108391509Y-96835957D01*
X108439128Y-96740719D01*
X108486747Y-96693100D01*
X108581985Y-96645480D01*
X108772461Y-96645480D01*
X108867700Y-96693100D01*
X108915319Y-96740719D01*
X108962938Y-96835957D01*
X108962938Y-96883576D01*
X108915319Y-96978814D01*
X108867700Y-97026433D01*
X108772461Y-97074052D01*
X108581985Y-97074052D01*
X108486747Y-97121671D01*
X108439128Y-97169290D01*
X108391509Y-97264528D01*
X108391509Y-97455004D01*
X108439128Y-97550242D01*
X108486747Y-97597861D01*
X108581985Y-97645480D01*
X108772461Y-97645480D01*
X108867700Y-97597861D01*
X108915319Y-97550242D01*
X108962938Y-97455004D01*
X108962938Y-97264528D01*
X108915319Y-97169290D01*
X108867700Y-97121671D01*
X108772461Y-97074052D01*
X109915319Y-97645480D02*
X109343890Y-97645480D01*
X109629604Y-97645480D02*
X109629604Y-96645480D01*
X109534366Y-96788338D01*
X109439128Y-96883576D01*
X109343890Y-96931195D01*
X110820080Y-96645480D02*
X110343890Y-96645480D01*
X110296271Y-97121671D01*
X110343890Y-97074052D01*
X110439128Y-97026433D01*
X110677223Y-97026433D01*
X110772461Y-97074052D01*
X110820080Y-97121671D01*
X110867700Y-97216909D01*
X110867700Y-97455004D01*
X110820080Y-97550242D01*
X110772461Y-97597861D01*
X110677223Y-97645480D01*
X110439128Y-97645480D01*
X110343890Y-97597861D01*
X110296271Y-97550242D01*
X112581985Y-97645480D02*
X112010557Y-97645480D01*
X112296271Y-97645480D02*
X112296271Y-96645480D01*
X112201033Y-96788338D01*
X112105795Y-96883576D01*
X112010557Y-96931195D01*
X112962938Y-96740719D02*
X113010557Y-96693100D01*
X113105795Y-96645480D01*
X113343890Y-96645480D01*
X113439128Y-96693100D01*
X113486747Y-96740719D01*
X113534366Y-96835957D01*
X113534366Y-96931195D01*
X113486747Y-97074052D01*
X112915319Y-97645480D01*
X113534366Y-97645480D01*
X113820080Y-96645480D02*
X114153414Y-97645480D01*
X114486747Y-96645480D01*
X105272461Y-94867480D02*
X105510557Y-95867480D01*
X105701033Y-95153195D01*
X105891509Y-95867480D01*
X106129604Y-94867480D01*
X106462938Y-95819861D02*
X106605795Y-95867480D01*
X106843890Y-95867480D01*
X106939128Y-95819861D01*
X106986747Y-95772242D01*
X107034366Y-95677004D01*
X107034366Y-95581766D01*
X106986747Y-95486528D01*
X106939128Y-95438909D01*
X106843890Y-95391290D01*
X106653414Y-95343671D01*
X106558176Y-95296052D01*
X106510557Y-95248433D01*
X106462938Y-95153195D01*
X106462938Y-95057957D01*
X106510557Y-94962719D01*
X106558176Y-94915100D01*
X106653414Y-94867480D01*
X106891509Y-94867480D01*
X107034366Y-94915100D01*
X107415319Y-94962719D02*
X107462938Y-94915100D01*
X107558176Y-94867480D01*
X107796271Y-94867480D01*
X107891509Y-94915100D01*
X107939128Y-94962719D01*
X107986747Y-95057957D01*
X107986747Y-95153195D01*
X107939128Y-95296052D01*
X107367700Y-95867480D01*
X107986747Y-95867480D01*
X108558176Y-95296052D02*
X108462938Y-95248433D01*
X108415319Y-95200814D01*
X108367700Y-95105576D01*
X108367700Y-95057957D01*
X108415319Y-94962719D01*
X108462938Y-94915100D01*
X108558176Y-94867480D01*
X108748652Y-94867480D01*
X108843890Y-94915100D01*
X108891509Y-94962719D01*
X108939128Y-95057957D01*
X108939128Y-95105576D01*
X108891509Y-95200814D01*
X108843890Y-95248433D01*
X108748652Y-95296052D01*
X108558176Y-95296052D01*
X108462938Y-95343671D01*
X108415319Y-95391290D01*
X108367700Y-95486528D01*
X108367700Y-95677004D01*
X108415319Y-95772242D01*
X108462938Y-95819861D01*
X108558176Y-95867480D01*
X108748652Y-95867480D01*
X108843890Y-95819861D01*
X108891509Y-95772242D01*
X108939128Y-95677004D01*
X108939128Y-95486528D01*
X108891509Y-95391290D01*
X108843890Y-95343671D01*
X108748652Y-95296052D01*
X109891509Y-95867480D02*
X109320080Y-95867480D01*
X109605795Y-95867480D02*
X109605795Y-94867480D01*
X109510557Y-95010338D01*
X109415319Y-95105576D01*
X109320080Y-95153195D01*
X110224842Y-94867480D02*
X110843890Y-94867480D01*
X110510557Y-95248433D01*
X110653414Y-95248433D01*
X110748652Y-95296052D01*
X110796271Y-95343671D01*
X110843890Y-95438909D01*
X110843890Y-95677004D01*
X110796271Y-95772242D01*
X110748652Y-95819861D01*
X110653414Y-95867480D01*
X110367700Y-95867480D01*
X110272461Y-95819861D01*
X110224842Y-95772242D01*
X111605795Y-95343671D02*
X111748652Y-95391290D01*
X111796271Y-95438909D01*
X111843890Y-95534147D01*
X111843890Y-95677004D01*
X111796271Y-95772242D01*
X111748652Y-95819861D01*
X111653414Y-95867480D01*
X111272461Y-95867480D01*
X111272461Y-94867480D01*
X111605795Y-94867480D01*
X111701033Y-94915100D01*
X111748652Y-94962719D01*
X111796271Y-95057957D01*
X111796271Y-95153195D01*
X111748652Y-95248433D01*
X111701033Y-95296052D01*
X111605795Y-95343671D01*
X111272461Y-95343671D01*
X113510557Y-94867480D02*
X113034366Y-94867480D01*
X112986747Y-95343671D01*
X113034366Y-95296052D01*
X113129604Y-95248433D01*
X113367700Y-95248433D01*
X113462938Y-95296052D01*
X113510557Y-95343671D01*
X113558176Y-95438909D01*
X113558176Y-95677004D01*
X113510557Y-95772242D01*
X113462938Y-95819861D01*
X113367700Y-95867480D01*
X113129604Y-95867480D01*
X113034366Y-95819861D01*
X112986747Y-95772242D01*
X113843890Y-94867480D02*
X114177223Y-95867480D01*
X114510557Y-94867480D01*
X105407700Y-92025766D02*
X105883890Y-92025766D01*
X105312461Y-92311480D02*
X105645795Y-91311480D01*
X105979128Y-92311480D01*
X106312461Y-92311480D02*
X106312461Y-91644814D01*
X106312461Y-91835290D02*
X106360080Y-91740052D01*
X106407700Y-91692433D01*
X106502938Y-91644814D01*
X106598176Y-91644814D01*
X106788652Y-91644814D02*
X107169604Y-91644814D01*
X106931509Y-91311480D02*
X106931509Y-92168623D01*
X106979128Y-92263861D01*
X107074366Y-92311480D01*
X107169604Y-92311480D01*
X107502938Y-91930528D02*
X108264842Y-91930528D01*
X108741033Y-92311480D02*
X108741033Y-91311480D01*
X109312461Y-92311480D01*
X109312461Y-91311480D01*
X110169604Y-92263861D02*
X110074366Y-92311480D01*
X109883890Y-92311480D01*
X109788652Y-92263861D01*
X109741033Y-92168623D01*
X109741033Y-91787671D01*
X109788652Y-91692433D01*
X109883890Y-91644814D01*
X110074366Y-91644814D01*
X110169604Y-91692433D01*
X110217223Y-91787671D01*
X110217223Y-91882909D01*
X109741033Y-91978147D01*
X110502938Y-91644814D02*
X110883890Y-91644814D01*
X110645795Y-91311480D02*
X110645795Y-92168623D01*
X110693414Y-92263861D01*
X110788652Y-92311480D01*
X110883890Y-92311480D01*
X111836271Y-91644814D02*
X112217223Y-91644814D01*
X111979128Y-91311480D02*
X111979128Y-92168623D01*
X112026747Y-92263861D01*
X112121985Y-92311480D01*
X112217223Y-92311480D01*
X112693414Y-92311480D02*
X112598176Y-92263861D01*
X112550557Y-92216242D01*
X112502938Y-92121004D01*
X112502938Y-91835290D01*
X112550557Y-91740052D01*
X112598176Y-91692433D01*
X112693414Y-91644814D01*
X112836271Y-91644814D01*
X112931509Y-91692433D01*
X112979128Y-91740052D01*
X113026747Y-91835290D01*
X113026747Y-92121004D01*
X112979128Y-92216242D01*
X112931509Y-92263861D01*
X112836271Y-92311480D01*
X112693414Y-92311480D01*
X114121985Y-91311480D02*
X114360080Y-92311480D01*
X114550557Y-91597195D01*
X114741033Y-92311480D01*
X114979128Y-91311480D01*
X115312461Y-92263861D02*
X115455319Y-92311480D01*
X115693414Y-92311480D01*
X115788652Y-92263861D01*
X115836271Y-92216242D01*
X115883890Y-92121004D01*
X115883890Y-92025766D01*
X115836271Y-91930528D01*
X115788652Y-91882909D01*
X115693414Y-91835290D01*
X115502938Y-91787671D01*
X115407700Y-91740052D01*
X115360080Y-91692433D01*
X115312461Y-91597195D01*
X115312461Y-91501957D01*
X115360080Y-91406719D01*
X115407700Y-91359100D01*
X115502938Y-91311480D01*
X115741033Y-91311480D01*
X115883890Y-91359100D01*
X116264842Y-91406719D02*
X116312461Y-91359100D01*
X116407700Y-91311480D01*
X116645795Y-91311480D01*
X116741033Y-91359100D01*
X116788652Y-91406719D01*
X116836271Y-91501957D01*
X116836271Y-91597195D01*
X116788652Y-91740052D01*
X116217223Y-92311480D01*
X116836271Y-92311480D01*
X117407700Y-91740052D02*
X117312461Y-91692433D01*
X117264842Y-91644814D01*
X117217223Y-91549576D01*
X117217223Y-91501957D01*
X117264842Y-91406719D01*
X117312461Y-91359100D01*
X117407700Y-91311480D01*
X117598176Y-91311480D01*
X117693414Y-91359100D01*
X117741033Y-91406719D01*
X117788652Y-91501957D01*
X117788652Y-91549576D01*
X117741033Y-91644814D01*
X117693414Y-91692433D01*
X117598176Y-91740052D01*
X117407700Y-91740052D01*
X117312461Y-91787671D01*
X117264842Y-91835290D01*
X117217223Y-91930528D01*
X117217223Y-92121004D01*
X117264842Y-92216242D01*
X117312461Y-92263861D01*
X117407700Y-92311480D01*
X117598176Y-92311480D01*
X117693414Y-92263861D01*
X117741033Y-92216242D01*
X117788652Y-92121004D01*
X117788652Y-91930528D01*
X117741033Y-91835290D01*
X117693414Y-91787671D01*
X117598176Y-91740052D01*
X118121985Y-92311480D02*
X118645795Y-91644814D01*
X118121985Y-91644814D02*
X118645795Y-92311480D01*
X118931509Y-92311480D02*
X119455319Y-91644814D01*
X118931509Y-91644814D02*
X119455319Y-92311480D01*
X105399604Y-94089480D02*
X105399604Y-93089480D01*
X105732938Y-93803766D01*
X106066271Y-93089480D01*
X106066271Y-94089480D01*
X106494842Y-93803766D02*
X106971033Y-93803766D01*
X106399604Y-94089480D02*
X106732938Y-93089480D01*
X107066271Y-94089480D01*
X107304366Y-93089480D02*
X107971033Y-94089480D01*
X107971033Y-93089480D02*
X107304366Y-94089480D01*
X109542461Y-93422814D02*
X109542461Y-94089480D01*
X109304366Y-93041861D02*
X109066271Y-93756147D01*
X109685319Y-93756147D01*
X110256747Y-93089480D02*
X110351985Y-93089480D01*
X110447223Y-93137100D01*
X110494842Y-93184719D01*
X110542461Y-93279957D01*
X110590080Y-93470433D01*
X110590080Y-93708528D01*
X110542461Y-93899004D01*
X110494842Y-93994242D01*
X110447223Y-94041861D01*
X110351985Y-94089480D01*
X110256747Y-94089480D01*
X110161509Y-94041861D01*
X110113890Y-93994242D01*
X110066271Y-93899004D01*
X110018652Y-93708528D01*
X110018652Y-93470433D01*
X110066271Y-93279957D01*
X110113890Y-93184719D01*
X110161509Y-93137100D01*
X110256747Y-93089480D01*
X111209128Y-93089480D02*
X111304366Y-93089480D01*
X111399604Y-93137100D01*
X111447223Y-93184719D01*
X111494842Y-93279957D01*
X111542461Y-93470433D01*
X111542461Y-93708528D01*
X111494842Y-93899004D01*
X111447223Y-93994242D01*
X111399604Y-94041861D01*
X111304366Y-94089480D01*
X111209128Y-94089480D01*
X111113890Y-94041861D01*
X111066271Y-93994242D01*
X111018652Y-93899004D01*
X110971033Y-93708528D01*
X110971033Y-93470433D01*
X111018652Y-93279957D01*
X111066271Y-93184719D01*
X111113890Y-93137100D01*
X111209128Y-93089480D01*
X112161509Y-93089480D02*
X112256747Y-93089480D01*
X112351985Y-93137100D01*
X112399604Y-93184719D01*
X112447223Y-93279957D01*
X112494842Y-93470433D01*
X112494842Y-93708528D01*
X112447223Y-93899004D01*
X112399604Y-93994242D01*
X112351985Y-94041861D01*
X112256747Y-94089480D01*
X112161509Y-94089480D01*
X112066271Y-94041861D01*
X112018652Y-93994242D01*
X111971033Y-93899004D01*
X111923414Y-93708528D01*
X111923414Y-93470433D01*
X111971033Y-93279957D01*
X112018652Y-93184719D01*
X112066271Y-93137100D01*
X112161509Y-93089480D01*
X114161509Y-94089480D02*
X113685319Y-94089480D01*
X113685319Y-93089480D01*
X114494842Y-93565671D02*
X114828176Y-93565671D01*
X114971033Y-94089480D02*
X114494842Y-94089480D01*
X114494842Y-93089480D01*
X114971033Y-93089480D01*
X115399604Y-94089480D02*
X115399604Y-93089480D01*
X115637700Y-93089480D01*
X115780557Y-93137100D01*
X115875795Y-93232338D01*
X115923414Y-93327576D01*
X115971033Y-93518052D01*
X115971033Y-93660909D01*
X115923414Y-93851385D01*
X115875795Y-93946623D01*
X115780557Y-94041861D01*
X115637700Y-94089480D01*
X115399604Y-94089480D01*
X116351985Y-94041861D02*
X116494842Y-94089480D01*
X116732938Y-94089480D01*
X116828176Y-94041861D01*
X116875795Y-93994242D01*
X116923414Y-93899004D01*
X116923414Y-93803766D01*
X116875795Y-93708528D01*
X116828176Y-93660909D01*
X116732938Y-93613290D01*
X116542461Y-93565671D01*
X116447223Y-93518052D01*
X116399604Y-93470433D01*
X116351985Y-93375195D01*
X116351985Y-93279957D01*
X116399604Y-93184719D01*
X116447223Y-93137100D01*
X116542461Y-93089480D01*
X116780557Y-93089480D01*
X116923414Y-93137100D01*
X134270738Y-69842047D02*
X134365976Y-69889666D01*
X134413595Y-69937285D01*
X134461214Y-70032523D01*
X134461214Y-70080142D01*
X134413595Y-70175380D01*
X134365976Y-70223000D01*
X134270738Y-70270619D01*
X134080261Y-70270619D01*
X133985023Y-70223000D01*
X133937404Y-70175380D01*
X133889785Y-70080142D01*
X133889785Y-70032523D01*
X133937404Y-69937285D01*
X133985023Y-69889666D01*
X134080261Y-69842047D01*
X134270738Y-69842047D01*
X134365976Y-69794428D01*
X134413595Y-69746809D01*
X134461214Y-69651571D01*
X134461214Y-69461095D01*
X134413595Y-69365857D01*
X134365976Y-69318238D01*
X134270738Y-69270619D01*
X134080261Y-69270619D01*
X133985023Y-69318238D01*
X133937404Y-69365857D01*
X133889785Y-69461095D01*
X133889785Y-69651571D01*
X133937404Y-69746809D01*
X133985023Y-69794428D01*
X134080261Y-69842047D01*
X129428833Y-70207119D02*
X128762166Y-70207119D01*
X129190738Y-69207119D01*
X123761523Y-70207119D02*
X123952000Y-70207119D01*
X124047238Y-70159500D01*
X124094857Y-70111880D01*
X124190095Y-69969023D01*
X124237714Y-69778547D01*
X124237714Y-69397595D01*
X124190095Y-69302357D01*
X124142476Y-69254738D01*
X124047238Y-69207119D01*
X123856761Y-69207119D01*
X123761523Y-69254738D01*
X123713904Y-69302357D01*
X123666285Y-69397595D01*
X123666285Y-69635690D01*
X123713904Y-69730928D01*
X123761523Y-69778547D01*
X123856761Y-69826166D01*
X124047238Y-69826166D01*
X124142476Y-69778547D01*
X124190095Y-69730928D01*
X124237714Y-69635690D01*
X118697404Y-70143619D02*
X119173595Y-70143619D01*
X119221214Y-69667428D01*
X119173595Y-69715047D01*
X119078357Y-69762666D01*
X118840261Y-69762666D01*
X118745023Y-69715047D01*
X118697404Y-69667428D01*
X118649785Y-69572190D01*
X118649785Y-69334095D01*
X118697404Y-69238857D01*
X118745023Y-69191238D01*
X118840261Y-69143619D01*
X119078357Y-69143619D01*
X119173595Y-69191238D01*
X119221214Y-69238857D01*
X106743523Y-69937285D02*
X106743523Y-69270619D01*
X106981619Y-70318238D02*
X107219714Y-69603952D01*
X106600666Y-69603952D01*
X102136533Y-70207119D02*
X101517485Y-70207119D01*
X101850819Y-69826166D01*
X101707961Y-69826166D01*
X101612723Y-69778547D01*
X101565104Y-69730928D01*
X101517485Y-69635690D01*
X101517485Y-69397595D01*
X101565104Y-69302357D01*
X101612723Y-69254738D01*
X101707961Y-69207119D01*
X101993676Y-69207119D01*
X102088914Y-69254738D01*
X102136533Y-69302357D01*
X97008914Y-70111880D02*
X96961295Y-70159500D01*
X96866057Y-70207119D01*
X96627961Y-70207119D01*
X96532723Y-70159500D01*
X96485104Y-70111880D01*
X96437485Y-70016642D01*
X96437485Y-69921404D01*
X96485104Y-69778547D01*
X97056533Y-69207119D01*
X96437485Y-69207119D01*
X91357485Y-69207119D02*
X91928914Y-69207119D01*
X91643200Y-69207119D02*
X91643200Y-70207119D01*
X91738438Y-70064261D01*
X91833676Y-69969023D01*
X91928914Y-69921404D01*
X107471247Y-88990514D02*
X107661723Y-89657180D01*
X107852200Y-89180990D01*
X108042676Y-89657180D01*
X108233152Y-88990514D01*
X108518866Y-88990514D02*
X108709342Y-89657180D01*
X108899819Y-89180990D01*
X109090295Y-89657180D01*
X109280771Y-88990514D01*
X109566485Y-88990514D02*
X109756961Y-89657180D01*
X109947438Y-89180990D01*
X110137914Y-89657180D01*
X110328390Y-88990514D01*
X110709342Y-89561942D02*
X110756961Y-89609561D01*
X110709342Y-89657180D01*
X110661723Y-89609561D01*
X110709342Y-89561942D01*
X110709342Y-89657180D01*
X111042676Y-88990514D02*
X111423628Y-88990514D01*
X111185533Y-88657180D02*
X111185533Y-89514323D01*
X111233152Y-89609561D01*
X111328390Y-89657180D01*
X111423628Y-89657180D01*
X111756961Y-89657180D02*
X111756961Y-88657180D01*
X112185533Y-89657180D02*
X112185533Y-89133371D01*
X112137914Y-89038133D01*
X112042676Y-88990514D01*
X111899819Y-88990514D01*
X111804580Y-89038133D01*
X111756961Y-89085752D01*
X112661723Y-89657180D02*
X112661723Y-88990514D01*
X112661723Y-88657180D02*
X112614104Y-88704800D01*
X112661723Y-88752419D01*
X112709342Y-88704800D01*
X112661723Y-88657180D01*
X112661723Y-88752419D01*
X113518866Y-89609561D02*
X113423628Y-89657180D01*
X113233152Y-89657180D01*
X113137914Y-89609561D01*
X113090295Y-89514323D01*
X113090295Y-89133371D01*
X113137914Y-89038133D01*
X113233152Y-88990514D01*
X113423628Y-88990514D01*
X113518866Y-89038133D01*
X113566485Y-89133371D01*
X113566485Y-89228609D01*
X113090295Y-89323847D01*
X114423628Y-88990514D02*
X114423628Y-89657180D01*
X113995057Y-88990514D02*
X113995057Y-89514323D01*
X114042676Y-89609561D01*
X114137914Y-89657180D01*
X114280771Y-89657180D01*
X114376009Y-89609561D01*
X114423628Y-89561942D01*
X114899819Y-89561942D02*
X114947438Y-89609561D01*
X114899819Y-89657180D01*
X114852200Y-89609561D01*
X114899819Y-89561942D01*
X114899819Y-89657180D01*
X115804580Y-88990514D02*
X115804580Y-89800038D01*
X115756961Y-89895276D01*
X115709342Y-89942895D01*
X115614104Y-89990514D01*
X115471247Y-89990514D01*
X115376009Y-89942895D01*
X115804580Y-89609561D02*
X115709342Y-89657180D01*
X115518866Y-89657180D01*
X115423628Y-89609561D01*
X115376009Y-89561942D01*
X115328390Y-89466704D01*
X115328390Y-89180990D01*
X115376009Y-89085752D01*
X115423628Y-89038133D01*
X115518866Y-88990514D01*
X115709342Y-88990514D01*
X115804580Y-89038133D01*
X116661723Y-89609561D02*
X116566485Y-89657180D01*
X116376009Y-89657180D01*
X116280771Y-89609561D01*
X116233152Y-89514323D01*
X116233152Y-89133371D01*
X116280771Y-89038133D01*
X116376009Y-88990514D01*
X116566485Y-88990514D01*
X116661723Y-89038133D01*
X116709342Y-89133371D01*
X116709342Y-89228609D01*
X116233152Y-89323847D01*
X117137914Y-88990514D02*
X117137914Y-89657180D01*
X117137914Y-89085752D02*
X117185533Y-89038133D01*
X117280771Y-88990514D01*
X117423628Y-88990514D01*
X117518866Y-89038133D01*
X117566485Y-89133371D01*
X117566485Y-89657180D01*
X117899819Y-88990514D02*
X118280771Y-88990514D01*
X118042676Y-88657180D02*
X118042676Y-89514323D01*
X118090295Y-89609561D01*
X118185533Y-89657180D01*
X118280771Y-89657180D01*
D11*
X110853790Y-86802980D02*
X111425219Y-86802980D01*
X111139504Y-87802980D02*
X111139504Y-86802980D01*
X111758552Y-87802980D02*
X111758552Y-86802980D01*
X111758552Y-87279171D02*
X112329980Y-87279171D01*
X112329980Y-87802980D02*
X112329980Y-86802980D01*
X112806171Y-87802980D02*
X112806171Y-86802980D01*
X113282361Y-87279171D02*
X113615695Y-87279171D01*
X113758552Y-87802980D02*
X113282361Y-87802980D01*
X113282361Y-86802980D01*
X113758552Y-86802980D01*
X114187123Y-86802980D02*
X114187123Y-87612504D01*
X114234742Y-87707742D01*
X114282361Y-87755361D01*
X114377600Y-87802980D01*
X114568076Y-87802980D01*
X114663314Y-87755361D01*
X114710933Y-87707742D01*
X114758552Y-87612504D01*
X114758552Y-86802980D01*
D10*
X96123619Y-102322380D02*
X96695047Y-102322380D01*
X96409333Y-103322380D02*
X96409333Y-102322380D01*
X97409333Y-103274761D02*
X97314095Y-103322380D01*
X97123619Y-103322380D01*
X97028380Y-103274761D01*
X96980761Y-103179523D01*
X96980761Y-102798571D01*
X97028380Y-102703333D01*
X97123619Y-102655714D01*
X97314095Y-102655714D01*
X97409333Y-102703333D01*
X97456952Y-102798571D01*
X97456952Y-102893809D01*
X96980761Y-102989047D01*
X98266476Y-103274761D02*
X98171238Y-103322380D01*
X97980761Y-103322380D01*
X97885523Y-103274761D01*
X97837904Y-103179523D01*
X97837904Y-102798571D01*
X97885523Y-102703333D01*
X97980761Y-102655714D01*
X98171238Y-102655714D01*
X98266476Y-102703333D01*
X98314095Y-102798571D01*
X98314095Y-102893809D01*
X97837904Y-102989047D01*
X98742666Y-102655714D02*
X98742666Y-103322380D01*
X98742666Y-102750952D02*
X98790285Y-102703333D01*
X98885523Y-102655714D01*
X99028380Y-102655714D01*
X99123619Y-102703333D01*
X99171238Y-102798571D01*
X99171238Y-103322380D01*
X99599809Y-103274761D02*
X99695047Y-103322380D01*
X99885523Y-103322380D01*
X99980761Y-103274761D01*
X100028380Y-103179523D01*
X100028380Y-103131904D01*
X99980761Y-103036666D01*
X99885523Y-102989047D01*
X99742666Y-102989047D01*
X99647428Y-102941428D01*
X99599809Y-102846190D01*
X99599809Y-102798571D01*
X99647428Y-102703333D01*
X99742666Y-102655714D01*
X99885523Y-102655714D01*
X99980761Y-102703333D01*
X100361714Y-102655714D02*
X100599809Y-103322380D01*
X100837904Y-102655714D02*
X100599809Y-103322380D01*
X100504571Y-103560476D01*
X100456952Y-103608095D01*
X100361714Y-103655714D01*
X101885523Y-102322380D02*
X102504571Y-102322380D01*
X102171238Y-102703333D01*
X102314095Y-102703333D01*
X102409333Y-102750952D01*
X102456952Y-102798571D01*
X102504571Y-102893809D01*
X102504571Y-103131904D01*
X102456952Y-103227142D01*
X102409333Y-103274761D01*
X102314095Y-103322380D01*
X102028380Y-103322380D01*
X101933142Y-103274761D01*
X101885523Y-103227142D01*
X102933142Y-103227142D02*
X102980761Y-103274761D01*
X102933142Y-103322380D01*
X102885523Y-103274761D01*
X102933142Y-103227142D01*
X102933142Y-103322380D01*
X103361714Y-102417619D02*
X103409333Y-102370000D01*
X103504571Y-102322380D01*
X103742666Y-102322380D01*
X103837904Y-102370000D01*
X103885523Y-102417619D01*
X103933142Y-102512857D01*
X103933142Y-102608095D01*
X103885523Y-102750952D01*
X103314095Y-103322380D01*
X103933142Y-103322380D01*
X123301523Y-112990380D02*
X123539619Y-113990380D01*
X123730095Y-113276095D01*
X123920571Y-113990380D01*
X124158666Y-112990380D01*
X124539619Y-113990380D02*
X124539619Y-113323714D01*
X124539619Y-112990380D02*
X124492000Y-113038000D01*
X124539619Y-113085619D01*
X124587238Y-113038000D01*
X124539619Y-112990380D01*
X124539619Y-113085619D01*
X124920571Y-113323714D02*
X125444380Y-113323714D01*
X124920571Y-113990380D01*
X125444380Y-113990380D01*
X125968190Y-113418952D02*
X125872952Y-113371333D01*
X125825333Y-113323714D01*
X125777714Y-113228476D01*
X125777714Y-113180857D01*
X125825333Y-113085619D01*
X125872952Y-113038000D01*
X125968190Y-112990380D01*
X126158666Y-112990380D01*
X126253904Y-113038000D01*
X126301523Y-113085619D01*
X126349142Y-113180857D01*
X126349142Y-113228476D01*
X126301523Y-113323714D01*
X126253904Y-113371333D01*
X126158666Y-113418952D01*
X125968190Y-113418952D01*
X125872952Y-113466571D01*
X125825333Y-113514190D01*
X125777714Y-113609428D01*
X125777714Y-113799904D01*
X125825333Y-113895142D01*
X125872952Y-113942761D01*
X125968190Y-113990380D01*
X126158666Y-113990380D01*
X126253904Y-113942761D01*
X126301523Y-113895142D01*
X126349142Y-113799904D01*
X126349142Y-113609428D01*
X126301523Y-113514190D01*
X126253904Y-113466571D01*
X126158666Y-113418952D01*
X127253904Y-112990380D02*
X126777714Y-112990380D01*
X126730095Y-113466571D01*
X126777714Y-113418952D01*
X126872952Y-113371333D01*
X127111047Y-113371333D01*
X127206285Y-113418952D01*
X127253904Y-113466571D01*
X127301523Y-113561809D01*
X127301523Y-113799904D01*
X127253904Y-113895142D01*
X127206285Y-113942761D01*
X127111047Y-113990380D01*
X126872952Y-113990380D01*
X126777714Y-113942761D01*
X126730095Y-113895142D01*
X127920571Y-112990380D02*
X128015809Y-112990380D01*
X128111047Y-113038000D01*
X128158666Y-113085619D01*
X128206285Y-113180857D01*
X128253904Y-113371333D01*
X128253904Y-113609428D01*
X128206285Y-113799904D01*
X128158666Y-113895142D01*
X128111047Y-113942761D01*
X128015809Y-113990380D01*
X127920571Y-113990380D01*
X127825333Y-113942761D01*
X127777714Y-113895142D01*
X127730095Y-113799904D01*
X127682476Y-113609428D01*
X127682476Y-113371333D01*
X127730095Y-113180857D01*
X127777714Y-113085619D01*
X127825333Y-113038000D01*
X127920571Y-112990380D01*
X128682476Y-113990380D02*
X128682476Y-113323714D01*
X128682476Y-112990380D02*
X128634857Y-113038000D01*
X128682476Y-113085619D01*
X128730095Y-113038000D01*
X128682476Y-112990380D01*
X128682476Y-113085619D01*
X129301523Y-113990380D02*
X129206285Y-113942761D01*
X129158666Y-113895142D01*
X129111047Y-113799904D01*
X129111047Y-113514190D01*
X129158666Y-113418952D01*
X129206285Y-113371333D01*
X129301523Y-113323714D01*
X129444380Y-113323714D01*
X129539619Y-113371333D01*
X129587238Y-113418952D01*
X129634857Y-113514190D01*
X129634857Y-113799904D01*
X129587238Y-113895142D01*
X129539619Y-113942761D01*
X129444380Y-113990380D01*
X129301523Y-113990380D01*
D12*
X120660500Y-102472500D02*
X120660500Y-97472500D01*
X133720500Y-100472500D02*
X133720500Y-94472500D01*
D10*
X104140000Y-139700000D02*
X104140000Y-140970000D01*
X104140000Y-140970000D02*
X96520000Y-140970000D01*
X96520000Y-140970000D02*
X96520000Y-139700000D01*
X105410000Y-128270000D02*
X105410000Y-124460000D01*
X105410000Y-124460000D02*
X102870000Y-124460000D01*
X102870000Y-124460000D02*
X102870000Y-128270000D01*
X102870000Y-128270000D02*
X105410000Y-128270000D01*
X104140000Y-134620000D02*
X96520000Y-134620000D01*
X96520000Y-134620000D02*
X96520000Y-139700000D01*
X104140000Y-134620000D02*
X104140000Y-139700000D01*
X105410000Y-133350000D02*
X105410000Y-130810000D01*
X105410000Y-130810000D02*
X102870000Y-130810000D01*
X102870000Y-130810000D02*
X102870000Y-133350000D01*
X102870000Y-133350000D02*
X105410000Y-133350000D01*
X97790000Y-106680000D02*
X102870000Y-106680000D01*
X102870000Y-106680000D02*
X102870000Y-109220000D01*
X102870000Y-109220000D02*
X97790000Y-109220000D01*
X97790000Y-109220000D02*
X97790000Y-106680000D01*
X105410000Y-113030000D02*
X95250000Y-113030000D01*
X95250000Y-121920000D02*
X105410000Y-121920000D01*
X95250000Y-113030000D02*
X95250000Y-121920000D01*
X105410000Y-113030000D02*
X105410000Y-121920000D01*
X91440000Y-139700000D02*
X91440000Y-104140000D01*
X91440000Y-104140000D02*
X109220000Y-104140000D01*
X109220000Y-104140000D02*
X109220000Y-139700000D01*
X109220000Y-139700000D02*
X91440000Y-139700000D01*
D12*
X72125800Y-110694400D02*
X72125800Y-105994400D01*
X74025800Y-110694400D02*
X74025800Y-105994400D01*
X72125800Y-110694400D02*
X74025800Y-110694400D01*
D10*
X84830920Y-132791200D02*
X84830920Y-138988800D01*
X90429080Y-132791200D02*
X84830920Y-132791200D01*
X90429080Y-138988800D02*
X90429080Y-132791200D01*
X84830920Y-138988800D02*
X90429080Y-138988800D01*
X84830920Y-133189980D02*
X90429080Y-133189980D01*
X87630000Y-138988800D02*
X87630000Y-138490960D01*
X90230960Y-138490960D02*
X90230960Y-138988800D01*
X85029040Y-138988800D02*
X85029040Y-138490960D01*
X90429080Y-138490960D02*
X84830920Y-138490960D01*
X141935200Y-111213900D02*
X148132800Y-111213900D01*
X148132800Y-100619560D02*
X141935200Y-100619560D01*
X148132800Y-108414820D02*
X147634960Y-108414820D01*
X147634960Y-100817680D02*
X148132800Y-100817680D01*
X148132800Y-111015780D02*
X147634960Y-111015780D01*
X147634960Y-105918000D02*
X148132800Y-105918000D01*
X147634960Y-103421180D02*
X148132800Y-103421180D01*
X148132800Y-100617020D02*
X148132800Y-111218980D01*
X147634960Y-111218980D02*
X147634960Y-100617020D01*
X142333980Y-111218980D02*
X142333980Y-100617020D01*
X141935200Y-100617020D02*
X141935200Y-111218980D01*
X141935200Y-95029020D02*
X148132800Y-95029020D01*
X148132800Y-86832440D02*
X141935200Y-86832440D01*
X148132800Y-92229940D02*
X147634960Y-92229940D01*
X147634960Y-87030560D02*
X148132800Y-87030560D01*
X148132800Y-94830900D02*
X147634960Y-94830900D01*
X147634960Y-89631520D02*
X148132800Y-89631520D01*
X148132800Y-95031560D02*
X148132800Y-86832440D01*
X147634960Y-86832440D02*
X147634960Y-95031560D01*
X142333980Y-86832440D02*
X142333980Y-95031560D01*
X141935200Y-86832440D02*
X141935200Y-95031560D01*
X110931960Y-70891400D02*
X90134440Y-70891400D01*
X90134440Y-71290180D02*
X110931960Y-71290180D01*
X110931960Y-77089000D02*
X90134440Y-77089000D01*
X90134440Y-76591160D02*
X110931960Y-76591160D01*
X100533200Y-76591160D02*
X100533200Y-77089000D01*
X108132880Y-76591160D02*
X108132880Y-77089000D01*
X105633520Y-76591160D02*
X105633520Y-77089000D01*
X103035100Y-76591160D02*
X103035100Y-77089000D01*
X98033840Y-76591160D02*
X98033840Y-77089000D01*
X95435420Y-76591160D02*
X95435420Y-77089000D01*
X90335100Y-77089000D02*
X90335100Y-76591160D01*
X110731300Y-76591160D02*
X110731300Y-77089000D01*
X92938600Y-77089000D02*
X92938600Y-76591160D01*
X110929420Y-77089000D02*
X110929420Y-70891400D01*
X90136980Y-70891400D02*
X90136980Y-77089000D01*
X117365780Y-70891400D02*
X117365780Y-77089000D01*
X138158220Y-77089000D02*
X138158220Y-70891400D01*
X120167400Y-77089000D02*
X120167400Y-76591160D01*
X137960100Y-76591160D02*
X137960100Y-77089000D01*
X117563900Y-77089000D02*
X117563900Y-76591160D01*
X122664220Y-76591160D02*
X122664220Y-77089000D01*
X125262640Y-76591160D02*
X125262640Y-77089000D01*
X130263900Y-76591160D02*
X130263900Y-77089000D01*
X132862320Y-76591160D02*
X132862320Y-77089000D01*
X135361680Y-76591160D02*
X135361680Y-77089000D01*
X127762000Y-76591160D02*
X127762000Y-77089000D01*
X117363240Y-76591160D02*
X138160760Y-76591160D01*
X138160760Y-77089000D02*
X117363240Y-77089000D01*
X117363240Y-71290180D02*
X138160760Y-71290180D01*
X138160760Y-70891400D02*
X117363240Y-70891400D01*
D12*
X83042000Y-136644600D02*
X81042000Y-136644600D01*
X83042000Y-132544600D02*
X83042000Y-136644600D01*
X81042000Y-132544600D02*
X83042000Y-132544600D01*
X81042000Y-136644600D02*
X81042000Y-132544600D01*
X146104000Y-117364000D02*
X146104000Y-119364000D01*
X143964000Y-119364000D02*
X143964000Y-117364000D01*
X99330000Y-133550000D02*
X101330000Y-133550000D01*
X101330000Y-135690000D02*
X99330000Y-135690000D01*
X126730000Y-131880000D02*
X124730000Y-131880000D01*
X124730000Y-129740000D02*
X126730000Y-129740000D01*
D10*
X118950000Y-143150000D02*
X118900000Y-116400000D01*
X126950000Y-116400000D02*
X118950000Y-116400000D01*
X135000000Y-116400000D02*
X127000000Y-116400000D01*
X135050000Y-143150000D02*
X135000000Y-116400000D01*
X126950000Y-143150000D02*
X118950000Y-143150000D01*
X135050000Y-143150000D02*
X127050000Y-143150000D01*
X138500000Y-114750000D02*
X115600000Y-114750000D01*
X138500000Y-139750000D02*
X138500000Y-114750000D01*
X115500000Y-139750000D02*
X115500000Y-114750000D01*
X127000000Y-139750000D02*
X138500000Y-139750000D01*
X127000000Y-139750000D02*
X115500000Y-139750000D01*
D12*
X127280000Y-128200000D02*
X127280000Y-125250000D01*
X124180000Y-125800000D02*
X124180000Y-128200000D01*
X74588000Y-126246000D02*
X74588000Y-127246000D01*
X76288000Y-127246000D02*
X76288000Y-126246000D01*
X125230000Y-134200000D02*
X126230000Y-134200000D01*
X126230000Y-132500000D02*
X125230000Y-132500000D01*
X99855400Y-139305400D02*
X100855400Y-139305400D01*
X100855400Y-137605400D02*
X99855400Y-137605400D01*
X74002000Y-127246000D02*
X74002000Y-126246000D01*
X72302000Y-126246000D02*
X72302000Y-127246000D01*
X83654000Y-127246000D02*
X83654000Y-126246000D01*
X81954000Y-126246000D02*
X81954000Y-127246000D01*
X77128000Y-126226000D02*
X77128000Y-127226000D01*
X78828000Y-127226000D02*
X78828000Y-126226000D01*
X86526000Y-126246000D02*
X86526000Y-127246000D01*
X88226000Y-127246000D02*
X88226000Y-126246000D01*
X92713200Y-80711800D02*
X92713200Y-82711800D01*
X90573200Y-82711800D02*
X90573200Y-80711800D01*
X102873200Y-80711800D02*
X102873200Y-82711800D01*
X100733200Y-82711800D02*
X100733200Y-80711800D01*
X117827400Y-82661000D02*
X117827400Y-80661000D01*
X119967400Y-80661000D02*
X119967400Y-82661000D01*
X130178200Y-80635600D02*
X130178200Y-82635600D01*
X128038200Y-82635600D02*
X128038200Y-80635600D01*
X95627800Y-82711800D02*
X95627800Y-80711800D01*
X97767800Y-80711800D02*
X97767800Y-82711800D01*
X107978600Y-80610200D02*
X107978600Y-82610200D01*
X105838600Y-82610200D02*
X105838600Y-80610200D01*
X122882000Y-82711800D02*
X122882000Y-80711800D01*
X125022000Y-80711800D02*
X125022000Y-82711800D01*
X133042000Y-82584800D02*
X133042000Y-80584800D01*
X135182000Y-80584800D02*
X135182000Y-82584800D01*
X78955001Y-116015001D02*
X77695001Y-116015001D01*
X72135001Y-116015001D02*
X73395001Y-116015001D01*
X78955001Y-119775001D02*
X78955001Y-116015001D01*
X72135001Y-122025001D02*
X72135001Y-116015001D01*
X81680000Y-122210000D02*
X81680000Y-116200000D01*
X88500000Y-119960000D02*
X88500000Y-116200000D01*
X81680000Y-116200000D02*
X82940000Y-116200000D01*
X88500000Y-116200000D02*
X87240000Y-116200000D01*
X75815800Y-108594400D02*
X75815800Y-106594400D01*
X77955800Y-106594400D02*
X77955800Y-108594400D01*
D10*
X72148700Y-103233220D02*
X78346300Y-103233220D01*
X78346300Y-82440780D02*
X72148700Y-82440780D01*
X78346300Y-100431600D02*
X77848460Y-100431600D01*
X77848460Y-82638900D02*
X78346300Y-82638900D01*
X78346300Y-103035100D02*
X77848460Y-103035100D01*
X77848460Y-97934780D02*
X78346300Y-97934780D01*
X77848460Y-95336360D02*
X78346300Y-95336360D01*
X77848460Y-90335100D02*
X78346300Y-90335100D01*
X77848460Y-87736680D02*
X78346300Y-87736680D01*
X77848460Y-85237320D02*
X78346300Y-85237320D01*
X77848460Y-92837000D02*
X78346300Y-92837000D01*
X77848460Y-103235760D02*
X77848460Y-82438240D01*
X78346300Y-82438240D02*
X78346300Y-103235760D01*
X72547480Y-103235760D02*
X72547480Y-82438240D01*
X72148700Y-82438240D02*
X72148700Y-103235760D01*
D12*
X81867500Y-100657000D02*
X83867500Y-100657000D01*
X83867500Y-102797000D02*
X81867500Y-102797000D01*
X81867500Y-90497000D02*
X83867500Y-90497000D01*
X83867500Y-92637000D02*
X81867500Y-92637000D01*
X83867500Y-97653500D02*
X81867500Y-97653500D01*
X81867500Y-95513500D02*
X83867500Y-95513500D01*
X83867500Y-87557000D02*
X81867500Y-87557000D01*
X81867500Y-85417000D02*
X83867500Y-85417000D01*
X99869000Y-100002000D02*
X94869000Y-100002000D01*
X97869000Y-86942000D02*
X91869000Y-86942000D01*
X81778600Y-80692600D02*
X83778600Y-80692600D01*
X83778600Y-82832600D02*
X81778600Y-82832600D01*
D10*
X119222880Y-101924404D02*
X120032404Y-101924404D01*
X120127642Y-101876785D01*
X120175261Y-101829166D01*
X120222880Y-101733928D01*
X120222880Y-101543452D01*
X120175261Y-101448214D01*
X120127642Y-101400595D01*
X120032404Y-101352976D01*
X119222880Y-101352976D01*
X119222880Y-100448214D02*
X119222880Y-100638690D01*
X119270500Y-100733928D01*
X119318119Y-100781547D01*
X119460976Y-100876785D01*
X119651452Y-100924404D01*
X120032404Y-100924404D01*
X120127642Y-100876785D01*
X120175261Y-100829166D01*
X120222880Y-100733928D01*
X120222880Y-100543452D01*
X120175261Y-100448214D01*
X120127642Y-100400595D01*
X120032404Y-100352976D01*
X119794309Y-100352976D01*
X119699071Y-100400595D01*
X119651452Y-100448214D01*
X119603833Y-100543452D01*
X119603833Y-100733928D01*
X119651452Y-100829166D01*
X119699071Y-100876785D01*
X119794309Y-100924404D01*
X102362095Y-122642380D02*
X102362095Y-123451904D01*
X102409714Y-123547142D01*
X102457333Y-123594761D01*
X102552571Y-123642380D01*
X102743047Y-123642380D01*
X102838285Y-123594761D01*
X102885904Y-123547142D01*
X102933523Y-123451904D01*
X102933523Y-122642380D01*
X103362095Y-122737619D02*
X103409714Y-122690000D01*
X103504952Y-122642380D01*
X103743047Y-122642380D01*
X103838285Y-122690000D01*
X103885904Y-122737619D01*
X103933523Y-122832857D01*
X103933523Y-122928095D01*
X103885904Y-123070952D01*
X103314476Y-123642380D01*
X103933523Y-123642380D01*
X96313809Y-131532380D02*
X96885238Y-131532380D01*
X96599523Y-132532380D02*
X96599523Y-131532380D01*
X97123333Y-131532380D02*
X97742380Y-131532380D01*
X97409047Y-131913333D01*
X97551904Y-131913333D01*
X97647142Y-131960952D01*
X97694761Y-132008571D01*
X97742380Y-132103809D01*
X97742380Y-132341904D01*
X97694761Y-132437142D01*
X97647142Y-132484761D01*
X97551904Y-132532380D01*
X97266190Y-132532380D01*
X97170952Y-132484761D01*
X97123333Y-132437142D01*
X98170952Y-132437142D02*
X98218571Y-132484761D01*
X98170952Y-132532380D01*
X98123333Y-132484761D01*
X98170952Y-132437142D01*
X98170952Y-132532380D01*
X98599523Y-131627619D02*
X98647142Y-131580000D01*
X98742380Y-131532380D01*
X98980476Y-131532380D01*
X99075714Y-131580000D01*
X99123333Y-131627619D01*
X99170952Y-131722857D01*
X99170952Y-131818095D01*
X99123333Y-131960952D01*
X98551904Y-132532380D01*
X99170952Y-132532380D01*
X96313809Y-127722380D02*
X96885238Y-127722380D01*
X96599523Y-128722380D02*
X96599523Y-127722380D01*
X97123333Y-127722380D02*
X97742380Y-127722380D01*
X97409047Y-128103333D01*
X97551904Y-128103333D01*
X97647142Y-128150952D01*
X97694761Y-128198571D01*
X97742380Y-128293809D01*
X97742380Y-128531904D01*
X97694761Y-128627142D01*
X97647142Y-128674761D01*
X97551904Y-128722380D01*
X97266190Y-128722380D01*
X97170952Y-128674761D01*
X97123333Y-128627142D01*
X98170952Y-128627142D02*
X98218571Y-128674761D01*
X98170952Y-128722380D01*
X98123333Y-128674761D01*
X98170952Y-128627142D01*
X98170952Y-128722380D01*
X99170952Y-128722380D02*
X98599523Y-128722380D01*
X98885238Y-128722380D02*
X98885238Y-127722380D01*
X98790000Y-127865238D01*
X98694761Y-127960476D01*
X98599523Y-128008095D01*
X72413904Y-112186980D02*
X72413904Y-111186980D01*
X72652000Y-111186980D01*
X72794857Y-111234600D01*
X72890095Y-111329838D01*
X72937714Y-111425076D01*
X72985333Y-111615552D01*
X72985333Y-111758409D01*
X72937714Y-111948885D01*
X72890095Y-112044123D01*
X72794857Y-112139361D01*
X72652000Y-112186980D01*
X72413904Y-112186980D01*
X73937714Y-112186980D02*
X73366285Y-112186980D01*
X73652000Y-112186980D02*
X73652000Y-111186980D01*
X73556761Y-111329838D01*
X73461523Y-111425076D01*
X73366285Y-111472695D01*
X87271266Y-133488180D02*
X87271266Y-134202466D01*
X87223647Y-134345323D01*
X87128409Y-134440561D01*
X86985552Y-134488180D01*
X86890314Y-134488180D01*
X88271266Y-134488180D02*
X87699838Y-134488180D01*
X87985552Y-134488180D02*
X87985552Y-133488180D01*
X87890314Y-133631038D01*
X87795076Y-133726276D01*
X87699838Y-133773895D01*
X144700666Y-98258380D02*
X144700666Y-98972666D01*
X144653047Y-99115523D01*
X144557809Y-99210761D01*
X144414952Y-99258380D01*
X144319714Y-99258380D01*
X145129238Y-98353619D02*
X145176857Y-98306000D01*
X145272095Y-98258380D01*
X145510190Y-98258380D01*
X145605428Y-98306000D01*
X145653047Y-98353619D01*
X145700666Y-98448857D01*
X145700666Y-98544095D01*
X145653047Y-98686952D01*
X145081619Y-99258380D01*
X145700666Y-99258380D01*
X144700666Y-84542380D02*
X144700666Y-85256666D01*
X144653047Y-85399523D01*
X144557809Y-85494761D01*
X144414952Y-85542380D01*
X144319714Y-85542380D01*
X145081619Y-84542380D02*
X145700666Y-84542380D01*
X145367333Y-84923333D01*
X145510190Y-84923333D01*
X145605428Y-84970952D01*
X145653047Y-85018571D01*
X145700666Y-85113809D01*
X145700666Y-85351904D01*
X145653047Y-85447142D01*
X145605428Y-85494761D01*
X145510190Y-85542380D01*
X145224476Y-85542380D01*
X145129238Y-85494761D01*
X145081619Y-85447142D01*
X112137866Y-73442580D02*
X112137866Y-74156866D01*
X112090247Y-74299723D01*
X111995009Y-74394961D01*
X111852152Y-74442580D01*
X111756914Y-74442580D01*
X113042628Y-73775914D02*
X113042628Y-74442580D01*
X112804533Y-73394961D02*
X112566438Y-74109247D01*
X113185485Y-74109247D01*
X115427166Y-73429880D02*
X115427166Y-74144166D01*
X115379547Y-74287023D01*
X115284309Y-74382261D01*
X115141452Y-74429880D01*
X115046214Y-74429880D01*
X116379547Y-73429880D02*
X115903357Y-73429880D01*
X115855738Y-73906071D01*
X115903357Y-73858452D01*
X115998595Y-73810833D01*
X116236690Y-73810833D01*
X116331928Y-73858452D01*
X116379547Y-73906071D01*
X116427166Y-74001309D01*
X116427166Y-74239404D01*
X116379547Y-74334642D01*
X116331928Y-74382261D01*
X116236690Y-74429880D01*
X115998595Y-74429880D01*
X115903357Y-74382261D01*
X115855738Y-74334642D01*
X81208666Y-138161780D02*
X81208666Y-138876066D01*
X81161047Y-139018923D01*
X81065809Y-139114161D01*
X80922952Y-139161780D01*
X80827714Y-139161780D01*
X81684857Y-139161780D02*
X81684857Y-138161780D01*
X82065809Y-138161780D01*
X82161047Y-138209400D01*
X82208666Y-138257019D01*
X82256285Y-138352257D01*
X82256285Y-138495114D01*
X82208666Y-138590352D01*
X82161047Y-138637971D01*
X82065809Y-138685590D01*
X81684857Y-138685590D01*
X83208666Y-139161780D02*
X82637238Y-139161780D01*
X82922952Y-139161780D02*
X82922952Y-138161780D01*
X82827714Y-138304638D01*
X82732476Y-138399876D01*
X82637238Y-138447495D01*
X81494380Y-132327933D02*
X81494380Y-131708885D01*
X81875333Y-132042219D01*
X81875333Y-131899361D01*
X81922952Y-131804123D01*
X81970571Y-131756504D01*
X82065809Y-131708885D01*
X82303904Y-131708885D01*
X82399142Y-131756504D01*
X82446761Y-131804123D01*
X82494380Y-131899361D01*
X82494380Y-132185076D01*
X82446761Y-132280314D01*
X82399142Y-132327933D01*
X82494380Y-136908885D02*
X82494380Y-137480314D01*
X82494380Y-137194600D02*
X81494380Y-137194600D01*
X81637238Y-137289838D01*
X81732476Y-137385076D01*
X81780095Y-137480314D01*
X142327333Y-119070380D02*
X141994000Y-118594190D01*
X141755904Y-119070380D02*
X141755904Y-118070380D01*
X142136857Y-118070380D01*
X142232095Y-118118000D01*
X142279714Y-118165619D01*
X142327333Y-118260857D01*
X142327333Y-118403714D01*
X142279714Y-118498952D01*
X142232095Y-118546571D01*
X142136857Y-118594190D01*
X141755904Y-118594190D01*
X143279714Y-119070380D02*
X142708285Y-119070380D01*
X142994000Y-119070380D02*
X142994000Y-118070380D01*
X142898761Y-118213238D01*
X142803523Y-118308476D01*
X142708285Y-118356095D01*
X105021142Y-135072380D02*
X104687809Y-134596190D01*
X104449714Y-135072380D02*
X104449714Y-134072380D01*
X104830666Y-134072380D01*
X104925904Y-134120000D01*
X104973523Y-134167619D01*
X105021142Y-134262857D01*
X105021142Y-134405714D01*
X104973523Y-134500952D01*
X104925904Y-134548571D01*
X104830666Y-134596190D01*
X104449714Y-134596190D01*
X105402095Y-134167619D02*
X105449714Y-134120000D01*
X105544952Y-134072380D01*
X105783047Y-134072380D01*
X105878285Y-134120000D01*
X105925904Y-134167619D01*
X105973523Y-134262857D01*
X105973523Y-134358095D01*
X105925904Y-134500952D01*
X105354476Y-135072380D01*
X105973523Y-135072380D01*
X106830666Y-134072380D02*
X106640190Y-134072380D01*
X106544952Y-134120000D01*
X106497333Y-134167619D01*
X106402095Y-134310476D01*
X106354476Y-134500952D01*
X106354476Y-134881904D01*
X106402095Y-134977142D01*
X106449714Y-135024761D01*
X106544952Y-135072380D01*
X106735428Y-135072380D01*
X106830666Y-135024761D01*
X106878285Y-134977142D01*
X106925904Y-134881904D01*
X106925904Y-134643809D01*
X106878285Y-134548571D01*
X106830666Y-134500952D01*
X106735428Y-134453333D01*
X106544952Y-134453333D01*
X106449714Y-134500952D01*
X106402095Y-134548571D01*
X106354476Y-134643809D01*
X130421142Y-131262380D02*
X130087809Y-130786190D01*
X129849714Y-131262380D02*
X129849714Y-130262380D01*
X130230666Y-130262380D01*
X130325904Y-130310000D01*
X130373523Y-130357619D01*
X130421142Y-130452857D01*
X130421142Y-130595714D01*
X130373523Y-130690952D01*
X130325904Y-130738571D01*
X130230666Y-130786190D01*
X129849714Y-130786190D01*
X130802095Y-130357619D02*
X130849714Y-130310000D01*
X130944952Y-130262380D01*
X131183047Y-130262380D01*
X131278285Y-130310000D01*
X131325904Y-130357619D01*
X131373523Y-130452857D01*
X131373523Y-130548095D01*
X131325904Y-130690952D01*
X130754476Y-131262380D01*
X131373523Y-131262380D01*
X131944952Y-130690952D02*
X131849714Y-130643333D01*
X131802095Y-130595714D01*
X131754476Y-130500476D01*
X131754476Y-130452857D01*
X131802095Y-130357619D01*
X131849714Y-130310000D01*
X131944952Y-130262380D01*
X132135428Y-130262380D01*
X132230666Y-130310000D01*
X132278285Y-130357619D01*
X132325904Y-130452857D01*
X132325904Y-130500476D01*
X132278285Y-130595714D01*
X132230666Y-130643333D01*
X132135428Y-130690952D01*
X131944952Y-130690952D01*
X131849714Y-130738571D01*
X131802095Y-130786190D01*
X131754476Y-130881428D01*
X131754476Y-131071904D01*
X131802095Y-131167142D01*
X131849714Y-131214761D01*
X131944952Y-131262380D01*
X132135428Y-131262380D01*
X132230666Y-131214761D01*
X132278285Y-131167142D01*
X132325904Y-131071904D01*
X132325904Y-130881428D01*
X132278285Y-130786190D01*
X132230666Y-130738571D01*
X132135428Y-130690952D01*
X126492095Y-122388380D02*
X126492095Y-123197904D01*
X126539714Y-123293142D01*
X126587333Y-123340761D01*
X126682571Y-123388380D01*
X126873047Y-123388380D01*
X126968285Y-123340761D01*
X127015904Y-123293142D01*
X127063523Y-123197904D01*
X127063523Y-122388380D01*
X128063523Y-123388380D02*
X127492095Y-123388380D01*
X127777809Y-123388380D02*
X127777809Y-122388380D01*
X127682571Y-122531238D01*
X127587333Y-122626476D01*
X127492095Y-122674095D01*
X128270095Y-126472380D02*
X128270095Y-127281904D01*
X128317714Y-127377142D01*
X128365333Y-127424761D01*
X128460571Y-127472380D01*
X128651047Y-127472380D01*
X128746285Y-127424761D01*
X128793904Y-127377142D01*
X128841523Y-127281904D01*
X128841523Y-126472380D01*
X129222476Y-126472380D02*
X129841523Y-126472380D01*
X129508190Y-126853333D01*
X129651047Y-126853333D01*
X129746285Y-126900952D01*
X129793904Y-126948571D01*
X129841523Y-127043809D01*
X129841523Y-127281904D01*
X129793904Y-127377142D01*
X129746285Y-127424761D01*
X129651047Y-127472380D01*
X129365333Y-127472380D01*
X129270095Y-127424761D01*
X129222476Y-127377142D01*
X75296733Y-123928142D02*
X75249114Y-123975761D01*
X75106257Y-124023380D01*
X75011019Y-124023380D01*
X74868161Y-123975761D01*
X74772923Y-123880523D01*
X74725304Y-123785285D01*
X74677685Y-123594809D01*
X74677685Y-123451952D01*
X74725304Y-123261476D01*
X74772923Y-123166238D01*
X74868161Y-123071000D01*
X75011019Y-123023380D01*
X75106257Y-123023380D01*
X75249114Y-123071000D01*
X75296733Y-123118619D01*
X75630066Y-123023380D02*
X76296733Y-123023380D01*
X75868161Y-124023380D01*
X144272095Y-80970380D02*
X144272095Y-79970380D01*
X144272095Y-80446571D02*
X144843523Y-80446571D01*
X144843523Y-80970380D02*
X144843523Y-79970380D01*
X145843523Y-80970380D02*
X145272095Y-80970380D01*
X145557809Y-80970380D02*
X145557809Y-79970380D01*
X145462571Y-80113238D01*
X145367333Y-80208476D01*
X145272095Y-80256095D01*
X80492695Y-75382380D02*
X80492695Y-74382380D01*
X80492695Y-74858571D02*
X81064123Y-74858571D01*
X81064123Y-75382380D02*
X81064123Y-74382380D01*
X81492695Y-74477619D02*
X81540314Y-74430000D01*
X81635552Y-74382380D01*
X81873647Y-74382380D01*
X81968885Y-74430000D01*
X82016504Y-74477619D01*
X82064123Y-74572857D01*
X82064123Y-74668095D01*
X82016504Y-74810952D01*
X81445076Y-75382380D01*
X82064123Y-75382380D01*
X78232095Y-131008380D02*
X78232095Y-130008380D01*
X78232095Y-130484571D02*
X78803523Y-130484571D01*
X78803523Y-131008380D02*
X78803523Y-130008380D01*
X79184476Y-130008380D02*
X79803523Y-130008380D01*
X79470190Y-130389333D01*
X79613047Y-130389333D01*
X79708285Y-130436952D01*
X79755904Y-130484571D01*
X79803523Y-130579809D01*
X79803523Y-130817904D01*
X79755904Y-130913142D01*
X79708285Y-130960761D01*
X79613047Y-131008380D01*
X79327333Y-131008380D01*
X79232095Y-130960761D01*
X79184476Y-130913142D01*
X144238095Y-129484380D02*
X144238095Y-128484380D01*
X144238095Y-128960571D02*
X144809523Y-128960571D01*
X144809523Y-129484380D02*
X144809523Y-128484380D01*
X145714285Y-128817714D02*
X145714285Y-129484380D01*
X145476190Y-128436761D02*
X145238095Y-129151047D01*
X145857142Y-129151047D01*
X129373333Y-133707142D02*
X129325714Y-133754761D01*
X129182857Y-133802380D01*
X129087619Y-133802380D01*
X128944761Y-133754761D01*
X128849523Y-133659523D01*
X128801904Y-133564285D01*
X128754285Y-133373809D01*
X128754285Y-133230952D01*
X128801904Y-133040476D01*
X128849523Y-132945238D01*
X128944761Y-132850000D01*
X129087619Y-132802380D01*
X129182857Y-132802380D01*
X129325714Y-132850000D01*
X129373333Y-132897619D01*
X130325714Y-133802380D02*
X129754285Y-133802380D01*
X130040000Y-133802380D02*
X130040000Y-132802380D01*
X129944761Y-132945238D01*
X129849523Y-133040476D01*
X129754285Y-133088095D01*
X105268733Y-138812542D02*
X105221114Y-138860161D01*
X105078257Y-138907780D01*
X104983019Y-138907780D01*
X104840161Y-138860161D01*
X104744923Y-138764923D01*
X104697304Y-138669685D01*
X104649685Y-138479209D01*
X104649685Y-138336352D01*
X104697304Y-138145876D01*
X104744923Y-138050638D01*
X104840161Y-137955400D01*
X104983019Y-137907780D01*
X105078257Y-137907780D01*
X105221114Y-137955400D01*
X105268733Y-138003019D01*
X105649685Y-138003019D02*
X105697304Y-137955400D01*
X105792542Y-137907780D01*
X106030638Y-137907780D01*
X106125876Y-137955400D01*
X106173495Y-138003019D01*
X106221114Y-138098257D01*
X106221114Y-138193495D01*
X106173495Y-138336352D01*
X105602066Y-138907780D01*
X106221114Y-138907780D01*
X72959933Y-123877342D02*
X72912314Y-123924961D01*
X72769457Y-123972580D01*
X72674219Y-123972580D01*
X72531361Y-123924961D01*
X72436123Y-123829723D01*
X72388504Y-123734485D01*
X72340885Y-123544009D01*
X72340885Y-123401152D01*
X72388504Y-123210676D01*
X72436123Y-123115438D01*
X72531361Y-123020200D01*
X72674219Y-122972580D01*
X72769457Y-122972580D01*
X72912314Y-123020200D01*
X72959933Y-123067819D01*
X73293266Y-122972580D02*
X73912314Y-122972580D01*
X73578980Y-123353533D01*
X73721838Y-123353533D01*
X73817076Y-123401152D01*
X73864695Y-123448771D01*
X73912314Y-123544009D01*
X73912314Y-123782104D01*
X73864695Y-123877342D01*
X73817076Y-123924961D01*
X73721838Y-123972580D01*
X73436123Y-123972580D01*
X73340885Y-123924961D01*
X73293266Y-123877342D01*
X82637333Y-123978942D02*
X82589714Y-124026561D01*
X82446857Y-124074180D01*
X82351619Y-124074180D01*
X82208761Y-124026561D01*
X82113523Y-123931323D01*
X82065904Y-123836085D01*
X82018285Y-123645609D01*
X82018285Y-123502752D01*
X82065904Y-123312276D01*
X82113523Y-123217038D01*
X82208761Y-123121800D01*
X82351619Y-123074180D01*
X82446857Y-123074180D01*
X82589714Y-123121800D01*
X82637333Y-123169419D01*
X83494476Y-123407514D02*
X83494476Y-124074180D01*
X83256380Y-123026561D02*
X83018285Y-123740847D01*
X83637333Y-123740847D01*
X77836733Y-123978942D02*
X77789114Y-124026561D01*
X77646257Y-124074180D01*
X77551019Y-124074180D01*
X77408161Y-124026561D01*
X77312923Y-123931323D01*
X77265304Y-123836085D01*
X77217685Y-123645609D01*
X77217685Y-123502752D01*
X77265304Y-123312276D01*
X77312923Y-123217038D01*
X77408161Y-123121800D01*
X77551019Y-123074180D01*
X77646257Y-123074180D01*
X77789114Y-123121800D01*
X77836733Y-123169419D01*
X78741495Y-123074180D02*
X78265304Y-123074180D01*
X78217685Y-123550371D01*
X78265304Y-123502752D01*
X78360542Y-123455133D01*
X78598638Y-123455133D01*
X78693876Y-123502752D01*
X78741495Y-123550371D01*
X78789114Y-123645609D01*
X78789114Y-123883704D01*
X78741495Y-123978942D01*
X78693876Y-124026561D01*
X78598638Y-124074180D01*
X78360542Y-124074180D01*
X78265304Y-124026561D01*
X78217685Y-123978942D01*
X87183933Y-123877342D02*
X87136314Y-123924961D01*
X86993457Y-123972580D01*
X86898219Y-123972580D01*
X86755361Y-123924961D01*
X86660123Y-123829723D01*
X86612504Y-123734485D01*
X86564885Y-123544009D01*
X86564885Y-123401152D01*
X86612504Y-123210676D01*
X86660123Y-123115438D01*
X86755361Y-123020200D01*
X86898219Y-122972580D01*
X86993457Y-122972580D01*
X87136314Y-123020200D01*
X87183933Y-123067819D01*
X88041076Y-122972580D02*
X87850600Y-122972580D01*
X87755361Y-123020200D01*
X87707742Y-123067819D01*
X87612504Y-123210676D01*
X87564885Y-123401152D01*
X87564885Y-123782104D01*
X87612504Y-123877342D01*
X87660123Y-123924961D01*
X87755361Y-123972580D01*
X87945838Y-123972580D01*
X88041076Y-123924961D01*
X88088695Y-123877342D01*
X88136314Y-123782104D01*
X88136314Y-123544009D01*
X88088695Y-123448771D01*
X88041076Y-123401152D01*
X87945838Y-123353533D01*
X87755361Y-123353533D01*
X87660123Y-123401152D01*
X87612504Y-123448771D01*
X87564885Y-123544009D01*
X89885780Y-81853066D02*
X89409590Y-82186400D01*
X89885780Y-82424495D02*
X88885780Y-82424495D01*
X88885780Y-82043542D01*
X88933400Y-81948304D01*
X88981019Y-81900685D01*
X89076257Y-81853066D01*
X89219114Y-81853066D01*
X89314352Y-81900685D01*
X89361971Y-81948304D01*
X89409590Y-82043542D01*
X89409590Y-82424495D01*
X88981019Y-81472114D02*
X88933400Y-81424495D01*
X88885780Y-81329257D01*
X88885780Y-81091161D01*
X88933400Y-80995923D01*
X88981019Y-80948304D01*
X89076257Y-80900685D01*
X89171495Y-80900685D01*
X89314352Y-80948304D01*
X89885780Y-81519733D01*
X89885780Y-80900685D01*
X100071180Y-81903866D02*
X99594990Y-82237200D01*
X100071180Y-82475295D02*
X99071180Y-82475295D01*
X99071180Y-82094342D01*
X99118800Y-81999104D01*
X99166419Y-81951485D01*
X99261657Y-81903866D01*
X99404514Y-81903866D01*
X99499752Y-81951485D01*
X99547371Y-81999104D01*
X99594990Y-82094342D01*
X99594990Y-82475295D01*
X99071180Y-81570533D02*
X99071180Y-80951485D01*
X99452133Y-81284819D01*
X99452133Y-81141961D01*
X99499752Y-81046723D01*
X99547371Y-80999104D01*
X99642609Y-80951485D01*
X99880704Y-80951485D01*
X99975942Y-80999104D01*
X100023561Y-81046723D01*
X100071180Y-81141961D01*
X100071180Y-81427676D01*
X100023561Y-81522914D01*
X99975942Y-81570533D01*
X117139980Y-81827666D02*
X116663790Y-82161000D01*
X117139980Y-82399095D02*
X116139980Y-82399095D01*
X116139980Y-82018142D01*
X116187600Y-81922904D01*
X116235219Y-81875285D01*
X116330457Y-81827666D01*
X116473314Y-81827666D01*
X116568552Y-81875285D01*
X116616171Y-81922904D01*
X116663790Y-82018142D01*
X116663790Y-82399095D01*
X116473314Y-80970523D02*
X117139980Y-80970523D01*
X116092361Y-81208619D02*
X116806647Y-81446714D01*
X116806647Y-80827666D01*
X127350780Y-81802266D02*
X126874590Y-82135600D01*
X127350780Y-82373695D02*
X126350780Y-82373695D01*
X126350780Y-81992742D01*
X126398400Y-81897504D01*
X126446019Y-81849885D01*
X126541257Y-81802266D01*
X126684114Y-81802266D01*
X126779352Y-81849885D01*
X126826971Y-81897504D01*
X126874590Y-81992742D01*
X126874590Y-82373695D01*
X126350780Y-80897504D02*
X126350780Y-81373695D01*
X126826971Y-81421314D01*
X126779352Y-81373695D01*
X126731733Y-81278457D01*
X126731733Y-81040361D01*
X126779352Y-80945123D01*
X126826971Y-80897504D01*
X126922209Y-80849885D01*
X127160304Y-80849885D01*
X127255542Y-80897504D01*
X127303161Y-80945123D01*
X127350780Y-81040361D01*
X127350780Y-81278457D01*
X127303161Y-81373695D01*
X127255542Y-81421314D01*
X95092780Y-81954666D02*
X94616590Y-82288000D01*
X95092780Y-82526095D02*
X94092780Y-82526095D01*
X94092780Y-82145142D01*
X94140400Y-82049904D01*
X94188019Y-82002285D01*
X94283257Y-81954666D01*
X94426114Y-81954666D01*
X94521352Y-82002285D01*
X94568971Y-82049904D01*
X94616590Y-82145142D01*
X94616590Y-82526095D01*
X94092780Y-81097523D02*
X94092780Y-81288000D01*
X94140400Y-81383238D01*
X94188019Y-81430857D01*
X94330876Y-81526095D01*
X94521352Y-81573714D01*
X94902304Y-81573714D01*
X94997542Y-81526095D01*
X95045161Y-81478476D01*
X95092780Y-81383238D01*
X95092780Y-81192761D01*
X95045161Y-81097523D01*
X94997542Y-81049904D01*
X94902304Y-81002285D01*
X94664209Y-81002285D01*
X94568971Y-81049904D01*
X94521352Y-81097523D01*
X94473733Y-81192761D01*
X94473733Y-81383238D01*
X94521352Y-81478476D01*
X94568971Y-81526095D01*
X94664209Y-81573714D01*
X105278180Y-81751466D02*
X104801990Y-82084800D01*
X105278180Y-82322895D02*
X104278180Y-82322895D01*
X104278180Y-81941942D01*
X104325800Y-81846704D01*
X104373419Y-81799085D01*
X104468657Y-81751466D01*
X104611514Y-81751466D01*
X104706752Y-81799085D01*
X104754371Y-81846704D01*
X104801990Y-81941942D01*
X104801990Y-82322895D01*
X104278180Y-81418133D02*
X104278180Y-80751466D01*
X105278180Y-81180038D01*
X122245380Y-81827666D02*
X121769190Y-82161000D01*
X122245380Y-82399095D02*
X121245380Y-82399095D01*
X121245380Y-82018142D01*
X121293000Y-81922904D01*
X121340619Y-81875285D01*
X121435857Y-81827666D01*
X121578714Y-81827666D01*
X121673952Y-81875285D01*
X121721571Y-81922904D01*
X121769190Y-82018142D01*
X121769190Y-82399095D01*
X121673952Y-81256238D02*
X121626333Y-81351476D01*
X121578714Y-81399095D01*
X121483476Y-81446714D01*
X121435857Y-81446714D01*
X121340619Y-81399095D01*
X121293000Y-81351476D01*
X121245380Y-81256238D01*
X121245380Y-81065761D01*
X121293000Y-80970523D01*
X121340619Y-80922904D01*
X121435857Y-80875285D01*
X121483476Y-80875285D01*
X121578714Y-80922904D01*
X121626333Y-80970523D01*
X121673952Y-81065761D01*
X121673952Y-81256238D01*
X121721571Y-81351476D01*
X121769190Y-81399095D01*
X121864428Y-81446714D01*
X122054904Y-81446714D01*
X122150142Y-81399095D01*
X122197761Y-81351476D01*
X122245380Y-81256238D01*
X122245380Y-81065761D01*
X122197761Y-80970523D01*
X122150142Y-80922904D01*
X122054904Y-80875285D01*
X121864428Y-80875285D01*
X121769190Y-80922904D01*
X121721571Y-80970523D01*
X121673952Y-81065761D01*
X132354580Y-81776866D02*
X131878390Y-82110200D01*
X132354580Y-82348295D02*
X131354580Y-82348295D01*
X131354580Y-81967342D01*
X131402200Y-81872104D01*
X131449819Y-81824485D01*
X131545057Y-81776866D01*
X131687914Y-81776866D01*
X131783152Y-81824485D01*
X131830771Y-81872104D01*
X131878390Y-81967342D01*
X131878390Y-82348295D01*
X132354580Y-81300676D02*
X132354580Y-81110200D01*
X132306961Y-81014961D01*
X132259342Y-80967342D01*
X132116485Y-80872104D01*
X131926009Y-80824485D01*
X131545057Y-80824485D01*
X131449819Y-80872104D01*
X131402200Y-80919723D01*
X131354580Y-81014961D01*
X131354580Y-81205438D01*
X131402200Y-81300676D01*
X131449819Y-81348295D01*
X131545057Y-81395914D01*
X131783152Y-81395914D01*
X131878390Y-81348295D01*
X131926009Y-81300676D01*
X131973628Y-81205438D01*
X131973628Y-81014961D01*
X131926009Y-80919723D01*
X131878390Y-80872104D01*
X131783152Y-80824485D01*
X70459695Y-112228380D02*
X70459695Y-113037904D01*
X70507314Y-113133142D01*
X70554933Y-113180761D01*
X70650171Y-113228380D01*
X70840647Y-113228380D01*
X70935885Y-113180761D01*
X70983504Y-113133142D01*
X71031123Y-113037904D01*
X71031123Y-112228380D01*
X71935885Y-112561714D02*
X71935885Y-113228380D01*
X71697790Y-112180761D02*
X71459695Y-112895047D01*
X72078742Y-112895047D01*
X80645095Y-112355380D02*
X80645095Y-113164904D01*
X80692714Y-113260142D01*
X80740333Y-113307761D01*
X80835571Y-113355380D01*
X81026047Y-113355380D01*
X81121285Y-113307761D01*
X81168904Y-113260142D01*
X81216523Y-113164904D01*
X81216523Y-112355380D01*
X82168904Y-112355380D02*
X81692714Y-112355380D01*
X81645095Y-112831571D01*
X81692714Y-112783952D01*
X81787952Y-112736333D01*
X82026047Y-112736333D01*
X82121285Y-112783952D01*
X82168904Y-112831571D01*
X82216523Y-112926809D01*
X82216523Y-113164904D01*
X82168904Y-113260142D01*
X82121285Y-113307761D01*
X82026047Y-113355380D01*
X81787952Y-113355380D01*
X81692714Y-113307761D01*
X81645095Y-113260142D01*
X76268342Y-112669580D02*
X75935009Y-112193390D01*
X75696914Y-112669580D02*
X75696914Y-111669580D01*
X76077866Y-111669580D01*
X76173104Y-111717200D01*
X76220723Y-111764819D01*
X76268342Y-111860057D01*
X76268342Y-112002914D01*
X76220723Y-112098152D01*
X76173104Y-112145771D01*
X76077866Y-112193390D01*
X75696914Y-112193390D01*
X76649295Y-111764819D02*
X76696914Y-111717200D01*
X76792152Y-111669580D01*
X77030247Y-111669580D01*
X77125485Y-111717200D01*
X77173104Y-111764819D01*
X77220723Y-111860057D01*
X77220723Y-111955295D01*
X77173104Y-112098152D01*
X76601676Y-112669580D01*
X77220723Y-112669580D01*
X77554057Y-111669580D02*
X78220723Y-111669580D01*
X77792152Y-112669580D01*
X74977666Y-80554580D02*
X74977666Y-81268866D01*
X74930047Y-81411723D01*
X74834809Y-81506961D01*
X74691952Y-81554580D01*
X74596714Y-81554580D01*
X75882428Y-80554580D02*
X75691952Y-80554580D01*
X75596714Y-80602200D01*
X75549095Y-80649819D01*
X75453857Y-80792676D01*
X75406238Y-80983152D01*
X75406238Y-81364104D01*
X75453857Y-81459342D01*
X75501476Y-81506961D01*
X75596714Y-81554580D01*
X75787190Y-81554580D01*
X75882428Y-81506961D01*
X75930047Y-81459342D01*
X75977666Y-81364104D01*
X75977666Y-81126009D01*
X75930047Y-81030771D01*
X75882428Y-80983152D01*
X75787190Y-80935533D01*
X75596714Y-80935533D01*
X75501476Y-80983152D01*
X75453857Y-81030771D01*
X75406238Y-81126009D01*
X82262742Y-99867980D02*
X81929409Y-99391790D01*
X81691314Y-99867980D02*
X81691314Y-98867980D01*
X82072266Y-98867980D01*
X82167504Y-98915600D01*
X82215123Y-98963219D01*
X82262742Y-99058457D01*
X82262742Y-99201314D01*
X82215123Y-99296552D01*
X82167504Y-99344171D01*
X82072266Y-99391790D01*
X81691314Y-99391790D01*
X83215123Y-99867980D02*
X82643695Y-99867980D01*
X82929409Y-99867980D02*
X82929409Y-98867980D01*
X82834171Y-99010838D01*
X82738933Y-99106076D01*
X82643695Y-99153695D01*
X83834171Y-98867980D02*
X83929409Y-98867980D01*
X84024647Y-98915600D01*
X84072266Y-98963219D01*
X84119885Y-99058457D01*
X84167504Y-99248933D01*
X84167504Y-99487028D01*
X84119885Y-99677504D01*
X84072266Y-99772742D01*
X84024647Y-99820361D01*
X83929409Y-99867980D01*
X83834171Y-99867980D01*
X83738933Y-99820361D01*
X83691314Y-99772742D01*
X83643695Y-99677504D01*
X83596076Y-99487028D01*
X83596076Y-99248933D01*
X83643695Y-99058457D01*
X83691314Y-98963219D01*
X83738933Y-98915600D01*
X83834171Y-98867980D01*
X82211942Y-89834980D02*
X81878609Y-89358790D01*
X81640514Y-89834980D02*
X81640514Y-88834980D01*
X82021466Y-88834980D01*
X82116704Y-88882600D01*
X82164323Y-88930219D01*
X82211942Y-89025457D01*
X82211942Y-89168314D01*
X82164323Y-89263552D01*
X82116704Y-89311171D01*
X82021466Y-89358790D01*
X81640514Y-89358790D01*
X83164323Y-89834980D02*
X82592895Y-89834980D01*
X82878609Y-89834980D02*
X82878609Y-88834980D01*
X82783371Y-88977838D01*
X82688133Y-89073076D01*
X82592895Y-89120695D01*
X84116704Y-89834980D02*
X83545276Y-89834980D01*
X83830990Y-89834980D02*
X83830990Y-88834980D01*
X83735752Y-88977838D01*
X83640514Y-89073076D01*
X83545276Y-89120695D01*
X82262742Y-94660980D02*
X81929409Y-94184790D01*
X81691314Y-94660980D02*
X81691314Y-93660980D01*
X82072266Y-93660980D01*
X82167504Y-93708600D01*
X82215123Y-93756219D01*
X82262742Y-93851457D01*
X82262742Y-93994314D01*
X82215123Y-94089552D01*
X82167504Y-94137171D01*
X82072266Y-94184790D01*
X81691314Y-94184790D01*
X83215123Y-94660980D02*
X82643695Y-94660980D01*
X82929409Y-94660980D02*
X82929409Y-93660980D01*
X82834171Y-93803838D01*
X82738933Y-93899076D01*
X82643695Y-93946695D01*
X83596076Y-93756219D02*
X83643695Y-93708600D01*
X83738933Y-93660980D01*
X83977028Y-93660980D01*
X84072266Y-93708600D01*
X84119885Y-93756219D01*
X84167504Y-93851457D01*
X84167504Y-93946695D01*
X84119885Y-94089552D01*
X83548457Y-94660980D01*
X84167504Y-94660980D01*
X82211942Y-84704180D02*
X81878609Y-84227990D01*
X81640514Y-84704180D02*
X81640514Y-83704180D01*
X82021466Y-83704180D01*
X82116704Y-83751800D01*
X82164323Y-83799419D01*
X82211942Y-83894657D01*
X82211942Y-84037514D01*
X82164323Y-84132752D01*
X82116704Y-84180371D01*
X82021466Y-84227990D01*
X81640514Y-84227990D01*
X83164323Y-84704180D02*
X82592895Y-84704180D01*
X82878609Y-84704180D02*
X82878609Y-83704180D01*
X82783371Y-83847038D01*
X82688133Y-83942276D01*
X82592895Y-83989895D01*
X83497657Y-83704180D02*
X84116704Y-83704180D01*
X83783371Y-84085133D01*
X83926228Y-84085133D01*
X84021466Y-84132752D01*
X84069085Y-84180371D01*
X84116704Y-84275609D01*
X84116704Y-84513704D01*
X84069085Y-84608942D01*
X84021466Y-84656561D01*
X83926228Y-84704180D01*
X83640514Y-84704180D01*
X83545276Y-84656561D01*
X83497657Y-84608942D01*
X97797095Y-100344380D02*
X97797095Y-101153904D01*
X97844714Y-101249142D01*
X97892333Y-101296761D01*
X97987571Y-101344380D01*
X98178047Y-101344380D01*
X98273285Y-101296761D01*
X98320904Y-101249142D01*
X98368523Y-101153904D01*
X98368523Y-100344380D01*
X98749476Y-100344380D02*
X99416142Y-100344380D01*
X98987571Y-101344380D01*
X82110342Y-79751180D02*
X81777009Y-79274990D01*
X81538914Y-79751180D02*
X81538914Y-78751180D01*
X81919866Y-78751180D01*
X82015104Y-78798800D01*
X82062723Y-78846419D01*
X82110342Y-78941657D01*
X82110342Y-79084514D01*
X82062723Y-79179752D01*
X82015104Y-79227371D01*
X81919866Y-79274990D01*
X81538914Y-79274990D01*
X83062723Y-79751180D02*
X82491295Y-79751180D01*
X82777009Y-79751180D02*
X82777009Y-78751180D01*
X82681771Y-78894038D01*
X82586533Y-78989276D01*
X82491295Y-79036895D01*
X83919866Y-79084514D02*
X83919866Y-79751180D01*
X83681771Y-78703561D02*
X83443676Y-79417847D01*
X84062723Y-79417847D01*
M02*
