M48
; DRILL file {KiCad (5.1.0)-1} date 22/05/2019 12:12:30
; FORMAT={3:3/ absolute / metric / suppress leading zeros}
; #@! TF.CreationDate,2019-05-22T12:12:30+02:00
; #@! TF.GenerationSoftware,Kicad,Pcbnew,(5.1.0)-1
FMAT,2
METRIC,TZ
T1C0.400
T2C0.500
T3C0.762
T4C1.097
T5C1.100
T6C4.300
T7C1.100
%
G90
G05
T1
X73152Y-122860
X73152Y-123825
X79654Y-114249
X79654Y-115265
X79654Y-116307
X82042Y-130937
X82042Y-131928
X82880Y-110668
X82982Y-99212
X83998Y-118313
X84099Y-104292
X84099Y-106324
X84099Y-109398
X85065Y-118313
X86081Y-118313
X97638Y-94132
X97663Y-92837
X97663Y-95352
X97663Y-96672
X97688Y-97866
X101829Y-89941
X102921Y-89941
X110896Y-109398
X111811Y-103124
X111989Y-109398
X111989Y-130302
X116459Y-100736
X118059Y-96774
X119380Y-125781
X119405Y-124689
X122022Y-107645
X122047Y-106375
X123126Y-128080
X131064Y-125781
X135839Y-100736
T2
X100330Y-128270
X100330Y-132080
T3
X116840Y-120650
X116840Y-123190
X116840Y-125730
X116840Y-128270
X116840Y-130810
X116840Y-133350
X137160Y-120650
X137160Y-123190
X137160Y-125730
X137160Y-128270
X137160Y-130810
X137160Y-133350
T4
X145034Y-88392
X145034Y-90932
X145034Y-93472
X75248Y-83947
X75248Y-86487
X75248Y-89027
X75248Y-91567
X75248Y-94107
X75248Y-96647
X75248Y-99187
X75248Y-101727
X145034Y-102108
X145034Y-104648
X145034Y-107188
X145034Y-109728
X118872Y-73990
X121412Y-73990
X123952Y-73990
X126492Y-73990
X129032Y-73990
X131572Y-73990
X134112Y-73990
X136652Y-73990
X86360Y-135890
X88900Y-135890
X91643Y-73990
X94183Y-73990
X96723Y-73990
X99263Y-73990
X101803Y-73990
X104343Y-73990
X106883Y-73990
X109423Y-73990
T5
X92710Y-105410
X92710Y-107950
X92710Y-110490
X92710Y-113030
X92710Y-115570
X92710Y-118110
X92710Y-120650
X92710Y-123190
X92710Y-125730
X92710Y-128270
X92710Y-130810
X92710Y-133350
X92710Y-135890
X92710Y-138430
X95250Y-105410
X95250Y-125730
X95250Y-128270
X95250Y-130810
X95250Y-135890
X97790Y-105410
X97790Y-107950
X97790Y-110490
X97790Y-113030
X97790Y-115570
X97790Y-118110
X97790Y-120650
X97790Y-123190
X100330Y-105410
X100330Y-107950
X100330Y-110490
X100330Y-113030
X100330Y-115570
X100330Y-118110
X100330Y-120650
X100330Y-123190
X102870Y-105410
X105410Y-105410
X107950Y-105410
X107950Y-107950
X107950Y-110490
X107950Y-113030
X107950Y-115570
X107950Y-118110
X107950Y-120650
X107950Y-123190
X107950Y-125730
X107950Y-128270
X107950Y-130810
X107950Y-133350
X107950Y-135890
X107950Y-138430
T6
X145000Y-135000
X75000Y-135000
X75000Y-75000
X145000Y-75000
T7
X86360Y-138430
X88900Y-138430
X147574Y-88392
X147574Y-90932
X147574Y-93472
T0
M30
