G04 #@! TF.GenerationSoftware,KiCad,Pcbnew,(5.1.0)-1*
G04 #@! TF.CreationDate,2019-05-22T12:11:48+02:00*
G04 #@! TF.ProjectId,ArtNet_Node_WSLEDS,4172744e-6574-45f4-9e6f-64655f57534c,rev?*
G04 #@! TF.SameCoordinates,Original*
G04 #@! TF.FileFunction,Soldermask,Top*
G04 #@! TF.FilePolarity,Negative*
%FSLAX46Y46*%
G04 Gerber Fmt 4.6, Leading zero omitted, Abs format (unit mm)*
G04 Created by KiCad (PCBNEW (5.1.0)-1) date 2019-05-22 12:11:48*
%MOMM*%
%LPD*%
G04 APERTURE LIST*
%ADD10C,0.100000*%
G04 APERTURE END LIST*
D10*
G36*
X145548156Y-130672794D02*
G01*
X146269140Y-130816206D01*
X147060972Y-131144193D01*
X147773601Y-131620357D01*
X148379643Y-132226399D01*
X148855807Y-132939028D01*
X149183794Y-133730860D01*
X149351000Y-134571464D01*
X149351000Y-135428536D01*
X149183794Y-136269140D01*
X148855807Y-137060972D01*
X148379643Y-137773601D01*
X147773601Y-138379643D01*
X147060972Y-138855807D01*
X146269140Y-139183794D01*
X145548156Y-139327206D01*
X145428537Y-139351000D01*
X144571463Y-139351000D01*
X144451844Y-139327206D01*
X143730860Y-139183794D01*
X142939028Y-138855807D01*
X142226399Y-138379643D01*
X141620357Y-137773601D01*
X141144193Y-137060972D01*
X140816206Y-136269140D01*
X140649000Y-135428536D01*
X140649000Y-134571464D01*
X140816206Y-133730860D01*
X141144193Y-132939028D01*
X141620357Y-132226399D01*
X142226399Y-131620357D01*
X142939028Y-131144193D01*
X143730860Y-130816206D01*
X144451844Y-130672794D01*
X144571463Y-130649000D01*
X145428537Y-130649000D01*
X145548156Y-130672794D01*
X145548156Y-130672794D01*
G37*
G36*
X75548156Y-130672794D02*
G01*
X76269140Y-130816206D01*
X77060972Y-131144193D01*
X77773601Y-131620357D01*
X78379643Y-132226399D01*
X78855807Y-132939028D01*
X79183794Y-133730860D01*
X79351000Y-134571464D01*
X79351000Y-135428536D01*
X79183794Y-136269140D01*
X78855807Y-137060972D01*
X78379643Y-137773601D01*
X77773601Y-138379643D01*
X77060972Y-138855807D01*
X76269140Y-139183794D01*
X75548156Y-139327206D01*
X75428537Y-139351000D01*
X74571463Y-139351000D01*
X74451844Y-139327206D01*
X73730860Y-139183794D01*
X72939028Y-138855807D01*
X72226399Y-138379643D01*
X71620357Y-137773601D01*
X71144193Y-137060972D01*
X70816206Y-136269140D01*
X70649000Y-135428536D01*
X70649000Y-134571464D01*
X70816206Y-133730860D01*
X71144193Y-132939028D01*
X71620357Y-132226399D01*
X72226399Y-131620357D01*
X72939028Y-131144193D01*
X73730860Y-130816206D01*
X74451844Y-130672794D01*
X74571463Y-130649000D01*
X75428537Y-130649000D01*
X75548156Y-130672794D01*
X75548156Y-130672794D01*
G37*
G36*
X108801000Y-139281000D02*
G01*
X107099000Y-139281000D01*
X107099000Y-137579000D01*
X108801000Y-137579000D01*
X108801000Y-139281000D01*
X108801000Y-139281000D01*
G37*
G36*
X92958228Y-137611703D02*
G01*
X93113100Y-137675853D01*
X93252481Y-137768985D01*
X93371015Y-137887519D01*
X93464147Y-138026900D01*
X93528297Y-138181772D01*
X93561000Y-138346184D01*
X93561000Y-138513816D01*
X93528297Y-138678228D01*
X93464147Y-138833100D01*
X93371015Y-138972481D01*
X93252481Y-139091015D01*
X93113100Y-139184147D01*
X92958228Y-139248297D01*
X92793816Y-139281000D01*
X92626184Y-139281000D01*
X92461772Y-139248297D01*
X92306900Y-139184147D01*
X92167519Y-139091015D01*
X92048985Y-138972481D01*
X91955853Y-138833100D01*
X91891703Y-138678228D01*
X91859000Y-138513816D01*
X91859000Y-138346184D01*
X91891703Y-138181772D01*
X91955853Y-138026900D01*
X92048985Y-137887519D01*
X92167519Y-137768985D01*
X92306900Y-137675853D01*
X92461772Y-137611703D01*
X92626184Y-137579000D01*
X92793816Y-137579000D01*
X92958228Y-137611703D01*
X92958228Y-137611703D01*
G37*
G36*
X102406400Y-139131400D02*
G01*
X100804400Y-139131400D01*
X100804400Y-137779400D01*
X102406400Y-137779400D01*
X102406400Y-139131400D01*
X102406400Y-139131400D01*
G37*
G36*
X99906400Y-139131400D02*
G01*
X98304400Y-139131400D01*
X98304400Y-137779400D01*
X99906400Y-137779400D01*
X99906400Y-139131400D01*
X99906400Y-139131400D01*
G37*
G36*
X86496601Y-137844397D02*
G01*
X86535305Y-137852096D01*
X86567340Y-137865365D01*
X86644680Y-137897400D01*
X86743115Y-137963173D01*
X86826827Y-138046885D01*
X86892600Y-138145320D01*
X86937904Y-138254696D01*
X86961000Y-138370805D01*
X86961000Y-138489195D01*
X86937904Y-138605304D01*
X86892600Y-138714680D01*
X86826827Y-138813115D01*
X86743115Y-138896827D01*
X86644680Y-138962600D01*
X86567340Y-138994635D01*
X86535305Y-139007904D01*
X86496601Y-139015603D01*
X86419195Y-139031000D01*
X86300805Y-139031000D01*
X86223399Y-139015603D01*
X86184695Y-139007904D01*
X86152660Y-138994635D01*
X86075320Y-138962600D01*
X85976885Y-138896827D01*
X85893173Y-138813115D01*
X85827400Y-138714680D01*
X85782096Y-138605304D01*
X85759000Y-138489195D01*
X85759000Y-138370805D01*
X85782096Y-138254696D01*
X85827400Y-138145320D01*
X85893173Y-138046885D01*
X85976885Y-137963173D01*
X86075320Y-137897400D01*
X86152660Y-137865365D01*
X86184695Y-137852096D01*
X86223399Y-137844397D01*
X86300805Y-137829000D01*
X86419195Y-137829000D01*
X86496601Y-137844397D01*
X86496601Y-137844397D01*
G37*
G36*
X89036601Y-137844397D02*
G01*
X89075305Y-137852096D01*
X89107340Y-137865365D01*
X89184680Y-137897400D01*
X89283115Y-137963173D01*
X89366827Y-138046885D01*
X89432600Y-138145320D01*
X89477904Y-138254696D01*
X89501000Y-138370805D01*
X89501000Y-138489195D01*
X89477904Y-138605304D01*
X89432600Y-138714680D01*
X89366827Y-138813115D01*
X89283115Y-138896827D01*
X89184680Y-138962600D01*
X89107340Y-138994635D01*
X89075305Y-139007904D01*
X89036601Y-139015603D01*
X88959195Y-139031000D01*
X88840805Y-139031000D01*
X88763399Y-139015603D01*
X88724695Y-139007904D01*
X88692660Y-138994635D01*
X88615320Y-138962600D01*
X88516885Y-138896827D01*
X88433173Y-138813115D01*
X88367400Y-138714680D01*
X88322096Y-138605304D01*
X88299000Y-138489195D01*
X88299000Y-138370805D01*
X88322096Y-138254696D01*
X88367400Y-138145320D01*
X88433173Y-138046885D01*
X88516885Y-137963173D01*
X88615320Y-137897400D01*
X88692660Y-137865365D01*
X88724695Y-137852096D01*
X88763399Y-137844397D01*
X88840805Y-137829000D01*
X88959195Y-137829000D01*
X89036601Y-137844397D01*
X89036601Y-137844397D01*
G37*
G36*
X89105928Y-134854710D02*
G01*
X89105931Y-134854711D01*
X89105932Y-134854711D01*
X89303950Y-134914779D01*
X89303953Y-134914781D01*
X89303954Y-134914781D01*
X89486443Y-135012323D01*
X89646403Y-135143597D01*
X89777677Y-135303557D01*
X89844479Y-135428536D01*
X89875221Y-135486050D01*
X89935289Y-135684068D01*
X89935290Y-135684072D01*
X89955572Y-135890000D01*
X89935290Y-136095928D01*
X89935289Y-136095931D01*
X89935289Y-136095932D01*
X89875221Y-136293950D01*
X89875219Y-136293953D01*
X89875219Y-136293954D01*
X89777677Y-136476443D01*
X89646403Y-136636403D01*
X89486443Y-136767677D01*
X89303954Y-136865219D01*
X89303950Y-136865221D01*
X89105932Y-136925289D01*
X89105931Y-136925289D01*
X89105928Y-136925290D01*
X88951601Y-136940490D01*
X88848399Y-136940490D01*
X88694072Y-136925290D01*
X88694069Y-136925289D01*
X88694068Y-136925289D01*
X88496050Y-136865221D01*
X88496046Y-136865219D01*
X88313557Y-136767677D01*
X88153597Y-136636403D01*
X88022323Y-136476443D01*
X87924781Y-136293954D01*
X87924781Y-136293953D01*
X87924779Y-136293950D01*
X87864711Y-136095932D01*
X87864711Y-136095931D01*
X87864710Y-136095928D01*
X87844428Y-135890000D01*
X87864710Y-135684072D01*
X87864711Y-135684068D01*
X87924779Y-135486050D01*
X87955521Y-135428536D01*
X88022323Y-135303557D01*
X88153597Y-135143597D01*
X88313557Y-135012323D01*
X88496046Y-134914781D01*
X88496047Y-134914781D01*
X88496050Y-134914779D01*
X88694068Y-134854711D01*
X88694069Y-134854711D01*
X88694072Y-134854710D01*
X88848399Y-134839510D01*
X88951601Y-134839510D01*
X89105928Y-134854710D01*
X89105928Y-134854710D01*
G37*
G36*
X87410490Y-136940490D02*
G01*
X85309510Y-136940490D01*
X85309510Y-134839510D01*
X87410490Y-134839510D01*
X87410490Y-136940490D01*
X87410490Y-136940490D01*
G37*
G36*
X95498228Y-135071703D02*
G01*
X95653100Y-135135853D01*
X95792481Y-135228985D01*
X95911015Y-135347519D01*
X96004147Y-135486900D01*
X96068297Y-135641772D01*
X96101000Y-135806184D01*
X96101000Y-135973816D01*
X96068297Y-136138228D01*
X96004147Y-136293100D01*
X95911015Y-136432481D01*
X95792481Y-136551015D01*
X95653100Y-136644147D01*
X95498228Y-136708297D01*
X95333816Y-136741000D01*
X95166184Y-136741000D01*
X95001772Y-136708297D01*
X94846900Y-136644147D01*
X94707519Y-136551015D01*
X94588985Y-136432481D01*
X94495853Y-136293100D01*
X94431703Y-136138228D01*
X94399000Y-135973816D01*
X94399000Y-135806184D01*
X94431703Y-135641772D01*
X94495853Y-135486900D01*
X94588985Y-135347519D01*
X94707519Y-135228985D01*
X94846900Y-135135853D01*
X95001772Y-135071703D01*
X95166184Y-135039000D01*
X95333816Y-135039000D01*
X95498228Y-135071703D01*
X95498228Y-135071703D01*
G37*
G36*
X108198228Y-135071703D02*
G01*
X108353100Y-135135853D01*
X108492481Y-135228985D01*
X108611015Y-135347519D01*
X108704147Y-135486900D01*
X108768297Y-135641772D01*
X108801000Y-135806184D01*
X108801000Y-135973816D01*
X108768297Y-136138228D01*
X108704147Y-136293100D01*
X108611015Y-136432481D01*
X108492481Y-136551015D01*
X108353100Y-136644147D01*
X108198228Y-136708297D01*
X108033816Y-136741000D01*
X107866184Y-136741000D01*
X107701772Y-136708297D01*
X107546900Y-136644147D01*
X107407519Y-136551015D01*
X107288985Y-136432481D01*
X107195853Y-136293100D01*
X107131703Y-136138228D01*
X107099000Y-135973816D01*
X107099000Y-135806184D01*
X107131703Y-135641772D01*
X107195853Y-135486900D01*
X107288985Y-135347519D01*
X107407519Y-135228985D01*
X107546900Y-135135853D01*
X107701772Y-135071703D01*
X107866184Y-135039000D01*
X108033816Y-135039000D01*
X108198228Y-135071703D01*
X108198228Y-135071703D01*
G37*
G36*
X92958228Y-135071703D02*
G01*
X93113100Y-135135853D01*
X93252481Y-135228985D01*
X93371015Y-135347519D01*
X93464147Y-135486900D01*
X93528297Y-135641772D01*
X93561000Y-135806184D01*
X93561000Y-135973816D01*
X93528297Y-136138228D01*
X93464147Y-136293100D01*
X93371015Y-136432481D01*
X93252481Y-136551015D01*
X93113100Y-136644147D01*
X92958228Y-136708297D01*
X92793816Y-136741000D01*
X92626184Y-136741000D01*
X92461772Y-136708297D01*
X92306900Y-136644147D01*
X92167519Y-136551015D01*
X92048985Y-136432481D01*
X91955853Y-136293100D01*
X91891703Y-136138228D01*
X91859000Y-135973816D01*
X91859000Y-135806184D01*
X91891703Y-135641772D01*
X91955853Y-135486900D01*
X92048985Y-135347519D01*
X92167519Y-135228985D01*
X92306900Y-135135853D01*
X92461772Y-135071703D01*
X92626184Y-135039000D01*
X92793816Y-135039000D01*
X92958228Y-135071703D01*
X92958228Y-135071703D01*
G37*
G36*
X82843000Y-136445600D02*
G01*
X81241000Y-136445600D01*
X81241000Y-132743600D01*
X82843000Y-132743600D01*
X82843000Y-136445600D01*
X82843000Y-136445600D01*
G37*
G36*
X99381000Y-135521000D02*
G01*
X97279000Y-135521000D01*
X97279000Y-133719000D01*
X99381000Y-133719000D01*
X99381000Y-135521000D01*
X99381000Y-135521000D01*
G37*
G36*
X103381000Y-135521000D02*
G01*
X101279000Y-135521000D01*
X101279000Y-133719000D01*
X103381000Y-133719000D01*
X103381000Y-135521000D01*
X103381000Y-135521000D01*
G37*
G36*
X92958228Y-132531703D02*
G01*
X93113100Y-132595853D01*
X93252481Y-132688985D01*
X93371015Y-132807519D01*
X93464147Y-132946900D01*
X93528297Y-133101772D01*
X93561000Y-133266184D01*
X93561000Y-133433816D01*
X93528297Y-133598228D01*
X93464147Y-133753100D01*
X93371015Y-133892481D01*
X93252481Y-134011015D01*
X93113100Y-134104147D01*
X92958228Y-134168297D01*
X92793816Y-134201000D01*
X92626184Y-134201000D01*
X92461772Y-134168297D01*
X92306900Y-134104147D01*
X92167519Y-134011015D01*
X92048985Y-133892481D01*
X91955853Y-133753100D01*
X91891703Y-133598228D01*
X91859000Y-133433816D01*
X91859000Y-133266184D01*
X91891703Y-133101772D01*
X91955853Y-132946900D01*
X92048985Y-132807519D01*
X92167519Y-132688985D01*
X92306900Y-132595853D01*
X92461772Y-132531703D01*
X92626184Y-132499000D01*
X92793816Y-132499000D01*
X92958228Y-132531703D01*
X92958228Y-132531703D01*
G37*
G36*
X108198228Y-132531703D02*
G01*
X108353100Y-132595853D01*
X108492481Y-132688985D01*
X108611015Y-132807519D01*
X108704147Y-132946900D01*
X108768297Y-133101772D01*
X108801000Y-133266184D01*
X108801000Y-133433816D01*
X108768297Y-133598228D01*
X108704147Y-133753100D01*
X108611015Y-133892481D01*
X108492481Y-134011015D01*
X108353100Y-134104147D01*
X108198228Y-134168297D01*
X108033816Y-134201000D01*
X107866184Y-134201000D01*
X107701772Y-134168297D01*
X107546900Y-134104147D01*
X107407519Y-134011015D01*
X107288985Y-133892481D01*
X107195853Y-133753100D01*
X107131703Y-133598228D01*
X107099000Y-133433816D01*
X107099000Y-133266184D01*
X107131703Y-133101772D01*
X107195853Y-132946900D01*
X107288985Y-132807519D01*
X107407519Y-132688985D01*
X107546900Y-132595853D01*
X107701772Y-132531703D01*
X107866184Y-132499000D01*
X108033816Y-132499000D01*
X108198228Y-132531703D01*
X108198228Y-132531703D01*
G37*
G36*
X137973000Y-134163000D02*
G01*
X136347000Y-134163000D01*
X136347000Y-132537000D01*
X137973000Y-132537000D01*
X137973000Y-134163000D01*
X137973000Y-134163000D01*
G37*
G36*
X117077142Y-132568242D02*
G01*
X117225101Y-132629529D01*
X117358255Y-132718499D01*
X117471501Y-132831745D01*
X117560471Y-132964899D01*
X117621758Y-133112858D01*
X117653000Y-133269925D01*
X117653000Y-133430075D01*
X117621758Y-133587142D01*
X117560471Y-133735101D01*
X117471501Y-133868255D01*
X117358255Y-133981501D01*
X117225101Y-134070471D01*
X117077142Y-134131758D01*
X116920075Y-134163000D01*
X116759925Y-134163000D01*
X116602858Y-134131758D01*
X116454899Y-134070471D01*
X116321745Y-133981501D01*
X116208499Y-133868255D01*
X116119529Y-133735101D01*
X116058242Y-133587142D01*
X116027000Y-133430075D01*
X116027000Y-133269925D01*
X116058242Y-133112858D01*
X116119529Y-132964899D01*
X116208499Y-132831745D01*
X116321745Y-132718499D01*
X116454899Y-132629529D01*
X116602858Y-132568242D01*
X116759925Y-132537000D01*
X116920075Y-132537000D01*
X117077142Y-132568242D01*
X117077142Y-132568242D01*
G37*
G36*
X125281000Y-134026000D02*
G01*
X123679000Y-134026000D01*
X123679000Y-132674000D01*
X125281000Y-132674000D01*
X125281000Y-134026000D01*
X125281000Y-134026000D01*
G37*
G36*
X127781000Y-134026000D02*
G01*
X126179000Y-134026000D01*
X126179000Y-132674000D01*
X127781000Y-132674000D01*
X127781000Y-134026000D01*
X127781000Y-134026000D01*
G37*
G36*
X100621981Y-131117468D02*
G01*
X100804151Y-131192926D01*
X100968100Y-131302473D01*
X101107527Y-131441900D01*
X101217074Y-131605849D01*
X101217075Y-131605851D01*
X101223084Y-131620358D01*
X101292532Y-131788019D01*
X101331000Y-131981410D01*
X101331000Y-132178590D01*
X101292532Y-132371981D01*
X101217074Y-132554151D01*
X101107527Y-132718100D01*
X100968100Y-132857527D01*
X100804151Y-132967074D01*
X100621981Y-133042532D01*
X100525285Y-133061766D01*
X100428591Y-133081000D01*
X100231409Y-133081000D01*
X100134715Y-133061766D01*
X100038019Y-133042532D01*
X99855849Y-132967074D01*
X99691900Y-132857527D01*
X99552473Y-132718100D01*
X99442926Y-132554151D01*
X99367468Y-132371981D01*
X99329000Y-132178590D01*
X99329000Y-131981410D01*
X99367468Y-131788019D01*
X99436916Y-131620358D01*
X99442925Y-131605851D01*
X99442926Y-131605849D01*
X99552473Y-131441900D01*
X99691900Y-131302473D01*
X99855849Y-131192926D01*
X100038019Y-131117468D01*
X100231409Y-131079000D01*
X100428591Y-131079000D01*
X100621981Y-131117468D01*
X100621981Y-131117468D01*
G37*
G36*
X128781000Y-131711000D02*
G01*
X126679000Y-131711000D01*
X126679000Y-129909000D01*
X128781000Y-129909000D01*
X128781000Y-131711000D01*
X128781000Y-131711000D01*
G37*
G36*
X124781000Y-131711000D02*
G01*
X122679000Y-131711000D01*
X122679000Y-129909000D01*
X124781000Y-129909000D01*
X124781000Y-131711000D01*
X124781000Y-131711000D01*
G37*
G36*
X108198228Y-129991703D02*
G01*
X108353100Y-130055853D01*
X108492481Y-130148985D01*
X108611015Y-130267519D01*
X108704147Y-130406900D01*
X108768297Y-130561772D01*
X108801000Y-130726184D01*
X108801000Y-130893816D01*
X108768297Y-131058228D01*
X108704147Y-131213100D01*
X108611015Y-131352481D01*
X108492481Y-131471015D01*
X108353100Y-131564147D01*
X108198228Y-131628297D01*
X108033816Y-131661000D01*
X107866184Y-131661000D01*
X107701772Y-131628297D01*
X107546900Y-131564147D01*
X107407519Y-131471015D01*
X107288985Y-131352481D01*
X107195853Y-131213100D01*
X107131703Y-131058228D01*
X107099000Y-130893816D01*
X107099000Y-130726184D01*
X107131703Y-130561772D01*
X107195853Y-130406900D01*
X107288985Y-130267519D01*
X107407519Y-130148985D01*
X107546900Y-130055853D01*
X107701772Y-129991703D01*
X107866184Y-129959000D01*
X108033816Y-129959000D01*
X108198228Y-129991703D01*
X108198228Y-129991703D01*
G37*
G36*
X92958228Y-129991703D02*
G01*
X93113100Y-130055853D01*
X93252481Y-130148985D01*
X93371015Y-130267519D01*
X93464147Y-130406900D01*
X93528297Y-130561772D01*
X93561000Y-130726184D01*
X93561000Y-130893816D01*
X93528297Y-131058228D01*
X93464147Y-131213100D01*
X93371015Y-131352481D01*
X93252481Y-131471015D01*
X93113100Y-131564147D01*
X92958228Y-131628297D01*
X92793816Y-131661000D01*
X92626184Y-131661000D01*
X92461772Y-131628297D01*
X92306900Y-131564147D01*
X92167519Y-131471015D01*
X92048985Y-131352481D01*
X91955853Y-131213100D01*
X91891703Y-131058228D01*
X91859000Y-130893816D01*
X91859000Y-130726184D01*
X91891703Y-130561772D01*
X91955853Y-130406900D01*
X92048985Y-130267519D01*
X92167519Y-130148985D01*
X92306900Y-130055853D01*
X92461772Y-129991703D01*
X92626184Y-129959000D01*
X92793816Y-129959000D01*
X92958228Y-129991703D01*
X92958228Y-129991703D01*
G37*
G36*
X95498228Y-129991703D02*
G01*
X95653100Y-130055853D01*
X95792481Y-130148985D01*
X95911015Y-130267519D01*
X96004147Y-130406900D01*
X96068297Y-130561772D01*
X96101000Y-130726184D01*
X96101000Y-130893816D01*
X96068297Y-131058228D01*
X96004147Y-131213100D01*
X95911015Y-131352481D01*
X95792481Y-131471015D01*
X95653100Y-131564147D01*
X95498228Y-131628297D01*
X95333816Y-131661000D01*
X95166184Y-131661000D01*
X95001772Y-131628297D01*
X94846900Y-131564147D01*
X94707519Y-131471015D01*
X94588985Y-131352481D01*
X94495853Y-131213100D01*
X94431703Y-131058228D01*
X94399000Y-130893816D01*
X94399000Y-130726184D01*
X94431703Y-130561772D01*
X94495853Y-130406900D01*
X94588985Y-130267519D01*
X94707519Y-130148985D01*
X94846900Y-130055853D01*
X95001772Y-129991703D01*
X95166184Y-129959000D01*
X95333816Y-129959000D01*
X95498228Y-129991703D01*
X95498228Y-129991703D01*
G37*
G36*
X137397142Y-130028242D02*
G01*
X137545101Y-130089529D01*
X137678255Y-130178499D01*
X137791501Y-130291745D01*
X137880471Y-130424899D01*
X137941758Y-130572858D01*
X137973000Y-130729925D01*
X137973000Y-130890075D01*
X137941758Y-131047142D01*
X137880471Y-131195101D01*
X137791501Y-131328255D01*
X137678255Y-131441501D01*
X137545101Y-131530471D01*
X137397142Y-131591758D01*
X137240075Y-131623000D01*
X137079925Y-131623000D01*
X136922858Y-131591758D01*
X136774899Y-131530471D01*
X136641745Y-131441501D01*
X136528499Y-131328255D01*
X136439529Y-131195101D01*
X136378242Y-131047142D01*
X136347000Y-130890075D01*
X136347000Y-130729925D01*
X136378242Y-130572858D01*
X136439529Y-130424899D01*
X136528499Y-130291745D01*
X136641745Y-130178499D01*
X136774899Y-130089529D01*
X136922858Y-130028242D01*
X137079925Y-129997000D01*
X137240075Y-129997000D01*
X137397142Y-130028242D01*
X137397142Y-130028242D01*
G37*
G36*
X117077142Y-130028242D02*
G01*
X117225101Y-130089529D01*
X117358255Y-130178499D01*
X117471501Y-130291745D01*
X117560471Y-130424899D01*
X117621758Y-130572858D01*
X117653000Y-130729925D01*
X117653000Y-130890075D01*
X117621758Y-131047142D01*
X117560471Y-131195101D01*
X117471501Y-131328255D01*
X117358255Y-131441501D01*
X117225101Y-131530471D01*
X117077142Y-131591758D01*
X116920075Y-131623000D01*
X116759925Y-131623000D01*
X116602858Y-131591758D01*
X116454899Y-131530471D01*
X116321745Y-131441501D01*
X116208499Y-131328255D01*
X116119529Y-131195101D01*
X116058242Y-131047142D01*
X116027000Y-130890075D01*
X116027000Y-130729925D01*
X116058242Y-130572858D01*
X116119529Y-130424899D01*
X116208499Y-130291745D01*
X116321745Y-130178499D01*
X116454899Y-130089529D01*
X116602858Y-130028242D01*
X116759925Y-129997000D01*
X116920075Y-129997000D01*
X117077142Y-130028242D01*
X117077142Y-130028242D01*
G37*
G36*
X100525285Y-127288234D02*
G01*
X100621981Y-127307468D01*
X100804151Y-127382926D01*
X100968100Y-127492473D01*
X101107527Y-127631900D01*
X101217074Y-127795849D01*
X101292532Y-127978019D01*
X101331000Y-128171410D01*
X101331000Y-128368590D01*
X101292532Y-128561981D01*
X101217074Y-128744151D01*
X101107527Y-128908100D01*
X100968100Y-129047527D01*
X100804151Y-129157074D01*
X100621981Y-129232532D01*
X100428591Y-129271000D01*
X100231409Y-129271000D01*
X100038019Y-129232532D01*
X99855849Y-129157074D01*
X99691900Y-129047527D01*
X99552473Y-128908100D01*
X99442926Y-128744151D01*
X99367468Y-128561981D01*
X99329000Y-128368590D01*
X99329000Y-128171410D01*
X99367468Y-127978019D01*
X99442926Y-127795849D01*
X99552473Y-127631900D01*
X99691900Y-127492473D01*
X99855849Y-127382926D01*
X100038019Y-127307468D01*
X100134715Y-127288234D01*
X100231409Y-127269000D01*
X100428591Y-127269000D01*
X100525285Y-127288234D01*
X100525285Y-127288234D01*
G37*
G36*
X95498228Y-127451703D02*
G01*
X95653100Y-127515853D01*
X95792481Y-127608985D01*
X95911015Y-127727519D01*
X96004147Y-127866900D01*
X96068297Y-128021772D01*
X96101000Y-128186184D01*
X96101000Y-128353816D01*
X96068297Y-128518228D01*
X96004147Y-128673100D01*
X95911015Y-128812481D01*
X95792481Y-128931015D01*
X95653100Y-129024147D01*
X95498228Y-129088297D01*
X95333816Y-129121000D01*
X95166184Y-129121000D01*
X95001772Y-129088297D01*
X94846900Y-129024147D01*
X94707519Y-128931015D01*
X94588985Y-128812481D01*
X94495853Y-128673100D01*
X94431703Y-128518228D01*
X94399000Y-128353816D01*
X94399000Y-128186184D01*
X94431703Y-128021772D01*
X94495853Y-127866900D01*
X94588985Y-127727519D01*
X94707519Y-127608985D01*
X94846900Y-127515853D01*
X95001772Y-127451703D01*
X95166184Y-127419000D01*
X95333816Y-127419000D01*
X95498228Y-127451703D01*
X95498228Y-127451703D01*
G37*
G36*
X92958228Y-127451703D02*
G01*
X93113100Y-127515853D01*
X93252481Y-127608985D01*
X93371015Y-127727519D01*
X93464147Y-127866900D01*
X93528297Y-128021772D01*
X93561000Y-128186184D01*
X93561000Y-128353816D01*
X93528297Y-128518228D01*
X93464147Y-128673100D01*
X93371015Y-128812481D01*
X93252481Y-128931015D01*
X93113100Y-129024147D01*
X92958228Y-129088297D01*
X92793816Y-129121000D01*
X92626184Y-129121000D01*
X92461772Y-129088297D01*
X92306900Y-129024147D01*
X92167519Y-128931015D01*
X92048985Y-128812481D01*
X91955853Y-128673100D01*
X91891703Y-128518228D01*
X91859000Y-128353816D01*
X91859000Y-128186184D01*
X91891703Y-128021772D01*
X91955853Y-127866900D01*
X92048985Y-127727519D01*
X92167519Y-127608985D01*
X92306900Y-127515853D01*
X92461772Y-127451703D01*
X92626184Y-127419000D01*
X92793816Y-127419000D01*
X92958228Y-127451703D01*
X92958228Y-127451703D01*
G37*
G36*
X108198228Y-127451703D02*
G01*
X108353100Y-127515853D01*
X108492481Y-127608985D01*
X108611015Y-127727519D01*
X108704147Y-127866900D01*
X108768297Y-128021772D01*
X108801000Y-128186184D01*
X108801000Y-128353816D01*
X108768297Y-128518228D01*
X108704147Y-128673100D01*
X108611015Y-128812481D01*
X108492481Y-128931015D01*
X108353100Y-129024147D01*
X108198228Y-129088297D01*
X108033816Y-129121000D01*
X107866184Y-129121000D01*
X107701772Y-129088297D01*
X107546900Y-129024147D01*
X107407519Y-128931015D01*
X107288985Y-128812481D01*
X107195853Y-128673100D01*
X107131703Y-128518228D01*
X107099000Y-128353816D01*
X107099000Y-128186184D01*
X107131703Y-128021772D01*
X107195853Y-127866900D01*
X107288985Y-127727519D01*
X107407519Y-127608985D01*
X107546900Y-127515853D01*
X107701772Y-127451703D01*
X107866184Y-127419000D01*
X108033816Y-127419000D01*
X108198228Y-127451703D01*
X108198228Y-127451703D01*
G37*
G36*
X137397142Y-127488242D02*
G01*
X137545101Y-127549529D01*
X137678255Y-127638499D01*
X137791501Y-127751745D01*
X137880471Y-127884899D01*
X137941758Y-128032858D01*
X137973000Y-128189925D01*
X137973000Y-128350075D01*
X137941758Y-128507142D01*
X137880471Y-128655101D01*
X137791501Y-128788255D01*
X137678255Y-128901501D01*
X137545101Y-128990471D01*
X137397142Y-129051758D01*
X137240075Y-129083000D01*
X137079925Y-129083000D01*
X136922858Y-129051758D01*
X136774899Y-128990471D01*
X136641745Y-128901501D01*
X136528499Y-128788255D01*
X136439529Y-128655101D01*
X136378242Y-128507142D01*
X136347000Y-128350075D01*
X136347000Y-128189925D01*
X136378242Y-128032858D01*
X136439529Y-127884899D01*
X136528499Y-127751745D01*
X136641745Y-127638499D01*
X136774899Y-127549529D01*
X136922858Y-127488242D01*
X137079925Y-127457000D01*
X137240075Y-127457000D01*
X137397142Y-127488242D01*
X137397142Y-127488242D01*
G37*
G36*
X117077142Y-127488242D02*
G01*
X117225101Y-127549529D01*
X117358255Y-127638499D01*
X117471501Y-127751745D01*
X117560471Y-127884899D01*
X117621758Y-128032858D01*
X117653000Y-128189925D01*
X117653000Y-128350075D01*
X117621758Y-128507142D01*
X117560471Y-128655101D01*
X117471501Y-128788255D01*
X117358255Y-128901501D01*
X117225101Y-128990471D01*
X117077142Y-129051758D01*
X116920075Y-129083000D01*
X116759925Y-129083000D01*
X116602858Y-129051758D01*
X116454899Y-128990471D01*
X116321745Y-128901501D01*
X116208499Y-128788255D01*
X116119529Y-128655101D01*
X116058242Y-128507142D01*
X116027000Y-128350075D01*
X116027000Y-128189925D01*
X116058242Y-128032858D01*
X116119529Y-127884899D01*
X116208499Y-127751745D01*
X116321745Y-127638499D01*
X116454899Y-127549529D01*
X116602858Y-127488242D01*
X116759925Y-127457000D01*
X116920075Y-127457000D01*
X117077142Y-127488242D01*
X117077142Y-127488242D01*
G37*
G36*
X127231000Y-128851000D02*
G01*
X126129000Y-128851000D01*
X126129000Y-127349000D01*
X127231000Y-127349000D01*
X127231000Y-128851000D01*
X127231000Y-128851000D01*
G37*
G36*
X125331000Y-128851000D02*
G01*
X124229000Y-128851000D01*
X124229000Y-127349000D01*
X125331000Y-127349000D01*
X125331000Y-128851000D01*
X125331000Y-128851000D01*
G37*
G36*
X76114000Y-128797000D02*
G01*
X74762000Y-128797000D01*
X74762000Y-127195000D01*
X76114000Y-127195000D01*
X76114000Y-128797000D01*
X76114000Y-128797000D01*
G37*
G36*
X88052000Y-128797000D02*
G01*
X86700000Y-128797000D01*
X86700000Y-127195000D01*
X88052000Y-127195000D01*
X88052000Y-128797000D01*
X88052000Y-128797000D01*
G37*
G36*
X73828000Y-128797000D02*
G01*
X72476000Y-128797000D01*
X72476000Y-127195000D01*
X73828000Y-127195000D01*
X73828000Y-128797000D01*
X73828000Y-128797000D01*
G37*
G36*
X83480000Y-128797000D02*
G01*
X82128000Y-128797000D01*
X82128000Y-127195000D01*
X83480000Y-127195000D01*
X83480000Y-128797000D01*
X83480000Y-128797000D01*
G37*
G36*
X78654000Y-128777000D02*
G01*
X77302000Y-128777000D01*
X77302000Y-127175000D01*
X78654000Y-127175000D01*
X78654000Y-128777000D01*
X78654000Y-128777000D01*
G37*
G36*
X125331000Y-126651000D02*
G01*
X124229000Y-126651000D01*
X124229000Y-125149000D01*
X125331000Y-125149000D01*
X125331000Y-126651000D01*
X125331000Y-126651000D01*
G37*
G36*
X127151000Y-126651000D02*
G01*
X125849000Y-126651000D01*
X125849000Y-125149000D01*
X127151000Y-125149000D01*
X127151000Y-126651000D01*
X127151000Y-126651000D01*
G37*
G36*
X108198228Y-124911703D02*
G01*
X108353100Y-124975853D01*
X108492481Y-125068985D01*
X108611015Y-125187519D01*
X108704147Y-125326900D01*
X108768297Y-125481772D01*
X108801000Y-125646184D01*
X108801000Y-125813816D01*
X108768297Y-125978228D01*
X108704147Y-126133100D01*
X108611015Y-126272481D01*
X108492481Y-126391015D01*
X108353100Y-126484147D01*
X108198228Y-126548297D01*
X108033816Y-126581000D01*
X107866184Y-126581000D01*
X107701772Y-126548297D01*
X107546900Y-126484147D01*
X107407519Y-126391015D01*
X107288985Y-126272481D01*
X107195853Y-126133100D01*
X107131703Y-125978228D01*
X107099000Y-125813816D01*
X107099000Y-125646184D01*
X107131703Y-125481772D01*
X107195853Y-125326900D01*
X107288985Y-125187519D01*
X107407519Y-125068985D01*
X107546900Y-124975853D01*
X107701772Y-124911703D01*
X107866184Y-124879000D01*
X108033816Y-124879000D01*
X108198228Y-124911703D01*
X108198228Y-124911703D01*
G37*
G36*
X95498228Y-124911703D02*
G01*
X95653100Y-124975853D01*
X95792481Y-125068985D01*
X95911015Y-125187519D01*
X96004147Y-125326900D01*
X96068297Y-125481772D01*
X96101000Y-125646184D01*
X96101000Y-125813816D01*
X96068297Y-125978228D01*
X96004147Y-126133100D01*
X95911015Y-126272481D01*
X95792481Y-126391015D01*
X95653100Y-126484147D01*
X95498228Y-126548297D01*
X95333816Y-126581000D01*
X95166184Y-126581000D01*
X95001772Y-126548297D01*
X94846900Y-126484147D01*
X94707519Y-126391015D01*
X94588985Y-126272481D01*
X94495853Y-126133100D01*
X94431703Y-125978228D01*
X94399000Y-125813816D01*
X94399000Y-125646184D01*
X94431703Y-125481772D01*
X94495853Y-125326900D01*
X94588985Y-125187519D01*
X94707519Y-125068985D01*
X94846900Y-124975853D01*
X95001772Y-124911703D01*
X95166184Y-124879000D01*
X95333816Y-124879000D01*
X95498228Y-124911703D01*
X95498228Y-124911703D01*
G37*
G36*
X92958228Y-124911703D02*
G01*
X93113100Y-124975853D01*
X93252481Y-125068985D01*
X93371015Y-125187519D01*
X93464147Y-125326900D01*
X93528297Y-125481772D01*
X93561000Y-125646184D01*
X93561000Y-125813816D01*
X93528297Y-125978228D01*
X93464147Y-126133100D01*
X93371015Y-126272481D01*
X93252481Y-126391015D01*
X93113100Y-126484147D01*
X92958228Y-126548297D01*
X92793816Y-126581000D01*
X92626184Y-126581000D01*
X92461772Y-126548297D01*
X92306900Y-126484147D01*
X92167519Y-126391015D01*
X92048985Y-126272481D01*
X91955853Y-126133100D01*
X91891703Y-125978228D01*
X91859000Y-125813816D01*
X91859000Y-125646184D01*
X91891703Y-125481772D01*
X91955853Y-125326900D01*
X92048985Y-125187519D01*
X92167519Y-125068985D01*
X92306900Y-124975853D01*
X92461772Y-124911703D01*
X92626184Y-124879000D01*
X92793816Y-124879000D01*
X92958228Y-124911703D01*
X92958228Y-124911703D01*
G37*
G36*
X137397142Y-124948242D02*
G01*
X137545101Y-125009529D01*
X137678255Y-125098499D01*
X137791501Y-125211745D01*
X137880471Y-125344899D01*
X137941758Y-125492858D01*
X137973000Y-125649925D01*
X137973000Y-125810075D01*
X137941758Y-125967142D01*
X137880471Y-126115101D01*
X137791501Y-126248255D01*
X137678255Y-126361501D01*
X137545101Y-126450471D01*
X137397142Y-126511758D01*
X137240075Y-126543000D01*
X137079925Y-126543000D01*
X136922858Y-126511758D01*
X136774899Y-126450471D01*
X136641745Y-126361501D01*
X136528499Y-126248255D01*
X136439529Y-126115101D01*
X136378242Y-125967142D01*
X136347000Y-125810075D01*
X136347000Y-125649925D01*
X136378242Y-125492858D01*
X136439529Y-125344899D01*
X136528499Y-125211745D01*
X136641745Y-125098499D01*
X136774899Y-125009529D01*
X136922858Y-124948242D01*
X137079925Y-124917000D01*
X137240075Y-124917000D01*
X137397142Y-124948242D01*
X137397142Y-124948242D01*
G37*
G36*
X117077142Y-124948242D02*
G01*
X117225101Y-125009529D01*
X117358255Y-125098499D01*
X117471501Y-125211745D01*
X117560471Y-125344899D01*
X117621758Y-125492858D01*
X117653000Y-125649925D01*
X117653000Y-125810075D01*
X117621758Y-125967142D01*
X117560471Y-126115101D01*
X117471501Y-126248255D01*
X117358255Y-126361501D01*
X117225101Y-126450471D01*
X117077142Y-126511758D01*
X116920075Y-126543000D01*
X116759925Y-126543000D01*
X116602858Y-126511758D01*
X116454899Y-126450471D01*
X116321745Y-126361501D01*
X116208499Y-126248255D01*
X116119529Y-126115101D01*
X116058242Y-125967142D01*
X116027000Y-125810075D01*
X116027000Y-125649925D01*
X116058242Y-125492858D01*
X116119529Y-125344899D01*
X116208499Y-125211745D01*
X116321745Y-125098499D01*
X116454899Y-125009529D01*
X116602858Y-124948242D01*
X116759925Y-124917000D01*
X116920075Y-124917000D01*
X117077142Y-124948242D01*
X117077142Y-124948242D01*
G37*
G36*
X83480000Y-126297000D02*
G01*
X82128000Y-126297000D01*
X82128000Y-124695000D01*
X83480000Y-124695000D01*
X83480000Y-126297000D01*
X83480000Y-126297000D01*
G37*
G36*
X73828000Y-126297000D02*
G01*
X72476000Y-126297000D01*
X72476000Y-124695000D01*
X73828000Y-124695000D01*
X73828000Y-126297000D01*
X73828000Y-126297000D01*
G37*
G36*
X76114000Y-126297000D02*
G01*
X74762000Y-126297000D01*
X74762000Y-124695000D01*
X76114000Y-124695000D01*
X76114000Y-126297000D01*
X76114000Y-126297000D01*
G37*
G36*
X88052000Y-126297000D02*
G01*
X86700000Y-126297000D01*
X86700000Y-124695000D01*
X88052000Y-124695000D01*
X88052000Y-126297000D01*
X88052000Y-126297000D01*
G37*
G36*
X78654000Y-126277000D02*
G01*
X77302000Y-126277000D01*
X77302000Y-124675000D01*
X78654000Y-124675000D01*
X78654000Y-126277000D01*
X78654000Y-126277000D01*
G37*
G36*
X108198228Y-122371703D02*
G01*
X108353100Y-122435853D01*
X108492481Y-122528985D01*
X108611015Y-122647519D01*
X108704147Y-122786900D01*
X108768297Y-122941772D01*
X108801000Y-123106184D01*
X108801000Y-123273816D01*
X108768297Y-123438228D01*
X108704147Y-123593100D01*
X108611015Y-123732481D01*
X108492481Y-123851015D01*
X108353100Y-123944147D01*
X108198228Y-124008297D01*
X108033816Y-124041000D01*
X107866184Y-124041000D01*
X107701772Y-124008297D01*
X107546900Y-123944147D01*
X107407519Y-123851015D01*
X107288985Y-123732481D01*
X107195853Y-123593100D01*
X107131703Y-123438228D01*
X107099000Y-123273816D01*
X107099000Y-123106184D01*
X107131703Y-122941772D01*
X107195853Y-122786900D01*
X107288985Y-122647519D01*
X107407519Y-122528985D01*
X107546900Y-122435853D01*
X107701772Y-122371703D01*
X107866184Y-122339000D01*
X108033816Y-122339000D01*
X108198228Y-122371703D01*
X108198228Y-122371703D01*
G37*
G36*
X92958228Y-122371703D02*
G01*
X93113100Y-122435853D01*
X93252481Y-122528985D01*
X93371015Y-122647519D01*
X93464147Y-122786900D01*
X93528297Y-122941772D01*
X93561000Y-123106184D01*
X93561000Y-123273816D01*
X93528297Y-123438228D01*
X93464147Y-123593100D01*
X93371015Y-123732481D01*
X93252481Y-123851015D01*
X93113100Y-123944147D01*
X92958228Y-124008297D01*
X92793816Y-124041000D01*
X92626184Y-124041000D01*
X92461772Y-124008297D01*
X92306900Y-123944147D01*
X92167519Y-123851015D01*
X92048985Y-123732481D01*
X91955853Y-123593100D01*
X91891703Y-123438228D01*
X91859000Y-123273816D01*
X91859000Y-123106184D01*
X91891703Y-122941772D01*
X91955853Y-122786900D01*
X92048985Y-122647519D01*
X92167519Y-122528985D01*
X92306900Y-122435853D01*
X92461772Y-122371703D01*
X92626184Y-122339000D01*
X92793816Y-122339000D01*
X92958228Y-122371703D01*
X92958228Y-122371703D01*
G37*
G36*
X98038228Y-122371703D02*
G01*
X98193100Y-122435853D01*
X98332481Y-122528985D01*
X98451015Y-122647519D01*
X98544147Y-122786900D01*
X98608297Y-122941772D01*
X98641000Y-123106184D01*
X98641000Y-123273816D01*
X98608297Y-123438228D01*
X98544147Y-123593100D01*
X98451015Y-123732481D01*
X98332481Y-123851015D01*
X98193100Y-123944147D01*
X98038228Y-124008297D01*
X97873816Y-124041000D01*
X97706184Y-124041000D01*
X97541772Y-124008297D01*
X97386900Y-123944147D01*
X97247519Y-123851015D01*
X97128985Y-123732481D01*
X97035853Y-123593100D01*
X96971703Y-123438228D01*
X96939000Y-123273816D01*
X96939000Y-123106184D01*
X96971703Y-122941772D01*
X97035853Y-122786900D01*
X97128985Y-122647519D01*
X97247519Y-122528985D01*
X97386900Y-122435853D01*
X97541772Y-122371703D01*
X97706184Y-122339000D01*
X97873816Y-122339000D01*
X98038228Y-122371703D01*
X98038228Y-122371703D01*
G37*
G36*
X100578228Y-122371703D02*
G01*
X100733100Y-122435853D01*
X100872481Y-122528985D01*
X100991015Y-122647519D01*
X101084147Y-122786900D01*
X101148297Y-122941772D01*
X101181000Y-123106184D01*
X101181000Y-123273816D01*
X101148297Y-123438228D01*
X101084147Y-123593100D01*
X100991015Y-123732481D01*
X100872481Y-123851015D01*
X100733100Y-123944147D01*
X100578228Y-124008297D01*
X100413816Y-124041000D01*
X100246184Y-124041000D01*
X100081772Y-124008297D01*
X99926900Y-123944147D01*
X99787519Y-123851015D01*
X99668985Y-123732481D01*
X99575853Y-123593100D01*
X99511703Y-123438228D01*
X99479000Y-123273816D01*
X99479000Y-123106184D01*
X99511703Y-122941772D01*
X99575853Y-122786900D01*
X99668985Y-122647519D01*
X99787519Y-122528985D01*
X99926900Y-122435853D01*
X100081772Y-122371703D01*
X100246184Y-122339000D01*
X100413816Y-122339000D01*
X100578228Y-122371703D01*
X100578228Y-122371703D01*
G37*
G36*
X117077142Y-122408242D02*
G01*
X117225101Y-122469529D01*
X117358255Y-122558499D01*
X117471501Y-122671745D01*
X117560471Y-122804899D01*
X117621758Y-122952858D01*
X117653000Y-123109925D01*
X117653000Y-123270075D01*
X117621758Y-123427142D01*
X117560471Y-123575101D01*
X117471501Y-123708255D01*
X117358255Y-123821501D01*
X117225101Y-123910471D01*
X117077142Y-123971758D01*
X116920075Y-124003000D01*
X116759925Y-124003000D01*
X116602858Y-123971758D01*
X116454899Y-123910471D01*
X116321745Y-123821501D01*
X116208499Y-123708255D01*
X116119529Y-123575101D01*
X116058242Y-123427142D01*
X116027000Y-123270075D01*
X116027000Y-123109925D01*
X116058242Y-122952858D01*
X116119529Y-122804899D01*
X116208499Y-122671745D01*
X116321745Y-122558499D01*
X116454899Y-122469529D01*
X116602858Y-122408242D01*
X116759925Y-122377000D01*
X116920075Y-122377000D01*
X117077142Y-122408242D01*
X117077142Y-122408242D01*
G37*
G36*
X137397142Y-122408242D02*
G01*
X137545101Y-122469529D01*
X137678255Y-122558499D01*
X137791501Y-122671745D01*
X137880471Y-122804899D01*
X137941758Y-122952858D01*
X137973000Y-123109925D01*
X137973000Y-123270075D01*
X137941758Y-123427142D01*
X137880471Y-123575101D01*
X137791501Y-123708255D01*
X137678255Y-123821501D01*
X137545101Y-123910471D01*
X137397142Y-123971758D01*
X137240075Y-124003000D01*
X137079925Y-124003000D01*
X136922858Y-123971758D01*
X136774899Y-123910471D01*
X136641745Y-123821501D01*
X136528499Y-123708255D01*
X136439529Y-123575101D01*
X136378242Y-123427142D01*
X136347000Y-123270075D01*
X136347000Y-123109925D01*
X136378242Y-122952858D01*
X136439529Y-122804899D01*
X136528499Y-122671745D01*
X136641745Y-122558499D01*
X136774899Y-122469529D01*
X136922858Y-122408242D01*
X137079925Y-122377000D01*
X137240075Y-122377000D01*
X137397142Y-122408242D01*
X137397142Y-122408242D01*
G37*
G36*
X83591000Y-122311000D02*
G01*
X81989000Y-122311000D01*
X81989000Y-120209000D01*
X83591000Y-120209000D01*
X83591000Y-122311000D01*
X83591000Y-122311000D01*
G37*
G36*
X88191000Y-122311000D02*
G01*
X86589000Y-122311000D01*
X86589000Y-120209000D01*
X88191000Y-120209000D01*
X88191000Y-122311000D01*
X88191000Y-122311000D01*
G37*
G36*
X85891000Y-122311000D02*
G01*
X84289000Y-122311000D01*
X84289000Y-120209000D01*
X85891000Y-120209000D01*
X85891000Y-122311000D01*
X85891000Y-122311000D01*
G37*
G36*
X78646001Y-122126001D02*
G01*
X77044001Y-122126001D01*
X77044001Y-120024001D01*
X78646001Y-120024001D01*
X78646001Y-122126001D01*
X78646001Y-122126001D01*
G37*
G36*
X76346001Y-122126001D02*
G01*
X74744001Y-122126001D01*
X74744001Y-120024001D01*
X76346001Y-120024001D01*
X76346001Y-122126001D01*
X76346001Y-122126001D01*
G37*
G36*
X74046001Y-122126001D02*
G01*
X72444001Y-122126001D01*
X72444001Y-120024001D01*
X74046001Y-120024001D01*
X74046001Y-122126001D01*
X74046001Y-122126001D01*
G37*
G36*
X92958228Y-119831703D02*
G01*
X93113100Y-119895853D01*
X93252481Y-119988985D01*
X93371015Y-120107519D01*
X93464147Y-120246900D01*
X93528297Y-120401772D01*
X93561000Y-120566184D01*
X93561000Y-120733816D01*
X93528297Y-120898228D01*
X93464147Y-121053100D01*
X93371015Y-121192481D01*
X93252481Y-121311015D01*
X93113100Y-121404147D01*
X92958228Y-121468297D01*
X92793816Y-121501000D01*
X92626184Y-121501000D01*
X92461772Y-121468297D01*
X92306900Y-121404147D01*
X92167519Y-121311015D01*
X92048985Y-121192481D01*
X91955853Y-121053100D01*
X91891703Y-120898228D01*
X91859000Y-120733816D01*
X91859000Y-120566184D01*
X91891703Y-120401772D01*
X91955853Y-120246900D01*
X92048985Y-120107519D01*
X92167519Y-119988985D01*
X92306900Y-119895853D01*
X92461772Y-119831703D01*
X92626184Y-119799000D01*
X92793816Y-119799000D01*
X92958228Y-119831703D01*
X92958228Y-119831703D01*
G37*
G36*
X108198228Y-119831703D02*
G01*
X108353100Y-119895853D01*
X108492481Y-119988985D01*
X108611015Y-120107519D01*
X108704147Y-120246900D01*
X108768297Y-120401772D01*
X108801000Y-120566184D01*
X108801000Y-120733816D01*
X108768297Y-120898228D01*
X108704147Y-121053100D01*
X108611015Y-121192481D01*
X108492481Y-121311015D01*
X108353100Y-121404147D01*
X108198228Y-121468297D01*
X108033816Y-121501000D01*
X107866184Y-121501000D01*
X107701772Y-121468297D01*
X107546900Y-121404147D01*
X107407519Y-121311015D01*
X107288985Y-121192481D01*
X107195853Y-121053100D01*
X107131703Y-120898228D01*
X107099000Y-120733816D01*
X107099000Y-120566184D01*
X107131703Y-120401772D01*
X107195853Y-120246900D01*
X107288985Y-120107519D01*
X107407519Y-119988985D01*
X107546900Y-119895853D01*
X107701772Y-119831703D01*
X107866184Y-119799000D01*
X108033816Y-119799000D01*
X108198228Y-119831703D01*
X108198228Y-119831703D01*
G37*
G36*
X98038228Y-119831703D02*
G01*
X98193100Y-119895853D01*
X98332481Y-119988985D01*
X98451015Y-120107519D01*
X98544147Y-120246900D01*
X98608297Y-120401772D01*
X98641000Y-120566184D01*
X98641000Y-120733816D01*
X98608297Y-120898228D01*
X98544147Y-121053100D01*
X98451015Y-121192481D01*
X98332481Y-121311015D01*
X98193100Y-121404147D01*
X98038228Y-121468297D01*
X97873816Y-121501000D01*
X97706184Y-121501000D01*
X97541772Y-121468297D01*
X97386900Y-121404147D01*
X97247519Y-121311015D01*
X97128985Y-121192481D01*
X97035853Y-121053100D01*
X96971703Y-120898228D01*
X96939000Y-120733816D01*
X96939000Y-120566184D01*
X96971703Y-120401772D01*
X97035853Y-120246900D01*
X97128985Y-120107519D01*
X97247519Y-119988985D01*
X97386900Y-119895853D01*
X97541772Y-119831703D01*
X97706184Y-119799000D01*
X97873816Y-119799000D01*
X98038228Y-119831703D01*
X98038228Y-119831703D01*
G37*
G36*
X100578228Y-119831703D02*
G01*
X100733100Y-119895853D01*
X100872481Y-119988985D01*
X100991015Y-120107519D01*
X101084147Y-120246900D01*
X101148297Y-120401772D01*
X101181000Y-120566184D01*
X101181000Y-120733816D01*
X101148297Y-120898228D01*
X101084147Y-121053100D01*
X100991015Y-121192481D01*
X100872481Y-121311015D01*
X100733100Y-121404147D01*
X100578228Y-121468297D01*
X100413816Y-121501000D01*
X100246184Y-121501000D01*
X100081772Y-121468297D01*
X99926900Y-121404147D01*
X99787519Y-121311015D01*
X99668985Y-121192481D01*
X99575853Y-121053100D01*
X99511703Y-120898228D01*
X99479000Y-120733816D01*
X99479000Y-120566184D01*
X99511703Y-120401772D01*
X99575853Y-120246900D01*
X99668985Y-120107519D01*
X99787519Y-119988985D01*
X99926900Y-119895853D01*
X100081772Y-119831703D01*
X100246184Y-119799000D01*
X100413816Y-119799000D01*
X100578228Y-119831703D01*
X100578228Y-119831703D01*
G37*
G36*
X137397142Y-119868242D02*
G01*
X137545101Y-119929529D01*
X137678255Y-120018499D01*
X137791501Y-120131745D01*
X137880471Y-120264899D01*
X137941758Y-120412858D01*
X137973000Y-120569925D01*
X137973000Y-120730075D01*
X137941758Y-120887142D01*
X137880471Y-121035101D01*
X137791501Y-121168255D01*
X137678255Y-121281501D01*
X137545101Y-121370471D01*
X137397142Y-121431758D01*
X137240075Y-121463000D01*
X137079925Y-121463000D01*
X136922858Y-121431758D01*
X136774899Y-121370471D01*
X136641745Y-121281501D01*
X136528499Y-121168255D01*
X136439529Y-121035101D01*
X136378242Y-120887142D01*
X136347000Y-120730075D01*
X136347000Y-120569925D01*
X136378242Y-120412858D01*
X136439529Y-120264899D01*
X136528499Y-120131745D01*
X136641745Y-120018499D01*
X136774899Y-119929529D01*
X136922858Y-119868242D01*
X137079925Y-119837000D01*
X137240075Y-119837000D01*
X137397142Y-119868242D01*
X137397142Y-119868242D01*
G37*
G36*
X117077142Y-119868242D02*
G01*
X117225101Y-119929529D01*
X117358255Y-120018499D01*
X117471501Y-120131745D01*
X117560471Y-120264899D01*
X117621758Y-120412858D01*
X117653000Y-120569925D01*
X117653000Y-120730075D01*
X117621758Y-120887142D01*
X117560471Y-121035101D01*
X117471501Y-121168255D01*
X117358255Y-121281501D01*
X117225101Y-121370471D01*
X117077142Y-121431758D01*
X116920075Y-121463000D01*
X116759925Y-121463000D01*
X116602858Y-121431758D01*
X116454899Y-121370471D01*
X116321745Y-121281501D01*
X116208499Y-121168255D01*
X116119529Y-121035101D01*
X116058242Y-120887142D01*
X116027000Y-120730075D01*
X116027000Y-120569925D01*
X116058242Y-120412858D01*
X116119529Y-120264899D01*
X116208499Y-120131745D01*
X116321745Y-120018499D01*
X116454899Y-119929529D01*
X116602858Y-119868242D01*
X116759925Y-119837000D01*
X116920075Y-119837000D01*
X117077142Y-119868242D01*
X117077142Y-119868242D01*
G37*
G36*
X145935000Y-121415000D02*
G01*
X144133000Y-121415000D01*
X144133000Y-119313000D01*
X145935000Y-119313000D01*
X145935000Y-121415000D01*
X145935000Y-121415000D01*
G37*
G36*
X92958228Y-117291703D02*
G01*
X93113100Y-117355853D01*
X93252481Y-117448985D01*
X93371015Y-117567519D01*
X93464147Y-117706900D01*
X93528297Y-117861772D01*
X93561000Y-118026184D01*
X93561000Y-118193816D01*
X93528297Y-118358228D01*
X93464147Y-118513100D01*
X93371015Y-118652481D01*
X93252481Y-118771015D01*
X93113100Y-118864147D01*
X92958228Y-118928297D01*
X92793816Y-118961000D01*
X92626184Y-118961000D01*
X92461772Y-118928297D01*
X92306900Y-118864147D01*
X92167519Y-118771015D01*
X92048985Y-118652481D01*
X91955853Y-118513100D01*
X91891703Y-118358228D01*
X91859000Y-118193816D01*
X91859000Y-118026184D01*
X91891703Y-117861772D01*
X91955853Y-117706900D01*
X92048985Y-117567519D01*
X92167519Y-117448985D01*
X92306900Y-117355853D01*
X92461772Y-117291703D01*
X92626184Y-117259000D01*
X92793816Y-117259000D01*
X92958228Y-117291703D01*
X92958228Y-117291703D01*
G37*
G36*
X108198228Y-117291703D02*
G01*
X108353100Y-117355853D01*
X108492481Y-117448985D01*
X108611015Y-117567519D01*
X108704147Y-117706900D01*
X108768297Y-117861772D01*
X108801000Y-118026184D01*
X108801000Y-118193816D01*
X108768297Y-118358228D01*
X108704147Y-118513100D01*
X108611015Y-118652481D01*
X108492481Y-118771015D01*
X108353100Y-118864147D01*
X108198228Y-118928297D01*
X108033816Y-118961000D01*
X107866184Y-118961000D01*
X107701772Y-118928297D01*
X107546900Y-118864147D01*
X107407519Y-118771015D01*
X107288985Y-118652481D01*
X107195853Y-118513100D01*
X107131703Y-118358228D01*
X107099000Y-118193816D01*
X107099000Y-118026184D01*
X107131703Y-117861772D01*
X107195853Y-117706900D01*
X107288985Y-117567519D01*
X107407519Y-117448985D01*
X107546900Y-117355853D01*
X107701772Y-117291703D01*
X107866184Y-117259000D01*
X108033816Y-117259000D01*
X108198228Y-117291703D01*
X108198228Y-117291703D01*
G37*
G36*
X100578228Y-117291703D02*
G01*
X100733100Y-117355853D01*
X100872481Y-117448985D01*
X100991015Y-117567519D01*
X101084147Y-117706900D01*
X101148297Y-117861772D01*
X101181000Y-118026184D01*
X101181000Y-118193816D01*
X101148297Y-118358228D01*
X101084147Y-118513100D01*
X100991015Y-118652481D01*
X100872481Y-118771015D01*
X100733100Y-118864147D01*
X100578228Y-118928297D01*
X100413816Y-118961000D01*
X100246184Y-118961000D01*
X100081772Y-118928297D01*
X99926900Y-118864147D01*
X99787519Y-118771015D01*
X99668985Y-118652481D01*
X99575853Y-118513100D01*
X99511703Y-118358228D01*
X99479000Y-118193816D01*
X99479000Y-118026184D01*
X99511703Y-117861772D01*
X99575853Y-117706900D01*
X99668985Y-117567519D01*
X99787519Y-117448985D01*
X99926900Y-117355853D01*
X100081772Y-117291703D01*
X100246184Y-117259000D01*
X100413816Y-117259000D01*
X100578228Y-117291703D01*
X100578228Y-117291703D01*
G37*
G36*
X98038228Y-117291703D02*
G01*
X98193100Y-117355853D01*
X98332481Y-117448985D01*
X98451015Y-117567519D01*
X98544147Y-117706900D01*
X98608297Y-117861772D01*
X98641000Y-118026184D01*
X98641000Y-118193816D01*
X98608297Y-118358228D01*
X98544147Y-118513100D01*
X98451015Y-118652481D01*
X98332481Y-118771015D01*
X98193100Y-118864147D01*
X98038228Y-118928297D01*
X97873816Y-118961000D01*
X97706184Y-118961000D01*
X97541772Y-118928297D01*
X97386900Y-118864147D01*
X97247519Y-118771015D01*
X97128985Y-118652481D01*
X97035853Y-118513100D01*
X96971703Y-118358228D01*
X96939000Y-118193816D01*
X96939000Y-118026184D01*
X96971703Y-117861772D01*
X97035853Y-117706900D01*
X97128985Y-117567519D01*
X97247519Y-117448985D01*
X97386900Y-117355853D01*
X97541772Y-117291703D01*
X97706184Y-117259000D01*
X97873816Y-117259000D01*
X98038228Y-117291703D01*
X98038228Y-117291703D01*
G37*
G36*
X145935000Y-117415000D02*
G01*
X144133000Y-117415000D01*
X144133000Y-115313000D01*
X145935000Y-115313000D01*
X145935000Y-117415000D01*
X145935000Y-117415000D01*
G37*
G36*
X108198228Y-114751703D02*
G01*
X108353100Y-114815853D01*
X108492481Y-114908985D01*
X108611015Y-115027519D01*
X108704147Y-115166900D01*
X108768297Y-115321772D01*
X108801000Y-115486184D01*
X108801000Y-115653816D01*
X108768297Y-115818228D01*
X108704147Y-115973100D01*
X108611015Y-116112481D01*
X108492481Y-116231015D01*
X108353100Y-116324147D01*
X108198228Y-116388297D01*
X108033816Y-116421000D01*
X107866184Y-116421000D01*
X107701772Y-116388297D01*
X107546900Y-116324147D01*
X107407519Y-116231015D01*
X107288985Y-116112481D01*
X107195853Y-115973100D01*
X107131703Y-115818228D01*
X107099000Y-115653816D01*
X107099000Y-115486184D01*
X107131703Y-115321772D01*
X107195853Y-115166900D01*
X107288985Y-115027519D01*
X107407519Y-114908985D01*
X107546900Y-114815853D01*
X107701772Y-114751703D01*
X107866184Y-114719000D01*
X108033816Y-114719000D01*
X108198228Y-114751703D01*
X108198228Y-114751703D01*
G37*
G36*
X100578228Y-114751703D02*
G01*
X100733100Y-114815853D01*
X100872481Y-114908985D01*
X100991015Y-115027519D01*
X101084147Y-115166900D01*
X101148297Y-115321772D01*
X101181000Y-115486184D01*
X101181000Y-115653816D01*
X101148297Y-115818228D01*
X101084147Y-115973100D01*
X100991015Y-116112481D01*
X100872481Y-116231015D01*
X100733100Y-116324147D01*
X100578228Y-116388297D01*
X100413816Y-116421000D01*
X100246184Y-116421000D01*
X100081772Y-116388297D01*
X99926900Y-116324147D01*
X99787519Y-116231015D01*
X99668985Y-116112481D01*
X99575853Y-115973100D01*
X99511703Y-115818228D01*
X99479000Y-115653816D01*
X99479000Y-115486184D01*
X99511703Y-115321772D01*
X99575853Y-115166900D01*
X99668985Y-115027519D01*
X99787519Y-114908985D01*
X99926900Y-114815853D01*
X100081772Y-114751703D01*
X100246184Y-114719000D01*
X100413816Y-114719000D01*
X100578228Y-114751703D01*
X100578228Y-114751703D01*
G37*
G36*
X92958228Y-114751703D02*
G01*
X93113100Y-114815853D01*
X93252481Y-114908985D01*
X93371015Y-115027519D01*
X93464147Y-115166900D01*
X93528297Y-115321772D01*
X93561000Y-115486184D01*
X93561000Y-115653816D01*
X93528297Y-115818228D01*
X93464147Y-115973100D01*
X93371015Y-116112481D01*
X93252481Y-116231015D01*
X93113100Y-116324147D01*
X92958228Y-116388297D01*
X92793816Y-116421000D01*
X92626184Y-116421000D01*
X92461772Y-116388297D01*
X92306900Y-116324147D01*
X92167519Y-116231015D01*
X92048985Y-116112481D01*
X91955853Y-115973100D01*
X91891703Y-115818228D01*
X91859000Y-115653816D01*
X91859000Y-115486184D01*
X91891703Y-115321772D01*
X91955853Y-115166900D01*
X92048985Y-115027519D01*
X92167519Y-114908985D01*
X92306900Y-114815853D01*
X92461772Y-114751703D01*
X92626184Y-114719000D01*
X92793816Y-114719000D01*
X92958228Y-114751703D01*
X92958228Y-114751703D01*
G37*
G36*
X98038228Y-114751703D02*
G01*
X98193100Y-114815853D01*
X98332481Y-114908985D01*
X98451015Y-115027519D01*
X98544147Y-115166900D01*
X98608297Y-115321772D01*
X98641000Y-115486184D01*
X98641000Y-115653816D01*
X98608297Y-115818228D01*
X98544147Y-115973100D01*
X98451015Y-116112481D01*
X98332481Y-116231015D01*
X98193100Y-116324147D01*
X98038228Y-116388297D01*
X97873816Y-116421000D01*
X97706184Y-116421000D01*
X97541772Y-116388297D01*
X97386900Y-116324147D01*
X97247519Y-116231015D01*
X97128985Y-116112481D01*
X97035853Y-115973100D01*
X96971703Y-115818228D01*
X96939000Y-115653816D01*
X96939000Y-115486184D01*
X96971703Y-115321772D01*
X97035853Y-115166900D01*
X97128985Y-115027519D01*
X97247519Y-114908985D01*
X97386900Y-114815853D01*
X97541772Y-114751703D01*
X97706184Y-114719000D01*
X97873816Y-114719000D01*
X98038228Y-114751703D01*
X98038228Y-114751703D01*
G37*
G36*
X87041000Y-116011000D02*
G01*
X83139000Y-116011000D01*
X83139000Y-113909000D01*
X87041000Y-113909000D01*
X87041000Y-116011000D01*
X87041000Y-116011000D01*
G37*
G36*
X77496001Y-115826001D02*
G01*
X73594001Y-115826001D01*
X73594001Y-113724001D01*
X77496001Y-113724001D01*
X77496001Y-115826001D01*
X77496001Y-115826001D01*
G37*
G36*
X98038228Y-112211703D02*
G01*
X98193100Y-112275853D01*
X98332481Y-112368985D01*
X98451015Y-112487519D01*
X98544147Y-112626900D01*
X98608297Y-112781772D01*
X98641000Y-112946184D01*
X98641000Y-113113816D01*
X98608297Y-113278228D01*
X98544147Y-113433100D01*
X98451015Y-113572481D01*
X98332481Y-113691015D01*
X98193100Y-113784147D01*
X98038228Y-113848297D01*
X97873816Y-113881000D01*
X97706184Y-113881000D01*
X97541772Y-113848297D01*
X97386900Y-113784147D01*
X97247519Y-113691015D01*
X97128985Y-113572481D01*
X97035853Y-113433100D01*
X96971703Y-113278228D01*
X96939000Y-113113816D01*
X96939000Y-112946184D01*
X96971703Y-112781772D01*
X97035853Y-112626900D01*
X97128985Y-112487519D01*
X97247519Y-112368985D01*
X97386900Y-112275853D01*
X97541772Y-112211703D01*
X97706184Y-112179000D01*
X97873816Y-112179000D01*
X98038228Y-112211703D01*
X98038228Y-112211703D01*
G37*
G36*
X92958228Y-112211703D02*
G01*
X93113100Y-112275853D01*
X93252481Y-112368985D01*
X93371015Y-112487519D01*
X93464147Y-112626900D01*
X93528297Y-112781772D01*
X93561000Y-112946184D01*
X93561000Y-113113816D01*
X93528297Y-113278228D01*
X93464147Y-113433100D01*
X93371015Y-113572481D01*
X93252481Y-113691015D01*
X93113100Y-113784147D01*
X92958228Y-113848297D01*
X92793816Y-113881000D01*
X92626184Y-113881000D01*
X92461772Y-113848297D01*
X92306900Y-113784147D01*
X92167519Y-113691015D01*
X92048985Y-113572481D01*
X91955853Y-113433100D01*
X91891703Y-113278228D01*
X91859000Y-113113816D01*
X91859000Y-112946184D01*
X91891703Y-112781772D01*
X91955853Y-112626900D01*
X92048985Y-112487519D01*
X92167519Y-112368985D01*
X92306900Y-112275853D01*
X92461772Y-112211703D01*
X92626184Y-112179000D01*
X92793816Y-112179000D01*
X92958228Y-112211703D01*
X92958228Y-112211703D01*
G37*
G36*
X100578228Y-112211703D02*
G01*
X100733100Y-112275853D01*
X100872481Y-112368985D01*
X100991015Y-112487519D01*
X101084147Y-112626900D01*
X101148297Y-112781772D01*
X101181000Y-112946184D01*
X101181000Y-113113816D01*
X101148297Y-113278228D01*
X101084147Y-113433100D01*
X100991015Y-113572481D01*
X100872481Y-113691015D01*
X100733100Y-113784147D01*
X100578228Y-113848297D01*
X100413816Y-113881000D01*
X100246184Y-113881000D01*
X100081772Y-113848297D01*
X99926900Y-113784147D01*
X99787519Y-113691015D01*
X99668985Y-113572481D01*
X99575853Y-113433100D01*
X99511703Y-113278228D01*
X99479000Y-113113816D01*
X99479000Y-112946184D01*
X99511703Y-112781772D01*
X99575853Y-112626900D01*
X99668985Y-112487519D01*
X99787519Y-112368985D01*
X99926900Y-112275853D01*
X100081772Y-112211703D01*
X100246184Y-112179000D01*
X100413816Y-112179000D01*
X100578228Y-112211703D01*
X100578228Y-112211703D01*
G37*
G36*
X108198228Y-112211703D02*
G01*
X108353100Y-112275853D01*
X108492481Y-112368985D01*
X108611015Y-112487519D01*
X108704147Y-112626900D01*
X108768297Y-112781772D01*
X108801000Y-112946184D01*
X108801000Y-113113816D01*
X108768297Y-113278228D01*
X108704147Y-113433100D01*
X108611015Y-113572481D01*
X108492481Y-113691015D01*
X108353100Y-113784147D01*
X108198228Y-113848297D01*
X108033816Y-113881000D01*
X107866184Y-113881000D01*
X107701772Y-113848297D01*
X107546900Y-113784147D01*
X107407519Y-113691015D01*
X107288985Y-113572481D01*
X107195853Y-113433100D01*
X107131703Y-113278228D01*
X107099000Y-113113816D01*
X107099000Y-112946184D01*
X107131703Y-112781772D01*
X107195853Y-112626900D01*
X107288985Y-112487519D01*
X107407519Y-112368985D01*
X107546900Y-112275853D01*
X107701772Y-112211703D01*
X107866184Y-112179000D01*
X108033816Y-112179000D01*
X108198228Y-112211703D01*
X108198228Y-112211703D01*
G37*
G36*
X92958228Y-109671703D02*
G01*
X93113100Y-109735853D01*
X93252481Y-109828985D01*
X93371015Y-109947519D01*
X93464147Y-110086900D01*
X93528297Y-110241772D01*
X93561000Y-110406184D01*
X93561000Y-110573816D01*
X93528297Y-110738228D01*
X93464147Y-110893100D01*
X93371015Y-111032481D01*
X93252481Y-111151015D01*
X93113100Y-111244147D01*
X92958228Y-111308297D01*
X92793816Y-111341000D01*
X92626184Y-111341000D01*
X92461772Y-111308297D01*
X92306900Y-111244147D01*
X92167519Y-111151015D01*
X92048985Y-111032481D01*
X91955853Y-110893100D01*
X91891703Y-110738228D01*
X91859000Y-110573816D01*
X91859000Y-110406184D01*
X91891703Y-110241772D01*
X91955853Y-110086900D01*
X92048985Y-109947519D01*
X92167519Y-109828985D01*
X92306900Y-109735853D01*
X92461772Y-109671703D01*
X92626184Y-109639000D01*
X92793816Y-109639000D01*
X92958228Y-109671703D01*
X92958228Y-109671703D01*
G37*
G36*
X98038228Y-109671703D02*
G01*
X98193100Y-109735853D01*
X98332481Y-109828985D01*
X98451015Y-109947519D01*
X98544147Y-110086900D01*
X98608297Y-110241772D01*
X98641000Y-110406184D01*
X98641000Y-110573816D01*
X98608297Y-110738228D01*
X98544147Y-110893100D01*
X98451015Y-111032481D01*
X98332481Y-111151015D01*
X98193100Y-111244147D01*
X98038228Y-111308297D01*
X97873816Y-111341000D01*
X97706184Y-111341000D01*
X97541772Y-111308297D01*
X97386900Y-111244147D01*
X97247519Y-111151015D01*
X97128985Y-111032481D01*
X97035853Y-110893100D01*
X96971703Y-110738228D01*
X96939000Y-110573816D01*
X96939000Y-110406184D01*
X96971703Y-110241772D01*
X97035853Y-110086900D01*
X97128985Y-109947519D01*
X97247519Y-109828985D01*
X97386900Y-109735853D01*
X97541772Y-109671703D01*
X97706184Y-109639000D01*
X97873816Y-109639000D01*
X98038228Y-109671703D01*
X98038228Y-109671703D01*
G37*
G36*
X100578228Y-109671703D02*
G01*
X100733100Y-109735853D01*
X100872481Y-109828985D01*
X100991015Y-109947519D01*
X101084147Y-110086900D01*
X101148297Y-110241772D01*
X101181000Y-110406184D01*
X101181000Y-110573816D01*
X101148297Y-110738228D01*
X101084147Y-110893100D01*
X100991015Y-111032481D01*
X100872481Y-111151015D01*
X100733100Y-111244147D01*
X100578228Y-111308297D01*
X100413816Y-111341000D01*
X100246184Y-111341000D01*
X100081772Y-111308297D01*
X99926900Y-111244147D01*
X99787519Y-111151015D01*
X99668985Y-111032481D01*
X99575853Y-110893100D01*
X99511703Y-110738228D01*
X99479000Y-110573816D01*
X99479000Y-110406184D01*
X99511703Y-110241772D01*
X99575853Y-110086900D01*
X99668985Y-109947519D01*
X99787519Y-109828985D01*
X99926900Y-109735853D01*
X100081772Y-109671703D01*
X100246184Y-109639000D01*
X100413816Y-109639000D01*
X100578228Y-109671703D01*
X100578228Y-109671703D01*
G37*
G36*
X108198228Y-109671703D02*
G01*
X108353100Y-109735853D01*
X108492481Y-109828985D01*
X108611015Y-109947519D01*
X108704147Y-110086900D01*
X108768297Y-110241772D01*
X108801000Y-110406184D01*
X108801000Y-110573816D01*
X108768297Y-110738228D01*
X108704147Y-110893100D01*
X108611015Y-111032481D01*
X108492481Y-111151015D01*
X108353100Y-111244147D01*
X108198228Y-111308297D01*
X108033816Y-111341000D01*
X107866184Y-111341000D01*
X107701772Y-111308297D01*
X107546900Y-111244147D01*
X107407519Y-111151015D01*
X107288985Y-111032481D01*
X107195853Y-110893100D01*
X107131703Y-110738228D01*
X107099000Y-110573816D01*
X107099000Y-110406184D01*
X107131703Y-110241772D01*
X107195853Y-110086900D01*
X107288985Y-109947519D01*
X107407519Y-109828985D01*
X107546900Y-109735853D01*
X107701772Y-109671703D01*
X107866184Y-109639000D01*
X108033816Y-109639000D01*
X108198228Y-109671703D01*
X108198228Y-109671703D01*
G37*
G36*
X146084490Y-110778490D02*
G01*
X143983510Y-110778490D01*
X143983510Y-108677510D01*
X146084490Y-108677510D01*
X146084490Y-110778490D01*
X146084490Y-110778490D01*
G37*
G36*
X77786800Y-110645400D02*
G01*
X75984800Y-110645400D01*
X75984800Y-108543400D01*
X77786800Y-108543400D01*
X77786800Y-110645400D01*
X77786800Y-110645400D01*
G37*
G36*
X73976800Y-110645400D02*
G01*
X72174800Y-110645400D01*
X72174800Y-108543400D01*
X73976800Y-108543400D01*
X73976800Y-110645400D01*
X73976800Y-110645400D01*
G37*
G36*
X92958228Y-107131703D02*
G01*
X93113100Y-107195853D01*
X93252481Y-107288985D01*
X93371015Y-107407519D01*
X93464147Y-107546900D01*
X93528297Y-107701772D01*
X93561000Y-107866184D01*
X93561000Y-108033816D01*
X93528297Y-108198228D01*
X93464147Y-108353100D01*
X93371015Y-108492481D01*
X93252481Y-108611015D01*
X93113100Y-108704147D01*
X92958228Y-108768297D01*
X92793816Y-108801000D01*
X92626184Y-108801000D01*
X92461772Y-108768297D01*
X92306900Y-108704147D01*
X92167519Y-108611015D01*
X92048985Y-108492481D01*
X91955853Y-108353100D01*
X91891703Y-108198228D01*
X91859000Y-108033816D01*
X91859000Y-107866184D01*
X91891703Y-107701772D01*
X91955853Y-107546900D01*
X92048985Y-107407519D01*
X92167519Y-107288985D01*
X92306900Y-107195853D01*
X92461772Y-107131703D01*
X92626184Y-107099000D01*
X92793816Y-107099000D01*
X92958228Y-107131703D01*
X92958228Y-107131703D01*
G37*
G36*
X108198228Y-107131703D02*
G01*
X108353100Y-107195853D01*
X108492481Y-107288985D01*
X108611015Y-107407519D01*
X108704147Y-107546900D01*
X108768297Y-107701772D01*
X108801000Y-107866184D01*
X108801000Y-108033816D01*
X108768297Y-108198228D01*
X108704147Y-108353100D01*
X108611015Y-108492481D01*
X108492481Y-108611015D01*
X108353100Y-108704147D01*
X108198228Y-108768297D01*
X108033816Y-108801000D01*
X107866184Y-108801000D01*
X107701772Y-108768297D01*
X107546900Y-108704147D01*
X107407519Y-108611015D01*
X107288985Y-108492481D01*
X107195853Y-108353100D01*
X107131703Y-108198228D01*
X107099000Y-108033816D01*
X107099000Y-107866184D01*
X107131703Y-107701772D01*
X107195853Y-107546900D01*
X107288985Y-107407519D01*
X107407519Y-107288985D01*
X107546900Y-107195853D01*
X107701772Y-107131703D01*
X107866184Y-107099000D01*
X108033816Y-107099000D01*
X108198228Y-107131703D01*
X108198228Y-107131703D01*
G37*
G36*
X100578228Y-107131703D02*
G01*
X100733100Y-107195853D01*
X100872481Y-107288985D01*
X100991015Y-107407519D01*
X101084147Y-107546900D01*
X101148297Y-107701772D01*
X101181000Y-107866184D01*
X101181000Y-108033816D01*
X101148297Y-108198228D01*
X101084147Y-108353100D01*
X100991015Y-108492481D01*
X100872481Y-108611015D01*
X100733100Y-108704147D01*
X100578228Y-108768297D01*
X100413816Y-108801000D01*
X100246184Y-108801000D01*
X100081772Y-108768297D01*
X99926900Y-108704147D01*
X99787519Y-108611015D01*
X99668985Y-108492481D01*
X99575853Y-108353100D01*
X99511703Y-108198228D01*
X99479000Y-108033816D01*
X99479000Y-107866184D01*
X99511703Y-107701772D01*
X99575853Y-107546900D01*
X99668985Y-107407519D01*
X99787519Y-107288985D01*
X99926900Y-107195853D01*
X100081772Y-107131703D01*
X100246184Y-107099000D01*
X100413816Y-107099000D01*
X100578228Y-107131703D01*
X100578228Y-107131703D01*
G37*
G36*
X98038228Y-107131703D02*
G01*
X98193100Y-107195853D01*
X98332481Y-107288985D01*
X98451015Y-107407519D01*
X98544147Y-107546900D01*
X98608297Y-107701772D01*
X98641000Y-107866184D01*
X98641000Y-108033816D01*
X98608297Y-108198228D01*
X98544147Y-108353100D01*
X98451015Y-108492481D01*
X98332481Y-108611015D01*
X98193100Y-108704147D01*
X98038228Y-108768297D01*
X97873816Y-108801000D01*
X97706184Y-108801000D01*
X97541772Y-108768297D01*
X97386900Y-108704147D01*
X97247519Y-108611015D01*
X97128985Y-108492481D01*
X97035853Y-108353100D01*
X96971703Y-108198228D01*
X96939000Y-108033816D01*
X96939000Y-107866184D01*
X96971703Y-107701772D01*
X97035853Y-107546900D01*
X97128985Y-107407519D01*
X97247519Y-107288985D01*
X97386900Y-107195853D01*
X97541772Y-107131703D01*
X97706184Y-107099000D01*
X97873816Y-107099000D01*
X98038228Y-107131703D01*
X98038228Y-107131703D01*
G37*
G36*
X145239928Y-106152710D02*
G01*
X145239931Y-106152711D01*
X145239932Y-106152711D01*
X145437950Y-106212779D01*
X145437953Y-106212781D01*
X145437954Y-106212781D01*
X145620443Y-106310323D01*
X145780403Y-106441597D01*
X145911676Y-106601556D01*
X146009221Y-106784050D01*
X146069289Y-106982068D01*
X146069290Y-106982072D01*
X146089572Y-107188000D01*
X146069290Y-107393928D01*
X146069289Y-107393931D01*
X146069289Y-107393932D01*
X146009221Y-107591950D01*
X146009219Y-107591953D01*
X146009219Y-107591954D01*
X145911677Y-107774443D01*
X145780403Y-107934403D01*
X145620443Y-108065677D01*
X145437954Y-108163219D01*
X145437950Y-108163221D01*
X145239932Y-108223289D01*
X145239931Y-108223289D01*
X145239928Y-108223290D01*
X145085601Y-108238490D01*
X144982399Y-108238490D01*
X144828072Y-108223290D01*
X144828069Y-108223289D01*
X144828068Y-108223289D01*
X144630050Y-108163221D01*
X144630046Y-108163219D01*
X144447557Y-108065677D01*
X144287597Y-107934403D01*
X144156323Y-107774443D01*
X144058781Y-107591954D01*
X144058781Y-107591953D01*
X144058779Y-107591950D01*
X143998711Y-107393932D01*
X143998711Y-107393931D01*
X143998710Y-107393928D01*
X143978428Y-107188000D01*
X143998710Y-106982072D01*
X143998711Y-106982068D01*
X144058779Y-106784050D01*
X144156324Y-106601556D01*
X144287597Y-106441597D01*
X144447557Y-106310323D01*
X144630046Y-106212781D01*
X144630047Y-106212781D01*
X144630050Y-106212779D01*
X144828068Y-106152711D01*
X144828069Y-106152711D01*
X144828072Y-106152710D01*
X144982399Y-106137510D01*
X145085601Y-106137510D01*
X145239928Y-106152710D01*
X145239928Y-106152710D01*
G37*
G36*
X77786800Y-106645400D02*
G01*
X75984800Y-106645400D01*
X75984800Y-104543400D01*
X77786800Y-104543400D01*
X77786800Y-106645400D01*
X77786800Y-106645400D01*
G37*
G36*
X73976800Y-106645400D02*
G01*
X72174800Y-106645400D01*
X72174800Y-104543400D01*
X73976800Y-104543400D01*
X73976800Y-106645400D01*
X73976800Y-106645400D01*
G37*
G36*
X92958228Y-104591703D02*
G01*
X93113100Y-104655853D01*
X93252481Y-104748985D01*
X93371015Y-104867519D01*
X93464147Y-105006900D01*
X93528297Y-105161772D01*
X93561000Y-105326184D01*
X93561000Y-105493816D01*
X93528297Y-105658228D01*
X93464147Y-105813100D01*
X93371015Y-105952481D01*
X93252481Y-106071015D01*
X93113100Y-106164147D01*
X92958228Y-106228297D01*
X92793816Y-106261000D01*
X92626184Y-106261000D01*
X92461772Y-106228297D01*
X92306900Y-106164147D01*
X92167519Y-106071015D01*
X92048985Y-105952481D01*
X91955853Y-105813100D01*
X91891703Y-105658228D01*
X91859000Y-105493816D01*
X91859000Y-105326184D01*
X91891703Y-105161772D01*
X91955853Y-105006900D01*
X92048985Y-104867519D01*
X92167519Y-104748985D01*
X92306900Y-104655853D01*
X92461772Y-104591703D01*
X92626184Y-104559000D01*
X92793816Y-104559000D01*
X92958228Y-104591703D01*
X92958228Y-104591703D01*
G37*
G36*
X103118228Y-104591703D02*
G01*
X103273100Y-104655853D01*
X103412481Y-104748985D01*
X103531015Y-104867519D01*
X103624147Y-105006900D01*
X103688297Y-105161772D01*
X103721000Y-105326184D01*
X103721000Y-105493816D01*
X103688297Y-105658228D01*
X103624147Y-105813100D01*
X103531015Y-105952481D01*
X103412481Y-106071015D01*
X103273100Y-106164147D01*
X103118228Y-106228297D01*
X102953816Y-106261000D01*
X102786184Y-106261000D01*
X102621772Y-106228297D01*
X102466900Y-106164147D01*
X102327519Y-106071015D01*
X102208985Y-105952481D01*
X102115853Y-105813100D01*
X102051703Y-105658228D01*
X102019000Y-105493816D01*
X102019000Y-105326184D01*
X102051703Y-105161772D01*
X102115853Y-105006900D01*
X102208985Y-104867519D01*
X102327519Y-104748985D01*
X102466900Y-104655853D01*
X102621772Y-104591703D01*
X102786184Y-104559000D01*
X102953816Y-104559000D01*
X103118228Y-104591703D01*
X103118228Y-104591703D01*
G37*
G36*
X108198228Y-104591703D02*
G01*
X108353100Y-104655853D01*
X108492481Y-104748985D01*
X108611015Y-104867519D01*
X108704147Y-105006900D01*
X108768297Y-105161772D01*
X108801000Y-105326184D01*
X108801000Y-105493816D01*
X108768297Y-105658228D01*
X108704147Y-105813100D01*
X108611015Y-105952481D01*
X108492481Y-106071015D01*
X108353100Y-106164147D01*
X108198228Y-106228297D01*
X108033816Y-106261000D01*
X107866184Y-106261000D01*
X107701772Y-106228297D01*
X107546900Y-106164147D01*
X107407519Y-106071015D01*
X107288985Y-105952481D01*
X107195853Y-105813100D01*
X107131703Y-105658228D01*
X107099000Y-105493816D01*
X107099000Y-105326184D01*
X107131703Y-105161772D01*
X107195853Y-105006900D01*
X107288985Y-104867519D01*
X107407519Y-104748985D01*
X107546900Y-104655853D01*
X107701772Y-104591703D01*
X107866184Y-104559000D01*
X108033816Y-104559000D01*
X108198228Y-104591703D01*
X108198228Y-104591703D01*
G37*
G36*
X100578228Y-104591703D02*
G01*
X100733100Y-104655853D01*
X100872481Y-104748985D01*
X100991015Y-104867519D01*
X101084147Y-105006900D01*
X101148297Y-105161772D01*
X101181000Y-105326184D01*
X101181000Y-105493816D01*
X101148297Y-105658228D01*
X101084147Y-105813100D01*
X100991015Y-105952481D01*
X100872481Y-106071015D01*
X100733100Y-106164147D01*
X100578228Y-106228297D01*
X100413816Y-106261000D01*
X100246184Y-106261000D01*
X100081772Y-106228297D01*
X99926900Y-106164147D01*
X99787519Y-106071015D01*
X99668985Y-105952481D01*
X99575853Y-105813100D01*
X99511703Y-105658228D01*
X99479000Y-105493816D01*
X99479000Y-105326184D01*
X99511703Y-105161772D01*
X99575853Y-105006900D01*
X99668985Y-104867519D01*
X99787519Y-104748985D01*
X99926900Y-104655853D01*
X100081772Y-104591703D01*
X100246184Y-104559000D01*
X100413816Y-104559000D01*
X100578228Y-104591703D01*
X100578228Y-104591703D01*
G37*
G36*
X105658228Y-104591703D02*
G01*
X105813100Y-104655853D01*
X105952481Y-104748985D01*
X106071015Y-104867519D01*
X106164147Y-105006900D01*
X106228297Y-105161772D01*
X106261000Y-105326184D01*
X106261000Y-105493816D01*
X106228297Y-105658228D01*
X106164147Y-105813100D01*
X106071015Y-105952481D01*
X105952481Y-106071015D01*
X105813100Y-106164147D01*
X105658228Y-106228297D01*
X105493816Y-106261000D01*
X105326184Y-106261000D01*
X105161772Y-106228297D01*
X105006900Y-106164147D01*
X104867519Y-106071015D01*
X104748985Y-105952481D01*
X104655853Y-105813100D01*
X104591703Y-105658228D01*
X104559000Y-105493816D01*
X104559000Y-105326184D01*
X104591703Y-105161772D01*
X104655853Y-105006900D01*
X104748985Y-104867519D01*
X104867519Y-104748985D01*
X105006900Y-104655853D01*
X105161772Y-104591703D01*
X105326184Y-104559000D01*
X105493816Y-104559000D01*
X105658228Y-104591703D01*
X105658228Y-104591703D01*
G37*
G36*
X95498228Y-104591703D02*
G01*
X95653100Y-104655853D01*
X95792481Y-104748985D01*
X95911015Y-104867519D01*
X96004147Y-105006900D01*
X96068297Y-105161772D01*
X96101000Y-105326184D01*
X96101000Y-105493816D01*
X96068297Y-105658228D01*
X96004147Y-105813100D01*
X95911015Y-105952481D01*
X95792481Y-106071015D01*
X95653100Y-106164147D01*
X95498228Y-106228297D01*
X95333816Y-106261000D01*
X95166184Y-106261000D01*
X95001772Y-106228297D01*
X94846900Y-106164147D01*
X94707519Y-106071015D01*
X94588985Y-105952481D01*
X94495853Y-105813100D01*
X94431703Y-105658228D01*
X94399000Y-105493816D01*
X94399000Y-105326184D01*
X94431703Y-105161772D01*
X94495853Y-105006900D01*
X94588985Y-104867519D01*
X94707519Y-104748985D01*
X94846900Y-104655853D01*
X95001772Y-104591703D01*
X95166184Y-104559000D01*
X95333816Y-104559000D01*
X95498228Y-104591703D01*
X95498228Y-104591703D01*
G37*
G36*
X98038228Y-104591703D02*
G01*
X98193100Y-104655853D01*
X98332481Y-104748985D01*
X98451015Y-104867519D01*
X98544147Y-105006900D01*
X98608297Y-105161772D01*
X98641000Y-105326184D01*
X98641000Y-105493816D01*
X98608297Y-105658228D01*
X98544147Y-105813100D01*
X98451015Y-105952481D01*
X98332481Y-106071015D01*
X98193100Y-106164147D01*
X98038228Y-106228297D01*
X97873816Y-106261000D01*
X97706184Y-106261000D01*
X97541772Y-106228297D01*
X97386900Y-106164147D01*
X97247519Y-106071015D01*
X97128985Y-105952481D01*
X97035853Y-105813100D01*
X96971703Y-105658228D01*
X96939000Y-105493816D01*
X96939000Y-105326184D01*
X96971703Y-105161772D01*
X97035853Y-105006900D01*
X97128985Y-104867519D01*
X97247519Y-104748985D01*
X97386900Y-104655853D01*
X97541772Y-104591703D01*
X97706184Y-104559000D01*
X97873816Y-104559000D01*
X98038228Y-104591703D01*
X98038228Y-104591703D01*
G37*
G36*
X145239928Y-103612710D02*
G01*
X145239931Y-103612711D01*
X145239932Y-103612711D01*
X145437950Y-103672779D01*
X145437953Y-103672781D01*
X145437954Y-103672781D01*
X145620443Y-103770323D01*
X145780403Y-103901597D01*
X145911676Y-104061556D01*
X146009221Y-104244050D01*
X146069289Y-104442068D01*
X146069290Y-104442072D01*
X146089572Y-104648000D01*
X146069290Y-104853928D01*
X146069289Y-104853931D01*
X146069289Y-104853932D01*
X146009221Y-105051950D01*
X146009219Y-105051953D01*
X146009219Y-105051954D01*
X145911677Y-105234443D01*
X145780403Y-105394403D01*
X145620443Y-105525677D01*
X145437954Y-105623219D01*
X145437950Y-105623221D01*
X145239932Y-105683289D01*
X145239931Y-105683289D01*
X145239928Y-105683290D01*
X145085601Y-105698490D01*
X144982399Y-105698490D01*
X144828072Y-105683290D01*
X144828069Y-105683289D01*
X144828068Y-105683289D01*
X144630050Y-105623221D01*
X144630046Y-105623219D01*
X144447557Y-105525677D01*
X144287597Y-105394403D01*
X144156323Y-105234443D01*
X144058781Y-105051954D01*
X144058781Y-105051953D01*
X144058779Y-105051950D01*
X143998711Y-104853932D01*
X143998711Y-104853931D01*
X143998710Y-104853928D01*
X143978428Y-104648000D01*
X143998710Y-104442072D01*
X143998711Y-104442068D01*
X144058779Y-104244050D01*
X144156324Y-104061556D01*
X144287597Y-103901597D01*
X144447557Y-103770323D01*
X144630046Y-103672781D01*
X144630047Y-103672781D01*
X144630050Y-103672779D01*
X144828068Y-103612711D01*
X144828069Y-103612711D01*
X144828072Y-103612710D01*
X144982399Y-103597510D01*
X145085601Y-103597510D01*
X145239928Y-103612710D01*
X145239928Y-103612710D01*
G37*
G36*
X145239928Y-101072710D02*
G01*
X145239931Y-101072711D01*
X145239932Y-101072711D01*
X145437950Y-101132779D01*
X145437953Y-101132781D01*
X145437954Y-101132781D01*
X145620443Y-101230323D01*
X145780403Y-101361597D01*
X145911676Y-101521556D01*
X146009221Y-101704050D01*
X146069289Y-101902068D01*
X146069290Y-101902072D01*
X146089572Y-102108000D01*
X146069290Y-102313928D01*
X146069289Y-102313931D01*
X146069289Y-102313932D01*
X146009221Y-102511950D01*
X146009219Y-102511953D01*
X146009219Y-102511954D01*
X145911677Y-102694443D01*
X145780403Y-102854403D01*
X145620443Y-102985677D01*
X145437954Y-103083219D01*
X145437950Y-103083221D01*
X145239932Y-103143289D01*
X145239931Y-103143289D01*
X145239928Y-103143290D01*
X145085601Y-103158490D01*
X144982399Y-103158490D01*
X144828072Y-103143290D01*
X144828069Y-103143289D01*
X144828068Y-103143289D01*
X144630050Y-103083221D01*
X144630046Y-103083219D01*
X144447557Y-102985677D01*
X144287597Y-102854403D01*
X144156323Y-102694443D01*
X144058781Y-102511954D01*
X144058781Y-102511953D01*
X144058779Y-102511950D01*
X143998711Y-102313932D01*
X143998711Y-102313931D01*
X143998710Y-102313928D01*
X143978428Y-102108000D01*
X143998710Y-101902072D01*
X143998711Y-101902068D01*
X144058779Y-101704050D01*
X144156324Y-101521556D01*
X144287597Y-101361597D01*
X144447557Y-101230323D01*
X144630046Y-101132781D01*
X144630047Y-101132781D01*
X144630050Y-101132779D01*
X144828068Y-101072711D01*
X144828069Y-101072711D01*
X144828072Y-101072710D01*
X144982399Y-101057510D01*
X145085601Y-101057510D01*
X145239928Y-101072710D01*
X145239928Y-101072710D01*
G37*
G36*
X125636500Y-103023500D02*
G01*
X124934500Y-103023500D01*
X124934500Y-101421500D01*
X125636500Y-101421500D01*
X125636500Y-103023500D01*
X125636500Y-103023500D01*
G37*
G36*
X121826500Y-103023500D02*
G01*
X121124500Y-103023500D01*
X121124500Y-101421500D01*
X121826500Y-101421500D01*
X121826500Y-103023500D01*
X121826500Y-103023500D01*
G37*
G36*
X123096500Y-103023500D02*
G01*
X122394500Y-103023500D01*
X122394500Y-101421500D01*
X123096500Y-101421500D01*
X123096500Y-103023500D01*
X123096500Y-103023500D01*
G37*
G36*
X124366500Y-103023500D02*
G01*
X123664500Y-103023500D01*
X123664500Y-101421500D01*
X124366500Y-101421500D01*
X124366500Y-103023500D01*
X124366500Y-103023500D01*
G37*
G36*
X126906500Y-103023500D02*
G01*
X126204500Y-103023500D01*
X126204500Y-101421500D01*
X126906500Y-101421500D01*
X126906500Y-103023500D01*
X126906500Y-103023500D01*
G37*
G36*
X133256500Y-103023500D02*
G01*
X132554500Y-103023500D01*
X132554500Y-101421500D01*
X133256500Y-101421500D01*
X133256500Y-103023500D01*
X133256500Y-103023500D01*
G37*
G36*
X131986500Y-103023500D02*
G01*
X131284500Y-103023500D01*
X131284500Y-101421500D01*
X131986500Y-101421500D01*
X131986500Y-103023500D01*
X131986500Y-103023500D01*
G37*
G36*
X130716500Y-103023500D02*
G01*
X130014500Y-103023500D01*
X130014500Y-101421500D01*
X130716500Y-101421500D01*
X130716500Y-103023500D01*
X130716500Y-103023500D01*
G37*
G36*
X129446500Y-103023500D02*
G01*
X128744500Y-103023500D01*
X128744500Y-101421500D01*
X129446500Y-101421500D01*
X129446500Y-103023500D01*
X129446500Y-103023500D01*
G37*
G36*
X128176500Y-103023500D02*
G01*
X127474500Y-103023500D01*
X127474500Y-101421500D01*
X128176500Y-101421500D01*
X128176500Y-103023500D01*
X128176500Y-103023500D01*
G37*
G36*
X76297990Y-102777490D02*
G01*
X74197010Y-102777490D01*
X74197010Y-100676510D01*
X76297990Y-100676510D01*
X76297990Y-102777490D01*
X76297990Y-102777490D01*
G37*
G36*
X81918500Y-102628000D02*
G01*
X79816500Y-102628000D01*
X79816500Y-100826000D01*
X81918500Y-100826000D01*
X81918500Y-102628000D01*
X81918500Y-102628000D01*
G37*
G36*
X85918500Y-102628000D02*
G01*
X83816500Y-102628000D01*
X83816500Y-100826000D01*
X85918500Y-100826000D01*
X85918500Y-102628000D01*
X85918500Y-102628000D01*
G37*
G36*
X75453428Y-98151710D02*
G01*
X75453431Y-98151711D01*
X75453432Y-98151711D01*
X75651450Y-98211779D01*
X75651453Y-98211781D01*
X75651454Y-98211781D01*
X75833943Y-98309323D01*
X75993903Y-98440597D01*
X76125176Y-98600556D01*
X76222721Y-98783050D01*
X76238783Y-98836000D01*
X76282790Y-98981072D01*
X76303072Y-99187000D01*
X76282790Y-99392928D01*
X76282789Y-99392931D01*
X76282789Y-99392932D01*
X76222721Y-99590950D01*
X76222719Y-99590953D01*
X76222719Y-99590954D01*
X76125177Y-99773443D01*
X75993903Y-99933403D01*
X75833943Y-100064677D01*
X75651454Y-100162219D01*
X75651450Y-100162221D01*
X75453432Y-100222289D01*
X75453431Y-100222289D01*
X75453428Y-100222290D01*
X75299101Y-100237490D01*
X75195899Y-100237490D01*
X75041572Y-100222290D01*
X75041569Y-100222289D01*
X75041568Y-100222289D01*
X74843550Y-100162221D01*
X74843546Y-100162219D01*
X74661057Y-100064677D01*
X74501097Y-99933403D01*
X74369823Y-99773443D01*
X74272281Y-99590954D01*
X74272281Y-99590953D01*
X74272279Y-99590950D01*
X74212211Y-99392932D01*
X74212211Y-99392931D01*
X74212210Y-99392928D01*
X74191928Y-99187000D01*
X74212210Y-98981072D01*
X74256217Y-98836000D01*
X74272279Y-98783050D01*
X74369824Y-98600556D01*
X74501097Y-98440597D01*
X74661057Y-98309323D01*
X74843546Y-98211781D01*
X74843547Y-98211781D01*
X74843550Y-98211779D01*
X75041568Y-98151711D01*
X75041569Y-98151711D01*
X75041572Y-98151710D01*
X75195899Y-98136510D01*
X75299101Y-98136510D01*
X75453428Y-98151710D01*
X75453428Y-98151710D01*
G37*
G36*
X100420000Y-99538000D02*
G01*
X98818000Y-99538000D01*
X98818000Y-98836000D01*
X100420000Y-98836000D01*
X100420000Y-99538000D01*
X100420000Y-99538000D01*
G37*
G36*
X90920000Y-99538000D02*
G01*
X89318000Y-99538000D01*
X89318000Y-98836000D01*
X90920000Y-98836000D01*
X90920000Y-99538000D01*
X90920000Y-99538000D01*
G37*
G36*
X90920000Y-98268000D02*
G01*
X89318000Y-98268000D01*
X89318000Y-97566000D01*
X90920000Y-97566000D01*
X90920000Y-98268000D01*
X90920000Y-98268000D01*
G37*
G36*
X100420000Y-98268000D02*
G01*
X98818000Y-98268000D01*
X98818000Y-97566000D01*
X100420000Y-97566000D01*
X100420000Y-98268000D01*
X100420000Y-98268000D01*
G37*
G36*
X75453428Y-95611710D02*
G01*
X75453431Y-95611711D01*
X75453432Y-95611711D01*
X75651450Y-95671779D01*
X75651453Y-95671781D01*
X75651454Y-95671781D01*
X75833943Y-95769323D01*
X75993903Y-95900597D01*
X76125176Y-96060556D01*
X76222721Y-96243050D01*
X76238783Y-96296000D01*
X76282790Y-96441072D01*
X76303072Y-96647000D01*
X76282790Y-96852928D01*
X76282789Y-96852931D01*
X76282789Y-96852932D01*
X76222721Y-97050950D01*
X76222719Y-97050953D01*
X76222719Y-97050954D01*
X76125177Y-97233443D01*
X75993903Y-97393403D01*
X75833943Y-97524677D01*
X75651454Y-97622219D01*
X75651450Y-97622221D01*
X75453432Y-97682289D01*
X75453431Y-97682289D01*
X75453428Y-97682290D01*
X75299101Y-97697490D01*
X75195899Y-97697490D01*
X75041572Y-97682290D01*
X75041569Y-97682289D01*
X75041568Y-97682289D01*
X74843550Y-97622221D01*
X74843546Y-97622219D01*
X74661057Y-97524677D01*
X74501097Y-97393403D01*
X74369823Y-97233443D01*
X74272281Y-97050954D01*
X74272281Y-97050953D01*
X74272279Y-97050950D01*
X74212211Y-96852932D01*
X74212211Y-96852931D01*
X74212210Y-96852928D01*
X74191928Y-96647000D01*
X74212210Y-96441072D01*
X74256217Y-96296000D01*
X74272279Y-96243050D01*
X74369824Y-96060556D01*
X74501097Y-95900597D01*
X74661057Y-95769323D01*
X74843546Y-95671781D01*
X74843547Y-95671781D01*
X74843550Y-95671779D01*
X75041568Y-95611711D01*
X75041569Y-95611711D01*
X75041572Y-95611710D01*
X75195899Y-95596510D01*
X75299101Y-95596510D01*
X75453428Y-95611710D01*
X75453428Y-95611710D01*
G37*
G36*
X81918500Y-97484500D02*
G01*
X79816500Y-97484500D01*
X79816500Y-95682500D01*
X81918500Y-95682500D01*
X81918500Y-97484500D01*
X81918500Y-97484500D01*
G37*
G36*
X85918500Y-97484500D02*
G01*
X83816500Y-97484500D01*
X83816500Y-95682500D01*
X85918500Y-95682500D01*
X85918500Y-97484500D01*
X85918500Y-97484500D01*
G37*
G36*
X90920000Y-96998000D02*
G01*
X89318000Y-96998000D01*
X89318000Y-96296000D01*
X90920000Y-96296000D01*
X90920000Y-96998000D01*
X90920000Y-96998000D01*
G37*
G36*
X100420000Y-96998000D02*
G01*
X98818000Y-96998000D01*
X98818000Y-96296000D01*
X100420000Y-96296000D01*
X100420000Y-96998000D01*
X100420000Y-96998000D01*
G37*
G36*
X100420000Y-95728000D02*
G01*
X98818000Y-95728000D01*
X98818000Y-95026000D01*
X100420000Y-95026000D01*
X100420000Y-95728000D01*
X100420000Y-95728000D01*
G37*
G36*
X90920000Y-95728000D02*
G01*
X89318000Y-95728000D01*
X89318000Y-95026000D01*
X90920000Y-95026000D01*
X90920000Y-95728000D01*
X90920000Y-95728000D01*
G37*
G36*
X75453428Y-93071710D02*
G01*
X75453431Y-93071711D01*
X75453432Y-93071711D01*
X75651450Y-93131779D01*
X75651453Y-93131781D01*
X75651454Y-93131781D01*
X75833943Y-93229323D01*
X75993903Y-93360597D01*
X76125176Y-93520556D01*
X76222721Y-93703050D01*
X76238783Y-93756000D01*
X76282790Y-93901072D01*
X76303072Y-94107000D01*
X76282790Y-94312928D01*
X76282789Y-94312931D01*
X76282789Y-94312932D01*
X76222721Y-94510950D01*
X76222719Y-94510953D01*
X76222719Y-94510954D01*
X76125177Y-94693443D01*
X75993903Y-94853403D01*
X75833943Y-94984677D01*
X75651454Y-95082219D01*
X75651450Y-95082221D01*
X75453432Y-95142289D01*
X75453431Y-95142289D01*
X75453428Y-95142290D01*
X75299101Y-95157490D01*
X75195899Y-95157490D01*
X75041572Y-95142290D01*
X75041569Y-95142289D01*
X75041568Y-95142289D01*
X74843550Y-95082221D01*
X74843546Y-95082219D01*
X74661057Y-94984677D01*
X74501097Y-94853403D01*
X74369823Y-94693443D01*
X74272281Y-94510954D01*
X74272281Y-94510953D01*
X74272279Y-94510950D01*
X74212211Y-94312932D01*
X74212211Y-94312931D01*
X74212210Y-94312928D01*
X74191928Y-94107000D01*
X74212210Y-93901072D01*
X74256217Y-93756000D01*
X74272279Y-93703050D01*
X74369824Y-93520556D01*
X74501097Y-93360597D01*
X74661057Y-93229323D01*
X74843546Y-93131781D01*
X74843547Y-93131781D01*
X74843550Y-93131779D01*
X75041568Y-93071711D01*
X75041569Y-93071711D01*
X75041572Y-93071710D01*
X75195899Y-93056510D01*
X75299101Y-93056510D01*
X75453428Y-93071710D01*
X75453428Y-93071710D01*
G37*
G36*
X146084490Y-94522490D02*
G01*
X143983510Y-94522490D01*
X143983510Y-92421510D01*
X146084490Y-92421510D01*
X146084490Y-94522490D01*
X146084490Y-94522490D01*
G37*
G36*
X90920000Y-94458000D02*
G01*
X89318000Y-94458000D01*
X89318000Y-93756000D01*
X90920000Y-93756000D01*
X90920000Y-94458000D01*
X90920000Y-94458000D01*
G37*
G36*
X100420000Y-94458000D02*
G01*
X98818000Y-94458000D01*
X98818000Y-93756000D01*
X100420000Y-93756000D01*
X100420000Y-94458000D01*
X100420000Y-94458000D01*
G37*
G36*
X147710601Y-92886397D02*
G01*
X147749305Y-92894096D01*
X147781340Y-92907365D01*
X147858680Y-92939400D01*
X147957115Y-93005173D01*
X148040827Y-93088885D01*
X148106600Y-93187320D01*
X148151904Y-93296696D01*
X148175000Y-93412805D01*
X148175000Y-93531195D01*
X148151904Y-93647304D01*
X148106600Y-93756680D01*
X148040827Y-93855115D01*
X147957115Y-93938827D01*
X147858680Y-94004600D01*
X147781340Y-94036635D01*
X147749305Y-94049904D01*
X147710601Y-94057603D01*
X147633195Y-94073000D01*
X147514805Y-94073000D01*
X147437399Y-94057603D01*
X147398695Y-94049904D01*
X147366660Y-94036635D01*
X147289320Y-94004600D01*
X147190885Y-93938827D01*
X147107173Y-93855115D01*
X147041400Y-93756680D01*
X146996096Y-93647304D01*
X146973000Y-93531195D01*
X146973000Y-93412805D01*
X146996096Y-93296696D01*
X147041400Y-93187320D01*
X147107173Y-93088885D01*
X147190885Y-93005173D01*
X147289320Y-92939400D01*
X147366660Y-92907365D01*
X147398695Y-92894096D01*
X147437399Y-92886397D01*
X147514805Y-92871000D01*
X147633195Y-92871000D01*
X147710601Y-92886397D01*
X147710601Y-92886397D01*
G37*
G36*
X125636500Y-93523500D02*
G01*
X124934500Y-93523500D01*
X124934500Y-91921500D01*
X125636500Y-91921500D01*
X125636500Y-93523500D01*
X125636500Y-93523500D01*
G37*
G36*
X131986500Y-93523500D02*
G01*
X131284500Y-93523500D01*
X131284500Y-91921500D01*
X131986500Y-91921500D01*
X131986500Y-93523500D01*
X131986500Y-93523500D01*
G37*
G36*
X130716500Y-93523500D02*
G01*
X130014500Y-93523500D01*
X130014500Y-91921500D01*
X130716500Y-91921500D01*
X130716500Y-93523500D01*
X130716500Y-93523500D01*
G37*
G36*
X129446500Y-93523500D02*
G01*
X128744500Y-93523500D01*
X128744500Y-91921500D01*
X129446500Y-91921500D01*
X129446500Y-93523500D01*
X129446500Y-93523500D01*
G37*
G36*
X128176500Y-93523500D02*
G01*
X127474500Y-93523500D01*
X127474500Y-91921500D01*
X128176500Y-91921500D01*
X128176500Y-93523500D01*
X128176500Y-93523500D01*
G37*
G36*
X126906500Y-93523500D02*
G01*
X126204500Y-93523500D01*
X126204500Y-91921500D01*
X126906500Y-91921500D01*
X126906500Y-93523500D01*
X126906500Y-93523500D01*
G37*
G36*
X124366500Y-93523500D02*
G01*
X123664500Y-93523500D01*
X123664500Y-91921500D01*
X124366500Y-91921500D01*
X124366500Y-93523500D01*
X124366500Y-93523500D01*
G37*
G36*
X121826500Y-93523500D02*
G01*
X121124500Y-93523500D01*
X121124500Y-91921500D01*
X121826500Y-91921500D01*
X121826500Y-93523500D01*
X121826500Y-93523500D01*
G37*
G36*
X133256500Y-93523500D02*
G01*
X132554500Y-93523500D01*
X132554500Y-91921500D01*
X133256500Y-91921500D01*
X133256500Y-93523500D01*
X133256500Y-93523500D01*
G37*
G36*
X123096500Y-93523500D02*
G01*
X122394500Y-93523500D01*
X122394500Y-91921500D01*
X123096500Y-91921500D01*
X123096500Y-93523500D01*
X123096500Y-93523500D01*
G37*
G36*
X100420000Y-93188000D02*
G01*
X98818000Y-93188000D01*
X98818000Y-92486000D01*
X100420000Y-92486000D01*
X100420000Y-93188000D01*
X100420000Y-93188000D01*
G37*
G36*
X90920000Y-93188000D02*
G01*
X89318000Y-93188000D01*
X89318000Y-92486000D01*
X90920000Y-92486000D01*
X90920000Y-93188000D01*
X90920000Y-93188000D01*
G37*
G36*
X75453428Y-90531710D02*
G01*
X75453431Y-90531711D01*
X75453432Y-90531711D01*
X75651450Y-90591779D01*
X75651453Y-90591781D01*
X75651454Y-90591781D01*
X75833943Y-90689323D01*
X75993903Y-90820597D01*
X76125176Y-90980556D01*
X76222721Y-91163050D01*
X76282789Y-91361068D01*
X76282790Y-91361072D01*
X76303072Y-91567000D01*
X76282790Y-91772928D01*
X76282789Y-91772931D01*
X76282789Y-91772932D01*
X76222721Y-91970950D01*
X76222719Y-91970953D01*
X76222719Y-91970954D01*
X76125177Y-92153443D01*
X75993903Y-92313403D01*
X75833943Y-92444677D01*
X75651454Y-92542219D01*
X75651450Y-92542221D01*
X75453432Y-92602289D01*
X75453431Y-92602289D01*
X75453428Y-92602290D01*
X75299101Y-92617490D01*
X75195899Y-92617490D01*
X75041572Y-92602290D01*
X75041569Y-92602289D01*
X75041568Y-92602289D01*
X74843550Y-92542221D01*
X74843546Y-92542219D01*
X74661057Y-92444677D01*
X74501097Y-92313403D01*
X74369823Y-92153443D01*
X74272281Y-91970954D01*
X74272281Y-91970953D01*
X74272279Y-91970950D01*
X74212211Y-91772932D01*
X74212211Y-91772931D01*
X74212210Y-91772928D01*
X74191928Y-91567000D01*
X74212210Y-91361072D01*
X74212211Y-91361068D01*
X74272279Y-91163050D01*
X74369824Y-90980556D01*
X74501097Y-90820597D01*
X74661057Y-90689323D01*
X74843546Y-90591781D01*
X74843547Y-90591781D01*
X74843550Y-90591779D01*
X75041568Y-90531711D01*
X75041569Y-90531711D01*
X75041572Y-90531710D01*
X75195899Y-90516510D01*
X75299101Y-90516510D01*
X75453428Y-90531710D01*
X75453428Y-90531710D01*
G37*
G36*
X81918500Y-92468000D02*
G01*
X79816500Y-92468000D01*
X79816500Y-90666000D01*
X81918500Y-90666000D01*
X81918500Y-92468000D01*
X81918500Y-92468000D01*
G37*
G36*
X85918500Y-92468000D02*
G01*
X83816500Y-92468000D01*
X83816500Y-90666000D01*
X85918500Y-90666000D01*
X85918500Y-92468000D01*
X85918500Y-92468000D01*
G37*
G36*
X145239928Y-89896710D02*
G01*
X145239931Y-89896711D01*
X145239932Y-89896711D01*
X145437950Y-89956779D01*
X145437953Y-89956781D01*
X145437954Y-89956781D01*
X145620443Y-90054323D01*
X145780403Y-90185597D01*
X145911677Y-90345557D01*
X145940457Y-90399401D01*
X146009221Y-90528050D01*
X146058143Y-90689324D01*
X146069290Y-90726072D01*
X146089572Y-90932000D01*
X146069290Y-91137928D01*
X146069289Y-91137931D01*
X146069289Y-91137932D01*
X146009221Y-91335950D01*
X146009219Y-91335953D01*
X146009219Y-91335954D01*
X145911677Y-91518443D01*
X145780403Y-91678403D01*
X145620443Y-91809677D01*
X145437954Y-91907219D01*
X145437950Y-91907221D01*
X145239932Y-91967289D01*
X145239931Y-91967289D01*
X145239928Y-91967290D01*
X145085601Y-91982490D01*
X144982399Y-91982490D01*
X144828072Y-91967290D01*
X144828069Y-91967289D01*
X144828068Y-91967289D01*
X144630050Y-91907221D01*
X144630046Y-91907219D01*
X144447557Y-91809677D01*
X144287597Y-91678403D01*
X144156323Y-91518443D01*
X144058781Y-91335954D01*
X144058781Y-91335953D01*
X144058779Y-91335950D01*
X143998711Y-91137932D01*
X143998711Y-91137931D01*
X143998710Y-91137928D01*
X143978428Y-90932000D01*
X143998710Y-90726072D01*
X144009857Y-90689324D01*
X144058779Y-90528050D01*
X144127543Y-90399401D01*
X144156323Y-90345557D01*
X144287597Y-90185597D01*
X144447557Y-90054323D01*
X144630046Y-89956781D01*
X144630047Y-89956781D01*
X144630050Y-89956779D01*
X144828068Y-89896711D01*
X144828069Y-89896711D01*
X144828072Y-89896710D01*
X144982399Y-89881510D01*
X145085601Y-89881510D01*
X145239928Y-89896710D01*
X145239928Y-89896710D01*
G37*
G36*
X90920000Y-91918000D02*
G01*
X89318000Y-91918000D01*
X89318000Y-91216000D01*
X90920000Y-91216000D01*
X90920000Y-91918000D01*
X90920000Y-91918000D01*
G37*
G36*
X100420000Y-91918000D02*
G01*
X98818000Y-91918000D01*
X98818000Y-91216000D01*
X100420000Y-91216000D01*
X100420000Y-91918000D01*
X100420000Y-91918000D01*
G37*
G36*
X147706371Y-90345556D02*
G01*
X147749305Y-90354096D01*
X147781340Y-90367365D01*
X147858680Y-90399400D01*
X147957115Y-90465173D01*
X148040827Y-90548885D01*
X148106600Y-90647320D01*
X148151904Y-90756696D01*
X148175000Y-90872805D01*
X148175000Y-90991195D01*
X148151904Y-91107304D01*
X148106600Y-91216680D01*
X148040827Y-91315115D01*
X147957115Y-91398827D01*
X147858680Y-91464600D01*
X147781340Y-91496635D01*
X147749305Y-91509904D01*
X147710601Y-91517603D01*
X147633195Y-91533000D01*
X147514805Y-91533000D01*
X147437399Y-91517603D01*
X147398695Y-91509904D01*
X147366660Y-91496635D01*
X147289320Y-91464600D01*
X147190885Y-91398827D01*
X147107173Y-91315115D01*
X147041400Y-91216680D01*
X146996096Y-91107304D01*
X146973000Y-90991195D01*
X146973000Y-90872805D01*
X146996096Y-90756696D01*
X147041400Y-90647320D01*
X147107173Y-90548885D01*
X147190885Y-90465173D01*
X147289320Y-90399400D01*
X147366660Y-90367365D01*
X147398695Y-90354096D01*
X147441629Y-90345556D01*
X147514805Y-90331000D01*
X147633195Y-90331000D01*
X147706371Y-90345556D01*
X147706371Y-90345556D01*
G37*
G36*
X90920000Y-90648000D02*
G01*
X89318000Y-90648000D01*
X89318000Y-89946000D01*
X90920000Y-89946000D01*
X90920000Y-90648000D01*
X90920000Y-90648000D01*
G37*
G36*
X100420000Y-90648000D02*
G01*
X98818000Y-90648000D01*
X98818000Y-89946000D01*
X100420000Y-89946000D01*
X100420000Y-90648000D01*
X100420000Y-90648000D01*
G37*
G36*
X75453428Y-87991710D02*
G01*
X75453431Y-87991711D01*
X75453432Y-87991711D01*
X75651450Y-88051779D01*
X75651453Y-88051781D01*
X75651454Y-88051781D01*
X75833943Y-88149323D01*
X75993903Y-88280597D01*
X76125176Y-88440556D01*
X76222721Y-88623050D01*
X76282789Y-88821068D01*
X76282790Y-88821072D01*
X76303072Y-89027000D01*
X76282790Y-89232928D01*
X76282789Y-89232931D01*
X76282789Y-89232932D01*
X76222721Y-89430950D01*
X76222719Y-89430953D01*
X76222719Y-89430954D01*
X76125177Y-89613443D01*
X75993903Y-89773403D01*
X75833943Y-89904677D01*
X75651454Y-90002219D01*
X75651450Y-90002221D01*
X75453432Y-90062289D01*
X75453431Y-90062289D01*
X75453428Y-90062290D01*
X75299101Y-90077490D01*
X75195899Y-90077490D01*
X75041572Y-90062290D01*
X75041569Y-90062289D01*
X75041568Y-90062289D01*
X74843550Y-90002221D01*
X74843546Y-90002219D01*
X74661057Y-89904677D01*
X74501097Y-89773403D01*
X74369823Y-89613443D01*
X74272281Y-89430954D01*
X74272281Y-89430953D01*
X74272279Y-89430950D01*
X74212211Y-89232932D01*
X74212211Y-89232931D01*
X74212210Y-89232928D01*
X74191928Y-89027000D01*
X74212210Y-88821072D01*
X74212211Y-88821068D01*
X74272279Y-88623050D01*
X74369824Y-88440556D01*
X74501097Y-88280597D01*
X74661057Y-88149323D01*
X74843546Y-88051781D01*
X74843547Y-88051781D01*
X74843550Y-88051779D01*
X75041568Y-87991711D01*
X75041569Y-87991711D01*
X75041572Y-87991710D01*
X75195899Y-87976510D01*
X75299101Y-87976510D01*
X75453428Y-87991710D01*
X75453428Y-87991710D01*
G37*
G36*
X145239928Y-87356710D02*
G01*
X145239931Y-87356711D01*
X145239932Y-87356711D01*
X145437950Y-87416779D01*
X145437953Y-87416781D01*
X145437954Y-87416781D01*
X145620443Y-87514323D01*
X145780403Y-87645597D01*
X145911677Y-87805557D01*
X145940457Y-87859401D01*
X146009221Y-87988050D01*
X146058143Y-88149324D01*
X146069290Y-88186072D01*
X146089572Y-88392000D01*
X146069290Y-88597928D01*
X146069289Y-88597931D01*
X146069289Y-88597932D01*
X146009221Y-88795950D01*
X146009219Y-88795953D01*
X146009219Y-88795954D01*
X145911677Y-88978443D01*
X145780403Y-89138403D01*
X145620443Y-89269677D01*
X145437954Y-89367219D01*
X145437950Y-89367221D01*
X145239932Y-89427289D01*
X145239931Y-89427289D01*
X145239928Y-89427290D01*
X145085601Y-89442490D01*
X144982399Y-89442490D01*
X144828072Y-89427290D01*
X144828069Y-89427289D01*
X144828068Y-89427289D01*
X144630050Y-89367221D01*
X144630046Y-89367219D01*
X144447557Y-89269677D01*
X144287597Y-89138403D01*
X144156323Y-88978443D01*
X144058781Y-88795954D01*
X144058781Y-88795953D01*
X144058779Y-88795950D01*
X143998711Y-88597932D01*
X143998711Y-88597931D01*
X143998710Y-88597928D01*
X143978428Y-88392000D01*
X143998710Y-88186072D01*
X144009857Y-88149324D01*
X144058779Y-87988050D01*
X144127543Y-87859401D01*
X144156323Y-87805557D01*
X144287597Y-87645597D01*
X144447557Y-87514323D01*
X144630046Y-87416781D01*
X144630047Y-87416781D01*
X144630050Y-87416779D01*
X144828068Y-87356711D01*
X144828069Y-87356711D01*
X144828072Y-87356710D01*
X144982399Y-87341510D01*
X145085601Y-87341510D01*
X145239928Y-87356710D01*
X145239928Y-87356710D01*
G37*
G36*
X90920000Y-89378000D02*
G01*
X89318000Y-89378000D01*
X89318000Y-88676000D01*
X90920000Y-88676000D01*
X90920000Y-89378000D01*
X90920000Y-89378000D01*
G37*
G36*
X100420000Y-89378000D02*
G01*
X98818000Y-89378000D01*
X98818000Y-88676000D01*
X100420000Y-88676000D01*
X100420000Y-89378000D01*
X100420000Y-89378000D01*
G37*
G36*
X147706371Y-87805556D02*
G01*
X147749305Y-87814096D01*
X147781340Y-87827365D01*
X147858680Y-87859400D01*
X147957115Y-87925173D01*
X148040827Y-88008885D01*
X148106600Y-88107320D01*
X148151904Y-88216696D01*
X148175000Y-88332805D01*
X148175000Y-88451195D01*
X148151904Y-88567304D01*
X148106600Y-88676680D01*
X148040827Y-88775115D01*
X147957115Y-88858827D01*
X147858680Y-88924600D01*
X147781340Y-88956635D01*
X147749305Y-88969904D01*
X147710601Y-88977603D01*
X147633195Y-88993000D01*
X147514805Y-88993000D01*
X147437399Y-88977603D01*
X147398695Y-88969904D01*
X147366660Y-88956635D01*
X147289320Y-88924600D01*
X147190885Y-88858827D01*
X147107173Y-88775115D01*
X147041400Y-88676680D01*
X146996096Y-88567304D01*
X146973000Y-88451195D01*
X146973000Y-88332805D01*
X146996096Y-88216696D01*
X147041400Y-88107320D01*
X147107173Y-88008885D01*
X147190885Y-87925173D01*
X147289320Y-87859400D01*
X147366660Y-87827365D01*
X147398695Y-87814096D01*
X147441629Y-87805556D01*
X147514805Y-87791000D01*
X147633195Y-87791000D01*
X147706371Y-87805556D01*
X147706371Y-87805556D01*
G37*
G36*
X90920000Y-88108000D02*
G01*
X89318000Y-88108000D01*
X89318000Y-87406000D01*
X90920000Y-87406000D01*
X90920000Y-88108000D01*
X90920000Y-88108000D01*
G37*
G36*
X100420000Y-88108000D02*
G01*
X98818000Y-88108000D01*
X98818000Y-87406000D01*
X100420000Y-87406000D01*
X100420000Y-88108000D01*
X100420000Y-88108000D01*
G37*
G36*
X75453428Y-85451710D02*
G01*
X75453431Y-85451711D01*
X75453432Y-85451711D01*
X75651450Y-85511779D01*
X75651453Y-85511781D01*
X75651454Y-85511781D01*
X75833943Y-85609323D01*
X75993903Y-85740597D01*
X76125176Y-85900556D01*
X76222721Y-86083050D01*
X76282789Y-86281068D01*
X76282790Y-86281072D01*
X76303072Y-86487000D01*
X76282790Y-86692928D01*
X76282789Y-86692931D01*
X76282789Y-86692932D01*
X76222721Y-86890950D01*
X76222719Y-86890953D01*
X76222719Y-86890954D01*
X76125177Y-87073443D01*
X75993903Y-87233403D01*
X75833943Y-87364677D01*
X75651454Y-87462219D01*
X75651450Y-87462221D01*
X75453432Y-87522289D01*
X75453431Y-87522289D01*
X75453428Y-87522290D01*
X75299101Y-87537490D01*
X75195899Y-87537490D01*
X75041572Y-87522290D01*
X75041569Y-87522289D01*
X75041568Y-87522289D01*
X74843550Y-87462221D01*
X74843546Y-87462219D01*
X74661057Y-87364677D01*
X74501097Y-87233403D01*
X74369823Y-87073443D01*
X74272281Y-86890954D01*
X74272281Y-86890953D01*
X74272279Y-86890950D01*
X74212211Y-86692932D01*
X74212211Y-86692931D01*
X74212210Y-86692928D01*
X74191928Y-86487000D01*
X74212210Y-86281072D01*
X74212211Y-86281068D01*
X74272279Y-86083050D01*
X74369824Y-85900556D01*
X74501097Y-85740597D01*
X74661057Y-85609323D01*
X74843546Y-85511781D01*
X74843547Y-85511781D01*
X74843550Y-85511779D01*
X75041568Y-85451711D01*
X75041569Y-85451711D01*
X75041572Y-85451710D01*
X75195899Y-85436510D01*
X75299101Y-85436510D01*
X75453428Y-85451710D01*
X75453428Y-85451710D01*
G37*
G36*
X81918500Y-87388000D02*
G01*
X79816500Y-87388000D01*
X79816500Y-85586000D01*
X81918500Y-85586000D01*
X81918500Y-87388000D01*
X81918500Y-87388000D01*
G37*
G36*
X85918500Y-87388000D02*
G01*
X83816500Y-87388000D01*
X83816500Y-85586000D01*
X85918500Y-85586000D01*
X85918500Y-87388000D01*
X85918500Y-87388000D01*
G37*
G36*
X75453428Y-82911710D02*
G01*
X75453431Y-82911711D01*
X75453432Y-82911711D01*
X75651450Y-82971779D01*
X75651453Y-82971781D01*
X75651454Y-82971781D01*
X75833943Y-83069323D01*
X75993903Y-83200597D01*
X76125176Y-83360556D01*
X76222721Y-83543050D01*
X76282789Y-83741068D01*
X76282790Y-83741072D01*
X76303072Y-83947000D01*
X76282790Y-84152928D01*
X76282789Y-84152931D01*
X76282789Y-84152932D01*
X76222721Y-84350950D01*
X76222719Y-84350953D01*
X76222719Y-84350954D01*
X76125177Y-84533443D01*
X75993903Y-84693403D01*
X75833943Y-84824677D01*
X75651454Y-84922219D01*
X75651450Y-84922221D01*
X75453432Y-84982289D01*
X75453431Y-84982289D01*
X75453428Y-84982290D01*
X75299101Y-84997490D01*
X75195899Y-84997490D01*
X75041572Y-84982290D01*
X75041569Y-84982289D01*
X75041568Y-84982289D01*
X74843550Y-84922221D01*
X74843546Y-84922219D01*
X74661057Y-84824677D01*
X74501097Y-84693403D01*
X74369823Y-84533443D01*
X74272281Y-84350954D01*
X74272281Y-84350953D01*
X74272279Y-84350950D01*
X74212211Y-84152932D01*
X74212211Y-84152931D01*
X74212210Y-84152928D01*
X74191928Y-83947000D01*
X74212210Y-83741072D01*
X74212211Y-83741068D01*
X74272279Y-83543050D01*
X74369824Y-83360556D01*
X74501097Y-83200597D01*
X74661057Y-83069323D01*
X74843546Y-82971781D01*
X74843547Y-82971781D01*
X74843550Y-82971779D01*
X75041568Y-82911711D01*
X75041569Y-82911711D01*
X75041572Y-82911710D01*
X75195899Y-82896510D01*
X75299101Y-82896510D01*
X75453428Y-82911710D01*
X75453428Y-82911710D01*
G37*
G36*
X102704200Y-84762800D02*
G01*
X100902200Y-84762800D01*
X100902200Y-82660800D01*
X102704200Y-82660800D01*
X102704200Y-84762800D01*
X102704200Y-84762800D01*
G37*
G36*
X124853000Y-84762800D02*
G01*
X123051000Y-84762800D01*
X123051000Y-82660800D01*
X124853000Y-82660800D01*
X124853000Y-84762800D01*
X124853000Y-84762800D01*
G37*
G36*
X97598800Y-84762800D02*
G01*
X95796800Y-84762800D01*
X95796800Y-82660800D01*
X97598800Y-82660800D01*
X97598800Y-84762800D01*
X97598800Y-84762800D01*
G37*
G36*
X92544200Y-84762800D02*
G01*
X90742200Y-84762800D01*
X90742200Y-82660800D01*
X92544200Y-82660800D01*
X92544200Y-84762800D01*
X92544200Y-84762800D01*
G37*
G36*
X119798400Y-84712000D02*
G01*
X117996400Y-84712000D01*
X117996400Y-82610000D01*
X119798400Y-82610000D01*
X119798400Y-84712000D01*
X119798400Y-84712000D01*
G37*
G36*
X130009200Y-84686600D02*
G01*
X128207200Y-84686600D01*
X128207200Y-82584600D01*
X130009200Y-82584600D01*
X130009200Y-84686600D01*
X130009200Y-84686600D01*
G37*
G36*
X107809600Y-84661200D02*
G01*
X106007600Y-84661200D01*
X106007600Y-82559200D01*
X107809600Y-82559200D01*
X107809600Y-84661200D01*
X107809600Y-84661200D01*
G37*
G36*
X135013000Y-84635800D02*
G01*
X133211000Y-84635800D01*
X133211000Y-82533800D01*
X135013000Y-82533800D01*
X135013000Y-84635800D01*
X135013000Y-84635800D01*
G37*
G36*
X81829600Y-82663600D02*
G01*
X79727600Y-82663600D01*
X79727600Y-80861600D01*
X81829600Y-80861600D01*
X81829600Y-82663600D01*
X81829600Y-82663600D01*
G37*
G36*
X85829600Y-82663600D02*
G01*
X83727600Y-82663600D01*
X83727600Y-80861600D01*
X85829600Y-80861600D01*
X85829600Y-82663600D01*
X85829600Y-82663600D01*
G37*
G36*
X124853000Y-80762800D02*
G01*
X123051000Y-80762800D01*
X123051000Y-78660800D01*
X124853000Y-78660800D01*
X124853000Y-80762800D01*
X124853000Y-80762800D01*
G37*
G36*
X102704200Y-80762800D02*
G01*
X100902200Y-80762800D01*
X100902200Y-78660800D01*
X102704200Y-78660800D01*
X102704200Y-80762800D01*
X102704200Y-80762800D01*
G37*
G36*
X92544200Y-80762800D02*
G01*
X90742200Y-80762800D01*
X90742200Y-78660800D01*
X92544200Y-78660800D01*
X92544200Y-80762800D01*
X92544200Y-80762800D01*
G37*
G36*
X97598800Y-80762800D02*
G01*
X95796800Y-80762800D01*
X95796800Y-78660800D01*
X97598800Y-78660800D01*
X97598800Y-80762800D01*
X97598800Y-80762800D01*
G37*
G36*
X119798400Y-80712000D02*
G01*
X117996400Y-80712000D01*
X117996400Y-78610000D01*
X119798400Y-78610000D01*
X119798400Y-80712000D01*
X119798400Y-80712000D01*
G37*
G36*
X130009200Y-80686600D02*
G01*
X128207200Y-80686600D01*
X128207200Y-78584600D01*
X130009200Y-78584600D01*
X130009200Y-80686600D01*
X130009200Y-80686600D01*
G37*
G36*
X107809600Y-80661200D02*
G01*
X106007600Y-80661200D01*
X106007600Y-78559200D01*
X107809600Y-78559200D01*
X107809600Y-80661200D01*
X107809600Y-80661200D01*
G37*
G36*
X135013000Y-80635800D02*
G01*
X133211000Y-80635800D01*
X133211000Y-78533800D01*
X135013000Y-78533800D01*
X135013000Y-80635800D01*
X135013000Y-80635800D01*
G37*
G36*
X75548156Y-70672794D02*
G01*
X76269140Y-70816206D01*
X77060972Y-71144193D01*
X77773601Y-71620357D01*
X78379643Y-72226399D01*
X78855807Y-72939028D01*
X79183794Y-73730860D01*
X79351000Y-74571464D01*
X79351000Y-75428536D01*
X79183794Y-76269140D01*
X78855807Y-77060972D01*
X78379643Y-77773601D01*
X77773601Y-78379643D01*
X77060972Y-78855807D01*
X76269140Y-79183794D01*
X75548156Y-79327206D01*
X75428537Y-79351000D01*
X74571463Y-79351000D01*
X74451844Y-79327206D01*
X73730860Y-79183794D01*
X72939028Y-78855807D01*
X72226399Y-78379643D01*
X71620357Y-77773601D01*
X71144193Y-77060972D01*
X70816206Y-76269140D01*
X70649000Y-75428536D01*
X70649000Y-74571464D01*
X70816206Y-73730860D01*
X71144193Y-72939028D01*
X71620357Y-72226399D01*
X72226399Y-71620357D01*
X72939028Y-71144193D01*
X73730860Y-70816206D01*
X74451844Y-70672794D01*
X74571463Y-70649000D01*
X75428537Y-70649000D01*
X75548156Y-70672794D01*
X75548156Y-70672794D01*
G37*
G36*
X145548156Y-70672794D02*
G01*
X146269140Y-70816206D01*
X147060972Y-71144193D01*
X147773601Y-71620357D01*
X148379643Y-72226399D01*
X148855807Y-72939028D01*
X149183794Y-73730860D01*
X149351000Y-74571464D01*
X149351000Y-75428536D01*
X149183794Y-76269140D01*
X148855807Y-77060972D01*
X148379643Y-77773601D01*
X147773601Y-78379643D01*
X147060972Y-78855807D01*
X146269140Y-79183794D01*
X145548156Y-79327206D01*
X145428537Y-79351000D01*
X144571463Y-79351000D01*
X144451844Y-79327206D01*
X143730860Y-79183794D01*
X142939028Y-78855807D01*
X142226399Y-78379643D01*
X141620357Y-77773601D01*
X141144193Y-77060972D01*
X140816206Y-76269140D01*
X140649000Y-75428536D01*
X140649000Y-74571464D01*
X140816206Y-73730860D01*
X141144193Y-72939028D01*
X141620357Y-72226399D01*
X142226399Y-71620357D01*
X142939028Y-71144193D01*
X143730860Y-70816206D01*
X144451844Y-70672794D01*
X144571463Y-70649000D01*
X145428537Y-70649000D01*
X145548156Y-70672794D01*
X145548156Y-70672794D01*
G37*
G36*
X126697928Y-72954910D02*
G01*
X126697931Y-72954911D01*
X126697932Y-72954911D01*
X126895950Y-73014979D01*
X126895953Y-73014981D01*
X126895954Y-73014981D01*
X127078443Y-73112523D01*
X127238403Y-73243797D01*
X127369676Y-73403756D01*
X127467221Y-73586250D01*
X127511088Y-73730860D01*
X127527290Y-73784272D01*
X127547572Y-73990200D01*
X127527290Y-74196128D01*
X127527289Y-74196131D01*
X127527289Y-74196132D01*
X127467221Y-74394150D01*
X127467219Y-74394153D01*
X127467219Y-74394154D01*
X127369677Y-74576643D01*
X127238403Y-74736603D01*
X127078443Y-74867877D01*
X126895954Y-74965419D01*
X126895950Y-74965421D01*
X126697932Y-75025489D01*
X126697931Y-75025489D01*
X126697928Y-75025490D01*
X126543601Y-75040690D01*
X126440399Y-75040690D01*
X126286072Y-75025490D01*
X126286069Y-75025489D01*
X126286068Y-75025489D01*
X126088050Y-74965421D01*
X126088046Y-74965419D01*
X125905557Y-74867877D01*
X125745597Y-74736603D01*
X125614323Y-74576643D01*
X125516781Y-74394154D01*
X125516781Y-74394153D01*
X125516779Y-74394150D01*
X125456711Y-74196132D01*
X125456711Y-74196131D01*
X125456710Y-74196128D01*
X125436428Y-73990200D01*
X125456710Y-73784272D01*
X125472912Y-73730860D01*
X125516779Y-73586250D01*
X125614324Y-73403756D01*
X125745597Y-73243797D01*
X125905557Y-73112523D01*
X126088046Y-73014981D01*
X126088047Y-73014981D01*
X126088050Y-73014979D01*
X126286068Y-72954911D01*
X126286069Y-72954911D01*
X126286072Y-72954910D01*
X126440399Y-72939710D01*
X126543601Y-72939710D01*
X126697928Y-72954910D01*
X126697928Y-72954910D01*
G37*
G36*
X99469128Y-72954910D02*
G01*
X99469131Y-72954911D01*
X99469132Y-72954911D01*
X99667150Y-73014979D01*
X99667153Y-73014981D01*
X99667154Y-73014981D01*
X99849643Y-73112523D01*
X100009603Y-73243797D01*
X100140876Y-73403756D01*
X100238421Y-73586250D01*
X100282288Y-73730860D01*
X100298490Y-73784272D01*
X100318772Y-73990200D01*
X100298490Y-74196128D01*
X100298489Y-74196131D01*
X100298489Y-74196132D01*
X100238421Y-74394150D01*
X100238419Y-74394153D01*
X100238419Y-74394154D01*
X100140877Y-74576643D01*
X100009603Y-74736603D01*
X99849643Y-74867877D01*
X99667154Y-74965419D01*
X99667150Y-74965421D01*
X99469132Y-75025489D01*
X99469131Y-75025489D01*
X99469128Y-75025490D01*
X99314801Y-75040690D01*
X99211599Y-75040690D01*
X99057272Y-75025490D01*
X99057269Y-75025489D01*
X99057268Y-75025489D01*
X98859250Y-74965421D01*
X98859246Y-74965419D01*
X98676757Y-74867877D01*
X98516797Y-74736603D01*
X98385523Y-74576643D01*
X98287981Y-74394154D01*
X98287981Y-74394153D01*
X98287979Y-74394150D01*
X98227911Y-74196132D01*
X98227911Y-74196131D01*
X98227910Y-74196128D01*
X98207628Y-73990200D01*
X98227910Y-73784272D01*
X98244112Y-73730860D01*
X98287979Y-73586250D01*
X98385524Y-73403756D01*
X98516797Y-73243797D01*
X98676757Y-73112523D01*
X98859246Y-73014981D01*
X98859247Y-73014981D01*
X98859250Y-73014979D01*
X99057268Y-72954911D01*
X99057269Y-72954911D01*
X99057272Y-72954910D01*
X99211599Y-72939710D01*
X99314801Y-72939710D01*
X99469128Y-72954910D01*
X99469128Y-72954910D01*
G37*
G36*
X92693690Y-75040690D02*
G01*
X90592710Y-75040690D01*
X90592710Y-72939710D01*
X92693690Y-72939710D01*
X92693690Y-75040690D01*
X92693690Y-75040690D01*
G37*
G36*
X94389128Y-72954910D02*
G01*
X94389131Y-72954911D01*
X94389132Y-72954911D01*
X94587150Y-73014979D01*
X94587153Y-73014981D01*
X94587154Y-73014981D01*
X94769643Y-73112523D01*
X94929603Y-73243797D01*
X95060876Y-73403756D01*
X95158421Y-73586250D01*
X95202288Y-73730860D01*
X95218490Y-73784272D01*
X95238772Y-73990200D01*
X95218490Y-74196128D01*
X95218489Y-74196131D01*
X95218489Y-74196132D01*
X95158421Y-74394150D01*
X95158419Y-74394153D01*
X95158419Y-74394154D01*
X95060877Y-74576643D01*
X94929603Y-74736603D01*
X94769643Y-74867877D01*
X94587154Y-74965419D01*
X94587150Y-74965421D01*
X94389132Y-75025489D01*
X94389131Y-75025489D01*
X94389128Y-75025490D01*
X94234801Y-75040690D01*
X94131599Y-75040690D01*
X93977272Y-75025490D01*
X93977269Y-75025489D01*
X93977268Y-75025489D01*
X93779250Y-74965421D01*
X93779246Y-74965419D01*
X93596757Y-74867877D01*
X93436797Y-74736603D01*
X93305523Y-74576643D01*
X93207981Y-74394154D01*
X93207981Y-74394153D01*
X93207979Y-74394150D01*
X93147911Y-74196132D01*
X93147911Y-74196131D01*
X93147910Y-74196128D01*
X93127628Y-73990200D01*
X93147910Y-73784272D01*
X93164112Y-73730860D01*
X93207979Y-73586250D01*
X93305524Y-73403756D01*
X93436797Y-73243797D01*
X93596757Y-73112523D01*
X93779246Y-73014981D01*
X93779247Y-73014981D01*
X93779250Y-73014979D01*
X93977268Y-72954911D01*
X93977269Y-72954911D01*
X93977272Y-72954910D01*
X94131599Y-72939710D01*
X94234801Y-72939710D01*
X94389128Y-72954910D01*
X94389128Y-72954910D01*
G37*
G36*
X96929128Y-72954910D02*
G01*
X96929131Y-72954911D01*
X96929132Y-72954911D01*
X97127150Y-73014979D01*
X97127153Y-73014981D01*
X97127154Y-73014981D01*
X97309643Y-73112523D01*
X97469603Y-73243797D01*
X97600876Y-73403756D01*
X97698421Y-73586250D01*
X97742288Y-73730860D01*
X97758490Y-73784272D01*
X97778772Y-73990200D01*
X97758490Y-74196128D01*
X97758489Y-74196131D01*
X97758489Y-74196132D01*
X97698421Y-74394150D01*
X97698419Y-74394153D01*
X97698419Y-74394154D01*
X97600877Y-74576643D01*
X97469603Y-74736603D01*
X97309643Y-74867877D01*
X97127154Y-74965419D01*
X97127150Y-74965421D01*
X96929132Y-75025489D01*
X96929131Y-75025489D01*
X96929128Y-75025490D01*
X96774801Y-75040690D01*
X96671599Y-75040690D01*
X96517272Y-75025490D01*
X96517269Y-75025489D01*
X96517268Y-75025489D01*
X96319250Y-74965421D01*
X96319246Y-74965419D01*
X96136757Y-74867877D01*
X95976797Y-74736603D01*
X95845523Y-74576643D01*
X95747981Y-74394154D01*
X95747981Y-74394153D01*
X95747979Y-74394150D01*
X95687911Y-74196132D01*
X95687911Y-74196131D01*
X95687910Y-74196128D01*
X95667628Y-73990200D01*
X95687910Y-73784272D01*
X95704112Y-73730860D01*
X95747979Y-73586250D01*
X95845524Y-73403756D01*
X95976797Y-73243797D01*
X96136757Y-73112523D01*
X96319246Y-73014981D01*
X96319247Y-73014981D01*
X96319250Y-73014979D01*
X96517268Y-72954911D01*
X96517269Y-72954911D01*
X96517272Y-72954910D01*
X96671599Y-72939710D01*
X96774801Y-72939710D01*
X96929128Y-72954910D01*
X96929128Y-72954910D01*
G37*
G36*
X102009128Y-72954910D02*
G01*
X102009131Y-72954911D01*
X102009132Y-72954911D01*
X102207150Y-73014979D01*
X102207153Y-73014981D01*
X102207154Y-73014981D01*
X102389643Y-73112523D01*
X102549603Y-73243797D01*
X102680876Y-73403756D01*
X102778421Y-73586250D01*
X102822288Y-73730860D01*
X102838490Y-73784272D01*
X102858772Y-73990200D01*
X102838490Y-74196128D01*
X102838489Y-74196131D01*
X102838489Y-74196132D01*
X102778421Y-74394150D01*
X102778419Y-74394153D01*
X102778419Y-74394154D01*
X102680877Y-74576643D01*
X102549603Y-74736603D01*
X102389643Y-74867877D01*
X102207154Y-74965419D01*
X102207150Y-74965421D01*
X102009132Y-75025489D01*
X102009131Y-75025489D01*
X102009128Y-75025490D01*
X101854801Y-75040690D01*
X101751599Y-75040690D01*
X101597272Y-75025490D01*
X101597269Y-75025489D01*
X101597268Y-75025489D01*
X101399250Y-74965421D01*
X101399246Y-74965419D01*
X101216757Y-74867877D01*
X101056797Y-74736603D01*
X100925523Y-74576643D01*
X100827981Y-74394154D01*
X100827981Y-74394153D01*
X100827979Y-74394150D01*
X100767911Y-74196132D01*
X100767911Y-74196131D01*
X100767910Y-74196128D01*
X100747628Y-73990200D01*
X100767910Y-73784272D01*
X100784112Y-73730860D01*
X100827979Y-73586250D01*
X100925524Y-73403756D01*
X101056797Y-73243797D01*
X101216757Y-73112523D01*
X101399246Y-73014981D01*
X101399247Y-73014981D01*
X101399250Y-73014979D01*
X101597268Y-72954911D01*
X101597269Y-72954911D01*
X101597272Y-72954910D01*
X101751599Y-72939710D01*
X101854801Y-72939710D01*
X102009128Y-72954910D01*
X102009128Y-72954910D01*
G37*
G36*
X104549128Y-72954910D02*
G01*
X104549131Y-72954911D01*
X104549132Y-72954911D01*
X104747150Y-73014979D01*
X104747153Y-73014981D01*
X104747154Y-73014981D01*
X104929643Y-73112523D01*
X105089603Y-73243797D01*
X105220876Y-73403756D01*
X105318421Y-73586250D01*
X105362288Y-73730860D01*
X105378490Y-73784272D01*
X105398772Y-73990200D01*
X105378490Y-74196128D01*
X105378489Y-74196131D01*
X105378489Y-74196132D01*
X105318421Y-74394150D01*
X105318419Y-74394153D01*
X105318419Y-74394154D01*
X105220877Y-74576643D01*
X105089603Y-74736603D01*
X104929643Y-74867877D01*
X104747154Y-74965419D01*
X104747150Y-74965421D01*
X104549132Y-75025489D01*
X104549131Y-75025489D01*
X104549128Y-75025490D01*
X104394801Y-75040690D01*
X104291599Y-75040690D01*
X104137272Y-75025490D01*
X104137269Y-75025489D01*
X104137268Y-75025489D01*
X103939250Y-74965421D01*
X103939246Y-74965419D01*
X103756757Y-74867877D01*
X103596797Y-74736603D01*
X103465523Y-74576643D01*
X103367981Y-74394154D01*
X103367981Y-74394153D01*
X103367979Y-74394150D01*
X103307911Y-74196132D01*
X103307911Y-74196131D01*
X103307910Y-74196128D01*
X103287628Y-73990200D01*
X103307910Y-73784272D01*
X103324112Y-73730860D01*
X103367979Y-73586250D01*
X103465524Y-73403756D01*
X103596797Y-73243797D01*
X103756757Y-73112523D01*
X103939246Y-73014981D01*
X103939247Y-73014981D01*
X103939250Y-73014979D01*
X104137268Y-72954911D01*
X104137269Y-72954911D01*
X104137272Y-72954910D01*
X104291599Y-72939710D01*
X104394801Y-72939710D01*
X104549128Y-72954910D01*
X104549128Y-72954910D01*
G37*
G36*
X107089128Y-72954910D02*
G01*
X107089131Y-72954911D01*
X107089132Y-72954911D01*
X107287150Y-73014979D01*
X107287153Y-73014981D01*
X107287154Y-73014981D01*
X107469643Y-73112523D01*
X107629603Y-73243797D01*
X107760876Y-73403756D01*
X107858421Y-73586250D01*
X107902288Y-73730860D01*
X107918490Y-73784272D01*
X107938772Y-73990200D01*
X107918490Y-74196128D01*
X107918489Y-74196131D01*
X107918489Y-74196132D01*
X107858421Y-74394150D01*
X107858419Y-74394153D01*
X107858419Y-74394154D01*
X107760877Y-74576643D01*
X107629603Y-74736603D01*
X107469643Y-74867877D01*
X107287154Y-74965419D01*
X107287150Y-74965421D01*
X107089132Y-75025489D01*
X107089131Y-75025489D01*
X107089128Y-75025490D01*
X106934801Y-75040690D01*
X106831599Y-75040690D01*
X106677272Y-75025490D01*
X106677269Y-75025489D01*
X106677268Y-75025489D01*
X106479250Y-74965421D01*
X106479246Y-74965419D01*
X106296757Y-74867877D01*
X106136797Y-74736603D01*
X106005523Y-74576643D01*
X105907981Y-74394154D01*
X105907981Y-74394153D01*
X105907979Y-74394150D01*
X105847911Y-74196132D01*
X105847911Y-74196131D01*
X105847910Y-74196128D01*
X105827628Y-73990200D01*
X105847910Y-73784272D01*
X105864112Y-73730860D01*
X105907979Y-73586250D01*
X106005524Y-73403756D01*
X106136797Y-73243797D01*
X106296757Y-73112523D01*
X106479246Y-73014981D01*
X106479247Y-73014981D01*
X106479250Y-73014979D01*
X106677268Y-72954911D01*
X106677269Y-72954911D01*
X106677272Y-72954910D01*
X106831599Y-72939710D01*
X106934801Y-72939710D01*
X107089128Y-72954910D01*
X107089128Y-72954910D01*
G37*
G36*
X109629128Y-72954910D02*
G01*
X109629131Y-72954911D01*
X109629132Y-72954911D01*
X109827150Y-73014979D01*
X109827153Y-73014981D01*
X109827154Y-73014981D01*
X110009643Y-73112523D01*
X110169603Y-73243797D01*
X110300876Y-73403756D01*
X110398421Y-73586250D01*
X110442288Y-73730860D01*
X110458490Y-73784272D01*
X110478772Y-73990200D01*
X110458490Y-74196128D01*
X110458489Y-74196131D01*
X110458489Y-74196132D01*
X110398421Y-74394150D01*
X110398419Y-74394153D01*
X110398419Y-74394154D01*
X110300877Y-74576643D01*
X110169603Y-74736603D01*
X110009643Y-74867877D01*
X109827154Y-74965419D01*
X109827150Y-74965421D01*
X109629132Y-75025489D01*
X109629131Y-75025489D01*
X109629128Y-75025490D01*
X109474801Y-75040690D01*
X109371599Y-75040690D01*
X109217272Y-75025490D01*
X109217269Y-75025489D01*
X109217268Y-75025489D01*
X109019250Y-74965421D01*
X109019246Y-74965419D01*
X108836757Y-74867877D01*
X108676797Y-74736603D01*
X108545523Y-74576643D01*
X108447981Y-74394154D01*
X108447981Y-74394153D01*
X108447979Y-74394150D01*
X108387911Y-74196132D01*
X108387911Y-74196131D01*
X108387910Y-74196128D01*
X108367628Y-73990200D01*
X108387910Y-73784272D01*
X108404112Y-73730860D01*
X108447979Y-73586250D01*
X108545524Y-73403756D01*
X108676797Y-73243797D01*
X108836757Y-73112523D01*
X109019246Y-73014981D01*
X109019247Y-73014981D01*
X109019250Y-73014979D01*
X109217268Y-72954911D01*
X109217269Y-72954911D01*
X109217272Y-72954910D01*
X109371599Y-72939710D01*
X109474801Y-72939710D01*
X109629128Y-72954910D01*
X109629128Y-72954910D01*
G37*
G36*
X136857928Y-72954910D02*
G01*
X136857931Y-72954911D01*
X136857932Y-72954911D01*
X137055950Y-73014979D01*
X137055953Y-73014981D01*
X137055954Y-73014981D01*
X137238443Y-73112523D01*
X137398403Y-73243797D01*
X137529676Y-73403756D01*
X137627221Y-73586250D01*
X137671088Y-73730860D01*
X137687290Y-73784272D01*
X137707572Y-73990200D01*
X137687290Y-74196128D01*
X137687289Y-74196131D01*
X137687289Y-74196132D01*
X137627221Y-74394150D01*
X137627219Y-74394153D01*
X137627219Y-74394154D01*
X137529677Y-74576643D01*
X137398403Y-74736603D01*
X137238443Y-74867877D01*
X137055954Y-74965419D01*
X137055950Y-74965421D01*
X136857932Y-75025489D01*
X136857931Y-75025489D01*
X136857928Y-75025490D01*
X136703601Y-75040690D01*
X136600399Y-75040690D01*
X136446072Y-75025490D01*
X136446069Y-75025489D01*
X136446068Y-75025489D01*
X136248050Y-74965421D01*
X136248046Y-74965419D01*
X136065557Y-74867877D01*
X135905597Y-74736603D01*
X135774323Y-74576643D01*
X135676781Y-74394154D01*
X135676781Y-74394153D01*
X135676779Y-74394150D01*
X135616711Y-74196132D01*
X135616711Y-74196131D01*
X135616710Y-74196128D01*
X135596428Y-73990200D01*
X135616710Y-73784272D01*
X135632912Y-73730860D01*
X135676779Y-73586250D01*
X135774324Y-73403756D01*
X135905597Y-73243797D01*
X136065557Y-73112523D01*
X136248046Y-73014981D01*
X136248047Y-73014981D01*
X136248050Y-73014979D01*
X136446068Y-72954911D01*
X136446069Y-72954911D01*
X136446072Y-72954910D01*
X136600399Y-72939710D01*
X136703601Y-72939710D01*
X136857928Y-72954910D01*
X136857928Y-72954910D01*
G37*
G36*
X134317928Y-72954910D02*
G01*
X134317931Y-72954911D01*
X134317932Y-72954911D01*
X134515950Y-73014979D01*
X134515953Y-73014981D01*
X134515954Y-73014981D01*
X134698443Y-73112523D01*
X134858403Y-73243797D01*
X134989676Y-73403756D01*
X135087221Y-73586250D01*
X135131088Y-73730860D01*
X135147290Y-73784272D01*
X135167572Y-73990200D01*
X135147290Y-74196128D01*
X135147289Y-74196131D01*
X135147289Y-74196132D01*
X135087221Y-74394150D01*
X135087219Y-74394153D01*
X135087219Y-74394154D01*
X134989677Y-74576643D01*
X134858403Y-74736603D01*
X134698443Y-74867877D01*
X134515954Y-74965419D01*
X134515950Y-74965421D01*
X134317932Y-75025489D01*
X134317931Y-75025489D01*
X134317928Y-75025490D01*
X134163601Y-75040690D01*
X134060399Y-75040690D01*
X133906072Y-75025490D01*
X133906069Y-75025489D01*
X133906068Y-75025489D01*
X133708050Y-74965421D01*
X133708046Y-74965419D01*
X133525557Y-74867877D01*
X133365597Y-74736603D01*
X133234323Y-74576643D01*
X133136781Y-74394154D01*
X133136781Y-74394153D01*
X133136779Y-74394150D01*
X133076711Y-74196132D01*
X133076711Y-74196131D01*
X133076710Y-74196128D01*
X133056428Y-73990200D01*
X133076710Y-73784272D01*
X133092912Y-73730860D01*
X133136779Y-73586250D01*
X133234324Y-73403756D01*
X133365597Y-73243797D01*
X133525557Y-73112523D01*
X133708046Y-73014981D01*
X133708047Y-73014981D01*
X133708050Y-73014979D01*
X133906068Y-72954911D01*
X133906069Y-72954911D01*
X133906072Y-72954910D01*
X134060399Y-72939710D01*
X134163601Y-72939710D01*
X134317928Y-72954910D01*
X134317928Y-72954910D01*
G37*
G36*
X131777928Y-72954910D02*
G01*
X131777931Y-72954911D01*
X131777932Y-72954911D01*
X131975950Y-73014979D01*
X131975953Y-73014981D01*
X131975954Y-73014981D01*
X132158443Y-73112523D01*
X132318403Y-73243797D01*
X132449676Y-73403756D01*
X132547221Y-73586250D01*
X132591088Y-73730860D01*
X132607290Y-73784272D01*
X132627572Y-73990200D01*
X132607290Y-74196128D01*
X132607289Y-74196131D01*
X132607289Y-74196132D01*
X132547221Y-74394150D01*
X132547219Y-74394153D01*
X132547219Y-74394154D01*
X132449677Y-74576643D01*
X132318403Y-74736603D01*
X132158443Y-74867877D01*
X131975954Y-74965419D01*
X131975950Y-74965421D01*
X131777932Y-75025489D01*
X131777931Y-75025489D01*
X131777928Y-75025490D01*
X131623601Y-75040690D01*
X131520399Y-75040690D01*
X131366072Y-75025490D01*
X131366069Y-75025489D01*
X131366068Y-75025489D01*
X131168050Y-74965421D01*
X131168046Y-74965419D01*
X130985557Y-74867877D01*
X130825597Y-74736603D01*
X130694323Y-74576643D01*
X130596781Y-74394154D01*
X130596781Y-74394153D01*
X130596779Y-74394150D01*
X130536711Y-74196132D01*
X130536711Y-74196131D01*
X130536710Y-74196128D01*
X130516428Y-73990200D01*
X130536710Y-73784272D01*
X130552912Y-73730860D01*
X130596779Y-73586250D01*
X130694324Y-73403756D01*
X130825597Y-73243797D01*
X130985557Y-73112523D01*
X131168046Y-73014981D01*
X131168047Y-73014981D01*
X131168050Y-73014979D01*
X131366068Y-72954911D01*
X131366069Y-72954911D01*
X131366072Y-72954910D01*
X131520399Y-72939710D01*
X131623601Y-72939710D01*
X131777928Y-72954910D01*
X131777928Y-72954910D01*
G37*
G36*
X129237928Y-72954910D02*
G01*
X129237931Y-72954911D01*
X129237932Y-72954911D01*
X129435950Y-73014979D01*
X129435953Y-73014981D01*
X129435954Y-73014981D01*
X129618443Y-73112523D01*
X129778403Y-73243797D01*
X129909676Y-73403756D01*
X130007221Y-73586250D01*
X130051088Y-73730860D01*
X130067290Y-73784272D01*
X130087572Y-73990200D01*
X130067290Y-74196128D01*
X130067289Y-74196131D01*
X130067289Y-74196132D01*
X130007221Y-74394150D01*
X130007219Y-74394153D01*
X130007219Y-74394154D01*
X129909677Y-74576643D01*
X129778403Y-74736603D01*
X129618443Y-74867877D01*
X129435954Y-74965419D01*
X129435950Y-74965421D01*
X129237932Y-75025489D01*
X129237931Y-75025489D01*
X129237928Y-75025490D01*
X129083601Y-75040690D01*
X128980399Y-75040690D01*
X128826072Y-75025490D01*
X128826069Y-75025489D01*
X128826068Y-75025489D01*
X128628050Y-74965421D01*
X128628046Y-74965419D01*
X128445557Y-74867877D01*
X128285597Y-74736603D01*
X128154323Y-74576643D01*
X128056781Y-74394154D01*
X128056781Y-74394153D01*
X128056779Y-74394150D01*
X127996711Y-74196132D01*
X127996711Y-74196131D01*
X127996710Y-74196128D01*
X127976428Y-73990200D01*
X127996710Y-73784272D01*
X128012912Y-73730860D01*
X128056779Y-73586250D01*
X128154324Y-73403756D01*
X128285597Y-73243797D01*
X128445557Y-73112523D01*
X128628046Y-73014981D01*
X128628047Y-73014981D01*
X128628050Y-73014979D01*
X128826068Y-72954911D01*
X128826069Y-72954911D01*
X128826072Y-72954910D01*
X128980399Y-72939710D01*
X129083601Y-72939710D01*
X129237928Y-72954910D01*
X129237928Y-72954910D01*
G37*
G36*
X124157928Y-72954910D02*
G01*
X124157931Y-72954911D01*
X124157932Y-72954911D01*
X124355950Y-73014979D01*
X124355953Y-73014981D01*
X124355954Y-73014981D01*
X124538443Y-73112523D01*
X124698403Y-73243797D01*
X124829676Y-73403756D01*
X124927221Y-73586250D01*
X124971088Y-73730860D01*
X124987290Y-73784272D01*
X125007572Y-73990200D01*
X124987290Y-74196128D01*
X124987289Y-74196131D01*
X124987289Y-74196132D01*
X124927221Y-74394150D01*
X124927219Y-74394153D01*
X124927219Y-74394154D01*
X124829677Y-74576643D01*
X124698403Y-74736603D01*
X124538443Y-74867877D01*
X124355954Y-74965419D01*
X124355950Y-74965421D01*
X124157932Y-75025489D01*
X124157931Y-75025489D01*
X124157928Y-75025490D01*
X124003601Y-75040690D01*
X123900399Y-75040690D01*
X123746072Y-75025490D01*
X123746069Y-75025489D01*
X123746068Y-75025489D01*
X123548050Y-74965421D01*
X123548046Y-74965419D01*
X123365557Y-74867877D01*
X123205597Y-74736603D01*
X123074323Y-74576643D01*
X122976781Y-74394154D01*
X122976781Y-74394153D01*
X122976779Y-74394150D01*
X122916711Y-74196132D01*
X122916711Y-74196131D01*
X122916710Y-74196128D01*
X122896428Y-73990200D01*
X122916710Y-73784272D01*
X122932912Y-73730860D01*
X122976779Y-73586250D01*
X123074324Y-73403756D01*
X123205597Y-73243797D01*
X123365557Y-73112523D01*
X123548046Y-73014981D01*
X123548047Y-73014981D01*
X123548050Y-73014979D01*
X123746068Y-72954911D01*
X123746069Y-72954911D01*
X123746072Y-72954910D01*
X123900399Y-72939710D01*
X124003601Y-72939710D01*
X124157928Y-72954910D01*
X124157928Y-72954910D01*
G37*
G36*
X119922490Y-75040690D02*
G01*
X117821510Y-75040690D01*
X117821510Y-72939710D01*
X119922490Y-72939710D01*
X119922490Y-75040690D01*
X119922490Y-75040690D01*
G37*
G36*
X121617928Y-72954910D02*
G01*
X121617931Y-72954911D01*
X121617932Y-72954911D01*
X121815950Y-73014979D01*
X121815953Y-73014981D01*
X121815954Y-73014981D01*
X121998443Y-73112523D01*
X122158403Y-73243797D01*
X122289676Y-73403756D01*
X122387221Y-73586250D01*
X122431088Y-73730860D01*
X122447290Y-73784272D01*
X122467572Y-73990200D01*
X122447290Y-74196128D01*
X122447289Y-74196131D01*
X122447289Y-74196132D01*
X122387221Y-74394150D01*
X122387219Y-74394153D01*
X122387219Y-74394154D01*
X122289677Y-74576643D01*
X122158403Y-74736603D01*
X121998443Y-74867877D01*
X121815954Y-74965419D01*
X121815950Y-74965421D01*
X121617932Y-75025489D01*
X121617931Y-75025489D01*
X121617928Y-75025490D01*
X121463601Y-75040690D01*
X121360399Y-75040690D01*
X121206072Y-75025490D01*
X121206069Y-75025489D01*
X121206068Y-75025489D01*
X121008050Y-74965421D01*
X121008046Y-74965419D01*
X120825557Y-74867877D01*
X120665597Y-74736603D01*
X120534323Y-74576643D01*
X120436781Y-74394154D01*
X120436781Y-74394153D01*
X120436779Y-74394150D01*
X120376711Y-74196132D01*
X120376711Y-74196131D01*
X120376710Y-74196128D01*
X120356428Y-73990200D01*
X120376710Y-73784272D01*
X120392912Y-73730860D01*
X120436779Y-73586250D01*
X120534324Y-73403756D01*
X120665597Y-73243797D01*
X120825557Y-73112523D01*
X121008046Y-73014981D01*
X121008047Y-73014981D01*
X121008050Y-73014979D01*
X121206068Y-72954911D01*
X121206069Y-72954911D01*
X121206072Y-72954910D01*
X121360399Y-72939710D01*
X121463601Y-72939710D01*
X121617928Y-72954910D01*
X121617928Y-72954910D01*
G37*
M02*
