G04 #@! TF.GenerationSoftware,KiCad,Pcbnew,(5.1.0)-1*
G04 #@! TF.CreationDate,2019-05-03T11:21:41+02:00*
G04 #@! TF.ProjectId,ArtNet_Node_WSLEDS,4172744e-6574-45f4-9e6f-64655f57534c,rev?*
G04 #@! TF.SameCoordinates,Original*
G04 #@! TF.FileFunction,Soldermask,Bot*
G04 #@! TF.FilePolarity,Negative*
%FSLAX46Y46*%
G04 Gerber Fmt 4.6, Leading zero omitted, Abs format (unit mm)*
G04 Created by KiCad (PCBNEW (5.1.0)-1) date 2019-05-03 11:21:41*
%MOMM*%
%LPD*%
G04 APERTURE LIST*
%ADD10C,0.100000*%
G04 APERTURE END LIST*
D10*
G36*
X145548156Y-130672794D02*
G01*
X146269140Y-130816206D01*
X147060972Y-131144193D01*
X147773601Y-131620357D01*
X148379643Y-132226399D01*
X148855807Y-132939028D01*
X149183794Y-133730860D01*
X149351000Y-134571464D01*
X149351000Y-135428536D01*
X149183794Y-136269140D01*
X148855807Y-137060972D01*
X148379643Y-137773601D01*
X147773601Y-138379643D01*
X147060972Y-138855807D01*
X146269140Y-139183794D01*
X145548156Y-139327206D01*
X145428537Y-139351000D01*
X144571463Y-139351000D01*
X144451844Y-139327206D01*
X143730860Y-139183794D01*
X142939028Y-138855807D01*
X142226399Y-138379643D01*
X141620357Y-137773601D01*
X141144193Y-137060972D01*
X140816206Y-136269140D01*
X140649000Y-135428536D01*
X140649000Y-134571464D01*
X140816206Y-133730860D01*
X141144193Y-132939028D01*
X141620357Y-132226399D01*
X142226399Y-131620357D01*
X142939028Y-131144193D01*
X143730860Y-130816206D01*
X144451844Y-130672794D01*
X144571463Y-130649000D01*
X145428537Y-130649000D01*
X145548156Y-130672794D01*
X145548156Y-130672794D01*
G37*
G36*
X75548156Y-130672794D02*
G01*
X76269140Y-130816206D01*
X77060972Y-131144193D01*
X77773601Y-131620357D01*
X78379643Y-132226399D01*
X78855807Y-132939028D01*
X79183794Y-133730860D01*
X79351000Y-134571464D01*
X79351000Y-135428536D01*
X79183794Y-136269140D01*
X78855807Y-137060972D01*
X78379643Y-137773601D01*
X77773601Y-138379643D01*
X77060972Y-138855807D01*
X76269140Y-139183794D01*
X75548156Y-139327206D01*
X75428537Y-139351000D01*
X74571463Y-139351000D01*
X74451844Y-139327206D01*
X73730860Y-139183794D01*
X72939028Y-138855807D01*
X72226399Y-138379643D01*
X71620357Y-137773601D01*
X71144193Y-137060972D01*
X70816206Y-136269140D01*
X70649000Y-135428536D01*
X70649000Y-134571464D01*
X70816206Y-133730860D01*
X71144193Y-132939028D01*
X71620357Y-132226399D01*
X72226399Y-131620357D01*
X72939028Y-131144193D01*
X73730860Y-130816206D01*
X74451844Y-130672794D01*
X74571463Y-130649000D01*
X75428537Y-130649000D01*
X75548156Y-130672794D01*
X75548156Y-130672794D01*
G37*
G36*
X108801000Y-139281000D02*
G01*
X107099000Y-139281000D01*
X107099000Y-137579000D01*
X108801000Y-137579000D01*
X108801000Y-139281000D01*
X108801000Y-139281000D01*
G37*
G36*
X92958228Y-137611703D02*
G01*
X93113100Y-137675853D01*
X93252481Y-137768985D01*
X93371015Y-137887519D01*
X93464147Y-138026900D01*
X93528297Y-138181772D01*
X93561000Y-138346184D01*
X93561000Y-138513816D01*
X93528297Y-138678228D01*
X93464147Y-138833100D01*
X93371015Y-138972481D01*
X93252481Y-139091015D01*
X93113100Y-139184147D01*
X92958228Y-139248297D01*
X92793816Y-139281000D01*
X92626184Y-139281000D01*
X92461772Y-139248297D01*
X92306900Y-139184147D01*
X92167519Y-139091015D01*
X92048985Y-138972481D01*
X91955853Y-138833100D01*
X91891703Y-138678228D01*
X91859000Y-138513816D01*
X91859000Y-138346184D01*
X91891703Y-138181772D01*
X91955853Y-138026900D01*
X92048985Y-137887519D01*
X92167519Y-137768985D01*
X92306900Y-137675853D01*
X92461772Y-137611703D01*
X92626184Y-137579000D01*
X92793816Y-137579000D01*
X92958228Y-137611703D01*
X92958228Y-137611703D01*
G37*
G36*
X86496601Y-137844397D02*
G01*
X86535305Y-137852096D01*
X86567340Y-137865365D01*
X86644680Y-137897400D01*
X86743115Y-137963173D01*
X86826827Y-138046885D01*
X86892600Y-138145320D01*
X86937904Y-138254696D01*
X86961000Y-138370805D01*
X86961000Y-138489195D01*
X86937904Y-138605304D01*
X86892600Y-138714680D01*
X86826827Y-138813115D01*
X86743115Y-138896827D01*
X86644680Y-138962600D01*
X86567340Y-138994635D01*
X86535305Y-139007904D01*
X86496601Y-139015603D01*
X86419195Y-139031000D01*
X86300805Y-139031000D01*
X86223399Y-139015603D01*
X86184695Y-139007904D01*
X86152660Y-138994635D01*
X86075320Y-138962600D01*
X85976885Y-138896827D01*
X85893173Y-138813115D01*
X85827400Y-138714680D01*
X85782096Y-138605304D01*
X85759000Y-138489195D01*
X85759000Y-138370805D01*
X85782096Y-138254696D01*
X85827400Y-138145320D01*
X85893173Y-138046885D01*
X85976885Y-137963173D01*
X86075320Y-137897400D01*
X86152660Y-137865365D01*
X86184695Y-137852096D01*
X86223399Y-137844397D01*
X86300805Y-137829000D01*
X86419195Y-137829000D01*
X86496601Y-137844397D01*
X86496601Y-137844397D01*
G37*
G36*
X89036601Y-137844397D02*
G01*
X89075305Y-137852096D01*
X89107340Y-137865365D01*
X89184680Y-137897400D01*
X89283115Y-137963173D01*
X89366827Y-138046885D01*
X89432600Y-138145320D01*
X89477904Y-138254696D01*
X89501000Y-138370805D01*
X89501000Y-138489195D01*
X89477904Y-138605304D01*
X89432600Y-138714680D01*
X89366827Y-138813115D01*
X89283115Y-138896827D01*
X89184680Y-138962600D01*
X89107340Y-138994635D01*
X89075305Y-139007904D01*
X89036601Y-139015603D01*
X88959195Y-139031000D01*
X88840805Y-139031000D01*
X88763399Y-139015603D01*
X88724695Y-139007904D01*
X88692660Y-138994635D01*
X88615320Y-138962600D01*
X88516885Y-138896827D01*
X88433173Y-138813115D01*
X88367400Y-138714680D01*
X88322096Y-138605304D01*
X88299000Y-138489195D01*
X88299000Y-138370805D01*
X88322096Y-138254696D01*
X88367400Y-138145320D01*
X88433173Y-138046885D01*
X88516885Y-137963173D01*
X88615320Y-137897400D01*
X88692660Y-137865365D01*
X88724695Y-137852096D01*
X88763399Y-137844397D01*
X88840805Y-137829000D01*
X88959195Y-137829000D01*
X89036601Y-137844397D01*
X89036601Y-137844397D01*
G37*
G36*
X89105928Y-134854710D02*
G01*
X89105931Y-134854711D01*
X89105932Y-134854711D01*
X89303950Y-134914779D01*
X89303953Y-134914781D01*
X89303954Y-134914781D01*
X89486443Y-135012323D01*
X89646403Y-135143597D01*
X89777677Y-135303557D01*
X89844479Y-135428536D01*
X89875221Y-135486050D01*
X89935289Y-135684068D01*
X89935290Y-135684072D01*
X89955572Y-135890000D01*
X89935290Y-136095928D01*
X89935289Y-136095931D01*
X89935289Y-136095932D01*
X89875221Y-136293950D01*
X89875219Y-136293953D01*
X89875219Y-136293954D01*
X89777677Y-136476443D01*
X89646403Y-136636403D01*
X89486443Y-136767677D01*
X89303954Y-136865219D01*
X89303950Y-136865221D01*
X89105932Y-136925289D01*
X89105931Y-136925289D01*
X89105928Y-136925290D01*
X88951601Y-136940490D01*
X88848399Y-136940490D01*
X88694072Y-136925290D01*
X88694069Y-136925289D01*
X88694068Y-136925289D01*
X88496050Y-136865221D01*
X88496046Y-136865219D01*
X88313557Y-136767677D01*
X88153597Y-136636403D01*
X88022323Y-136476443D01*
X87924781Y-136293954D01*
X87924781Y-136293953D01*
X87924779Y-136293950D01*
X87864711Y-136095932D01*
X87864711Y-136095931D01*
X87864710Y-136095928D01*
X87844428Y-135890000D01*
X87864710Y-135684072D01*
X87864711Y-135684068D01*
X87924779Y-135486050D01*
X87955521Y-135428536D01*
X88022323Y-135303557D01*
X88153597Y-135143597D01*
X88313557Y-135012323D01*
X88496046Y-134914781D01*
X88496047Y-134914781D01*
X88496050Y-134914779D01*
X88694068Y-134854711D01*
X88694069Y-134854711D01*
X88694072Y-134854710D01*
X88848399Y-134839510D01*
X88951601Y-134839510D01*
X89105928Y-134854710D01*
X89105928Y-134854710D01*
G37*
G36*
X87410490Y-136940490D02*
G01*
X85309510Y-136940490D01*
X85309510Y-134839510D01*
X87410490Y-134839510D01*
X87410490Y-136940490D01*
X87410490Y-136940490D01*
G37*
G36*
X108198228Y-135071703D02*
G01*
X108353100Y-135135853D01*
X108492481Y-135228985D01*
X108611015Y-135347519D01*
X108704147Y-135486900D01*
X108768297Y-135641772D01*
X108801000Y-135806184D01*
X108801000Y-135973816D01*
X108768297Y-136138228D01*
X108704147Y-136293100D01*
X108611015Y-136432481D01*
X108492481Y-136551015D01*
X108353100Y-136644147D01*
X108198228Y-136708297D01*
X108033816Y-136741000D01*
X107866184Y-136741000D01*
X107701772Y-136708297D01*
X107546900Y-136644147D01*
X107407519Y-136551015D01*
X107288985Y-136432481D01*
X107195853Y-136293100D01*
X107131703Y-136138228D01*
X107099000Y-135973816D01*
X107099000Y-135806184D01*
X107131703Y-135641772D01*
X107195853Y-135486900D01*
X107288985Y-135347519D01*
X107407519Y-135228985D01*
X107546900Y-135135853D01*
X107701772Y-135071703D01*
X107866184Y-135039000D01*
X108033816Y-135039000D01*
X108198228Y-135071703D01*
X108198228Y-135071703D01*
G37*
G36*
X95498228Y-135071703D02*
G01*
X95653100Y-135135853D01*
X95792481Y-135228985D01*
X95911015Y-135347519D01*
X96004147Y-135486900D01*
X96068297Y-135641772D01*
X96101000Y-135806184D01*
X96101000Y-135973816D01*
X96068297Y-136138228D01*
X96004147Y-136293100D01*
X95911015Y-136432481D01*
X95792481Y-136551015D01*
X95653100Y-136644147D01*
X95498228Y-136708297D01*
X95333816Y-136741000D01*
X95166184Y-136741000D01*
X95001772Y-136708297D01*
X94846900Y-136644147D01*
X94707519Y-136551015D01*
X94588985Y-136432481D01*
X94495853Y-136293100D01*
X94431703Y-136138228D01*
X94399000Y-135973816D01*
X94399000Y-135806184D01*
X94431703Y-135641772D01*
X94495853Y-135486900D01*
X94588985Y-135347519D01*
X94707519Y-135228985D01*
X94846900Y-135135853D01*
X95001772Y-135071703D01*
X95166184Y-135039000D01*
X95333816Y-135039000D01*
X95498228Y-135071703D01*
X95498228Y-135071703D01*
G37*
G36*
X92958228Y-135071703D02*
G01*
X93113100Y-135135853D01*
X93252481Y-135228985D01*
X93371015Y-135347519D01*
X93464147Y-135486900D01*
X93528297Y-135641772D01*
X93561000Y-135806184D01*
X93561000Y-135973816D01*
X93528297Y-136138228D01*
X93464147Y-136293100D01*
X93371015Y-136432481D01*
X93252481Y-136551015D01*
X93113100Y-136644147D01*
X92958228Y-136708297D01*
X92793816Y-136741000D01*
X92626184Y-136741000D01*
X92461772Y-136708297D01*
X92306900Y-136644147D01*
X92167519Y-136551015D01*
X92048985Y-136432481D01*
X91955853Y-136293100D01*
X91891703Y-136138228D01*
X91859000Y-135973816D01*
X91859000Y-135806184D01*
X91891703Y-135641772D01*
X91955853Y-135486900D01*
X92048985Y-135347519D01*
X92167519Y-135228985D01*
X92306900Y-135135853D01*
X92461772Y-135071703D01*
X92626184Y-135039000D01*
X92793816Y-135039000D01*
X92958228Y-135071703D01*
X92958228Y-135071703D01*
G37*
G36*
X92958228Y-132531703D02*
G01*
X93113100Y-132595853D01*
X93252481Y-132688985D01*
X93371015Y-132807519D01*
X93464147Y-132946900D01*
X93528297Y-133101772D01*
X93561000Y-133266184D01*
X93561000Y-133433816D01*
X93528297Y-133598228D01*
X93464147Y-133753100D01*
X93371015Y-133892481D01*
X93252481Y-134011015D01*
X93113100Y-134104147D01*
X92958228Y-134168297D01*
X92793816Y-134201000D01*
X92626184Y-134201000D01*
X92461772Y-134168297D01*
X92306900Y-134104147D01*
X92167519Y-134011015D01*
X92048985Y-133892481D01*
X91955853Y-133753100D01*
X91891703Y-133598228D01*
X91859000Y-133433816D01*
X91859000Y-133266184D01*
X91891703Y-133101772D01*
X91955853Y-132946900D01*
X92048985Y-132807519D01*
X92167519Y-132688985D01*
X92306900Y-132595853D01*
X92461772Y-132531703D01*
X92626184Y-132499000D01*
X92793816Y-132499000D01*
X92958228Y-132531703D01*
X92958228Y-132531703D01*
G37*
G36*
X108198228Y-132531703D02*
G01*
X108353100Y-132595853D01*
X108492481Y-132688985D01*
X108611015Y-132807519D01*
X108704147Y-132946900D01*
X108768297Y-133101772D01*
X108801000Y-133266184D01*
X108801000Y-133433816D01*
X108768297Y-133598228D01*
X108704147Y-133753100D01*
X108611015Y-133892481D01*
X108492481Y-134011015D01*
X108353100Y-134104147D01*
X108198228Y-134168297D01*
X108033816Y-134201000D01*
X107866184Y-134201000D01*
X107701772Y-134168297D01*
X107546900Y-134104147D01*
X107407519Y-134011015D01*
X107288985Y-133892481D01*
X107195853Y-133753100D01*
X107131703Y-133598228D01*
X107099000Y-133433816D01*
X107099000Y-133266184D01*
X107131703Y-133101772D01*
X107195853Y-132946900D01*
X107288985Y-132807519D01*
X107407519Y-132688985D01*
X107546900Y-132595853D01*
X107701772Y-132531703D01*
X107866184Y-132499000D01*
X108033816Y-132499000D01*
X108198228Y-132531703D01*
X108198228Y-132531703D01*
G37*
G36*
X117077142Y-132568242D02*
G01*
X117225101Y-132629529D01*
X117358255Y-132718499D01*
X117471501Y-132831745D01*
X117560471Y-132964899D01*
X117621758Y-133112858D01*
X117653000Y-133269925D01*
X117653000Y-133430075D01*
X117621758Y-133587142D01*
X117560471Y-133735101D01*
X117471501Y-133868255D01*
X117358255Y-133981501D01*
X117225101Y-134070471D01*
X117077142Y-134131758D01*
X116920075Y-134163000D01*
X116759925Y-134163000D01*
X116602858Y-134131758D01*
X116454899Y-134070471D01*
X116321745Y-133981501D01*
X116208499Y-133868255D01*
X116119529Y-133735101D01*
X116058242Y-133587142D01*
X116027000Y-133430075D01*
X116027000Y-133269925D01*
X116058242Y-133112858D01*
X116119529Y-132964899D01*
X116208499Y-132831745D01*
X116321745Y-132718499D01*
X116454899Y-132629529D01*
X116602858Y-132568242D01*
X116759925Y-132537000D01*
X116920075Y-132537000D01*
X117077142Y-132568242D01*
X117077142Y-132568242D01*
G37*
G36*
X137973000Y-134163000D02*
G01*
X136347000Y-134163000D01*
X136347000Y-132537000D01*
X137973000Y-132537000D01*
X137973000Y-134163000D01*
X137973000Y-134163000D01*
G37*
G36*
X100621981Y-131117468D02*
G01*
X100804151Y-131192926D01*
X100968100Y-131302473D01*
X101107527Y-131441900D01*
X101217074Y-131605849D01*
X101217075Y-131605851D01*
X101223084Y-131620358D01*
X101292532Y-131788019D01*
X101331000Y-131981410D01*
X101331000Y-132178590D01*
X101292532Y-132371981D01*
X101217074Y-132554151D01*
X101107527Y-132718100D01*
X100968100Y-132857527D01*
X100804151Y-132967074D01*
X100621981Y-133042532D01*
X100525285Y-133061766D01*
X100428591Y-133081000D01*
X100231409Y-133081000D01*
X100134715Y-133061766D01*
X100038019Y-133042532D01*
X99855849Y-132967074D01*
X99691900Y-132857527D01*
X99552473Y-132718100D01*
X99442926Y-132554151D01*
X99367468Y-132371981D01*
X99329000Y-132178590D01*
X99329000Y-131981410D01*
X99367468Y-131788019D01*
X99436916Y-131620358D01*
X99442925Y-131605851D01*
X99442926Y-131605849D01*
X99552473Y-131441900D01*
X99691900Y-131302473D01*
X99855849Y-131192926D01*
X100038019Y-131117468D01*
X100231409Y-131079000D01*
X100428591Y-131079000D01*
X100621981Y-131117468D01*
X100621981Y-131117468D01*
G37*
G36*
X92958228Y-129991703D02*
G01*
X93113100Y-130055853D01*
X93252481Y-130148985D01*
X93371015Y-130267519D01*
X93464147Y-130406900D01*
X93528297Y-130561772D01*
X93561000Y-130726184D01*
X93561000Y-130893816D01*
X93528297Y-131058228D01*
X93464147Y-131213100D01*
X93371015Y-131352481D01*
X93252481Y-131471015D01*
X93113100Y-131564147D01*
X92958228Y-131628297D01*
X92793816Y-131661000D01*
X92626184Y-131661000D01*
X92461772Y-131628297D01*
X92306900Y-131564147D01*
X92167519Y-131471015D01*
X92048985Y-131352481D01*
X91955853Y-131213100D01*
X91891703Y-131058228D01*
X91859000Y-130893816D01*
X91859000Y-130726184D01*
X91891703Y-130561772D01*
X91955853Y-130406900D01*
X92048985Y-130267519D01*
X92167519Y-130148985D01*
X92306900Y-130055853D01*
X92461772Y-129991703D01*
X92626184Y-129959000D01*
X92793816Y-129959000D01*
X92958228Y-129991703D01*
X92958228Y-129991703D01*
G37*
G36*
X108198228Y-129991703D02*
G01*
X108353100Y-130055853D01*
X108492481Y-130148985D01*
X108611015Y-130267519D01*
X108704147Y-130406900D01*
X108768297Y-130561772D01*
X108801000Y-130726184D01*
X108801000Y-130893816D01*
X108768297Y-131058228D01*
X108704147Y-131213100D01*
X108611015Y-131352481D01*
X108492481Y-131471015D01*
X108353100Y-131564147D01*
X108198228Y-131628297D01*
X108033816Y-131661000D01*
X107866184Y-131661000D01*
X107701772Y-131628297D01*
X107546900Y-131564147D01*
X107407519Y-131471015D01*
X107288985Y-131352481D01*
X107195853Y-131213100D01*
X107131703Y-131058228D01*
X107099000Y-130893816D01*
X107099000Y-130726184D01*
X107131703Y-130561772D01*
X107195853Y-130406900D01*
X107288985Y-130267519D01*
X107407519Y-130148985D01*
X107546900Y-130055853D01*
X107701772Y-129991703D01*
X107866184Y-129959000D01*
X108033816Y-129959000D01*
X108198228Y-129991703D01*
X108198228Y-129991703D01*
G37*
G36*
X95498228Y-129991703D02*
G01*
X95653100Y-130055853D01*
X95792481Y-130148985D01*
X95911015Y-130267519D01*
X96004147Y-130406900D01*
X96068297Y-130561772D01*
X96101000Y-130726184D01*
X96101000Y-130893816D01*
X96068297Y-131058228D01*
X96004147Y-131213100D01*
X95911015Y-131352481D01*
X95792481Y-131471015D01*
X95653100Y-131564147D01*
X95498228Y-131628297D01*
X95333816Y-131661000D01*
X95166184Y-131661000D01*
X95001772Y-131628297D01*
X94846900Y-131564147D01*
X94707519Y-131471015D01*
X94588985Y-131352481D01*
X94495853Y-131213100D01*
X94431703Y-131058228D01*
X94399000Y-130893816D01*
X94399000Y-130726184D01*
X94431703Y-130561772D01*
X94495853Y-130406900D01*
X94588985Y-130267519D01*
X94707519Y-130148985D01*
X94846900Y-130055853D01*
X95001772Y-129991703D01*
X95166184Y-129959000D01*
X95333816Y-129959000D01*
X95498228Y-129991703D01*
X95498228Y-129991703D01*
G37*
G36*
X117077142Y-130028242D02*
G01*
X117225101Y-130089529D01*
X117358255Y-130178499D01*
X117471501Y-130291745D01*
X117560471Y-130424899D01*
X117621758Y-130572858D01*
X117653000Y-130729925D01*
X117653000Y-130890075D01*
X117621758Y-131047142D01*
X117560471Y-131195101D01*
X117471501Y-131328255D01*
X117358255Y-131441501D01*
X117225101Y-131530471D01*
X117077142Y-131591758D01*
X116920075Y-131623000D01*
X116759925Y-131623000D01*
X116602858Y-131591758D01*
X116454899Y-131530471D01*
X116321745Y-131441501D01*
X116208499Y-131328255D01*
X116119529Y-131195101D01*
X116058242Y-131047142D01*
X116027000Y-130890075D01*
X116027000Y-130729925D01*
X116058242Y-130572858D01*
X116119529Y-130424899D01*
X116208499Y-130291745D01*
X116321745Y-130178499D01*
X116454899Y-130089529D01*
X116602858Y-130028242D01*
X116759925Y-129997000D01*
X116920075Y-129997000D01*
X117077142Y-130028242D01*
X117077142Y-130028242D01*
G37*
G36*
X137397142Y-130028242D02*
G01*
X137545101Y-130089529D01*
X137678255Y-130178499D01*
X137791501Y-130291745D01*
X137880471Y-130424899D01*
X137941758Y-130572858D01*
X137973000Y-130729925D01*
X137973000Y-130890075D01*
X137941758Y-131047142D01*
X137880471Y-131195101D01*
X137791501Y-131328255D01*
X137678255Y-131441501D01*
X137545101Y-131530471D01*
X137397142Y-131591758D01*
X137240075Y-131623000D01*
X137079925Y-131623000D01*
X136922858Y-131591758D01*
X136774899Y-131530471D01*
X136641745Y-131441501D01*
X136528499Y-131328255D01*
X136439529Y-131195101D01*
X136378242Y-131047142D01*
X136347000Y-130890075D01*
X136347000Y-130729925D01*
X136378242Y-130572858D01*
X136439529Y-130424899D01*
X136528499Y-130291745D01*
X136641745Y-130178499D01*
X136774899Y-130089529D01*
X136922858Y-130028242D01*
X137079925Y-129997000D01*
X137240075Y-129997000D01*
X137397142Y-130028242D01*
X137397142Y-130028242D01*
G37*
G36*
X100525285Y-127288234D02*
G01*
X100621981Y-127307468D01*
X100804151Y-127382926D01*
X100968100Y-127492473D01*
X101107527Y-127631900D01*
X101217074Y-127795849D01*
X101292532Y-127978019D01*
X101331000Y-128171410D01*
X101331000Y-128368590D01*
X101292532Y-128561981D01*
X101217074Y-128744151D01*
X101107527Y-128908100D01*
X100968100Y-129047527D01*
X100804151Y-129157074D01*
X100621981Y-129232532D01*
X100428591Y-129271000D01*
X100231409Y-129271000D01*
X100038019Y-129232532D01*
X99855849Y-129157074D01*
X99691900Y-129047527D01*
X99552473Y-128908100D01*
X99442926Y-128744151D01*
X99367468Y-128561981D01*
X99329000Y-128368590D01*
X99329000Y-128171410D01*
X99367468Y-127978019D01*
X99442926Y-127795849D01*
X99552473Y-127631900D01*
X99691900Y-127492473D01*
X99855849Y-127382926D01*
X100038019Y-127307468D01*
X100134715Y-127288234D01*
X100231409Y-127269000D01*
X100428591Y-127269000D01*
X100525285Y-127288234D01*
X100525285Y-127288234D01*
G37*
G36*
X108198228Y-127451703D02*
G01*
X108353100Y-127515853D01*
X108492481Y-127608985D01*
X108611015Y-127727519D01*
X108704147Y-127866900D01*
X108768297Y-128021772D01*
X108801000Y-128186184D01*
X108801000Y-128353816D01*
X108768297Y-128518228D01*
X108704147Y-128673100D01*
X108611015Y-128812481D01*
X108492481Y-128931015D01*
X108353100Y-129024147D01*
X108198228Y-129088297D01*
X108033816Y-129121000D01*
X107866184Y-129121000D01*
X107701772Y-129088297D01*
X107546900Y-129024147D01*
X107407519Y-128931015D01*
X107288985Y-128812481D01*
X107195853Y-128673100D01*
X107131703Y-128518228D01*
X107099000Y-128353816D01*
X107099000Y-128186184D01*
X107131703Y-128021772D01*
X107195853Y-127866900D01*
X107288985Y-127727519D01*
X107407519Y-127608985D01*
X107546900Y-127515853D01*
X107701772Y-127451703D01*
X107866184Y-127419000D01*
X108033816Y-127419000D01*
X108198228Y-127451703D01*
X108198228Y-127451703D01*
G37*
G36*
X95498228Y-127451703D02*
G01*
X95653100Y-127515853D01*
X95792481Y-127608985D01*
X95911015Y-127727519D01*
X96004147Y-127866900D01*
X96068297Y-128021772D01*
X96101000Y-128186184D01*
X96101000Y-128353816D01*
X96068297Y-128518228D01*
X96004147Y-128673100D01*
X95911015Y-128812481D01*
X95792481Y-128931015D01*
X95653100Y-129024147D01*
X95498228Y-129088297D01*
X95333816Y-129121000D01*
X95166184Y-129121000D01*
X95001772Y-129088297D01*
X94846900Y-129024147D01*
X94707519Y-128931015D01*
X94588985Y-128812481D01*
X94495853Y-128673100D01*
X94431703Y-128518228D01*
X94399000Y-128353816D01*
X94399000Y-128186184D01*
X94431703Y-128021772D01*
X94495853Y-127866900D01*
X94588985Y-127727519D01*
X94707519Y-127608985D01*
X94846900Y-127515853D01*
X95001772Y-127451703D01*
X95166184Y-127419000D01*
X95333816Y-127419000D01*
X95498228Y-127451703D01*
X95498228Y-127451703D01*
G37*
G36*
X92958228Y-127451703D02*
G01*
X93113100Y-127515853D01*
X93252481Y-127608985D01*
X93371015Y-127727519D01*
X93464147Y-127866900D01*
X93528297Y-128021772D01*
X93561000Y-128186184D01*
X93561000Y-128353816D01*
X93528297Y-128518228D01*
X93464147Y-128673100D01*
X93371015Y-128812481D01*
X93252481Y-128931015D01*
X93113100Y-129024147D01*
X92958228Y-129088297D01*
X92793816Y-129121000D01*
X92626184Y-129121000D01*
X92461772Y-129088297D01*
X92306900Y-129024147D01*
X92167519Y-128931015D01*
X92048985Y-128812481D01*
X91955853Y-128673100D01*
X91891703Y-128518228D01*
X91859000Y-128353816D01*
X91859000Y-128186184D01*
X91891703Y-128021772D01*
X91955853Y-127866900D01*
X92048985Y-127727519D01*
X92167519Y-127608985D01*
X92306900Y-127515853D01*
X92461772Y-127451703D01*
X92626184Y-127419000D01*
X92793816Y-127419000D01*
X92958228Y-127451703D01*
X92958228Y-127451703D01*
G37*
G36*
X137397142Y-127488242D02*
G01*
X137545101Y-127549529D01*
X137678255Y-127638499D01*
X137791501Y-127751745D01*
X137880471Y-127884899D01*
X137941758Y-128032858D01*
X137973000Y-128189925D01*
X137973000Y-128350075D01*
X137941758Y-128507142D01*
X137880471Y-128655101D01*
X137791501Y-128788255D01*
X137678255Y-128901501D01*
X137545101Y-128990471D01*
X137397142Y-129051758D01*
X137240075Y-129083000D01*
X137079925Y-129083000D01*
X136922858Y-129051758D01*
X136774899Y-128990471D01*
X136641745Y-128901501D01*
X136528499Y-128788255D01*
X136439529Y-128655101D01*
X136378242Y-128507142D01*
X136347000Y-128350075D01*
X136347000Y-128189925D01*
X136378242Y-128032858D01*
X136439529Y-127884899D01*
X136528499Y-127751745D01*
X136641745Y-127638499D01*
X136774899Y-127549529D01*
X136922858Y-127488242D01*
X137079925Y-127457000D01*
X137240075Y-127457000D01*
X137397142Y-127488242D01*
X137397142Y-127488242D01*
G37*
G36*
X117077142Y-127488242D02*
G01*
X117225101Y-127549529D01*
X117358255Y-127638499D01*
X117471501Y-127751745D01*
X117560471Y-127884899D01*
X117621758Y-128032858D01*
X117653000Y-128189925D01*
X117653000Y-128350075D01*
X117621758Y-128507142D01*
X117560471Y-128655101D01*
X117471501Y-128788255D01*
X117358255Y-128901501D01*
X117225101Y-128990471D01*
X117077142Y-129051758D01*
X116920075Y-129083000D01*
X116759925Y-129083000D01*
X116602858Y-129051758D01*
X116454899Y-128990471D01*
X116321745Y-128901501D01*
X116208499Y-128788255D01*
X116119529Y-128655101D01*
X116058242Y-128507142D01*
X116027000Y-128350075D01*
X116027000Y-128189925D01*
X116058242Y-128032858D01*
X116119529Y-127884899D01*
X116208499Y-127751745D01*
X116321745Y-127638499D01*
X116454899Y-127549529D01*
X116602858Y-127488242D01*
X116759925Y-127457000D01*
X116920075Y-127457000D01*
X117077142Y-127488242D01*
X117077142Y-127488242D01*
G37*
G36*
X95498228Y-124911703D02*
G01*
X95653100Y-124975853D01*
X95792481Y-125068985D01*
X95911015Y-125187519D01*
X96004147Y-125326900D01*
X96068297Y-125481772D01*
X96101000Y-125646184D01*
X96101000Y-125813816D01*
X96068297Y-125978228D01*
X96004147Y-126133100D01*
X95911015Y-126272481D01*
X95792481Y-126391015D01*
X95653100Y-126484147D01*
X95498228Y-126548297D01*
X95333816Y-126581000D01*
X95166184Y-126581000D01*
X95001772Y-126548297D01*
X94846900Y-126484147D01*
X94707519Y-126391015D01*
X94588985Y-126272481D01*
X94495853Y-126133100D01*
X94431703Y-125978228D01*
X94399000Y-125813816D01*
X94399000Y-125646184D01*
X94431703Y-125481772D01*
X94495853Y-125326900D01*
X94588985Y-125187519D01*
X94707519Y-125068985D01*
X94846900Y-124975853D01*
X95001772Y-124911703D01*
X95166184Y-124879000D01*
X95333816Y-124879000D01*
X95498228Y-124911703D01*
X95498228Y-124911703D01*
G37*
G36*
X108198228Y-124911703D02*
G01*
X108353100Y-124975853D01*
X108492481Y-125068985D01*
X108611015Y-125187519D01*
X108704147Y-125326900D01*
X108768297Y-125481772D01*
X108801000Y-125646184D01*
X108801000Y-125813816D01*
X108768297Y-125978228D01*
X108704147Y-126133100D01*
X108611015Y-126272481D01*
X108492481Y-126391015D01*
X108353100Y-126484147D01*
X108198228Y-126548297D01*
X108033816Y-126581000D01*
X107866184Y-126581000D01*
X107701772Y-126548297D01*
X107546900Y-126484147D01*
X107407519Y-126391015D01*
X107288985Y-126272481D01*
X107195853Y-126133100D01*
X107131703Y-125978228D01*
X107099000Y-125813816D01*
X107099000Y-125646184D01*
X107131703Y-125481772D01*
X107195853Y-125326900D01*
X107288985Y-125187519D01*
X107407519Y-125068985D01*
X107546900Y-124975853D01*
X107701772Y-124911703D01*
X107866184Y-124879000D01*
X108033816Y-124879000D01*
X108198228Y-124911703D01*
X108198228Y-124911703D01*
G37*
G36*
X92958228Y-124911703D02*
G01*
X93113100Y-124975853D01*
X93252481Y-125068985D01*
X93371015Y-125187519D01*
X93464147Y-125326900D01*
X93528297Y-125481772D01*
X93561000Y-125646184D01*
X93561000Y-125813816D01*
X93528297Y-125978228D01*
X93464147Y-126133100D01*
X93371015Y-126272481D01*
X93252481Y-126391015D01*
X93113100Y-126484147D01*
X92958228Y-126548297D01*
X92793816Y-126581000D01*
X92626184Y-126581000D01*
X92461772Y-126548297D01*
X92306900Y-126484147D01*
X92167519Y-126391015D01*
X92048985Y-126272481D01*
X91955853Y-126133100D01*
X91891703Y-125978228D01*
X91859000Y-125813816D01*
X91859000Y-125646184D01*
X91891703Y-125481772D01*
X91955853Y-125326900D01*
X92048985Y-125187519D01*
X92167519Y-125068985D01*
X92306900Y-124975853D01*
X92461772Y-124911703D01*
X92626184Y-124879000D01*
X92793816Y-124879000D01*
X92958228Y-124911703D01*
X92958228Y-124911703D01*
G37*
G36*
X137397142Y-124948242D02*
G01*
X137545101Y-125009529D01*
X137678255Y-125098499D01*
X137791501Y-125211745D01*
X137880471Y-125344899D01*
X137941758Y-125492858D01*
X137973000Y-125649925D01*
X137973000Y-125810075D01*
X137941758Y-125967142D01*
X137880471Y-126115101D01*
X137791501Y-126248255D01*
X137678255Y-126361501D01*
X137545101Y-126450471D01*
X137397142Y-126511758D01*
X137240075Y-126543000D01*
X137079925Y-126543000D01*
X136922858Y-126511758D01*
X136774899Y-126450471D01*
X136641745Y-126361501D01*
X136528499Y-126248255D01*
X136439529Y-126115101D01*
X136378242Y-125967142D01*
X136347000Y-125810075D01*
X136347000Y-125649925D01*
X136378242Y-125492858D01*
X136439529Y-125344899D01*
X136528499Y-125211745D01*
X136641745Y-125098499D01*
X136774899Y-125009529D01*
X136922858Y-124948242D01*
X137079925Y-124917000D01*
X137240075Y-124917000D01*
X137397142Y-124948242D01*
X137397142Y-124948242D01*
G37*
G36*
X117077142Y-124948242D02*
G01*
X117225101Y-125009529D01*
X117358255Y-125098499D01*
X117471501Y-125211745D01*
X117560471Y-125344899D01*
X117621758Y-125492858D01*
X117653000Y-125649925D01*
X117653000Y-125810075D01*
X117621758Y-125967142D01*
X117560471Y-126115101D01*
X117471501Y-126248255D01*
X117358255Y-126361501D01*
X117225101Y-126450471D01*
X117077142Y-126511758D01*
X116920075Y-126543000D01*
X116759925Y-126543000D01*
X116602858Y-126511758D01*
X116454899Y-126450471D01*
X116321745Y-126361501D01*
X116208499Y-126248255D01*
X116119529Y-126115101D01*
X116058242Y-125967142D01*
X116027000Y-125810075D01*
X116027000Y-125649925D01*
X116058242Y-125492858D01*
X116119529Y-125344899D01*
X116208499Y-125211745D01*
X116321745Y-125098499D01*
X116454899Y-125009529D01*
X116602858Y-124948242D01*
X116759925Y-124917000D01*
X116920075Y-124917000D01*
X117077142Y-124948242D01*
X117077142Y-124948242D01*
G37*
G36*
X92958228Y-122371703D02*
G01*
X93113100Y-122435853D01*
X93252481Y-122528985D01*
X93371015Y-122647519D01*
X93464147Y-122786900D01*
X93528297Y-122941772D01*
X93561000Y-123106184D01*
X93561000Y-123273816D01*
X93528297Y-123438228D01*
X93464147Y-123593100D01*
X93371015Y-123732481D01*
X93252481Y-123851015D01*
X93113100Y-123944147D01*
X92958228Y-124008297D01*
X92793816Y-124041000D01*
X92626184Y-124041000D01*
X92461772Y-124008297D01*
X92306900Y-123944147D01*
X92167519Y-123851015D01*
X92048985Y-123732481D01*
X91955853Y-123593100D01*
X91891703Y-123438228D01*
X91859000Y-123273816D01*
X91859000Y-123106184D01*
X91891703Y-122941772D01*
X91955853Y-122786900D01*
X92048985Y-122647519D01*
X92167519Y-122528985D01*
X92306900Y-122435853D01*
X92461772Y-122371703D01*
X92626184Y-122339000D01*
X92793816Y-122339000D01*
X92958228Y-122371703D01*
X92958228Y-122371703D01*
G37*
G36*
X100578228Y-122371703D02*
G01*
X100733100Y-122435853D01*
X100872481Y-122528985D01*
X100991015Y-122647519D01*
X101084147Y-122786900D01*
X101148297Y-122941772D01*
X101181000Y-123106184D01*
X101181000Y-123273816D01*
X101148297Y-123438228D01*
X101084147Y-123593100D01*
X100991015Y-123732481D01*
X100872481Y-123851015D01*
X100733100Y-123944147D01*
X100578228Y-124008297D01*
X100413816Y-124041000D01*
X100246184Y-124041000D01*
X100081772Y-124008297D01*
X99926900Y-123944147D01*
X99787519Y-123851015D01*
X99668985Y-123732481D01*
X99575853Y-123593100D01*
X99511703Y-123438228D01*
X99479000Y-123273816D01*
X99479000Y-123106184D01*
X99511703Y-122941772D01*
X99575853Y-122786900D01*
X99668985Y-122647519D01*
X99787519Y-122528985D01*
X99926900Y-122435853D01*
X100081772Y-122371703D01*
X100246184Y-122339000D01*
X100413816Y-122339000D01*
X100578228Y-122371703D01*
X100578228Y-122371703D01*
G37*
G36*
X98038228Y-122371703D02*
G01*
X98193100Y-122435853D01*
X98332481Y-122528985D01*
X98451015Y-122647519D01*
X98544147Y-122786900D01*
X98608297Y-122941772D01*
X98641000Y-123106184D01*
X98641000Y-123273816D01*
X98608297Y-123438228D01*
X98544147Y-123593100D01*
X98451015Y-123732481D01*
X98332481Y-123851015D01*
X98193100Y-123944147D01*
X98038228Y-124008297D01*
X97873816Y-124041000D01*
X97706184Y-124041000D01*
X97541772Y-124008297D01*
X97386900Y-123944147D01*
X97247519Y-123851015D01*
X97128985Y-123732481D01*
X97035853Y-123593100D01*
X96971703Y-123438228D01*
X96939000Y-123273816D01*
X96939000Y-123106184D01*
X96971703Y-122941772D01*
X97035853Y-122786900D01*
X97128985Y-122647519D01*
X97247519Y-122528985D01*
X97386900Y-122435853D01*
X97541772Y-122371703D01*
X97706184Y-122339000D01*
X97873816Y-122339000D01*
X98038228Y-122371703D01*
X98038228Y-122371703D01*
G37*
G36*
X108198228Y-122371703D02*
G01*
X108353100Y-122435853D01*
X108492481Y-122528985D01*
X108611015Y-122647519D01*
X108704147Y-122786900D01*
X108768297Y-122941772D01*
X108801000Y-123106184D01*
X108801000Y-123273816D01*
X108768297Y-123438228D01*
X108704147Y-123593100D01*
X108611015Y-123732481D01*
X108492481Y-123851015D01*
X108353100Y-123944147D01*
X108198228Y-124008297D01*
X108033816Y-124041000D01*
X107866184Y-124041000D01*
X107701772Y-124008297D01*
X107546900Y-123944147D01*
X107407519Y-123851015D01*
X107288985Y-123732481D01*
X107195853Y-123593100D01*
X107131703Y-123438228D01*
X107099000Y-123273816D01*
X107099000Y-123106184D01*
X107131703Y-122941772D01*
X107195853Y-122786900D01*
X107288985Y-122647519D01*
X107407519Y-122528985D01*
X107546900Y-122435853D01*
X107701772Y-122371703D01*
X107866184Y-122339000D01*
X108033816Y-122339000D01*
X108198228Y-122371703D01*
X108198228Y-122371703D01*
G37*
G36*
X137397142Y-122408242D02*
G01*
X137545101Y-122469529D01*
X137678255Y-122558499D01*
X137791501Y-122671745D01*
X137880471Y-122804899D01*
X137941758Y-122952858D01*
X137973000Y-123109925D01*
X137973000Y-123270075D01*
X137941758Y-123427142D01*
X137880471Y-123575101D01*
X137791501Y-123708255D01*
X137678255Y-123821501D01*
X137545101Y-123910471D01*
X137397142Y-123971758D01*
X137240075Y-124003000D01*
X137079925Y-124003000D01*
X136922858Y-123971758D01*
X136774899Y-123910471D01*
X136641745Y-123821501D01*
X136528499Y-123708255D01*
X136439529Y-123575101D01*
X136378242Y-123427142D01*
X136347000Y-123270075D01*
X136347000Y-123109925D01*
X136378242Y-122952858D01*
X136439529Y-122804899D01*
X136528499Y-122671745D01*
X136641745Y-122558499D01*
X136774899Y-122469529D01*
X136922858Y-122408242D01*
X137079925Y-122377000D01*
X137240075Y-122377000D01*
X137397142Y-122408242D01*
X137397142Y-122408242D01*
G37*
G36*
X117077142Y-122408242D02*
G01*
X117225101Y-122469529D01*
X117358255Y-122558499D01*
X117471501Y-122671745D01*
X117560471Y-122804899D01*
X117621758Y-122952858D01*
X117653000Y-123109925D01*
X117653000Y-123270075D01*
X117621758Y-123427142D01*
X117560471Y-123575101D01*
X117471501Y-123708255D01*
X117358255Y-123821501D01*
X117225101Y-123910471D01*
X117077142Y-123971758D01*
X116920075Y-124003000D01*
X116759925Y-124003000D01*
X116602858Y-123971758D01*
X116454899Y-123910471D01*
X116321745Y-123821501D01*
X116208499Y-123708255D01*
X116119529Y-123575101D01*
X116058242Y-123427142D01*
X116027000Y-123270075D01*
X116027000Y-123109925D01*
X116058242Y-122952858D01*
X116119529Y-122804899D01*
X116208499Y-122671745D01*
X116321745Y-122558499D01*
X116454899Y-122469529D01*
X116602858Y-122408242D01*
X116759925Y-122377000D01*
X116920075Y-122377000D01*
X117077142Y-122408242D01*
X117077142Y-122408242D01*
G37*
G36*
X98038228Y-119831703D02*
G01*
X98193100Y-119895853D01*
X98332481Y-119988985D01*
X98451015Y-120107519D01*
X98544147Y-120246900D01*
X98608297Y-120401772D01*
X98641000Y-120566184D01*
X98641000Y-120733816D01*
X98608297Y-120898228D01*
X98544147Y-121053100D01*
X98451015Y-121192481D01*
X98332481Y-121311015D01*
X98193100Y-121404147D01*
X98038228Y-121468297D01*
X97873816Y-121501000D01*
X97706184Y-121501000D01*
X97541772Y-121468297D01*
X97386900Y-121404147D01*
X97247519Y-121311015D01*
X97128985Y-121192481D01*
X97035853Y-121053100D01*
X96971703Y-120898228D01*
X96939000Y-120733816D01*
X96939000Y-120566184D01*
X96971703Y-120401772D01*
X97035853Y-120246900D01*
X97128985Y-120107519D01*
X97247519Y-119988985D01*
X97386900Y-119895853D01*
X97541772Y-119831703D01*
X97706184Y-119799000D01*
X97873816Y-119799000D01*
X98038228Y-119831703D01*
X98038228Y-119831703D01*
G37*
G36*
X100578228Y-119831703D02*
G01*
X100733100Y-119895853D01*
X100872481Y-119988985D01*
X100991015Y-120107519D01*
X101084147Y-120246900D01*
X101148297Y-120401772D01*
X101181000Y-120566184D01*
X101181000Y-120733816D01*
X101148297Y-120898228D01*
X101084147Y-121053100D01*
X100991015Y-121192481D01*
X100872481Y-121311015D01*
X100733100Y-121404147D01*
X100578228Y-121468297D01*
X100413816Y-121501000D01*
X100246184Y-121501000D01*
X100081772Y-121468297D01*
X99926900Y-121404147D01*
X99787519Y-121311015D01*
X99668985Y-121192481D01*
X99575853Y-121053100D01*
X99511703Y-120898228D01*
X99479000Y-120733816D01*
X99479000Y-120566184D01*
X99511703Y-120401772D01*
X99575853Y-120246900D01*
X99668985Y-120107519D01*
X99787519Y-119988985D01*
X99926900Y-119895853D01*
X100081772Y-119831703D01*
X100246184Y-119799000D01*
X100413816Y-119799000D01*
X100578228Y-119831703D01*
X100578228Y-119831703D01*
G37*
G36*
X108198228Y-119831703D02*
G01*
X108353100Y-119895853D01*
X108492481Y-119988985D01*
X108611015Y-120107519D01*
X108704147Y-120246900D01*
X108768297Y-120401772D01*
X108801000Y-120566184D01*
X108801000Y-120733816D01*
X108768297Y-120898228D01*
X108704147Y-121053100D01*
X108611015Y-121192481D01*
X108492481Y-121311015D01*
X108353100Y-121404147D01*
X108198228Y-121468297D01*
X108033816Y-121501000D01*
X107866184Y-121501000D01*
X107701772Y-121468297D01*
X107546900Y-121404147D01*
X107407519Y-121311015D01*
X107288985Y-121192481D01*
X107195853Y-121053100D01*
X107131703Y-120898228D01*
X107099000Y-120733816D01*
X107099000Y-120566184D01*
X107131703Y-120401772D01*
X107195853Y-120246900D01*
X107288985Y-120107519D01*
X107407519Y-119988985D01*
X107546900Y-119895853D01*
X107701772Y-119831703D01*
X107866184Y-119799000D01*
X108033816Y-119799000D01*
X108198228Y-119831703D01*
X108198228Y-119831703D01*
G37*
G36*
X92958228Y-119831703D02*
G01*
X93113100Y-119895853D01*
X93252481Y-119988985D01*
X93371015Y-120107519D01*
X93464147Y-120246900D01*
X93528297Y-120401772D01*
X93561000Y-120566184D01*
X93561000Y-120733816D01*
X93528297Y-120898228D01*
X93464147Y-121053100D01*
X93371015Y-121192481D01*
X93252481Y-121311015D01*
X93113100Y-121404147D01*
X92958228Y-121468297D01*
X92793816Y-121501000D01*
X92626184Y-121501000D01*
X92461772Y-121468297D01*
X92306900Y-121404147D01*
X92167519Y-121311015D01*
X92048985Y-121192481D01*
X91955853Y-121053100D01*
X91891703Y-120898228D01*
X91859000Y-120733816D01*
X91859000Y-120566184D01*
X91891703Y-120401772D01*
X91955853Y-120246900D01*
X92048985Y-120107519D01*
X92167519Y-119988985D01*
X92306900Y-119895853D01*
X92461772Y-119831703D01*
X92626184Y-119799000D01*
X92793816Y-119799000D01*
X92958228Y-119831703D01*
X92958228Y-119831703D01*
G37*
G36*
X137397142Y-119868242D02*
G01*
X137545101Y-119929529D01*
X137678255Y-120018499D01*
X137791501Y-120131745D01*
X137880471Y-120264899D01*
X137941758Y-120412858D01*
X137973000Y-120569925D01*
X137973000Y-120730075D01*
X137941758Y-120887142D01*
X137880471Y-121035101D01*
X137791501Y-121168255D01*
X137678255Y-121281501D01*
X137545101Y-121370471D01*
X137397142Y-121431758D01*
X137240075Y-121463000D01*
X137079925Y-121463000D01*
X136922858Y-121431758D01*
X136774899Y-121370471D01*
X136641745Y-121281501D01*
X136528499Y-121168255D01*
X136439529Y-121035101D01*
X136378242Y-120887142D01*
X136347000Y-120730075D01*
X136347000Y-120569925D01*
X136378242Y-120412858D01*
X136439529Y-120264899D01*
X136528499Y-120131745D01*
X136641745Y-120018499D01*
X136774899Y-119929529D01*
X136922858Y-119868242D01*
X137079925Y-119837000D01*
X137240075Y-119837000D01*
X137397142Y-119868242D01*
X137397142Y-119868242D01*
G37*
G36*
X117077142Y-119868242D02*
G01*
X117225101Y-119929529D01*
X117358255Y-120018499D01*
X117471501Y-120131745D01*
X117560471Y-120264899D01*
X117621758Y-120412858D01*
X117653000Y-120569925D01*
X117653000Y-120730075D01*
X117621758Y-120887142D01*
X117560471Y-121035101D01*
X117471501Y-121168255D01*
X117358255Y-121281501D01*
X117225101Y-121370471D01*
X117077142Y-121431758D01*
X116920075Y-121463000D01*
X116759925Y-121463000D01*
X116602858Y-121431758D01*
X116454899Y-121370471D01*
X116321745Y-121281501D01*
X116208499Y-121168255D01*
X116119529Y-121035101D01*
X116058242Y-120887142D01*
X116027000Y-120730075D01*
X116027000Y-120569925D01*
X116058242Y-120412858D01*
X116119529Y-120264899D01*
X116208499Y-120131745D01*
X116321745Y-120018499D01*
X116454899Y-119929529D01*
X116602858Y-119868242D01*
X116759925Y-119837000D01*
X116920075Y-119837000D01*
X117077142Y-119868242D01*
X117077142Y-119868242D01*
G37*
G36*
X98038228Y-117291703D02*
G01*
X98193100Y-117355853D01*
X98332481Y-117448985D01*
X98451015Y-117567519D01*
X98544147Y-117706900D01*
X98608297Y-117861772D01*
X98641000Y-118026184D01*
X98641000Y-118193816D01*
X98608297Y-118358228D01*
X98544147Y-118513100D01*
X98451015Y-118652481D01*
X98332481Y-118771015D01*
X98193100Y-118864147D01*
X98038228Y-118928297D01*
X97873816Y-118961000D01*
X97706184Y-118961000D01*
X97541772Y-118928297D01*
X97386900Y-118864147D01*
X97247519Y-118771015D01*
X97128985Y-118652481D01*
X97035853Y-118513100D01*
X96971703Y-118358228D01*
X96939000Y-118193816D01*
X96939000Y-118026184D01*
X96971703Y-117861772D01*
X97035853Y-117706900D01*
X97128985Y-117567519D01*
X97247519Y-117448985D01*
X97386900Y-117355853D01*
X97541772Y-117291703D01*
X97706184Y-117259000D01*
X97873816Y-117259000D01*
X98038228Y-117291703D01*
X98038228Y-117291703D01*
G37*
G36*
X92958228Y-117291703D02*
G01*
X93113100Y-117355853D01*
X93252481Y-117448985D01*
X93371015Y-117567519D01*
X93464147Y-117706900D01*
X93528297Y-117861772D01*
X93561000Y-118026184D01*
X93561000Y-118193816D01*
X93528297Y-118358228D01*
X93464147Y-118513100D01*
X93371015Y-118652481D01*
X93252481Y-118771015D01*
X93113100Y-118864147D01*
X92958228Y-118928297D01*
X92793816Y-118961000D01*
X92626184Y-118961000D01*
X92461772Y-118928297D01*
X92306900Y-118864147D01*
X92167519Y-118771015D01*
X92048985Y-118652481D01*
X91955853Y-118513100D01*
X91891703Y-118358228D01*
X91859000Y-118193816D01*
X91859000Y-118026184D01*
X91891703Y-117861772D01*
X91955853Y-117706900D01*
X92048985Y-117567519D01*
X92167519Y-117448985D01*
X92306900Y-117355853D01*
X92461772Y-117291703D01*
X92626184Y-117259000D01*
X92793816Y-117259000D01*
X92958228Y-117291703D01*
X92958228Y-117291703D01*
G37*
G36*
X100578228Y-117291703D02*
G01*
X100733100Y-117355853D01*
X100872481Y-117448985D01*
X100991015Y-117567519D01*
X101084147Y-117706900D01*
X101148297Y-117861772D01*
X101181000Y-118026184D01*
X101181000Y-118193816D01*
X101148297Y-118358228D01*
X101084147Y-118513100D01*
X100991015Y-118652481D01*
X100872481Y-118771015D01*
X100733100Y-118864147D01*
X100578228Y-118928297D01*
X100413816Y-118961000D01*
X100246184Y-118961000D01*
X100081772Y-118928297D01*
X99926900Y-118864147D01*
X99787519Y-118771015D01*
X99668985Y-118652481D01*
X99575853Y-118513100D01*
X99511703Y-118358228D01*
X99479000Y-118193816D01*
X99479000Y-118026184D01*
X99511703Y-117861772D01*
X99575853Y-117706900D01*
X99668985Y-117567519D01*
X99787519Y-117448985D01*
X99926900Y-117355853D01*
X100081772Y-117291703D01*
X100246184Y-117259000D01*
X100413816Y-117259000D01*
X100578228Y-117291703D01*
X100578228Y-117291703D01*
G37*
G36*
X108198228Y-117291703D02*
G01*
X108353100Y-117355853D01*
X108492481Y-117448985D01*
X108611015Y-117567519D01*
X108704147Y-117706900D01*
X108768297Y-117861772D01*
X108801000Y-118026184D01*
X108801000Y-118193816D01*
X108768297Y-118358228D01*
X108704147Y-118513100D01*
X108611015Y-118652481D01*
X108492481Y-118771015D01*
X108353100Y-118864147D01*
X108198228Y-118928297D01*
X108033816Y-118961000D01*
X107866184Y-118961000D01*
X107701772Y-118928297D01*
X107546900Y-118864147D01*
X107407519Y-118771015D01*
X107288985Y-118652481D01*
X107195853Y-118513100D01*
X107131703Y-118358228D01*
X107099000Y-118193816D01*
X107099000Y-118026184D01*
X107131703Y-117861772D01*
X107195853Y-117706900D01*
X107288985Y-117567519D01*
X107407519Y-117448985D01*
X107546900Y-117355853D01*
X107701772Y-117291703D01*
X107866184Y-117259000D01*
X108033816Y-117259000D01*
X108198228Y-117291703D01*
X108198228Y-117291703D01*
G37*
G36*
X92958228Y-114751703D02*
G01*
X93113100Y-114815853D01*
X93252481Y-114908985D01*
X93371015Y-115027519D01*
X93464147Y-115166900D01*
X93528297Y-115321772D01*
X93561000Y-115486184D01*
X93561000Y-115653816D01*
X93528297Y-115818228D01*
X93464147Y-115973100D01*
X93371015Y-116112481D01*
X93252481Y-116231015D01*
X93113100Y-116324147D01*
X92958228Y-116388297D01*
X92793816Y-116421000D01*
X92626184Y-116421000D01*
X92461772Y-116388297D01*
X92306900Y-116324147D01*
X92167519Y-116231015D01*
X92048985Y-116112481D01*
X91955853Y-115973100D01*
X91891703Y-115818228D01*
X91859000Y-115653816D01*
X91859000Y-115486184D01*
X91891703Y-115321772D01*
X91955853Y-115166900D01*
X92048985Y-115027519D01*
X92167519Y-114908985D01*
X92306900Y-114815853D01*
X92461772Y-114751703D01*
X92626184Y-114719000D01*
X92793816Y-114719000D01*
X92958228Y-114751703D01*
X92958228Y-114751703D01*
G37*
G36*
X100578228Y-114751703D02*
G01*
X100733100Y-114815853D01*
X100872481Y-114908985D01*
X100991015Y-115027519D01*
X101084147Y-115166900D01*
X101148297Y-115321772D01*
X101181000Y-115486184D01*
X101181000Y-115653816D01*
X101148297Y-115818228D01*
X101084147Y-115973100D01*
X100991015Y-116112481D01*
X100872481Y-116231015D01*
X100733100Y-116324147D01*
X100578228Y-116388297D01*
X100413816Y-116421000D01*
X100246184Y-116421000D01*
X100081772Y-116388297D01*
X99926900Y-116324147D01*
X99787519Y-116231015D01*
X99668985Y-116112481D01*
X99575853Y-115973100D01*
X99511703Y-115818228D01*
X99479000Y-115653816D01*
X99479000Y-115486184D01*
X99511703Y-115321772D01*
X99575853Y-115166900D01*
X99668985Y-115027519D01*
X99787519Y-114908985D01*
X99926900Y-114815853D01*
X100081772Y-114751703D01*
X100246184Y-114719000D01*
X100413816Y-114719000D01*
X100578228Y-114751703D01*
X100578228Y-114751703D01*
G37*
G36*
X108198228Y-114751703D02*
G01*
X108353100Y-114815853D01*
X108492481Y-114908985D01*
X108611015Y-115027519D01*
X108704147Y-115166900D01*
X108768297Y-115321772D01*
X108801000Y-115486184D01*
X108801000Y-115653816D01*
X108768297Y-115818228D01*
X108704147Y-115973100D01*
X108611015Y-116112481D01*
X108492481Y-116231015D01*
X108353100Y-116324147D01*
X108198228Y-116388297D01*
X108033816Y-116421000D01*
X107866184Y-116421000D01*
X107701772Y-116388297D01*
X107546900Y-116324147D01*
X107407519Y-116231015D01*
X107288985Y-116112481D01*
X107195853Y-115973100D01*
X107131703Y-115818228D01*
X107099000Y-115653816D01*
X107099000Y-115486184D01*
X107131703Y-115321772D01*
X107195853Y-115166900D01*
X107288985Y-115027519D01*
X107407519Y-114908985D01*
X107546900Y-114815853D01*
X107701772Y-114751703D01*
X107866184Y-114719000D01*
X108033816Y-114719000D01*
X108198228Y-114751703D01*
X108198228Y-114751703D01*
G37*
G36*
X98038228Y-114751703D02*
G01*
X98193100Y-114815853D01*
X98332481Y-114908985D01*
X98451015Y-115027519D01*
X98544147Y-115166900D01*
X98608297Y-115321772D01*
X98641000Y-115486184D01*
X98641000Y-115653816D01*
X98608297Y-115818228D01*
X98544147Y-115973100D01*
X98451015Y-116112481D01*
X98332481Y-116231015D01*
X98193100Y-116324147D01*
X98038228Y-116388297D01*
X97873816Y-116421000D01*
X97706184Y-116421000D01*
X97541772Y-116388297D01*
X97386900Y-116324147D01*
X97247519Y-116231015D01*
X97128985Y-116112481D01*
X97035853Y-115973100D01*
X96971703Y-115818228D01*
X96939000Y-115653816D01*
X96939000Y-115486184D01*
X96971703Y-115321772D01*
X97035853Y-115166900D01*
X97128985Y-115027519D01*
X97247519Y-114908985D01*
X97386900Y-114815853D01*
X97541772Y-114751703D01*
X97706184Y-114719000D01*
X97873816Y-114719000D01*
X98038228Y-114751703D01*
X98038228Y-114751703D01*
G37*
G36*
X108198228Y-112211703D02*
G01*
X108353100Y-112275853D01*
X108492481Y-112368985D01*
X108611015Y-112487519D01*
X108704147Y-112626900D01*
X108768297Y-112781772D01*
X108801000Y-112946184D01*
X108801000Y-113113816D01*
X108768297Y-113278228D01*
X108704147Y-113433100D01*
X108611015Y-113572481D01*
X108492481Y-113691015D01*
X108353100Y-113784147D01*
X108198228Y-113848297D01*
X108033816Y-113881000D01*
X107866184Y-113881000D01*
X107701772Y-113848297D01*
X107546900Y-113784147D01*
X107407519Y-113691015D01*
X107288985Y-113572481D01*
X107195853Y-113433100D01*
X107131703Y-113278228D01*
X107099000Y-113113816D01*
X107099000Y-112946184D01*
X107131703Y-112781772D01*
X107195853Y-112626900D01*
X107288985Y-112487519D01*
X107407519Y-112368985D01*
X107546900Y-112275853D01*
X107701772Y-112211703D01*
X107866184Y-112179000D01*
X108033816Y-112179000D01*
X108198228Y-112211703D01*
X108198228Y-112211703D01*
G37*
G36*
X98038228Y-112211703D02*
G01*
X98193100Y-112275853D01*
X98332481Y-112368985D01*
X98451015Y-112487519D01*
X98544147Y-112626900D01*
X98608297Y-112781772D01*
X98641000Y-112946184D01*
X98641000Y-113113816D01*
X98608297Y-113278228D01*
X98544147Y-113433100D01*
X98451015Y-113572481D01*
X98332481Y-113691015D01*
X98193100Y-113784147D01*
X98038228Y-113848297D01*
X97873816Y-113881000D01*
X97706184Y-113881000D01*
X97541772Y-113848297D01*
X97386900Y-113784147D01*
X97247519Y-113691015D01*
X97128985Y-113572481D01*
X97035853Y-113433100D01*
X96971703Y-113278228D01*
X96939000Y-113113816D01*
X96939000Y-112946184D01*
X96971703Y-112781772D01*
X97035853Y-112626900D01*
X97128985Y-112487519D01*
X97247519Y-112368985D01*
X97386900Y-112275853D01*
X97541772Y-112211703D01*
X97706184Y-112179000D01*
X97873816Y-112179000D01*
X98038228Y-112211703D01*
X98038228Y-112211703D01*
G37*
G36*
X92958228Y-112211703D02*
G01*
X93113100Y-112275853D01*
X93252481Y-112368985D01*
X93371015Y-112487519D01*
X93464147Y-112626900D01*
X93528297Y-112781772D01*
X93561000Y-112946184D01*
X93561000Y-113113816D01*
X93528297Y-113278228D01*
X93464147Y-113433100D01*
X93371015Y-113572481D01*
X93252481Y-113691015D01*
X93113100Y-113784147D01*
X92958228Y-113848297D01*
X92793816Y-113881000D01*
X92626184Y-113881000D01*
X92461772Y-113848297D01*
X92306900Y-113784147D01*
X92167519Y-113691015D01*
X92048985Y-113572481D01*
X91955853Y-113433100D01*
X91891703Y-113278228D01*
X91859000Y-113113816D01*
X91859000Y-112946184D01*
X91891703Y-112781772D01*
X91955853Y-112626900D01*
X92048985Y-112487519D01*
X92167519Y-112368985D01*
X92306900Y-112275853D01*
X92461772Y-112211703D01*
X92626184Y-112179000D01*
X92793816Y-112179000D01*
X92958228Y-112211703D01*
X92958228Y-112211703D01*
G37*
G36*
X100578228Y-112211703D02*
G01*
X100733100Y-112275853D01*
X100872481Y-112368985D01*
X100991015Y-112487519D01*
X101084147Y-112626900D01*
X101148297Y-112781772D01*
X101181000Y-112946184D01*
X101181000Y-113113816D01*
X101148297Y-113278228D01*
X101084147Y-113433100D01*
X100991015Y-113572481D01*
X100872481Y-113691015D01*
X100733100Y-113784147D01*
X100578228Y-113848297D01*
X100413816Y-113881000D01*
X100246184Y-113881000D01*
X100081772Y-113848297D01*
X99926900Y-113784147D01*
X99787519Y-113691015D01*
X99668985Y-113572481D01*
X99575853Y-113433100D01*
X99511703Y-113278228D01*
X99479000Y-113113816D01*
X99479000Y-112946184D01*
X99511703Y-112781772D01*
X99575853Y-112626900D01*
X99668985Y-112487519D01*
X99787519Y-112368985D01*
X99926900Y-112275853D01*
X100081772Y-112211703D01*
X100246184Y-112179000D01*
X100413816Y-112179000D01*
X100578228Y-112211703D01*
X100578228Y-112211703D01*
G37*
G36*
X92958228Y-109671703D02*
G01*
X93113100Y-109735853D01*
X93252481Y-109828985D01*
X93371015Y-109947519D01*
X93464147Y-110086900D01*
X93528297Y-110241772D01*
X93561000Y-110406184D01*
X93561000Y-110573816D01*
X93528297Y-110738228D01*
X93464147Y-110893100D01*
X93371015Y-111032481D01*
X93252481Y-111151015D01*
X93113100Y-111244147D01*
X92958228Y-111308297D01*
X92793816Y-111341000D01*
X92626184Y-111341000D01*
X92461772Y-111308297D01*
X92306900Y-111244147D01*
X92167519Y-111151015D01*
X92048985Y-111032481D01*
X91955853Y-110893100D01*
X91891703Y-110738228D01*
X91859000Y-110573816D01*
X91859000Y-110406184D01*
X91891703Y-110241772D01*
X91955853Y-110086900D01*
X92048985Y-109947519D01*
X92167519Y-109828985D01*
X92306900Y-109735853D01*
X92461772Y-109671703D01*
X92626184Y-109639000D01*
X92793816Y-109639000D01*
X92958228Y-109671703D01*
X92958228Y-109671703D01*
G37*
G36*
X108198228Y-109671703D02*
G01*
X108353100Y-109735853D01*
X108492481Y-109828985D01*
X108611015Y-109947519D01*
X108704147Y-110086900D01*
X108768297Y-110241772D01*
X108801000Y-110406184D01*
X108801000Y-110573816D01*
X108768297Y-110738228D01*
X108704147Y-110893100D01*
X108611015Y-111032481D01*
X108492481Y-111151015D01*
X108353100Y-111244147D01*
X108198228Y-111308297D01*
X108033816Y-111341000D01*
X107866184Y-111341000D01*
X107701772Y-111308297D01*
X107546900Y-111244147D01*
X107407519Y-111151015D01*
X107288985Y-111032481D01*
X107195853Y-110893100D01*
X107131703Y-110738228D01*
X107099000Y-110573816D01*
X107099000Y-110406184D01*
X107131703Y-110241772D01*
X107195853Y-110086900D01*
X107288985Y-109947519D01*
X107407519Y-109828985D01*
X107546900Y-109735853D01*
X107701772Y-109671703D01*
X107866184Y-109639000D01*
X108033816Y-109639000D01*
X108198228Y-109671703D01*
X108198228Y-109671703D01*
G37*
G36*
X100578228Y-109671703D02*
G01*
X100733100Y-109735853D01*
X100872481Y-109828985D01*
X100991015Y-109947519D01*
X101084147Y-110086900D01*
X101148297Y-110241772D01*
X101181000Y-110406184D01*
X101181000Y-110573816D01*
X101148297Y-110738228D01*
X101084147Y-110893100D01*
X100991015Y-111032481D01*
X100872481Y-111151015D01*
X100733100Y-111244147D01*
X100578228Y-111308297D01*
X100413816Y-111341000D01*
X100246184Y-111341000D01*
X100081772Y-111308297D01*
X99926900Y-111244147D01*
X99787519Y-111151015D01*
X99668985Y-111032481D01*
X99575853Y-110893100D01*
X99511703Y-110738228D01*
X99479000Y-110573816D01*
X99479000Y-110406184D01*
X99511703Y-110241772D01*
X99575853Y-110086900D01*
X99668985Y-109947519D01*
X99787519Y-109828985D01*
X99926900Y-109735853D01*
X100081772Y-109671703D01*
X100246184Y-109639000D01*
X100413816Y-109639000D01*
X100578228Y-109671703D01*
X100578228Y-109671703D01*
G37*
G36*
X98038228Y-109671703D02*
G01*
X98193100Y-109735853D01*
X98332481Y-109828985D01*
X98451015Y-109947519D01*
X98544147Y-110086900D01*
X98608297Y-110241772D01*
X98641000Y-110406184D01*
X98641000Y-110573816D01*
X98608297Y-110738228D01*
X98544147Y-110893100D01*
X98451015Y-111032481D01*
X98332481Y-111151015D01*
X98193100Y-111244147D01*
X98038228Y-111308297D01*
X97873816Y-111341000D01*
X97706184Y-111341000D01*
X97541772Y-111308297D01*
X97386900Y-111244147D01*
X97247519Y-111151015D01*
X97128985Y-111032481D01*
X97035853Y-110893100D01*
X96971703Y-110738228D01*
X96939000Y-110573816D01*
X96939000Y-110406184D01*
X96971703Y-110241772D01*
X97035853Y-110086900D01*
X97128985Y-109947519D01*
X97247519Y-109828985D01*
X97386900Y-109735853D01*
X97541772Y-109671703D01*
X97706184Y-109639000D01*
X97873816Y-109639000D01*
X98038228Y-109671703D01*
X98038228Y-109671703D01*
G37*
G36*
X146084490Y-110778490D02*
G01*
X143983510Y-110778490D01*
X143983510Y-108677510D01*
X146084490Y-108677510D01*
X146084490Y-110778490D01*
X146084490Y-110778490D01*
G37*
G36*
X98038228Y-107131703D02*
G01*
X98193100Y-107195853D01*
X98332481Y-107288985D01*
X98451015Y-107407519D01*
X98544147Y-107546900D01*
X98608297Y-107701772D01*
X98641000Y-107866184D01*
X98641000Y-108033816D01*
X98608297Y-108198228D01*
X98544147Y-108353100D01*
X98451015Y-108492481D01*
X98332481Y-108611015D01*
X98193100Y-108704147D01*
X98038228Y-108768297D01*
X97873816Y-108801000D01*
X97706184Y-108801000D01*
X97541772Y-108768297D01*
X97386900Y-108704147D01*
X97247519Y-108611015D01*
X97128985Y-108492481D01*
X97035853Y-108353100D01*
X96971703Y-108198228D01*
X96939000Y-108033816D01*
X96939000Y-107866184D01*
X96971703Y-107701772D01*
X97035853Y-107546900D01*
X97128985Y-107407519D01*
X97247519Y-107288985D01*
X97386900Y-107195853D01*
X97541772Y-107131703D01*
X97706184Y-107099000D01*
X97873816Y-107099000D01*
X98038228Y-107131703D01*
X98038228Y-107131703D01*
G37*
G36*
X108198228Y-107131703D02*
G01*
X108353100Y-107195853D01*
X108492481Y-107288985D01*
X108611015Y-107407519D01*
X108704147Y-107546900D01*
X108768297Y-107701772D01*
X108801000Y-107866184D01*
X108801000Y-108033816D01*
X108768297Y-108198228D01*
X108704147Y-108353100D01*
X108611015Y-108492481D01*
X108492481Y-108611015D01*
X108353100Y-108704147D01*
X108198228Y-108768297D01*
X108033816Y-108801000D01*
X107866184Y-108801000D01*
X107701772Y-108768297D01*
X107546900Y-108704147D01*
X107407519Y-108611015D01*
X107288985Y-108492481D01*
X107195853Y-108353100D01*
X107131703Y-108198228D01*
X107099000Y-108033816D01*
X107099000Y-107866184D01*
X107131703Y-107701772D01*
X107195853Y-107546900D01*
X107288985Y-107407519D01*
X107407519Y-107288985D01*
X107546900Y-107195853D01*
X107701772Y-107131703D01*
X107866184Y-107099000D01*
X108033816Y-107099000D01*
X108198228Y-107131703D01*
X108198228Y-107131703D01*
G37*
G36*
X100578228Y-107131703D02*
G01*
X100733100Y-107195853D01*
X100872481Y-107288985D01*
X100991015Y-107407519D01*
X101084147Y-107546900D01*
X101148297Y-107701772D01*
X101181000Y-107866184D01*
X101181000Y-108033816D01*
X101148297Y-108198228D01*
X101084147Y-108353100D01*
X100991015Y-108492481D01*
X100872481Y-108611015D01*
X100733100Y-108704147D01*
X100578228Y-108768297D01*
X100413816Y-108801000D01*
X100246184Y-108801000D01*
X100081772Y-108768297D01*
X99926900Y-108704147D01*
X99787519Y-108611015D01*
X99668985Y-108492481D01*
X99575853Y-108353100D01*
X99511703Y-108198228D01*
X99479000Y-108033816D01*
X99479000Y-107866184D01*
X99511703Y-107701772D01*
X99575853Y-107546900D01*
X99668985Y-107407519D01*
X99787519Y-107288985D01*
X99926900Y-107195853D01*
X100081772Y-107131703D01*
X100246184Y-107099000D01*
X100413816Y-107099000D01*
X100578228Y-107131703D01*
X100578228Y-107131703D01*
G37*
G36*
X92958228Y-107131703D02*
G01*
X93113100Y-107195853D01*
X93252481Y-107288985D01*
X93371015Y-107407519D01*
X93464147Y-107546900D01*
X93528297Y-107701772D01*
X93561000Y-107866184D01*
X93561000Y-108033816D01*
X93528297Y-108198228D01*
X93464147Y-108353100D01*
X93371015Y-108492481D01*
X93252481Y-108611015D01*
X93113100Y-108704147D01*
X92958228Y-108768297D01*
X92793816Y-108801000D01*
X92626184Y-108801000D01*
X92461772Y-108768297D01*
X92306900Y-108704147D01*
X92167519Y-108611015D01*
X92048985Y-108492481D01*
X91955853Y-108353100D01*
X91891703Y-108198228D01*
X91859000Y-108033816D01*
X91859000Y-107866184D01*
X91891703Y-107701772D01*
X91955853Y-107546900D01*
X92048985Y-107407519D01*
X92167519Y-107288985D01*
X92306900Y-107195853D01*
X92461772Y-107131703D01*
X92626184Y-107099000D01*
X92793816Y-107099000D01*
X92958228Y-107131703D01*
X92958228Y-107131703D01*
G37*
G36*
X145239928Y-106152710D02*
G01*
X145239931Y-106152711D01*
X145239932Y-106152711D01*
X145437950Y-106212779D01*
X145437953Y-106212781D01*
X145437954Y-106212781D01*
X145620443Y-106310323D01*
X145780403Y-106441597D01*
X145911676Y-106601556D01*
X146009221Y-106784050D01*
X146069289Y-106982068D01*
X146069290Y-106982072D01*
X146089572Y-107188000D01*
X146069290Y-107393928D01*
X146069289Y-107393931D01*
X146069289Y-107393932D01*
X146009221Y-107591950D01*
X146009219Y-107591953D01*
X146009219Y-107591954D01*
X145911677Y-107774443D01*
X145780403Y-107934403D01*
X145620443Y-108065677D01*
X145437954Y-108163219D01*
X145437950Y-108163221D01*
X145239932Y-108223289D01*
X145239931Y-108223289D01*
X145239928Y-108223290D01*
X145085601Y-108238490D01*
X144982399Y-108238490D01*
X144828072Y-108223290D01*
X144828069Y-108223289D01*
X144828068Y-108223289D01*
X144630050Y-108163221D01*
X144630046Y-108163219D01*
X144447557Y-108065677D01*
X144287597Y-107934403D01*
X144156323Y-107774443D01*
X144058781Y-107591954D01*
X144058781Y-107591953D01*
X144058779Y-107591950D01*
X143998711Y-107393932D01*
X143998711Y-107393931D01*
X143998710Y-107393928D01*
X143978428Y-107188000D01*
X143998710Y-106982072D01*
X143998711Y-106982068D01*
X144058779Y-106784050D01*
X144156324Y-106601556D01*
X144287597Y-106441597D01*
X144447557Y-106310323D01*
X144630046Y-106212781D01*
X144630047Y-106212781D01*
X144630050Y-106212779D01*
X144828068Y-106152711D01*
X144828069Y-106152711D01*
X144828072Y-106152710D01*
X144982399Y-106137510D01*
X145085601Y-106137510D01*
X145239928Y-106152710D01*
X145239928Y-106152710D01*
G37*
G36*
X98038228Y-104591703D02*
G01*
X98193100Y-104655853D01*
X98332481Y-104748985D01*
X98451015Y-104867519D01*
X98544147Y-105006900D01*
X98608297Y-105161772D01*
X98641000Y-105326184D01*
X98641000Y-105493816D01*
X98608297Y-105658228D01*
X98544147Y-105813100D01*
X98451015Y-105952481D01*
X98332481Y-106071015D01*
X98193100Y-106164147D01*
X98038228Y-106228297D01*
X97873816Y-106261000D01*
X97706184Y-106261000D01*
X97541772Y-106228297D01*
X97386900Y-106164147D01*
X97247519Y-106071015D01*
X97128985Y-105952481D01*
X97035853Y-105813100D01*
X96971703Y-105658228D01*
X96939000Y-105493816D01*
X96939000Y-105326184D01*
X96971703Y-105161772D01*
X97035853Y-105006900D01*
X97128985Y-104867519D01*
X97247519Y-104748985D01*
X97386900Y-104655853D01*
X97541772Y-104591703D01*
X97706184Y-104559000D01*
X97873816Y-104559000D01*
X98038228Y-104591703D01*
X98038228Y-104591703D01*
G37*
G36*
X95498228Y-104591703D02*
G01*
X95653100Y-104655853D01*
X95792481Y-104748985D01*
X95911015Y-104867519D01*
X96004147Y-105006900D01*
X96068297Y-105161772D01*
X96101000Y-105326184D01*
X96101000Y-105493816D01*
X96068297Y-105658228D01*
X96004147Y-105813100D01*
X95911015Y-105952481D01*
X95792481Y-106071015D01*
X95653100Y-106164147D01*
X95498228Y-106228297D01*
X95333816Y-106261000D01*
X95166184Y-106261000D01*
X95001772Y-106228297D01*
X94846900Y-106164147D01*
X94707519Y-106071015D01*
X94588985Y-105952481D01*
X94495853Y-105813100D01*
X94431703Y-105658228D01*
X94399000Y-105493816D01*
X94399000Y-105326184D01*
X94431703Y-105161772D01*
X94495853Y-105006900D01*
X94588985Y-104867519D01*
X94707519Y-104748985D01*
X94846900Y-104655853D01*
X95001772Y-104591703D01*
X95166184Y-104559000D01*
X95333816Y-104559000D01*
X95498228Y-104591703D01*
X95498228Y-104591703D01*
G37*
G36*
X92958228Y-104591703D02*
G01*
X93113100Y-104655853D01*
X93252481Y-104748985D01*
X93371015Y-104867519D01*
X93464147Y-105006900D01*
X93528297Y-105161772D01*
X93561000Y-105326184D01*
X93561000Y-105493816D01*
X93528297Y-105658228D01*
X93464147Y-105813100D01*
X93371015Y-105952481D01*
X93252481Y-106071015D01*
X93113100Y-106164147D01*
X92958228Y-106228297D01*
X92793816Y-106261000D01*
X92626184Y-106261000D01*
X92461772Y-106228297D01*
X92306900Y-106164147D01*
X92167519Y-106071015D01*
X92048985Y-105952481D01*
X91955853Y-105813100D01*
X91891703Y-105658228D01*
X91859000Y-105493816D01*
X91859000Y-105326184D01*
X91891703Y-105161772D01*
X91955853Y-105006900D01*
X92048985Y-104867519D01*
X92167519Y-104748985D01*
X92306900Y-104655853D01*
X92461772Y-104591703D01*
X92626184Y-104559000D01*
X92793816Y-104559000D01*
X92958228Y-104591703D01*
X92958228Y-104591703D01*
G37*
G36*
X100578228Y-104591703D02*
G01*
X100733100Y-104655853D01*
X100872481Y-104748985D01*
X100991015Y-104867519D01*
X101084147Y-105006900D01*
X101148297Y-105161772D01*
X101181000Y-105326184D01*
X101181000Y-105493816D01*
X101148297Y-105658228D01*
X101084147Y-105813100D01*
X100991015Y-105952481D01*
X100872481Y-106071015D01*
X100733100Y-106164147D01*
X100578228Y-106228297D01*
X100413816Y-106261000D01*
X100246184Y-106261000D01*
X100081772Y-106228297D01*
X99926900Y-106164147D01*
X99787519Y-106071015D01*
X99668985Y-105952481D01*
X99575853Y-105813100D01*
X99511703Y-105658228D01*
X99479000Y-105493816D01*
X99479000Y-105326184D01*
X99511703Y-105161772D01*
X99575853Y-105006900D01*
X99668985Y-104867519D01*
X99787519Y-104748985D01*
X99926900Y-104655853D01*
X100081772Y-104591703D01*
X100246184Y-104559000D01*
X100413816Y-104559000D01*
X100578228Y-104591703D01*
X100578228Y-104591703D01*
G37*
G36*
X108198228Y-104591703D02*
G01*
X108353100Y-104655853D01*
X108492481Y-104748985D01*
X108611015Y-104867519D01*
X108704147Y-105006900D01*
X108768297Y-105161772D01*
X108801000Y-105326184D01*
X108801000Y-105493816D01*
X108768297Y-105658228D01*
X108704147Y-105813100D01*
X108611015Y-105952481D01*
X108492481Y-106071015D01*
X108353100Y-106164147D01*
X108198228Y-106228297D01*
X108033816Y-106261000D01*
X107866184Y-106261000D01*
X107701772Y-106228297D01*
X107546900Y-106164147D01*
X107407519Y-106071015D01*
X107288985Y-105952481D01*
X107195853Y-105813100D01*
X107131703Y-105658228D01*
X107099000Y-105493816D01*
X107099000Y-105326184D01*
X107131703Y-105161772D01*
X107195853Y-105006900D01*
X107288985Y-104867519D01*
X107407519Y-104748985D01*
X107546900Y-104655853D01*
X107701772Y-104591703D01*
X107866184Y-104559000D01*
X108033816Y-104559000D01*
X108198228Y-104591703D01*
X108198228Y-104591703D01*
G37*
G36*
X103118228Y-104591703D02*
G01*
X103273100Y-104655853D01*
X103412481Y-104748985D01*
X103531015Y-104867519D01*
X103624147Y-105006900D01*
X103688297Y-105161772D01*
X103721000Y-105326184D01*
X103721000Y-105493816D01*
X103688297Y-105658228D01*
X103624147Y-105813100D01*
X103531015Y-105952481D01*
X103412481Y-106071015D01*
X103273100Y-106164147D01*
X103118228Y-106228297D01*
X102953816Y-106261000D01*
X102786184Y-106261000D01*
X102621772Y-106228297D01*
X102466900Y-106164147D01*
X102327519Y-106071015D01*
X102208985Y-105952481D01*
X102115853Y-105813100D01*
X102051703Y-105658228D01*
X102019000Y-105493816D01*
X102019000Y-105326184D01*
X102051703Y-105161772D01*
X102115853Y-105006900D01*
X102208985Y-104867519D01*
X102327519Y-104748985D01*
X102466900Y-104655853D01*
X102621772Y-104591703D01*
X102786184Y-104559000D01*
X102953816Y-104559000D01*
X103118228Y-104591703D01*
X103118228Y-104591703D01*
G37*
G36*
X105658228Y-104591703D02*
G01*
X105813100Y-104655853D01*
X105952481Y-104748985D01*
X106071015Y-104867519D01*
X106164147Y-105006900D01*
X106228297Y-105161772D01*
X106261000Y-105326184D01*
X106261000Y-105493816D01*
X106228297Y-105658228D01*
X106164147Y-105813100D01*
X106071015Y-105952481D01*
X105952481Y-106071015D01*
X105813100Y-106164147D01*
X105658228Y-106228297D01*
X105493816Y-106261000D01*
X105326184Y-106261000D01*
X105161772Y-106228297D01*
X105006900Y-106164147D01*
X104867519Y-106071015D01*
X104748985Y-105952481D01*
X104655853Y-105813100D01*
X104591703Y-105658228D01*
X104559000Y-105493816D01*
X104559000Y-105326184D01*
X104591703Y-105161772D01*
X104655853Y-105006900D01*
X104748985Y-104867519D01*
X104867519Y-104748985D01*
X105006900Y-104655853D01*
X105161772Y-104591703D01*
X105326184Y-104559000D01*
X105493816Y-104559000D01*
X105658228Y-104591703D01*
X105658228Y-104591703D01*
G37*
G36*
X145239928Y-103612710D02*
G01*
X145239931Y-103612711D01*
X145239932Y-103612711D01*
X145437950Y-103672779D01*
X145437953Y-103672781D01*
X145437954Y-103672781D01*
X145620443Y-103770323D01*
X145780403Y-103901597D01*
X145911676Y-104061556D01*
X146009221Y-104244050D01*
X146069289Y-104442068D01*
X146069290Y-104442072D01*
X146089572Y-104648000D01*
X146069290Y-104853928D01*
X146069289Y-104853931D01*
X146069289Y-104853932D01*
X146009221Y-105051950D01*
X146009219Y-105051953D01*
X146009219Y-105051954D01*
X145911677Y-105234443D01*
X145780403Y-105394403D01*
X145620443Y-105525677D01*
X145437954Y-105623219D01*
X145437950Y-105623221D01*
X145239932Y-105683289D01*
X145239931Y-105683289D01*
X145239928Y-105683290D01*
X145085601Y-105698490D01*
X144982399Y-105698490D01*
X144828072Y-105683290D01*
X144828069Y-105683289D01*
X144828068Y-105683289D01*
X144630050Y-105623221D01*
X144630046Y-105623219D01*
X144447557Y-105525677D01*
X144287597Y-105394403D01*
X144156323Y-105234443D01*
X144058781Y-105051954D01*
X144058781Y-105051953D01*
X144058779Y-105051950D01*
X143998711Y-104853932D01*
X143998711Y-104853931D01*
X143998710Y-104853928D01*
X143978428Y-104648000D01*
X143998710Y-104442072D01*
X143998711Y-104442068D01*
X144058779Y-104244050D01*
X144156324Y-104061556D01*
X144287597Y-103901597D01*
X144447557Y-103770323D01*
X144630046Y-103672781D01*
X144630047Y-103672781D01*
X144630050Y-103672779D01*
X144828068Y-103612711D01*
X144828069Y-103612711D01*
X144828072Y-103612710D01*
X144982399Y-103597510D01*
X145085601Y-103597510D01*
X145239928Y-103612710D01*
X145239928Y-103612710D01*
G37*
G36*
X145239928Y-101072710D02*
G01*
X145239931Y-101072711D01*
X145239932Y-101072711D01*
X145437950Y-101132779D01*
X145437953Y-101132781D01*
X145437954Y-101132781D01*
X145620443Y-101230323D01*
X145780403Y-101361597D01*
X145911676Y-101521556D01*
X146009221Y-101704050D01*
X146069289Y-101902068D01*
X146069290Y-101902072D01*
X146089572Y-102108000D01*
X146069290Y-102313928D01*
X146069289Y-102313931D01*
X146069289Y-102313932D01*
X146009221Y-102511950D01*
X146009219Y-102511953D01*
X146009219Y-102511954D01*
X145911677Y-102694443D01*
X145780403Y-102854403D01*
X145620443Y-102985677D01*
X145437954Y-103083219D01*
X145437950Y-103083221D01*
X145239932Y-103143289D01*
X145239931Y-103143289D01*
X145239928Y-103143290D01*
X145085601Y-103158490D01*
X144982399Y-103158490D01*
X144828072Y-103143290D01*
X144828069Y-103143289D01*
X144828068Y-103143289D01*
X144630050Y-103083221D01*
X144630046Y-103083219D01*
X144447557Y-102985677D01*
X144287597Y-102854403D01*
X144156323Y-102694443D01*
X144058781Y-102511954D01*
X144058781Y-102511953D01*
X144058779Y-102511950D01*
X143998711Y-102313932D01*
X143998711Y-102313931D01*
X143998710Y-102313928D01*
X143978428Y-102108000D01*
X143998710Y-101902072D01*
X143998711Y-101902068D01*
X144058779Y-101704050D01*
X144156324Y-101521556D01*
X144287597Y-101361597D01*
X144447557Y-101230323D01*
X144630046Y-101132781D01*
X144630047Y-101132781D01*
X144630050Y-101132779D01*
X144828068Y-101072711D01*
X144828069Y-101072711D01*
X144828072Y-101072710D01*
X144982399Y-101057510D01*
X145085601Y-101057510D01*
X145239928Y-101072710D01*
X145239928Y-101072710D01*
G37*
G36*
X146084490Y-94522490D02*
G01*
X143983510Y-94522490D01*
X143983510Y-92421510D01*
X146084490Y-92421510D01*
X146084490Y-94522490D01*
X146084490Y-94522490D01*
G37*
G36*
X147710601Y-92886397D02*
G01*
X147749305Y-92894096D01*
X147781340Y-92907365D01*
X147858680Y-92939400D01*
X147957115Y-93005173D01*
X148040827Y-93088885D01*
X148106600Y-93187320D01*
X148151904Y-93296696D01*
X148175000Y-93412805D01*
X148175000Y-93531195D01*
X148151904Y-93647304D01*
X148106600Y-93756680D01*
X148040827Y-93855115D01*
X147957115Y-93938827D01*
X147858680Y-94004600D01*
X147781340Y-94036635D01*
X147749305Y-94049904D01*
X147710601Y-94057603D01*
X147633195Y-94073000D01*
X147514805Y-94073000D01*
X147437399Y-94057603D01*
X147398695Y-94049904D01*
X147366660Y-94036635D01*
X147289320Y-94004600D01*
X147190885Y-93938827D01*
X147107173Y-93855115D01*
X147041400Y-93756680D01*
X146996096Y-93647304D01*
X146973000Y-93531195D01*
X146973000Y-93412805D01*
X146996096Y-93296696D01*
X147041400Y-93187320D01*
X147107173Y-93088885D01*
X147190885Y-93005173D01*
X147289320Y-92939400D01*
X147366660Y-92907365D01*
X147398695Y-92894096D01*
X147437399Y-92886397D01*
X147514805Y-92871000D01*
X147633195Y-92871000D01*
X147710601Y-92886397D01*
X147710601Y-92886397D01*
G37*
G36*
X145239928Y-89896710D02*
G01*
X145239931Y-89896711D01*
X145239932Y-89896711D01*
X145437950Y-89956779D01*
X145437953Y-89956781D01*
X145437954Y-89956781D01*
X145620443Y-90054323D01*
X145780403Y-90185597D01*
X145911677Y-90345557D01*
X145940457Y-90399401D01*
X146009221Y-90528050D01*
X146045401Y-90647320D01*
X146069290Y-90726072D01*
X146089572Y-90932000D01*
X146069290Y-91137928D01*
X146069289Y-91137931D01*
X146069289Y-91137932D01*
X146009221Y-91335950D01*
X146009219Y-91335953D01*
X146009219Y-91335954D01*
X145911677Y-91518443D01*
X145780403Y-91678403D01*
X145620443Y-91809677D01*
X145437954Y-91907219D01*
X145437950Y-91907221D01*
X145239932Y-91967289D01*
X145239931Y-91967289D01*
X145239928Y-91967290D01*
X145085601Y-91982490D01*
X144982399Y-91982490D01*
X144828072Y-91967290D01*
X144828069Y-91967289D01*
X144828068Y-91967289D01*
X144630050Y-91907221D01*
X144630046Y-91907219D01*
X144447557Y-91809677D01*
X144287597Y-91678403D01*
X144156323Y-91518443D01*
X144058781Y-91335954D01*
X144058781Y-91335953D01*
X144058779Y-91335950D01*
X143998711Y-91137932D01*
X143998711Y-91137931D01*
X143998710Y-91137928D01*
X143978428Y-90932000D01*
X143998710Y-90726072D01*
X144022599Y-90647320D01*
X144058779Y-90528050D01*
X144127543Y-90399401D01*
X144156323Y-90345557D01*
X144287597Y-90185597D01*
X144447557Y-90054323D01*
X144630046Y-89956781D01*
X144630047Y-89956781D01*
X144630050Y-89956779D01*
X144828068Y-89896711D01*
X144828069Y-89896711D01*
X144828072Y-89896710D01*
X144982399Y-89881510D01*
X145085601Y-89881510D01*
X145239928Y-89896710D01*
X145239928Y-89896710D01*
G37*
G36*
X147706371Y-90345556D02*
G01*
X147749305Y-90354096D01*
X147781340Y-90367365D01*
X147858680Y-90399400D01*
X147957115Y-90465173D01*
X148040827Y-90548885D01*
X148106600Y-90647320D01*
X148151904Y-90756696D01*
X148175000Y-90872805D01*
X148175000Y-90991195D01*
X148151904Y-91107304D01*
X148106600Y-91216680D01*
X148040827Y-91315115D01*
X147957115Y-91398827D01*
X147858680Y-91464600D01*
X147781340Y-91496635D01*
X147749305Y-91509904D01*
X147710601Y-91517603D01*
X147633195Y-91533000D01*
X147514805Y-91533000D01*
X147437399Y-91517603D01*
X147398695Y-91509904D01*
X147366660Y-91496635D01*
X147289320Y-91464600D01*
X147190885Y-91398827D01*
X147107173Y-91315115D01*
X147041400Y-91216680D01*
X146996096Y-91107304D01*
X146973000Y-90991195D01*
X146973000Y-90872805D01*
X146996096Y-90756696D01*
X147041400Y-90647320D01*
X147107173Y-90548885D01*
X147190885Y-90465173D01*
X147289320Y-90399400D01*
X147366660Y-90367365D01*
X147398695Y-90354096D01*
X147441629Y-90345556D01*
X147514805Y-90331000D01*
X147633195Y-90331000D01*
X147706371Y-90345556D01*
X147706371Y-90345556D01*
G37*
G36*
X145239928Y-87356710D02*
G01*
X145239931Y-87356711D01*
X145239932Y-87356711D01*
X145437950Y-87416779D01*
X145437953Y-87416781D01*
X145437954Y-87416781D01*
X145620443Y-87514323D01*
X145780403Y-87645597D01*
X145911677Y-87805557D01*
X145940457Y-87859401D01*
X146009221Y-87988050D01*
X146045401Y-88107320D01*
X146069290Y-88186072D01*
X146089572Y-88392000D01*
X146069290Y-88597928D01*
X146069289Y-88597931D01*
X146069289Y-88597932D01*
X146009221Y-88795950D01*
X146009219Y-88795953D01*
X146009219Y-88795954D01*
X145911677Y-88978443D01*
X145780403Y-89138403D01*
X145620443Y-89269677D01*
X145437954Y-89367219D01*
X145437950Y-89367221D01*
X145239932Y-89427289D01*
X145239931Y-89427289D01*
X145239928Y-89427290D01*
X145085601Y-89442490D01*
X144982399Y-89442490D01*
X144828072Y-89427290D01*
X144828069Y-89427289D01*
X144828068Y-89427289D01*
X144630050Y-89367221D01*
X144630046Y-89367219D01*
X144447557Y-89269677D01*
X144287597Y-89138403D01*
X144156323Y-88978443D01*
X144058781Y-88795954D01*
X144058781Y-88795953D01*
X144058779Y-88795950D01*
X143998711Y-88597932D01*
X143998711Y-88597931D01*
X143998710Y-88597928D01*
X143978428Y-88392000D01*
X143998710Y-88186072D01*
X144022599Y-88107320D01*
X144058779Y-87988050D01*
X144127543Y-87859401D01*
X144156323Y-87805557D01*
X144287597Y-87645597D01*
X144447557Y-87514323D01*
X144630046Y-87416781D01*
X144630047Y-87416781D01*
X144630050Y-87416779D01*
X144828068Y-87356711D01*
X144828069Y-87356711D01*
X144828072Y-87356710D01*
X144982399Y-87341510D01*
X145085601Y-87341510D01*
X145239928Y-87356710D01*
X145239928Y-87356710D01*
G37*
G36*
X147706371Y-87805556D02*
G01*
X147749305Y-87814096D01*
X147781340Y-87827365D01*
X147858680Y-87859400D01*
X147957115Y-87925173D01*
X148040827Y-88008885D01*
X148106600Y-88107320D01*
X148151904Y-88216696D01*
X148175000Y-88332805D01*
X148175000Y-88451195D01*
X148151904Y-88567304D01*
X148106600Y-88676680D01*
X148040827Y-88775115D01*
X147957115Y-88858827D01*
X147858680Y-88924600D01*
X147781340Y-88956635D01*
X147749305Y-88969904D01*
X147710601Y-88977603D01*
X147633195Y-88993000D01*
X147514805Y-88993000D01*
X147437399Y-88977603D01*
X147398695Y-88969904D01*
X147366660Y-88956635D01*
X147289320Y-88924600D01*
X147190885Y-88858827D01*
X147107173Y-88775115D01*
X147041400Y-88676680D01*
X146996096Y-88567304D01*
X146973000Y-88451195D01*
X146973000Y-88332805D01*
X146996096Y-88216696D01*
X147041400Y-88107320D01*
X147107173Y-88008885D01*
X147190885Y-87925173D01*
X147289320Y-87859400D01*
X147366660Y-87827365D01*
X147398695Y-87814096D01*
X147441629Y-87805556D01*
X147514805Y-87791000D01*
X147633195Y-87791000D01*
X147706371Y-87805556D01*
X147706371Y-87805556D01*
G37*
G36*
X75548156Y-70672794D02*
G01*
X76269140Y-70816206D01*
X77060972Y-71144193D01*
X77773601Y-71620357D01*
X78379643Y-72226399D01*
X78855807Y-72939028D01*
X79183794Y-73730860D01*
X79318167Y-74406402D01*
X79344280Y-74537677D01*
X79351000Y-74571464D01*
X79351000Y-75428536D01*
X79183794Y-76269140D01*
X78855807Y-77060972D01*
X78379643Y-77773601D01*
X77773601Y-78379643D01*
X77060972Y-78855807D01*
X76269140Y-79183794D01*
X75548156Y-79327206D01*
X75428537Y-79351000D01*
X74571463Y-79351000D01*
X74451844Y-79327206D01*
X73730860Y-79183794D01*
X72939028Y-78855807D01*
X72226399Y-78379643D01*
X71620357Y-77773601D01*
X71144193Y-77060972D01*
X70816206Y-76269140D01*
X70649000Y-75428536D01*
X70649000Y-74571464D01*
X70655721Y-74537677D01*
X70681833Y-74406402D01*
X70816206Y-73730860D01*
X71144193Y-72939028D01*
X71620357Y-72226399D01*
X72226399Y-71620357D01*
X72939028Y-71144193D01*
X73730860Y-70816206D01*
X74451844Y-70672794D01*
X74571463Y-70649000D01*
X75428537Y-70649000D01*
X75548156Y-70672794D01*
X75548156Y-70672794D01*
G37*
G36*
X145548156Y-70672794D02*
G01*
X146269140Y-70816206D01*
X147060972Y-71144193D01*
X147773601Y-71620357D01*
X148379643Y-72226399D01*
X148855807Y-72939028D01*
X149183794Y-73730860D01*
X149318167Y-74406402D01*
X149344280Y-74537677D01*
X149351000Y-74571464D01*
X149351000Y-75428536D01*
X149183794Y-76269140D01*
X148855807Y-77060972D01*
X148379643Y-77773601D01*
X147773601Y-78379643D01*
X147060972Y-78855807D01*
X146269140Y-79183794D01*
X145548156Y-79327206D01*
X145428537Y-79351000D01*
X144571463Y-79351000D01*
X144451844Y-79327206D01*
X143730860Y-79183794D01*
X142939028Y-78855807D01*
X142226399Y-78379643D01*
X141620357Y-77773601D01*
X141144193Y-77060972D01*
X140816206Y-76269140D01*
X140649000Y-75428536D01*
X140649000Y-74571464D01*
X140655721Y-74537677D01*
X140681833Y-74406402D01*
X140816206Y-73730860D01*
X141144193Y-72939028D01*
X141620357Y-72226399D01*
X142226399Y-71620357D01*
X142939028Y-71144193D01*
X143730860Y-70816206D01*
X144451844Y-70672794D01*
X144571463Y-70649000D01*
X145428537Y-70649000D01*
X145548156Y-70672794D01*
X145548156Y-70672794D01*
G37*
G36*
X85549928Y-72624710D02*
G01*
X85549931Y-72624711D01*
X85549932Y-72624711D01*
X85747950Y-72684779D01*
X85747953Y-72684781D01*
X85747954Y-72684781D01*
X85930443Y-72782323D01*
X86090403Y-72913597D01*
X86221676Y-73073556D01*
X86319221Y-73256050D01*
X86379289Y-73454068D01*
X86379290Y-73454072D01*
X86399572Y-73660000D01*
X86379290Y-73865928D01*
X86379289Y-73865931D01*
X86379289Y-73865932D01*
X86319221Y-74063950D01*
X86319219Y-74063953D01*
X86319219Y-74063954D01*
X86221677Y-74246443D01*
X86090403Y-74406403D01*
X85930443Y-74537677D01*
X85747954Y-74635219D01*
X85747950Y-74635221D01*
X85549932Y-74695289D01*
X85549931Y-74695289D01*
X85549928Y-74695290D01*
X85395601Y-74710490D01*
X85292399Y-74710490D01*
X85138072Y-74695290D01*
X85138069Y-74695289D01*
X85138068Y-74695289D01*
X84940050Y-74635221D01*
X84940046Y-74635219D01*
X84757557Y-74537677D01*
X84597597Y-74406403D01*
X84466323Y-74246443D01*
X84368781Y-74063954D01*
X84368781Y-74063953D01*
X84368779Y-74063950D01*
X84308711Y-73865932D01*
X84308711Y-73865931D01*
X84308710Y-73865928D01*
X84288428Y-73660000D01*
X84308710Y-73454072D01*
X84308711Y-73454068D01*
X84368779Y-73256050D01*
X84466324Y-73073556D01*
X84597597Y-72913597D01*
X84757557Y-72782323D01*
X84940046Y-72684781D01*
X84940047Y-72684781D01*
X84940050Y-72684779D01*
X85138068Y-72624711D01*
X85138069Y-72624711D01*
X85138072Y-72624710D01*
X85292399Y-72609510D01*
X85395601Y-72609510D01*
X85549928Y-72624710D01*
X85549928Y-72624710D01*
G37*
G36*
X130761928Y-72624710D02*
G01*
X130761931Y-72624711D01*
X130761932Y-72624711D01*
X130959950Y-72684779D01*
X130959953Y-72684781D01*
X130959954Y-72684781D01*
X131142443Y-72782323D01*
X131302403Y-72913597D01*
X131433676Y-73073556D01*
X131531221Y-73256050D01*
X131591289Y-73454068D01*
X131591290Y-73454072D01*
X131611572Y-73660000D01*
X131591290Y-73865928D01*
X131591289Y-73865931D01*
X131591289Y-73865932D01*
X131531221Y-74063950D01*
X131531219Y-74063953D01*
X131531219Y-74063954D01*
X131433677Y-74246443D01*
X131302403Y-74406403D01*
X131142443Y-74537677D01*
X130959954Y-74635219D01*
X130959950Y-74635221D01*
X130761932Y-74695289D01*
X130761931Y-74695289D01*
X130761928Y-74695290D01*
X130607601Y-74710490D01*
X130504399Y-74710490D01*
X130350072Y-74695290D01*
X130350069Y-74695289D01*
X130350068Y-74695289D01*
X130152050Y-74635221D01*
X130152046Y-74635219D01*
X129969557Y-74537677D01*
X129809597Y-74406403D01*
X129678323Y-74246443D01*
X129580781Y-74063954D01*
X129580781Y-74063953D01*
X129580779Y-74063950D01*
X129520711Y-73865932D01*
X129520711Y-73865931D01*
X129520710Y-73865928D01*
X129500428Y-73660000D01*
X129520710Y-73454072D01*
X129520711Y-73454068D01*
X129580779Y-73256050D01*
X129678324Y-73073556D01*
X129809597Y-72913597D01*
X129969557Y-72782323D01*
X130152046Y-72684781D01*
X130152047Y-72684781D01*
X130152050Y-72684779D01*
X130350068Y-72624711D01*
X130350069Y-72624711D01*
X130350072Y-72624710D01*
X130504399Y-72609510D01*
X130607601Y-72609510D01*
X130761928Y-72624710D01*
X130761928Y-72624710D01*
G37*
G36*
X88089928Y-72624710D02*
G01*
X88089931Y-72624711D01*
X88089932Y-72624711D01*
X88287950Y-72684779D01*
X88287953Y-72684781D01*
X88287954Y-72684781D01*
X88470443Y-72782323D01*
X88630403Y-72913597D01*
X88761676Y-73073556D01*
X88859221Y-73256050D01*
X88919289Y-73454068D01*
X88919290Y-73454072D01*
X88939572Y-73660000D01*
X88919290Y-73865928D01*
X88919289Y-73865931D01*
X88919289Y-73865932D01*
X88859221Y-74063950D01*
X88859219Y-74063953D01*
X88859219Y-74063954D01*
X88761677Y-74246443D01*
X88630403Y-74406403D01*
X88470443Y-74537677D01*
X88287954Y-74635219D01*
X88287950Y-74635221D01*
X88089932Y-74695289D01*
X88089931Y-74695289D01*
X88089928Y-74695290D01*
X87935601Y-74710490D01*
X87832399Y-74710490D01*
X87678072Y-74695290D01*
X87678069Y-74695289D01*
X87678068Y-74695289D01*
X87480050Y-74635221D01*
X87480046Y-74635219D01*
X87297557Y-74537677D01*
X87137597Y-74406403D01*
X87006323Y-74246443D01*
X86908781Y-74063954D01*
X86908781Y-74063953D01*
X86908779Y-74063950D01*
X86848711Y-73865932D01*
X86848711Y-73865931D01*
X86848710Y-73865928D01*
X86828428Y-73660000D01*
X86848710Y-73454072D01*
X86848711Y-73454068D01*
X86908779Y-73256050D01*
X87006324Y-73073556D01*
X87137597Y-72913597D01*
X87297557Y-72782323D01*
X87480046Y-72684781D01*
X87480047Y-72684781D01*
X87480050Y-72684779D01*
X87678068Y-72624711D01*
X87678069Y-72624711D01*
X87678072Y-72624710D01*
X87832399Y-72609510D01*
X87935601Y-72609510D01*
X88089928Y-72624710D01*
X88089928Y-72624710D01*
G37*
G36*
X83854490Y-74710490D02*
G01*
X81753510Y-74710490D01*
X81753510Y-72609510D01*
X83854490Y-72609510D01*
X83854490Y-74710490D01*
X83854490Y-74710490D01*
G37*
G36*
X93169928Y-72624710D02*
G01*
X93169931Y-72624711D01*
X93169932Y-72624711D01*
X93367950Y-72684779D01*
X93367953Y-72684781D01*
X93367954Y-72684781D01*
X93550443Y-72782323D01*
X93710403Y-72913597D01*
X93841676Y-73073556D01*
X93939221Y-73256050D01*
X93999289Y-73454068D01*
X93999290Y-73454072D01*
X94019572Y-73660000D01*
X93999290Y-73865928D01*
X93999289Y-73865931D01*
X93999289Y-73865932D01*
X93939221Y-74063950D01*
X93939219Y-74063953D01*
X93939219Y-74063954D01*
X93841677Y-74246443D01*
X93710403Y-74406403D01*
X93550443Y-74537677D01*
X93367954Y-74635219D01*
X93367950Y-74635221D01*
X93169932Y-74695289D01*
X93169931Y-74695289D01*
X93169928Y-74695290D01*
X93015601Y-74710490D01*
X92912399Y-74710490D01*
X92758072Y-74695290D01*
X92758069Y-74695289D01*
X92758068Y-74695289D01*
X92560050Y-74635221D01*
X92560046Y-74635219D01*
X92377557Y-74537677D01*
X92217597Y-74406403D01*
X92086323Y-74246443D01*
X91988781Y-74063954D01*
X91988781Y-74063953D01*
X91988779Y-74063950D01*
X91928711Y-73865932D01*
X91928711Y-73865931D01*
X91928710Y-73865928D01*
X91908428Y-73660000D01*
X91928710Y-73454072D01*
X91928711Y-73454068D01*
X91988779Y-73256050D01*
X92086324Y-73073556D01*
X92217597Y-72913597D01*
X92377557Y-72782323D01*
X92560046Y-72684781D01*
X92560047Y-72684781D01*
X92560050Y-72684779D01*
X92758068Y-72624711D01*
X92758069Y-72624711D01*
X92758072Y-72624710D01*
X92912399Y-72609510D01*
X93015601Y-72609510D01*
X93169928Y-72624710D01*
X93169928Y-72624710D01*
G37*
G36*
X95709928Y-72624710D02*
G01*
X95709931Y-72624711D01*
X95709932Y-72624711D01*
X95907950Y-72684779D01*
X95907953Y-72684781D01*
X95907954Y-72684781D01*
X96090443Y-72782323D01*
X96250403Y-72913597D01*
X96381676Y-73073556D01*
X96479221Y-73256050D01*
X96539289Y-73454068D01*
X96539290Y-73454072D01*
X96559572Y-73660000D01*
X96539290Y-73865928D01*
X96539289Y-73865931D01*
X96539289Y-73865932D01*
X96479221Y-74063950D01*
X96479219Y-74063953D01*
X96479219Y-74063954D01*
X96381677Y-74246443D01*
X96250403Y-74406403D01*
X96090443Y-74537677D01*
X95907954Y-74635219D01*
X95907950Y-74635221D01*
X95709932Y-74695289D01*
X95709931Y-74695289D01*
X95709928Y-74695290D01*
X95555601Y-74710490D01*
X95452399Y-74710490D01*
X95298072Y-74695290D01*
X95298069Y-74695289D01*
X95298068Y-74695289D01*
X95100050Y-74635221D01*
X95100046Y-74635219D01*
X94917557Y-74537677D01*
X94757597Y-74406403D01*
X94626323Y-74246443D01*
X94528781Y-74063954D01*
X94528781Y-74063953D01*
X94528779Y-74063950D01*
X94468711Y-73865932D01*
X94468711Y-73865931D01*
X94468710Y-73865928D01*
X94448428Y-73660000D01*
X94468710Y-73454072D01*
X94468711Y-73454068D01*
X94528779Y-73256050D01*
X94626324Y-73073556D01*
X94757597Y-72913597D01*
X94917557Y-72782323D01*
X95100046Y-72684781D01*
X95100047Y-72684781D01*
X95100050Y-72684779D01*
X95298068Y-72624711D01*
X95298069Y-72624711D01*
X95298072Y-72624710D01*
X95452399Y-72609510D01*
X95555601Y-72609510D01*
X95709928Y-72624710D01*
X95709928Y-72624710D01*
G37*
G36*
X98249928Y-72624710D02*
G01*
X98249931Y-72624711D01*
X98249932Y-72624711D01*
X98447950Y-72684779D01*
X98447953Y-72684781D01*
X98447954Y-72684781D01*
X98630443Y-72782323D01*
X98790403Y-72913597D01*
X98921676Y-73073556D01*
X99019221Y-73256050D01*
X99079289Y-73454068D01*
X99079290Y-73454072D01*
X99099572Y-73660000D01*
X99079290Y-73865928D01*
X99079289Y-73865931D01*
X99079289Y-73865932D01*
X99019221Y-74063950D01*
X99019219Y-74063953D01*
X99019219Y-74063954D01*
X98921677Y-74246443D01*
X98790403Y-74406403D01*
X98630443Y-74537677D01*
X98447954Y-74635219D01*
X98447950Y-74635221D01*
X98249932Y-74695289D01*
X98249931Y-74695289D01*
X98249928Y-74695290D01*
X98095601Y-74710490D01*
X97992399Y-74710490D01*
X97838072Y-74695290D01*
X97838069Y-74695289D01*
X97838068Y-74695289D01*
X97640050Y-74635221D01*
X97640046Y-74635219D01*
X97457557Y-74537677D01*
X97297597Y-74406403D01*
X97166323Y-74246443D01*
X97068781Y-74063954D01*
X97068781Y-74063953D01*
X97068779Y-74063950D01*
X97008711Y-73865932D01*
X97008711Y-73865931D01*
X97008710Y-73865928D01*
X96988428Y-73660000D01*
X97008710Y-73454072D01*
X97008711Y-73454068D01*
X97068779Y-73256050D01*
X97166324Y-73073556D01*
X97297597Y-72913597D01*
X97457557Y-72782323D01*
X97640046Y-72684781D01*
X97640047Y-72684781D01*
X97640050Y-72684779D01*
X97838068Y-72624711D01*
X97838069Y-72624711D01*
X97838072Y-72624710D01*
X97992399Y-72609510D01*
X98095601Y-72609510D01*
X98249928Y-72624710D01*
X98249928Y-72624710D01*
G37*
G36*
X100789928Y-72624710D02*
G01*
X100789931Y-72624711D01*
X100789932Y-72624711D01*
X100987950Y-72684779D01*
X100987953Y-72684781D01*
X100987954Y-72684781D01*
X101170443Y-72782323D01*
X101330403Y-72913597D01*
X101461676Y-73073556D01*
X101559221Y-73256050D01*
X101619289Y-73454068D01*
X101619290Y-73454072D01*
X101639572Y-73660000D01*
X101619290Y-73865928D01*
X101619289Y-73865931D01*
X101619289Y-73865932D01*
X101559221Y-74063950D01*
X101559219Y-74063953D01*
X101559219Y-74063954D01*
X101461677Y-74246443D01*
X101330403Y-74406403D01*
X101170443Y-74537677D01*
X100987954Y-74635219D01*
X100987950Y-74635221D01*
X100789932Y-74695289D01*
X100789931Y-74695289D01*
X100789928Y-74695290D01*
X100635601Y-74710490D01*
X100532399Y-74710490D01*
X100378072Y-74695290D01*
X100378069Y-74695289D01*
X100378068Y-74695289D01*
X100180050Y-74635221D01*
X100180046Y-74635219D01*
X99997557Y-74537677D01*
X99837597Y-74406403D01*
X99706323Y-74246443D01*
X99608781Y-74063954D01*
X99608781Y-74063953D01*
X99608779Y-74063950D01*
X99548711Y-73865932D01*
X99548711Y-73865931D01*
X99548710Y-73865928D01*
X99528428Y-73660000D01*
X99548710Y-73454072D01*
X99548711Y-73454068D01*
X99608779Y-73256050D01*
X99706324Y-73073556D01*
X99837597Y-72913597D01*
X99997557Y-72782323D01*
X100180046Y-72684781D01*
X100180047Y-72684781D01*
X100180050Y-72684779D01*
X100378068Y-72624711D01*
X100378069Y-72624711D01*
X100378072Y-72624710D01*
X100532399Y-72609510D01*
X100635601Y-72609510D01*
X100789928Y-72624710D01*
X100789928Y-72624710D01*
G37*
G36*
X113826490Y-74710490D02*
G01*
X111725510Y-74710490D01*
X111725510Y-72609510D01*
X113826490Y-72609510D01*
X113826490Y-74710490D01*
X113826490Y-74710490D01*
G37*
G36*
X115521928Y-72624710D02*
G01*
X115521931Y-72624711D01*
X115521932Y-72624711D01*
X115719950Y-72684779D01*
X115719953Y-72684781D01*
X115719954Y-72684781D01*
X115902443Y-72782323D01*
X116062403Y-72913597D01*
X116193676Y-73073556D01*
X116291221Y-73256050D01*
X116351289Y-73454068D01*
X116351290Y-73454072D01*
X116371572Y-73660000D01*
X116351290Y-73865928D01*
X116351289Y-73865931D01*
X116351289Y-73865932D01*
X116291221Y-74063950D01*
X116291219Y-74063953D01*
X116291219Y-74063954D01*
X116193677Y-74246443D01*
X116062403Y-74406403D01*
X115902443Y-74537677D01*
X115719954Y-74635219D01*
X115719950Y-74635221D01*
X115521932Y-74695289D01*
X115521931Y-74695289D01*
X115521928Y-74695290D01*
X115367601Y-74710490D01*
X115264399Y-74710490D01*
X115110072Y-74695290D01*
X115110069Y-74695289D01*
X115110068Y-74695289D01*
X114912050Y-74635221D01*
X114912046Y-74635219D01*
X114729557Y-74537677D01*
X114569597Y-74406403D01*
X114438323Y-74246443D01*
X114340781Y-74063954D01*
X114340781Y-74063953D01*
X114340779Y-74063950D01*
X114280711Y-73865932D01*
X114280711Y-73865931D01*
X114280710Y-73865928D01*
X114260428Y-73660000D01*
X114280710Y-73454072D01*
X114280711Y-73454068D01*
X114340779Y-73256050D01*
X114438324Y-73073556D01*
X114569597Y-72913597D01*
X114729557Y-72782323D01*
X114912046Y-72684781D01*
X114912047Y-72684781D01*
X114912050Y-72684779D01*
X115110068Y-72624711D01*
X115110069Y-72624711D01*
X115110072Y-72624710D01*
X115264399Y-72609510D01*
X115367601Y-72609510D01*
X115521928Y-72624710D01*
X115521928Y-72624710D01*
G37*
G36*
X118061928Y-72624710D02*
G01*
X118061931Y-72624711D01*
X118061932Y-72624711D01*
X118259950Y-72684779D01*
X118259953Y-72684781D01*
X118259954Y-72684781D01*
X118442443Y-72782323D01*
X118602403Y-72913597D01*
X118733676Y-73073556D01*
X118831221Y-73256050D01*
X118891289Y-73454068D01*
X118891290Y-73454072D01*
X118911572Y-73660000D01*
X118891290Y-73865928D01*
X118891289Y-73865931D01*
X118891289Y-73865932D01*
X118831221Y-74063950D01*
X118831219Y-74063953D01*
X118831219Y-74063954D01*
X118733677Y-74246443D01*
X118602403Y-74406403D01*
X118442443Y-74537677D01*
X118259954Y-74635219D01*
X118259950Y-74635221D01*
X118061932Y-74695289D01*
X118061931Y-74695289D01*
X118061928Y-74695290D01*
X117907601Y-74710490D01*
X117804399Y-74710490D01*
X117650072Y-74695290D01*
X117650069Y-74695289D01*
X117650068Y-74695289D01*
X117452050Y-74635221D01*
X117452046Y-74635219D01*
X117269557Y-74537677D01*
X117109597Y-74406403D01*
X116978323Y-74246443D01*
X116880781Y-74063954D01*
X116880781Y-74063953D01*
X116880779Y-74063950D01*
X116820711Y-73865932D01*
X116820711Y-73865931D01*
X116820710Y-73865928D01*
X116800428Y-73660000D01*
X116820710Y-73454072D01*
X116820711Y-73454068D01*
X116880779Y-73256050D01*
X116978324Y-73073556D01*
X117109597Y-72913597D01*
X117269557Y-72782323D01*
X117452046Y-72684781D01*
X117452047Y-72684781D01*
X117452050Y-72684779D01*
X117650068Y-72624711D01*
X117650069Y-72624711D01*
X117650072Y-72624710D01*
X117804399Y-72609510D01*
X117907601Y-72609510D01*
X118061928Y-72624710D01*
X118061928Y-72624710D01*
G37*
G36*
X123141928Y-72624710D02*
G01*
X123141931Y-72624711D01*
X123141932Y-72624711D01*
X123339950Y-72684779D01*
X123339953Y-72684781D01*
X123339954Y-72684781D01*
X123522443Y-72782323D01*
X123682403Y-72913597D01*
X123813676Y-73073556D01*
X123911221Y-73256050D01*
X123971289Y-73454068D01*
X123971290Y-73454072D01*
X123991572Y-73660000D01*
X123971290Y-73865928D01*
X123971289Y-73865931D01*
X123971289Y-73865932D01*
X123911221Y-74063950D01*
X123911219Y-74063953D01*
X123911219Y-74063954D01*
X123813677Y-74246443D01*
X123682403Y-74406403D01*
X123522443Y-74537677D01*
X123339954Y-74635219D01*
X123339950Y-74635221D01*
X123141932Y-74695289D01*
X123141931Y-74695289D01*
X123141928Y-74695290D01*
X122987601Y-74710490D01*
X122884399Y-74710490D01*
X122730072Y-74695290D01*
X122730069Y-74695289D01*
X122730068Y-74695289D01*
X122532050Y-74635221D01*
X122532046Y-74635219D01*
X122349557Y-74537677D01*
X122189597Y-74406403D01*
X122058323Y-74246443D01*
X121960781Y-74063954D01*
X121960781Y-74063953D01*
X121960779Y-74063950D01*
X121900711Y-73865932D01*
X121900711Y-73865931D01*
X121900710Y-73865928D01*
X121880428Y-73660000D01*
X121900710Y-73454072D01*
X121900711Y-73454068D01*
X121960779Y-73256050D01*
X122058324Y-73073556D01*
X122189597Y-72913597D01*
X122349557Y-72782323D01*
X122532046Y-72684781D01*
X122532047Y-72684781D01*
X122532050Y-72684779D01*
X122730068Y-72624711D01*
X122730069Y-72624711D01*
X122730072Y-72624710D01*
X122884399Y-72609510D01*
X122987601Y-72609510D01*
X123141928Y-72624710D01*
X123141928Y-72624710D01*
G37*
G36*
X125681928Y-72624710D02*
G01*
X125681931Y-72624711D01*
X125681932Y-72624711D01*
X125879950Y-72684779D01*
X125879953Y-72684781D01*
X125879954Y-72684781D01*
X126062443Y-72782323D01*
X126222403Y-72913597D01*
X126353676Y-73073556D01*
X126451221Y-73256050D01*
X126511289Y-73454068D01*
X126511290Y-73454072D01*
X126531572Y-73660000D01*
X126511290Y-73865928D01*
X126511289Y-73865931D01*
X126511289Y-73865932D01*
X126451221Y-74063950D01*
X126451219Y-74063953D01*
X126451219Y-74063954D01*
X126353677Y-74246443D01*
X126222403Y-74406403D01*
X126062443Y-74537677D01*
X125879954Y-74635219D01*
X125879950Y-74635221D01*
X125681932Y-74695289D01*
X125681931Y-74695289D01*
X125681928Y-74695290D01*
X125527601Y-74710490D01*
X125424399Y-74710490D01*
X125270072Y-74695290D01*
X125270069Y-74695289D01*
X125270068Y-74695289D01*
X125072050Y-74635221D01*
X125072046Y-74635219D01*
X124889557Y-74537677D01*
X124729597Y-74406403D01*
X124598323Y-74246443D01*
X124500781Y-74063954D01*
X124500781Y-74063953D01*
X124500779Y-74063950D01*
X124440711Y-73865932D01*
X124440711Y-73865931D01*
X124440710Y-73865928D01*
X124420428Y-73660000D01*
X124440710Y-73454072D01*
X124440711Y-73454068D01*
X124500779Y-73256050D01*
X124598324Y-73073556D01*
X124729597Y-72913597D01*
X124889557Y-72782323D01*
X125072046Y-72684781D01*
X125072047Y-72684781D01*
X125072050Y-72684779D01*
X125270068Y-72624711D01*
X125270069Y-72624711D01*
X125270072Y-72624710D01*
X125424399Y-72609510D01*
X125527601Y-72609510D01*
X125681928Y-72624710D01*
X125681928Y-72624710D01*
G37*
G36*
X128221928Y-72624710D02*
G01*
X128221931Y-72624711D01*
X128221932Y-72624711D01*
X128419950Y-72684779D01*
X128419953Y-72684781D01*
X128419954Y-72684781D01*
X128602443Y-72782323D01*
X128762403Y-72913597D01*
X128893676Y-73073556D01*
X128991221Y-73256050D01*
X129051289Y-73454068D01*
X129051290Y-73454072D01*
X129071572Y-73660000D01*
X129051290Y-73865928D01*
X129051289Y-73865931D01*
X129051289Y-73865932D01*
X128991221Y-74063950D01*
X128991219Y-74063953D01*
X128991219Y-74063954D01*
X128893677Y-74246443D01*
X128762403Y-74406403D01*
X128602443Y-74537677D01*
X128419954Y-74635219D01*
X128419950Y-74635221D01*
X128221932Y-74695289D01*
X128221931Y-74695289D01*
X128221928Y-74695290D01*
X128067601Y-74710490D01*
X127964399Y-74710490D01*
X127810072Y-74695290D01*
X127810069Y-74695289D01*
X127810068Y-74695289D01*
X127612050Y-74635221D01*
X127612046Y-74635219D01*
X127429557Y-74537677D01*
X127269597Y-74406403D01*
X127138323Y-74246443D01*
X127040781Y-74063954D01*
X127040781Y-74063953D01*
X127040779Y-74063950D01*
X126980711Y-73865932D01*
X126980711Y-73865931D01*
X126980710Y-73865928D01*
X126960428Y-73660000D01*
X126980710Y-73454072D01*
X126980711Y-73454068D01*
X127040779Y-73256050D01*
X127138324Y-73073556D01*
X127269597Y-72913597D01*
X127429557Y-72782323D01*
X127612046Y-72684781D01*
X127612047Y-72684781D01*
X127612050Y-72684779D01*
X127810068Y-72624711D01*
X127810069Y-72624711D01*
X127810072Y-72624710D01*
X127964399Y-72609510D01*
X128067601Y-72609510D01*
X128221928Y-72624710D01*
X128221928Y-72624710D01*
G37*
G36*
X90629928Y-72624710D02*
G01*
X90629931Y-72624711D01*
X90629932Y-72624711D01*
X90827950Y-72684779D01*
X90827953Y-72684781D01*
X90827954Y-72684781D01*
X91010443Y-72782323D01*
X91170403Y-72913597D01*
X91301676Y-73073556D01*
X91399221Y-73256050D01*
X91459289Y-73454068D01*
X91459290Y-73454072D01*
X91479572Y-73660000D01*
X91459290Y-73865928D01*
X91459289Y-73865931D01*
X91459289Y-73865932D01*
X91399221Y-74063950D01*
X91399219Y-74063953D01*
X91399219Y-74063954D01*
X91301677Y-74246443D01*
X91170403Y-74406403D01*
X91010443Y-74537677D01*
X90827954Y-74635219D01*
X90827950Y-74635221D01*
X90629932Y-74695289D01*
X90629931Y-74695289D01*
X90629928Y-74695290D01*
X90475601Y-74710490D01*
X90372399Y-74710490D01*
X90218072Y-74695290D01*
X90218069Y-74695289D01*
X90218068Y-74695289D01*
X90020050Y-74635221D01*
X90020046Y-74635219D01*
X89837557Y-74537677D01*
X89677597Y-74406403D01*
X89546323Y-74246443D01*
X89448781Y-74063954D01*
X89448781Y-74063953D01*
X89448779Y-74063950D01*
X89388711Y-73865932D01*
X89388711Y-73865931D01*
X89388710Y-73865928D01*
X89368428Y-73660000D01*
X89388710Y-73454072D01*
X89388711Y-73454068D01*
X89448779Y-73256050D01*
X89546324Y-73073556D01*
X89677597Y-72913597D01*
X89837557Y-72782323D01*
X90020046Y-72684781D01*
X90020047Y-72684781D01*
X90020050Y-72684779D01*
X90218068Y-72624711D01*
X90218069Y-72624711D01*
X90218072Y-72624710D01*
X90372399Y-72609510D01*
X90475601Y-72609510D01*
X90629928Y-72624710D01*
X90629928Y-72624710D01*
G37*
G36*
X120601928Y-72624710D02*
G01*
X120601931Y-72624711D01*
X120601932Y-72624711D01*
X120799950Y-72684779D01*
X120799953Y-72684781D01*
X120799954Y-72684781D01*
X120982443Y-72782323D01*
X121142403Y-72913597D01*
X121273676Y-73073556D01*
X121371221Y-73256050D01*
X121431289Y-73454068D01*
X121431290Y-73454072D01*
X121451572Y-73660000D01*
X121431290Y-73865928D01*
X121431289Y-73865931D01*
X121431289Y-73865932D01*
X121371221Y-74063950D01*
X121371219Y-74063953D01*
X121371219Y-74063954D01*
X121273677Y-74246443D01*
X121142403Y-74406403D01*
X120982443Y-74537677D01*
X120799954Y-74635219D01*
X120799950Y-74635221D01*
X120601932Y-74695289D01*
X120601931Y-74695289D01*
X120601928Y-74695290D01*
X120447601Y-74710490D01*
X120344399Y-74710490D01*
X120190072Y-74695290D01*
X120190069Y-74695289D01*
X120190068Y-74695289D01*
X119992050Y-74635221D01*
X119992046Y-74635219D01*
X119809557Y-74537677D01*
X119649597Y-74406403D01*
X119518323Y-74246443D01*
X119420781Y-74063954D01*
X119420781Y-74063953D01*
X119420779Y-74063950D01*
X119360711Y-73865932D01*
X119360711Y-73865931D01*
X119360710Y-73865928D01*
X119340428Y-73660000D01*
X119360710Y-73454072D01*
X119360711Y-73454068D01*
X119420779Y-73256050D01*
X119518324Y-73073556D01*
X119649597Y-72913597D01*
X119809557Y-72782323D01*
X119992046Y-72684781D01*
X119992047Y-72684781D01*
X119992050Y-72684779D01*
X120190068Y-72624711D01*
X120190069Y-72624711D01*
X120190072Y-72624710D01*
X120344399Y-72609510D01*
X120447601Y-72609510D01*
X120601928Y-72624710D01*
X120601928Y-72624710D01*
G37*
M02*
