M48
; DRILL file {KiCad (5.1.0)-1} date 3/05/2019 11:21:47
; FORMAT={3:3/ absolute / metric / suppress leading zeros}
; #@! TF.CreationDate,2019-05-03T11:21:47+02:00
; #@! TF.GenerationSoftware,Kicad,Pcbnew,(5.1.0)-1
FMAT,2
METRIC,TZ
T1C0.400
T2C0.500
T3C0.762
T4C1.097
T5C1.100
T6C4.300
T7C1.100
%
G90
G05
T1
X80264Y-76962
X81788Y-92710
X81788Y-93726
X82804Y-122936
X82804Y-123952
X82804Y-138430
X82804Y-139446
X85344Y-76962
X85598Y-91186
X87390Y-122922
X87390Y-123938
X90424Y-76962
X90678Y-91186
X95504Y-76962
X95758Y-91186
X100838Y-91186
X110236Y-77216
X110744Y-110744
X114046Y-99314
X114808Y-102108
X115062Y-112522
X115316Y-77216
X115570Y-91440
X117856Y-98044
X120396Y-77216
X120650Y-91440
X121158Y-125476
X121158Y-127254
X125476Y-77216
X125730Y-91440
X130810Y-91440
T2
X100330Y-128270
X100330Y-132080
T3
X116840Y-120650
X116840Y-123190
X116840Y-125730
X116840Y-128270
X116840Y-130810
X116840Y-133350
X137160Y-120650
X137160Y-123190
X137160Y-125730
X137160Y-128270
X137160Y-130810
X137160Y-133350
T4
X112776Y-73660
X115316Y-73660
X117856Y-73660
X120396Y-73660
X122936Y-73660
X125476Y-73660
X128016Y-73660
X130556Y-73660
X86360Y-135890
X88900Y-135890
X82804Y-73660
X85344Y-73660
X87884Y-73660
X90424Y-73660
X92964Y-73660
X95504Y-73660
X98044Y-73660
X100584Y-73660
X145034Y-88392
X145034Y-90932
X145034Y-93472
X145034Y-102108
X145034Y-104648
X145034Y-107188
X145034Y-109728
T5
X92710Y-105410
X92710Y-107950
X92710Y-110490
X92710Y-113030
X92710Y-115570
X92710Y-118110
X92710Y-120650
X92710Y-123190
X92710Y-125730
X92710Y-128270
X92710Y-130810
X92710Y-133350
X92710Y-135890
X92710Y-138430
X95250Y-105410
X95250Y-125730
X95250Y-128270
X95250Y-130810
X95250Y-135890
X97790Y-105410
X97790Y-107950
X97790Y-110490
X97790Y-113030
X97790Y-115570
X97790Y-118110
X97790Y-120650
X97790Y-123190
X100330Y-105410
X100330Y-107950
X100330Y-110490
X100330Y-113030
X100330Y-115570
X100330Y-118110
X100330Y-120650
X100330Y-123190
X102870Y-105410
X105410Y-105410
X107950Y-105410
X107950Y-107950
X107950Y-110490
X107950Y-113030
X107950Y-115570
X107950Y-118110
X107950Y-120650
X107950Y-123190
X107950Y-125730
X107950Y-128270
X107950Y-130810
X107950Y-133350
X107950Y-135890
X107950Y-138430
T6
X75000Y-75000
X145000Y-75000
X145000Y-135000
X75000Y-135000
T7
X86360Y-138430
X88900Y-138430
X147574Y-88392
X147574Y-90932
X147574Y-93472
T0
M30
