G04 #@! TF.GenerationSoftware,KiCad,Pcbnew,(5.1.0)-1*
G04 #@! TF.CreationDate,2019-05-03T11:21:41+02:00*
G04 #@! TF.ProjectId,ArtNet_Node_WSLEDS,4172744e-6574-45f4-9e6f-64655f57534c,rev?*
G04 #@! TF.SameCoordinates,Original*
G04 #@! TF.FileFunction,Legend,Top*
G04 #@! TF.FilePolarity,Positive*
%FSLAX46Y46*%
G04 Gerber Fmt 4.6, Leading zero omitted, Abs format (unit mm)*
G04 Created by KiCad (PCBNEW (5.1.0)-1) date 2019-05-03 11:21:41*
%MOMM*%
%LPD*%
G04 APERTURE LIST*
%ADD10C,0.150000*%
%ADD11C,0.250000*%
%ADD12C,0.120000*%
G04 APERTURE END LIST*
D10*
X84630000Y-132278380D02*
X84630000Y-131278380D01*
X84963333Y-131992666D01*
X85296666Y-131278380D01*
X85296666Y-132278380D01*
X85725238Y-131992666D02*
X86201428Y-131992666D01*
X85630000Y-132278380D02*
X85963333Y-131278380D01*
X86296666Y-132278380D01*
X86534761Y-131278380D02*
X87201428Y-132278380D01*
X87201428Y-131278380D02*
X86534761Y-132278380D01*
X88868095Y-132278380D02*
X88296666Y-132278380D01*
X88582380Y-132278380D02*
X88582380Y-131278380D01*
X88487142Y-131421238D01*
X88391904Y-131516476D01*
X88296666Y-131564095D01*
X89249047Y-131373619D02*
X89296666Y-131326000D01*
X89391904Y-131278380D01*
X89630000Y-131278380D01*
X89725238Y-131326000D01*
X89772857Y-131373619D01*
X89820476Y-131468857D01*
X89820476Y-131564095D01*
X89772857Y-131706952D01*
X89201428Y-132278380D01*
X89820476Y-132278380D01*
X90106190Y-131278380D02*
X90439523Y-132278380D01*
X90772857Y-131278380D01*
X110847142Y-123022190D02*
X110894761Y-123069809D01*
X110942380Y-123212666D01*
X110942380Y-123307904D01*
X110894761Y-123450761D01*
X110799523Y-123546000D01*
X110704285Y-123593619D01*
X110513809Y-123641238D01*
X110370952Y-123641238D01*
X110180476Y-123593619D01*
X110085238Y-123546000D01*
X109990000Y-123450761D01*
X109942380Y-123307904D01*
X109942380Y-123212666D01*
X109990000Y-123069809D01*
X110037619Y-123022190D01*
X110275714Y-122165047D02*
X110942380Y-122165047D01*
X110275714Y-122593619D02*
X110799523Y-122593619D01*
X110894761Y-122546000D01*
X110942380Y-122450761D01*
X110942380Y-122307904D01*
X110894761Y-122212666D01*
X110847142Y-122165047D01*
X110275714Y-121831714D02*
X110275714Y-121450761D01*
X109942380Y-121688857D02*
X110799523Y-121688857D01*
X110894761Y-121641238D01*
X110942380Y-121546000D01*
X110942380Y-121450761D01*
X109942380Y-120498380D02*
X110942380Y-120165047D01*
X109942380Y-119831714D01*
X109942380Y-119498380D02*
X110751904Y-119498380D01*
X110847142Y-119450761D01*
X110894761Y-119403142D01*
X110942380Y-119307904D01*
X110942380Y-119117428D01*
X110894761Y-119022190D01*
X110847142Y-118974571D01*
X110751904Y-118926952D01*
X109942380Y-118926952D01*
X110894761Y-118498380D02*
X110942380Y-118355523D01*
X110942380Y-118117428D01*
X110894761Y-118022190D01*
X110847142Y-117974571D01*
X110751904Y-117926952D01*
X110656666Y-117926952D01*
X110561428Y-117974571D01*
X110513809Y-118022190D01*
X110466190Y-118117428D01*
X110418571Y-118307904D01*
X110370952Y-118403142D01*
X110323333Y-118450761D01*
X110228095Y-118498380D01*
X110132857Y-118498380D01*
X110037619Y-118450761D01*
X109990000Y-118403142D01*
X109942380Y-118307904D01*
X109942380Y-118069809D01*
X109990000Y-117926952D01*
X110418571Y-117165047D02*
X110466190Y-117022190D01*
X110513809Y-116974571D01*
X110609047Y-116926952D01*
X110751904Y-116926952D01*
X110847142Y-116974571D01*
X110894761Y-117022190D01*
X110942380Y-117117428D01*
X110942380Y-117498380D01*
X109942380Y-117498380D01*
X109942380Y-117165047D01*
X109990000Y-117069809D01*
X110037619Y-117022190D01*
X110132857Y-116974571D01*
X110228095Y-116974571D01*
X110323333Y-117022190D01*
X110370952Y-117069809D01*
X110418571Y-117165047D01*
X110418571Y-117498380D01*
X110275714Y-115879333D02*
X110275714Y-115498380D01*
X109942380Y-115736476D02*
X110799523Y-115736476D01*
X110894761Y-115688857D01*
X110942380Y-115593619D01*
X110942380Y-115498380D01*
X110942380Y-115165047D02*
X110275714Y-115165047D01*
X110466190Y-115165047D02*
X110370952Y-115117428D01*
X110323333Y-115069809D01*
X110275714Y-114974571D01*
X110275714Y-114879333D01*
X110942380Y-114117428D02*
X110418571Y-114117428D01*
X110323333Y-114165047D01*
X110275714Y-114260285D01*
X110275714Y-114450761D01*
X110323333Y-114546000D01*
X110894761Y-114117428D02*
X110942380Y-114212666D01*
X110942380Y-114450761D01*
X110894761Y-114546000D01*
X110799523Y-114593619D01*
X110704285Y-114593619D01*
X110609047Y-114546000D01*
X110561428Y-114450761D01*
X110561428Y-114212666D01*
X110513809Y-114117428D01*
X110894761Y-113212666D02*
X110942380Y-113307904D01*
X110942380Y-113498380D01*
X110894761Y-113593619D01*
X110847142Y-113641238D01*
X110751904Y-113688857D01*
X110466190Y-113688857D01*
X110370952Y-113641238D01*
X110323333Y-113593619D01*
X110275714Y-113498380D01*
X110275714Y-113307904D01*
X110323333Y-113212666D01*
X110942380Y-112784095D02*
X109942380Y-112784095D01*
X110561428Y-112688857D02*
X110942380Y-112403142D01*
X110275714Y-112403142D02*
X110656666Y-112784095D01*
X110942380Y-111069809D02*
X110894761Y-111165047D01*
X110847142Y-111212666D01*
X110751904Y-111260285D01*
X110466190Y-111260285D01*
X110370952Y-111212666D01*
X110323333Y-111165047D01*
X110275714Y-111069809D01*
X110275714Y-110926952D01*
X110323333Y-110831714D01*
X110370952Y-110784095D01*
X110466190Y-110736476D01*
X110751904Y-110736476D01*
X110847142Y-110784095D01*
X110894761Y-110831714D01*
X110942380Y-110926952D01*
X110942380Y-111069809D01*
X110275714Y-110450761D02*
X110275714Y-110069809D01*
X110942380Y-110307904D02*
X110085238Y-110307904D01*
X109990000Y-110260285D01*
X109942380Y-110165047D01*
X109942380Y-110069809D01*
X109942380Y-109117428D02*
X109942380Y-108546000D01*
X110942380Y-108831714D02*
X109942380Y-108831714D01*
X110894761Y-107831714D02*
X110942380Y-107926952D01*
X110942380Y-108117428D01*
X110894761Y-108212666D01*
X110799523Y-108260285D01*
X110418571Y-108260285D01*
X110323333Y-108212666D01*
X110275714Y-108117428D01*
X110275714Y-107926952D01*
X110323333Y-107831714D01*
X110418571Y-107784095D01*
X110513809Y-107784095D01*
X110609047Y-108260285D01*
X110894761Y-106974571D02*
X110942380Y-107069809D01*
X110942380Y-107260285D01*
X110894761Y-107355523D01*
X110799523Y-107403142D01*
X110418571Y-107403142D01*
X110323333Y-107355523D01*
X110275714Y-107260285D01*
X110275714Y-107069809D01*
X110323333Y-106974571D01*
X110418571Y-106926952D01*
X110513809Y-106926952D01*
X110609047Y-107403142D01*
X110275714Y-106498380D02*
X110942380Y-106498380D01*
X110370952Y-106498380D02*
X110323333Y-106450761D01*
X110275714Y-106355523D01*
X110275714Y-106212666D01*
X110323333Y-106117428D01*
X110418571Y-106069809D01*
X110942380Y-106069809D01*
X110894761Y-105641238D02*
X110942380Y-105546000D01*
X110942380Y-105355523D01*
X110894761Y-105260285D01*
X110799523Y-105212666D01*
X110751904Y-105212666D01*
X110656666Y-105260285D01*
X110609047Y-105355523D01*
X110609047Y-105498380D01*
X110561428Y-105593619D01*
X110466190Y-105641238D01*
X110418571Y-105641238D01*
X110323333Y-105593619D01*
X110275714Y-105498380D01*
X110275714Y-105355523D01*
X110323333Y-105260285D01*
X110275714Y-104879333D02*
X110942380Y-104641238D01*
X110275714Y-104403142D02*
X110942380Y-104641238D01*
X111180476Y-104736476D01*
X111228095Y-104784095D01*
X111275714Y-104879333D01*
X121698095Y-108402380D02*
X121698095Y-107402380D01*
X122269523Y-108402380D01*
X122269523Y-107402380D01*
X122888571Y-108402380D02*
X122793333Y-108354761D01*
X122745714Y-108307142D01*
X122698095Y-108211904D01*
X122698095Y-107926190D01*
X122745714Y-107830952D01*
X122793333Y-107783333D01*
X122888571Y-107735714D01*
X123031428Y-107735714D01*
X123126666Y-107783333D01*
X123174285Y-107830952D01*
X123221904Y-107926190D01*
X123221904Y-108211904D01*
X123174285Y-108307142D01*
X123126666Y-108354761D01*
X123031428Y-108402380D01*
X122888571Y-108402380D01*
X124412380Y-108402380D02*
X124412380Y-107402380D01*
X124793333Y-107402380D01*
X124888571Y-107450000D01*
X124936190Y-107497619D01*
X124983809Y-107592857D01*
X124983809Y-107735714D01*
X124936190Y-107830952D01*
X124888571Y-107878571D01*
X124793333Y-107926190D01*
X124412380Y-107926190D01*
X125555238Y-108402380D02*
X125460000Y-108354761D01*
X125412380Y-108307142D01*
X125364761Y-108211904D01*
X125364761Y-107926190D01*
X125412380Y-107830952D01*
X125460000Y-107783333D01*
X125555238Y-107735714D01*
X125698095Y-107735714D01*
X125793333Y-107783333D01*
X125840952Y-107830952D01*
X125888571Y-107926190D01*
X125888571Y-108211904D01*
X125840952Y-108307142D01*
X125793333Y-108354761D01*
X125698095Y-108402380D01*
X125555238Y-108402380D01*
X126317142Y-107878571D02*
X126650476Y-107878571D01*
X126793333Y-108402380D02*
X126317142Y-108402380D01*
X126317142Y-107402380D01*
X126793333Y-107402380D01*
X127221904Y-108307142D02*
X127269523Y-108354761D01*
X127221904Y-108402380D01*
X127174285Y-108354761D01*
X127221904Y-108307142D01*
X127221904Y-108402380D01*
X127221904Y-108021428D02*
X127174285Y-107450000D01*
X127221904Y-107402380D01*
X127269523Y-107450000D01*
X127221904Y-108021428D01*
X127221904Y-107402380D01*
X139009523Y-106640380D02*
X139580952Y-106640380D01*
X139295238Y-107640380D02*
X139295238Y-106640380D01*
X139819047Y-107640380D02*
X140342857Y-106973714D01*
X139819047Y-106973714D02*
X140342857Y-107640380D01*
X139604761Y-105100380D02*
X139271428Y-104624190D01*
X139033333Y-105100380D02*
X139033333Y-104100380D01*
X139414285Y-104100380D01*
X139509523Y-104148000D01*
X139557142Y-104195619D01*
X139604761Y-104290857D01*
X139604761Y-104433714D01*
X139557142Y-104528952D01*
X139509523Y-104576571D01*
X139414285Y-104624190D01*
X139033333Y-104624190D01*
X139938095Y-105100380D02*
X140461904Y-104433714D01*
X139938095Y-104433714D02*
X140461904Y-105100380D01*
X137953904Y-109180380D02*
X138572952Y-109180380D01*
X138239619Y-109561333D01*
X138382476Y-109561333D01*
X138477714Y-109608952D01*
X138525333Y-109656571D01*
X138572952Y-109751809D01*
X138572952Y-109989904D01*
X138525333Y-110085142D01*
X138477714Y-110132761D01*
X138382476Y-110180380D01*
X138096761Y-110180380D01*
X138001523Y-110132761D01*
X137953904Y-110085142D01*
X138858666Y-109180380D02*
X139192000Y-110180380D01*
X139525333Y-109180380D01*
X139763428Y-109180380D02*
X140382476Y-109180380D01*
X140049142Y-109561333D01*
X140192000Y-109561333D01*
X140287238Y-109608952D01*
X140334857Y-109656571D01*
X140382476Y-109751809D01*
X140382476Y-109989904D01*
X140334857Y-110085142D01*
X140287238Y-110132761D01*
X140192000Y-110180380D01*
X139906285Y-110180380D01*
X139811047Y-110132761D01*
X139763428Y-110085142D01*
X138430095Y-101608000D02*
X138334857Y-101560380D01*
X138192000Y-101560380D01*
X138049142Y-101608000D01*
X137953904Y-101703238D01*
X137906285Y-101798476D01*
X137858666Y-101988952D01*
X137858666Y-102131809D01*
X137906285Y-102322285D01*
X137953904Y-102417523D01*
X138049142Y-102512761D01*
X138192000Y-102560380D01*
X138287238Y-102560380D01*
X138430095Y-102512761D01*
X138477714Y-102465142D01*
X138477714Y-102131809D01*
X138287238Y-102131809D01*
X138906285Y-102560380D02*
X138906285Y-101560380D01*
X139477714Y-102560380D01*
X139477714Y-101560380D01*
X139953904Y-102560380D02*
X139953904Y-101560380D01*
X140192000Y-101560380D01*
X140334857Y-101608000D01*
X140430095Y-101703238D01*
X140477714Y-101798476D01*
X140525333Y-101988952D01*
X140525333Y-102131809D01*
X140477714Y-102322285D01*
X140430095Y-102417523D01*
X140334857Y-102512761D01*
X140192000Y-102560380D01*
X139953904Y-102560380D01*
X138207904Y-93178380D02*
X138826952Y-93178380D01*
X138493619Y-93559333D01*
X138636476Y-93559333D01*
X138731714Y-93606952D01*
X138779333Y-93654571D01*
X138826952Y-93749809D01*
X138826952Y-93987904D01*
X138779333Y-94083142D01*
X138731714Y-94130761D01*
X138636476Y-94178380D01*
X138350761Y-94178380D01*
X138255523Y-94130761D01*
X138207904Y-94083142D01*
X139112666Y-93178380D02*
X139446000Y-94178380D01*
X139779333Y-93178380D01*
X140017428Y-93178380D02*
X140636476Y-93178380D01*
X140303142Y-93559333D01*
X140446000Y-93559333D01*
X140541238Y-93606952D01*
X140588857Y-93654571D01*
X140636476Y-93749809D01*
X140636476Y-93987904D01*
X140588857Y-94083142D01*
X140541238Y-94130761D01*
X140446000Y-94178380D01*
X140160285Y-94178380D01*
X140065047Y-94130761D01*
X140017428Y-94083142D01*
X138684095Y-88146000D02*
X138588857Y-88098380D01*
X138446000Y-88098380D01*
X138303142Y-88146000D01*
X138207904Y-88241238D01*
X138160285Y-88336476D01*
X138112666Y-88526952D01*
X138112666Y-88669809D01*
X138160285Y-88860285D01*
X138207904Y-88955523D01*
X138303142Y-89050761D01*
X138446000Y-89098380D01*
X138541238Y-89098380D01*
X138684095Y-89050761D01*
X138731714Y-89003142D01*
X138731714Y-88669809D01*
X138541238Y-88669809D01*
X139160285Y-89098380D02*
X139160285Y-88098380D01*
X139731714Y-89098380D01*
X139731714Y-88098380D01*
X140207904Y-89098380D02*
X140207904Y-88098380D01*
X140446000Y-88098380D01*
X140588857Y-88146000D01*
X140684095Y-88241238D01*
X140731714Y-88336476D01*
X140779333Y-88526952D01*
X140779333Y-88669809D01*
X140731714Y-88860285D01*
X140684095Y-88955523D01*
X140588857Y-89050761D01*
X140446000Y-89098380D01*
X140207904Y-89098380D01*
X137644380Y-91590761D02*
X137787238Y-91638380D01*
X138025333Y-91638380D01*
X138120571Y-91590761D01*
X138168190Y-91543142D01*
X138215809Y-91447904D01*
X138215809Y-91352666D01*
X138168190Y-91257428D01*
X138120571Y-91209809D01*
X138025333Y-91162190D01*
X137834857Y-91114571D01*
X137739619Y-91066952D01*
X137692000Y-91019333D01*
X137644380Y-90924095D01*
X137644380Y-90828857D01*
X137692000Y-90733619D01*
X137739619Y-90686000D01*
X137834857Y-90638380D01*
X138072952Y-90638380D01*
X138215809Y-90686000D01*
X138549142Y-90971714D02*
X138787238Y-91638380D01*
X139025333Y-90971714D02*
X138787238Y-91638380D01*
X138692000Y-91876476D01*
X138644380Y-91924095D01*
X138549142Y-91971714D01*
X139406285Y-90971714D02*
X139406285Y-91638380D01*
X139406285Y-91066952D02*
X139453904Y-91019333D01*
X139549142Y-90971714D01*
X139692000Y-90971714D01*
X139787238Y-91019333D01*
X139834857Y-91114571D01*
X139834857Y-91638380D01*
X140739619Y-91590761D02*
X140644380Y-91638380D01*
X140453904Y-91638380D01*
X140358666Y-91590761D01*
X140311047Y-91543142D01*
X140263428Y-91447904D01*
X140263428Y-91162190D01*
X140311047Y-91066952D01*
X140358666Y-91019333D01*
X140453904Y-90971714D01*
X140644380Y-90971714D01*
X140739619Y-91019333D01*
X88519047Y-139771428D02*
X89280952Y-139771428D01*
X85979047Y-139771428D02*
X86740952Y-139771428D01*
X86360000Y-140152380D02*
X86360000Y-139390476D01*
X121666571Y-105624380D02*
X121904666Y-106624380D01*
X122095142Y-105910095D01*
X122285619Y-106624380D01*
X122523714Y-105624380D01*
X122857047Y-106576761D02*
X122999904Y-106624380D01*
X123238000Y-106624380D01*
X123333238Y-106576761D01*
X123380857Y-106529142D01*
X123428476Y-106433904D01*
X123428476Y-106338666D01*
X123380857Y-106243428D01*
X123333238Y-106195809D01*
X123238000Y-106148190D01*
X123047523Y-106100571D01*
X122952285Y-106052952D01*
X122904666Y-106005333D01*
X122857047Y-105910095D01*
X122857047Y-105814857D01*
X122904666Y-105719619D01*
X122952285Y-105672000D01*
X123047523Y-105624380D01*
X123285619Y-105624380D01*
X123428476Y-105672000D01*
X123809428Y-105719619D02*
X123857047Y-105672000D01*
X123952285Y-105624380D01*
X124190380Y-105624380D01*
X124285619Y-105672000D01*
X124333238Y-105719619D01*
X124380857Y-105814857D01*
X124380857Y-105910095D01*
X124333238Y-106052952D01*
X123761809Y-106624380D01*
X124380857Y-106624380D01*
X124952285Y-106052952D02*
X124857047Y-106005333D01*
X124809428Y-105957714D01*
X124761809Y-105862476D01*
X124761809Y-105814857D01*
X124809428Y-105719619D01*
X124857047Y-105672000D01*
X124952285Y-105624380D01*
X125142761Y-105624380D01*
X125238000Y-105672000D01*
X125285619Y-105719619D01*
X125333238Y-105814857D01*
X125333238Y-105862476D01*
X125285619Y-105957714D01*
X125238000Y-106005333D01*
X125142761Y-106052952D01*
X124952285Y-106052952D01*
X124857047Y-106100571D01*
X124809428Y-106148190D01*
X124761809Y-106243428D01*
X124761809Y-106433904D01*
X124809428Y-106529142D01*
X124857047Y-106576761D01*
X124952285Y-106624380D01*
X125142761Y-106624380D01*
X125238000Y-106576761D01*
X125285619Y-106529142D01*
X125333238Y-106433904D01*
X125333238Y-106243428D01*
X125285619Y-106148190D01*
X125238000Y-106100571D01*
X125142761Y-106052952D01*
X126285619Y-106624380D02*
X125714190Y-106624380D01*
X125999904Y-106624380D02*
X125999904Y-105624380D01*
X125904666Y-105767238D01*
X125809428Y-105862476D01*
X125714190Y-105910095D01*
X127190380Y-105624380D02*
X126714190Y-105624380D01*
X126666571Y-106100571D01*
X126714190Y-106052952D01*
X126809428Y-106005333D01*
X127047523Y-106005333D01*
X127142761Y-106052952D01*
X127190380Y-106100571D01*
X127238000Y-106195809D01*
X127238000Y-106433904D01*
X127190380Y-106529142D01*
X127142761Y-106576761D01*
X127047523Y-106624380D01*
X126809428Y-106624380D01*
X126714190Y-106576761D01*
X126666571Y-106529142D01*
X128952285Y-106624380D02*
X128380857Y-106624380D01*
X128666571Y-106624380D02*
X128666571Y-105624380D01*
X128571333Y-105767238D01*
X128476095Y-105862476D01*
X128380857Y-105910095D01*
X129333238Y-105719619D02*
X129380857Y-105672000D01*
X129476095Y-105624380D01*
X129714190Y-105624380D01*
X129809428Y-105672000D01*
X129857047Y-105719619D01*
X129904666Y-105814857D01*
X129904666Y-105910095D01*
X129857047Y-106052952D01*
X129285619Y-106624380D01*
X129904666Y-106624380D01*
X130190380Y-105624380D02*
X130523714Y-106624380D01*
X130857047Y-105624380D01*
X121642761Y-103846380D02*
X121880857Y-104846380D01*
X122071333Y-104132095D01*
X122261809Y-104846380D01*
X122499904Y-103846380D01*
X122833238Y-104798761D02*
X122976095Y-104846380D01*
X123214190Y-104846380D01*
X123309428Y-104798761D01*
X123357047Y-104751142D01*
X123404666Y-104655904D01*
X123404666Y-104560666D01*
X123357047Y-104465428D01*
X123309428Y-104417809D01*
X123214190Y-104370190D01*
X123023714Y-104322571D01*
X122928476Y-104274952D01*
X122880857Y-104227333D01*
X122833238Y-104132095D01*
X122833238Y-104036857D01*
X122880857Y-103941619D01*
X122928476Y-103894000D01*
X123023714Y-103846380D01*
X123261809Y-103846380D01*
X123404666Y-103894000D01*
X123785619Y-103941619D02*
X123833238Y-103894000D01*
X123928476Y-103846380D01*
X124166571Y-103846380D01*
X124261809Y-103894000D01*
X124309428Y-103941619D01*
X124357047Y-104036857D01*
X124357047Y-104132095D01*
X124309428Y-104274952D01*
X123738000Y-104846380D01*
X124357047Y-104846380D01*
X124928476Y-104274952D02*
X124833238Y-104227333D01*
X124785619Y-104179714D01*
X124738000Y-104084476D01*
X124738000Y-104036857D01*
X124785619Y-103941619D01*
X124833238Y-103894000D01*
X124928476Y-103846380D01*
X125118952Y-103846380D01*
X125214190Y-103894000D01*
X125261809Y-103941619D01*
X125309428Y-104036857D01*
X125309428Y-104084476D01*
X125261809Y-104179714D01*
X125214190Y-104227333D01*
X125118952Y-104274952D01*
X124928476Y-104274952D01*
X124833238Y-104322571D01*
X124785619Y-104370190D01*
X124738000Y-104465428D01*
X124738000Y-104655904D01*
X124785619Y-104751142D01*
X124833238Y-104798761D01*
X124928476Y-104846380D01*
X125118952Y-104846380D01*
X125214190Y-104798761D01*
X125261809Y-104751142D01*
X125309428Y-104655904D01*
X125309428Y-104465428D01*
X125261809Y-104370190D01*
X125214190Y-104322571D01*
X125118952Y-104274952D01*
X126261809Y-104846380D02*
X125690380Y-104846380D01*
X125976095Y-104846380D02*
X125976095Y-103846380D01*
X125880857Y-103989238D01*
X125785619Y-104084476D01*
X125690380Y-104132095D01*
X126595142Y-103846380D02*
X127214190Y-103846380D01*
X126880857Y-104227333D01*
X127023714Y-104227333D01*
X127118952Y-104274952D01*
X127166571Y-104322571D01*
X127214190Y-104417809D01*
X127214190Y-104655904D01*
X127166571Y-104751142D01*
X127118952Y-104798761D01*
X127023714Y-104846380D01*
X126738000Y-104846380D01*
X126642761Y-104798761D01*
X126595142Y-104751142D01*
X127976095Y-104322571D02*
X128118952Y-104370190D01*
X128166571Y-104417809D01*
X128214190Y-104513047D01*
X128214190Y-104655904D01*
X128166571Y-104751142D01*
X128118952Y-104798761D01*
X128023714Y-104846380D01*
X127642761Y-104846380D01*
X127642761Y-103846380D01*
X127976095Y-103846380D01*
X128071333Y-103894000D01*
X128118952Y-103941619D01*
X128166571Y-104036857D01*
X128166571Y-104132095D01*
X128118952Y-104227333D01*
X128071333Y-104274952D01*
X127976095Y-104322571D01*
X127642761Y-104322571D01*
X129880857Y-103846380D02*
X129404666Y-103846380D01*
X129357047Y-104322571D01*
X129404666Y-104274952D01*
X129499904Y-104227333D01*
X129738000Y-104227333D01*
X129833238Y-104274952D01*
X129880857Y-104322571D01*
X129928476Y-104417809D01*
X129928476Y-104655904D01*
X129880857Y-104751142D01*
X129833238Y-104798761D01*
X129738000Y-104846380D01*
X129499904Y-104846380D01*
X129404666Y-104798761D01*
X129357047Y-104751142D01*
X130214190Y-103846380D02*
X130547523Y-104846380D01*
X130880857Y-103846380D01*
X121778000Y-101004666D02*
X122254190Y-101004666D01*
X121682761Y-101290380D02*
X122016095Y-100290380D01*
X122349428Y-101290380D01*
X122682761Y-101290380D02*
X122682761Y-100623714D01*
X122682761Y-100814190D02*
X122730380Y-100718952D01*
X122778000Y-100671333D01*
X122873238Y-100623714D01*
X122968476Y-100623714D01*
X123158952Y-100623714D02*
X123539904Y-100623714D01*
X123301809Y-100290380D02*
X123301809Y-101147523D01*
X123349428Y-101242761D01*
X123444666Y-101290380D01*
X123539904Y-101290380D01*
X123873238Y-100909428D02*
X124635142Y-100909428D01*
X125111333Y-101290380D02*
X125111333Y-100290380D01*
X125682761Y-101290380D01*
X125682761Y-100290380D01*
X126539904Y-101242761D02*
X126444666Y-101290380D01*
X126254190Y-101290380D01*
X126158952Y-101242761D01*
X126111333Y-101147523D01*
X126111333Y-100766571D01*
X126158952Y-100671333D01*
X126254190Y-100623714D01*
X126444666Y-100623714D01*
X126539904Y-100671333D01*
X126587523Y-100766571D01*
X126587523Y-100861809D01*
X126111333Y-100957047D01*
X126873238Y-100623714D02*
X127254190Y-100623714D01*
X127016095Y-100290380D02*
X127016095Y-101147523D01*
X127063714Y-101242761D01*
X127158952Y-101290380D01*
X127254190Y-101290380D01*
X128206571Y-100623714D02*
X128587523Y-100623714D01*
X128349428Y-100290380D02*
X128349428Y-101147523D01*
X128397047Y-101242761D01*
X128492285Y-101290380D01*
X128587523Y-101290380D01*
X129063714Y-101290380D02*
X128968476Y-101242761D01*
X128920857Y-101195142D01*
X128873238Y-101099904D01*
X128873238Y-100814190D01*
X128920857Y-100718952D01*
X128968476Y-100671333D01*
X129063714Y-100623714D01*
X129206571Y-100623714D01*
X129301809Y-100671333D01*
X129349428Y-100718952D01*
X129397047Y-100814190D01*
X129397047Y-101099904D01*
X129349428Y-101195142D01*
X129301809Y-101242761D01*
X129206571Y-101290380D01*
X129063714Y-101290380D01*
X130492285Y-100290380D02*
X130730380Y-101290380D01*
X130920857Y-100576095D01*
X131111333Y-101290380D01*
X131349428Y-100290380D01*
X131682761Y-101242761D02*
X131825619Y-101290380D01*
X132063714Y-101290380D01*
X132158952Y-101242761D01*
X132206571Y-101195142D01*
X132254190Y-101099904D01*
X132254190Y-101004666D01*
X132206571Y-100909428D01*
X132158952Y-100861809D01*
X132063714Y-100814190D01*
X131873238Y-100766571D01*
X131778000Y-100718952D01*
X131730380Y-100671333D01*
X131682761Y-100576095D01*
X131682761Y-100480857D01*
X131730380Y-100385619D01*
X131778000Y-100338000D01*
X131873238Y-100290380D01*
X132111333Y-100290380D01*
X132254190Y-100338000D01*
X132635142Y-100385619D02*
X132682761Y-100338000D01*
X132778000Y-100290380D01*
X133016095Y-100290380D01*
X133111333Y-100338000D01*
X133158952Y-100385619D01*
X133206571Y-100480857D01*
X133206571Y-100576095D01*
X133158952Y-100718952D01*
X132587523Y-101290380D01*
X133206571Y-101290380D01*
X133778000Y-100718952D02*
X133682761Y-100671333D01*
X133635142Y-100623714D01*
X133587523Y-100528476D01*
X133587523Y-100480857D01*
X133635142Y-100385619D01*
X133682761Y-100338000D01*
X133778000Y-100290380D01*
X133968476Y-100290380D01*
X134063714Y-100338000D01*
X134111333Y-100385619D01*
X134158952Y-100480857D01*
X134158952Y-100528476D01*
X134111333Y-100623714D01*
X134063714Y-100671333D01*
X133968476Y-100718952D01*
X133778000Y-100718952D01*
X133682761Y-100766571D01*
X133635142Y-100814190D01*
X133587523Y-100909428D01*
X133587523Y-101099904D01*
X133635142Y-101195142D01*
X133682761Y-101242761D01*
X133778000Y-101290380D01*
X133968476Y-101290380D01*
X134063714Y-101242761D01*
X134111333Y-101195142D01*
X134158952Y-101099904D01*
X134158952Y-100909428D01*
X134111333Y-100814190D01*
X134063714Y-100766571D01*
X133968476Y-100718952D01*
X134492285Y-101290380D02*
X135016095Y-100623714D01*
X134492285Y-100623714D02*
X135016095Y-101290380D01*
X135301809Y-101290380D02*
X135825619Y-100623714D01*
X135301809Y-100623714D02*
X135825619Y-101290380D01*
X121769904Y-103068380D02*
X121769904Y-102068380D01*
X122103238Y-102782666D01*
X122436571Y-102068380D01*
X122436571Y-103068380D01*
X122865142Y-102782666D02*
X123341333Y-102782666D01*
X122769904Y-103068380D02*
X123103238Y-102068380D01*
X123436571Y-103068380D01*
X123674666Y-102068380D02*
X124341333Y-103068380D01*
X124341333Y-102068380D02*
X123674666Y-103068380D01*
X125912761Y-102401714D02*
X125912761Y-103068380D01*
X125674666Y-102020761D02*
X125436571Y-102735047D01*
X126055619Y-102735047D01*
X126627047Y-102068380D02*
X126722285Y-102068380D01*
X126817523Y-102116000D01*
X126865142Y-102163619D01*
X126912761Y-102258857D01*
X126960380Y-102449333D01*
X126960380Y-102687428D01*
X126912761Y-102877904D01*
X126865142Y-102973142D01*
X126817523Y-103020761D01*
X126722285Y-103068380D01*
X126627047Y-103068380D01*
X126531809Y-103020761D01*
X126484190Y-102973142D01*
X126436571Y-102877904D01*
X126388952Y-102687428D01*
X126388952Y-102449333D01*
X126436571Y-102258857D01*
X126484190Y-102163619D01*
X126531809Y-102116000D01*
X126627047Y-102068380D01*
X127579428Y-102068380D02*
X127674666Y-102068380D01*
X127769904Y-102116000D01*
X127817523Y-102163619D01*
X127865142Y-102258857D01*
X127912761Y-102449333D01*
X127912761Y-102687428D01*
X127865142Y-102877904D01*
X127817523Y-102973142D01*
X127769904Y-103020761D01*
X127674666Y-103068380D01*
X127579428Y-103068380D01*
X127484190Y-103020761D01*
X127436571Y-102973142D01*
X127388952Y-102877904D01*
X127341333Y-102687428D01*
X127341333Y-102449333D01*
X127388952Y-102258857D01*
X127436571Y-102163619D01*
X127484190Y-102116000D01*
X127579428Y-102068380D01*
X128531809Y-102068380D02*
X128627047Y-102068380D01*
X128722285Y-102116000D01*
X128769904Y-102163619D01*
X128817523Y-102258857D01*
X128865142Y-102449333D01*
X128865142Y-102687428D01*
X128817523Y-102877904D01*
X128769904Y-102973142D01*
X128722285Y-103020761D01*
X128627047Y-103068380D01*
X128531809Y-103068380D01*
X128436571Y-103020761D01*
X128388952Y-102973142D01*
X128341333Y-102877904D01*
X128293714Y-102687428D01*
X128293714Y-102449333D01*
X128341333Y-102258857D01*
X128388952Y-102163619D01*
X128436571Y-102116000D01*
X128531809Y-102068380D01*
X130531809Y-103068380D02*
X130055619Y-103068380D01*
X130055619Y-102068380D01*
X130865142Y-102544571D02*
X131198476Y-102544571D01*
X131341333Y-103068380D02*
X130865142Y-103068380D01*
X130865142Y-102068380D01*
X131341333Y-102068380D01*
X131769904Y-103068380D02*
X131769904Y-102068380D01*
X132008000Y-102068380D01*
X132150857Y-102116000D01*
X132246095Y-102211238D01*
X132293714Y-102306476D01*
X132341333Y-102496952D01*
X132341333Y-102639809D01*
X132293714Y-102830285D01*
X132246095Y-102925523D01*
X132150857Y-103020761D01*
X132008000Y-103068380D01*
X131769904Y-103068380D01*
X132722285Y-103020761D02*
X132865142Y-103068380D01*
X133103238Y-103068380D01*
X133198476Y-103020761D01*
X133246095Y-102973142D01*
X133293714Y-102877904D01*
X133293714Y-102782666D01*
X133246095Y-102687428D01*
X133198476Y-102639809D01*
X133103238Y-102592190D01*
X132912761Y-102544571D01*
X132817523Y-102496952D01*
X132769904Y-102449333D01*
X132722285Y-102354095D01*
X132722285Y-102258857D01*
X132769904Y-102163619D01*
X132817523Y-102116000D01*
X132912761Y-102068380D01*
X133150857Y-102068380D01*
X133293714Y-102116000D01*
X128111238Y-69969047D02*
X128206476Y-70016666D01*
X128254095Y-70064285D01*
X128301714Y-70159523D01*
X128301714Y-70207142D01*
X128254095Y-70302380D01*
X128206476Y-70350000D01*
X128111238Y-70397619D01*
X127920761Y-70397619D01*
X127825523Y-70350000D01*
X127777904Y-70302380D01*
X127730285Y-70207142D01*
X127730285Y-70159523D01*
X127777904Y-70064285D01*
X127825523Y-70016666D01*
X127920761Y-69969047D01*
X128111238Y-69969047D01*
X128206476Y-69921428D01*
X128254095Y-69873809D01*
X128301714Y-69778571D01*
X128301714Y-69588095D01*
X128254095Y-69492857D01*
X128206476Y-69445238D01*
X128111238Y-69397619D01*
X127920761Y-69397619D01*
X127825523Y-69445238D01*
X127777904Y-69492857D01*
X127730285Y-69588095D01*
X127730285Y-69778571D01*
X127777904Y-69873809D01*
X127825523Y-69921428D01*
X127920761Y-69969047D01*
X123269333Y-70397619D02*
X122602666Y-70397619D01*
X123031238Y-69397619D01*
X117665523Y-70397619D02*
X117856000Y-70397619D01*
X117951238Y-70350000D01*
X117998857Y-70302380D01*
X118094095Y-70159523D01*
X118141714Y-69969047D01*
X118141714Y-69588095D01*
X118094095Y-69492857D01*
X118046476Y-69445238D01*
X117951238Y-69397619D01*
X117760761Y-69397619D01*
X117665523Y-69445238D01*
X117617904Y-69492857D01*
X117570285Y-69588095D01*
X117570285Y-69826190D01*
X117617904Y-69921428D01*
X117665523Y-69969047D01*
X117760761Y-70016666D01*
X117951238Y-70016666D01*
X118046476Y-69969047D01*
X118094095Y-69921428D01*
X118141714Y-69826190D01*
X112537904Y-70397619D02*
X113014095Y-70397619D01*
X113061714Y-69921428D01*
X113014095Y-69969047D01*
X112918857Y-70016666D01*
X112680761Y-70016666D01*
X112585523Y-69969047D01*
X112537904Y-69921428D01*
X112490285Y-69826190D01*
X112490285Y-69588095D01*
X112537904Y-69492857D01*
X112585523Y-69445238D01*
X112680761Y-69397619D01*
X112918857Y-69397619D01*
X113014095Y-69445238D01*
X113061714Y-69492857D01*
X97853523Y-70064285D02*
X97853523Y-69397619D01*
X98091619Y-70445238D02*
X98329714Y-69730952D01*
X97710666Y-69730952D01*
X93297333Y-70397619D02*
X92678285Y-70397619D01*
X93011619Y-70016666D01*
X92868761Y-70016666D01*
X92773523Y-69969047D01*
X92725904Y-69921428D01*
X92678285Y-69826190D01*
X92678285Y-69588095D01*
X92725904Y-69492857D01*
X92773523Y-69445238D01*
X92868761Y-69397619D01*
X93154476Y-69397619D01*
X93249714Y-69445238D01*
X93297333Y-69492857D01*
X88169714Y-70302380D02*
X88122095Y-70350000D01*
X88026857Y-70397619D01*
X87788761Y-70397619D01*
X87693523Y-70350000D01*
X87645904Y-70302380D01*
X87598285Y-70207142D01*
X87598285Y-70111904D01*
X87645904Y-69969047D01*
X88217333Y-69397619D01*
X87598285Y-69397619D01*
X82518285Y-69397619D02*
X83089714Y-69397619D01*
X82804000Y-69397619D02*
X82804000Y-70397619D01*
X82899238Y-70254761D01*
X82994476Y-70159523D01*
X83089714Y-70111904D01*
X72343047Y-100115714D02*
X72533523Y-100782380D01*
X72724000Y-100306190D01*
X72914476Y-100782380D01*
X73104952Y-100115714D01*
X73390666Y-100115714D02*
X73581142Y-100782380D01*
X73771619Y-100306190D01*
X73962095Y-100782380D01*
X74152571Y-100115714D01*
X74438285Y-100115714D02*
X74628761Y-100782380D01*
X74819238Y-100306190D01*
X75009714Y-100782380D01*
X75200190Y-100115714D01*
X75581142Y-100687142D02*
X75628761Y-100734761D01*
X75581142Y-100782380D01*
X75533523Y-100734761D01*
X75581142Y-100687142D01*
X75581142Y-100782380D01*
X75914476Y-100115714D02*
X76295428Y-100115714D01*
X76057333Y-99782380D02*
X76057333Y-100639523D01*
X76104952Y-100734761D01*
X76200190Y-100782380D01*
X76295428Y-100782380D01*
X76628761Y-100782380D02*
X76628761Y-99782380D01*
X77057333Y-100782380D02*
X77057333Y-100258571D01*
X77009714Y-100163333D01*
X76914476Y-100115714D01*
X76771619Y-100115714D01*
X76676380Y-100163333D01*
X76628761Y-100210952D01*
X77533523Y-100782380D02*
X77533523Y-100115714D01*
X77533523Y-99782380D02*
X77485904Y-99830000D01*
X77533523Y-99877619D01*
X77581142Y-99830000D01*
X77533523Y-99782380D01*
X77533523Y-99877619D01*
X78390666Y-100734761D02*
X78295428Y-100782380D01*
X78104952Y-100782380D01*
X78009714Y-100734761D01*
X77962095Y-100639523D01*
X77962095Y-100258571D01*
X78009714Y-100163333D01*
X78104952Y-100115714D01*
X78295428Y-100115714D01*
X78390666Y-100163333D01*
X78438285Y-100258571D01*
X78438285Y-100353809D01*
X77962095Y-100449047D01*
X79295428Y-100115714D02*
X79295428Y-100782380D01*
X78866857Y-100115714D02*
X78866857Y-100639523D01*
X78914476Y-100734761D01*
X79009714Y-100782380D01*
X79152571Y-100782380D01*
X79247809Y-100734761D01*
X79295428Y-100687142D01*
X79771619Y-100687142D02*
X79819238Y-100734761D01*
X79771619Y-100782380D01*
X79724000Y-100734761D01*
X79771619Y-100687142D01*
X79771619Y-100782380D01*
X80676380Y-100115714D02*
X80676380Y-100925238D01*
X80628761Y-101020476D01*
X80581142Y-101068095D01*
X80485904Y-101115714D01*
X80343047Y-101115714D01*
X80247809Y-101068095D01*
X80676380Y-100734761D02*
X80581142Y-100782380D01*
X80390666Y-100782380D01*
X80295428Y-100734761D01*
X80247809Y-100687142D01*
X80200190Y-100591904D01*
X80200190Y-100306190D01*
X80247809Y-100210952D01*
X80295428Y-100163333D01*
X80390666Y-100115714D01*
X80581142Y-100115714D01*
X80676380Y-100163333D01*
X81533523Y-100734761D02*
X81438285Y-100782380D01*
X81247809Y-100782380D01*
X81152571Y-100734761D01*
X81104952Y-100639523D01*
X81104952Y-100258571D01*
X81152571Y-100163333D01*
X81247809Y-100115714D01*
X81438285Y-100115714D01*
X81533523Y-100163333D01*
X81581142Y-100258571D01*
X81581142Y-100353809D01*
X81104952Y-100449047D01*
X82009714Y-100115714D02*
X82009714Y-100782380D01*
X82009714Y-100210952D02*
X82057333Y-100163333D01*
X82152571Y-100115714D01*
X82295428Y-100115714D01*
X82390666Y-100163333D01*
X82438285Y-100258571D01*
X82438285Y-100782380D01*
X82771619Y-100115714D02*
X83152571Y-100115714D01*
X82914476Y-99782380D02*
X82914476Y-100639523D01*
X82962095Y-100734761D01*
X83057333Y-100782380D01*
X83152571Y-100782380D01*
D11*
X72398190Y-98258380D02*
X72969619Y-98258380D01*
X72683904Y-99258380D02*
X72683904Y-98258380D01*
X73302952Y-99258380D02*
X73302952Y-98258380D01*
X73302952Y-98734571D02*
X73874380Y-98734571D01*
X73874380Y-99258380D02*
X73874380Y-98258380D01*
X74350571Y-99258380D02*
X74350571Y-98258380D01*
X74826761Y-98734571D02*
X75160095Y-98734571D01*
X75302952Y-99258380D02*
X74826761Y-99258380D01*
X74826761Y-98258380D01*
X75302952Y-98258380D01*
X75731523Y-98258380D02*
X75731523Y-99067904D01*
X75779142Y-99163142D01*
X75826761Y-99210761D01*
X75922000Y-99258380D01*
X76112476Y-99258380D01*
X76207714Y-99210761D01*
X76255333Y-99163142D01*
X76302952Y-99067904D01*
X76302952Y-98258380D01*
D10*
X96123619Y-102322380D02*
X96695047Y-102322380D01*
X96409333Y-103322380D02*
X96409333Y-102322380D01*
X97409333Y-103274761D02*
X97314095Y-103322380D01*
X97123619Y-103322380D01*
X97028380Y-103274761D01*
X96980761Y-103179523D01*
X96980761Y-102798571D01*
X97028380Y-102703333D01*
X97123619Y-102655714D01*
X97314095Y-102655714D01*
X97409333Y-102703333D01*
X97456952Y-102798571D01*
X97456952Y-102893809D01*
X96980761Y-102989047D01*
X98266476Y-103274761D02*
X98171238Y-103322380D01*
X97980761Y-103322380D01*
X97885523Y-103274761D01*
X97837904Y-103179523D01*
X97837904Y-102798571D01*
X97885523Y-102703333D01*
X97980761Y-102655714D01*
X98171238Y-102655714D01*
X98266476Y-102703333D01*
X98314095Y-102798571D01*
X98314095Y-102893809D01*
X97837904Y-102989047D01*
X98742666Y-102655714D02*
X98742666Y-103322380D01*
X98742666Y-102750952D02*
X98790285Y-102703333D01*
X98885523Y-102655714D01*
X99028380Y-102655714D01*
X99123619Y-102703333D01*
X99171238Y-102798571D01*
X99171238Y-103322380D01*
X99599809Y-103274761D02*
X99695047Y-103322380D01*
X99885523Y-103322380D01*
X99980761Y-103274761D01*
X100028380Y-103179523D01*
X100028380Y-103131904D01*
X99980761Y-103036666D01*
X99885523Y-102989047D01*
X99742666Y-102989047D01*
X99647428Y-102941428D01*
X99599809Y-102846190D01*
X99599809Y-102798571D01*
X99647428Y-102703333D01*
X99742666Y-102655714D01*
X99885523Y-102655714D01*
X99980761Y-102703333D01*
X100361714Y-102655714D02*
X100599809Y-103322380D01*
X100837904Y-102655714D02*
X100599809Y-103322380D01*
X100504571Y-103560476D01*
X100456952Y-103608095D01*
X100361714Y-103655714D01*
X101885523Y-102322380D02*
X102504571Y-102322380D01*
X102171238Y-102703333D01*
X102314095Y-102703333D01*
X102409333Y-102750952D01*
X102456952Y-102798571D01*
X102504571Y-102893809D01*
X102504571Y-103131904D01*
X102456952Y-103227142D01*
X102409333Y-103274761D01*
X102314095Y-103322380D01*
X102028380Y-103322380D01*
X101933142Y-103274761D01*
X101885523Y-103227142D01*
X102933142Y-103227142D02*
X102980761Y-103274761D01*
X102933142Y-103322380D01*
X102885523Y-103274761D01*
X102933142Y-103227142D01*
X102933142Y-103322380D01*
X103361714Y-102417619D02*
X103409333Y-102370000D01*
X103504571Y-102322380D01*
X103742666Y-102322380D01*
X103837904Y-102370000D01*
X103885523Y-102417619D01*
X103933142Y-102512857D01*
X103933142Y-102608095D01*
X103885523Y-102750952D01*
X103314095Y-103322380D01*
X103933142Y-103322380D01*
X123301523Y-112990380D02*
X123539619Y-113990380D01*
X123730095Y-113276095D01*
X123920571Y-113990380D01*
X124158666Y-112990380D01*
X124539619Y-113990380D02*
X124539619Y-113323714D01*
X124539619Y-112990380D02*
X124492000Y-113038000D01*
X124539619Y-113085619D01*
X124587238Y-113038000D01*
X124539619Y-112990380D01*
X124539619Y-113085619D01*
X124920571Y-113323714D02*
X125444380Y-113323714D01*
X124920571Y-113990380D01*
X125444380Y-113990380D01*
X125968190Y-113418952D02*
X125872952Y-113371333D01*
X125825333Y-113323714D01*
X125777714Y-113228476D01*
X125777714Y-113180857D01*
X125825333Y-113085619D01*
X125872952Y-113038000D01*
X125968190Y-112990380D01*
X126158666Y-112990380D01*
X126253904Y-113038000D01*
X126301523Y-113085619D01*
X126349142Y-113180857D01*
X126349142Y-113228476D01*
X126301523Y-113323714D01*
X126253904Y-113371333D01*
X126158666Y-113418952D01*
X125968190Y-113418952D01*
X125872952Y-113466571D01*
X125825333Y-113514190D01*
X125777714Y-113609428D01*
X125777714Y-113799904D01*
X125825333Y-113895142D01*
X125872952Y-113942761D01*
X125968190Y-113990380D01*
X126158666Y-113990380D01*
X126253904Y-113942761D01*
X126301523Y-113895142D01*
X126349142Y-113799904D01*
X126349142Y-113609428D01*
X126301523Y-113514190D01*
X126253904Y-113466571D01*
X126158666Y-113418952D01*
X127253904Y-112990380D02*
X126777714Y-112990380D01*
X126730095Y-113466571D01*
X126777714Y-113418952D01*
X126872952Y-113371333D01*
X127111047Y-113371333D01*
X127206285Y-113418952D01*
X127253904Y-113466571D01*
X127301523Y-113561809D01*
X127301523Y-113799904D01*
X127253904Y-113895142D01*
X127206285Y-113942761D01*
X127111047Y-113990380D01*
X126872952Y-113990380D01*
X126777714Y-113942761D01*
X126730095Y-113895142D01*
X127920571Y-112990380D02*
X128015809Y-112990380D01*
X128111047Y-113038000D01*
X128158666Y-113085619D01*
X128206285Y-113180857D01*
X128253904Y-113371333D01*
X128253904Y-113609428D01*
X128206285Y-113799904D01*
X128158666Y-113895142D01*
X128111047Y-113942761D01*
X128015809Y-113990380D01*
X127920571Y-113990380D01*
X127825333Y-113942761D01*
X127777714Y-113895142D01*
X127730095Y-113799904D01*
X127682476Y-113609428D01*
X127682476Y-113371333D01*
X127730095Y-113180857D01*
X127777714Y-113085619D01*
X127825333Y-113038000D01*
X127920571Y-112990380D01*
X128682476Y-113990380D02*
X128682476Y-113323714D01*
X128682476Y-112990380D02*
X128634857Y-113038000D01*
X128682476Y-113085619D01*
X128730095Y-113038000D01*
X128682476Y-112990380D01*
X128682476Y-113085619D01*
X129301523Y-113990380D02*
X129206285Y-113942761D01*
X129158666Y-113895142D01*
X129111047Y-113799904D01*
X129111047Y-113514190D01*
X129158666Y-113418952D01*
X129206285Y-113371333D01*
X129301523Y-113323714D01*
X129444380Y-113323714D01*
X129539619Y-113371333D01*
X129587238Y-113418952D01*
X129634857Y-113514190D01*
X129634857Y-113799904D01*
X129587238Y-113895142D01*
X129539619Y-113942761D01*
X129444380Y-113990380D01*
X129301523Y-113990380D01*
X104140000Y-139700000D02*
X104140000Y-140970000D01*
X104140000Y-140970000D02*
X96520000Y-140970000D01*
X96520000Y-140970000D02*
X96520000Y-139700000D01*
X105410000Y-128270000D02*
X105410000Y-124460000D01*
X105410000Y-124460000D02*
X102870000Y-124460000D01*
X102870000Y-124460000D02*
X102870000Y-128270000D01*
X102870000Y-128270000D02*
X105410000Y-128270000D01*
X104140000Y-134620000D02*
X96520000Y-134620000D01*
X96520000Y-134620000D02*
X96520000Y-139700000D01*
X104140000Y-134620000D02*
X104140000Y-139700000D01*
X105410000Y-133350000D02*
X105410000Y-130810000D01*
X105410000Y-130810000D02*
X102870000Y-130810000D01*
X102870000Y-130810000D02*
X102870000Y-133350000D01*
X102870000Y-133350000D02*
X105410000Y-133350000D01*
X97790000Y-106680000D02*
X102870000Y-106680000D01*
X102870000Y-106680000D02*
X102870000Y-109220000D01*
X102870000Y-109220000D02*
X97790000Y-109220000D01*
X97790000Y-109220000D02*
X97790000Y-106680000D01*
X105410000Y-113030000D02*
X95250000Y-113030000D01*
X95250000Y-121920000D02*
X105410000Y-121920000D01*
X95250000Y-113030000D02*
X95250000Y-121920000D01*
X105410000Y-113030000D02*
X105410000Y-121920000D01*
X91440000Y-139700000D02*
X91440000Y-104140000D01*
X91440000Y-104140000D02*
X109220000Y-104140000D01*
X109220000Y-104140000D02*
X109220000Y-139700000D01*
X109220000Y-139700000D02*
X91440000Y-139700000D01*
D12*
X112010000Y-130318000D02*
X112010000Y-132318000D01*
X114050000Y-132318000D02*
X114050000Y-130318000D01*
X88190000Y-107630000D02*
X83490000Y-107630000D01*
X88190000Y-105730000D02*
X83490000Y-105730000D01*
X88190000Y-107630000D02*
X88190000Y-105730000D01*
D10*
X84830920Y-132791200D02*
X84830920Y-138988800D01*
X90429080Y-132791200D02*
X84830920Y-132791200D01*
X90429080Y-138988800D02*
X90429080Y-132791200D01*
X84830920Y-138988800D02*
X90429080Y-138988800D01*
X84830920Y-133189980D02*
X90429080Y-133189980D01*
X87630000Y-138988800D02*
X87630000Y-138490960D01*
X90230960Y-138490960D02*
X90230960Y-138988800D01*
X85029040Y-138988800D02*
X85029040Y-138490960D01*
X90429080Y-138490960D02*
X84830920Y-138490960D01*
X141935200Y-111213900D02*
X148132800Y-111213900D01*
X148132800Y-100619560D02*
X141935200Y-100619560D01*
X148132800Y-108414820D02*
X147634960Y-108414820D01*
X147634960Y-100817680D02*
X148132800Y-100817680D01*
X148132800Y-111015780D02*
X147634960Y-111015780D01*
X147634960Y-105918000D02*
X148132800Y-105918000D01*
X147634960Y-103421180D02*
X148132800Y-103421180D01*
X148132800Y-100617020D02*
X148132800Y-111218980D01*
X147634960Y-111218980D02*
X147634960Y-100617020D01*
X142333980Y-111218980D02*
X142333980Y-100617020D01*
X141935200Y-100617020D02*
X141935200Y-111218980D01*
X141935200Y-95029020D02*
X148132800Y-95029020D01*
X148132800Y-86832440D02*
X141935200Y-86832440D01*
X148132800Y-92229940D02*
X147634960Y-92229940D01*
X147634960Y-87030560D02*
X148132800Y-87030560D01*
X148132800Y-94830900D02*
X147634960Y-94830900D01*
X147634960Y-89631520D02*
X148132800Y-89631520D01*
X148132800Y-95031560D02*
X148132800Y-86832440D01*
X147634960Y-86832440D02*
X147634960Y-95031560D01*
X142333980Y-86832440D02*
X142333980Y-95031560D01*
X141935200Y-86832440D02*
X141935200Y-95031560D01*
X102092760Y-70561200D02*
X81295240Y-70561200D01*
X81295240Y-70959980D02*
X102092760Y-70959980D01*
X102092760Y-76758800D02*
X81295240Y-76758800D01*
X81295240Y-76260960D02*
X102092760Y-76260960D01*
X91694000Y-76260960D02*
X91694000Y-76758800D01*
X99293680Y-76260960D02*
X99293680Y-76758800D01*
X96794320Y-76260960D02*
X96794320Y-76758800D01*
X94195900Y-76260960D02*
X94195900Y-76758800D01*
X89194640Y-76260960D02*
X89194640Y-76758800D01*
X86596220Y-76260960D02*
X86596220Y-76758800D01*
X81495900Y-76758800D02*
X81495900Y-76260960D01*
X101892100Y-76260960D02*
X101892100Y-76758800D01*
X84099400Y-76758800D02*
X84099400Y-76260960D01*
X102090220Y-76758800D02*
X102090220Y-70561200D01*
X81297780Y-70561200D02*
X81297780Y-76758800D01*
X111269780Y-70561200D02*
X111269780Y-76758800D01*
X132062220Y-76758800D02*
X132062220Y-70561200D01*
X114071400Y-76758800D02*
X114071400Y-76260960D01*
X131864100Y-76260960D02*
X131864100Y-76758800D01*
X111467900Y-76758800D02*
X111467900Y-76260960D01*
X116568220Y-76260960D02*
X116568220Y-76758800D01*
X119166640Y-76260960D02*
X119166640Y-76758800D01*
X124167900Y-76260960D02*
X124167900Y-76758800D01*
X126766320Y-76260960D02*
X126766320Y-76758800D01*
X129265680Y-76260960D02*
X129265680Y-76758800D01*
X121666000Y-76260960D02*
X121666000Y-76758800D01*
X111267240Y-76260960D02*
X132064760Y-76260960D01*
X132064760Y-76758800D02*
X111267240Y-76758800D01*
X111267240Y-70959980D02*
X132064760Y-70959980D01*
X132064760Y-70561200D02*
X111267240Y-70561200D01*
D12*
X83804000Y-137940000D02*
X81804000Y-137940000D01*
X83804000Y-133840000D02*
X83804000Y-137940000D01*
X81804000Y-133840000D02*
X83804000Y-133840000D01*
X81804000Y-137940000D02*
X81804000Y-133840000D01*
X84384000Y-86870000D02*
X83454000Y-86870000D01*
X81224000Y-86870000D02*
X82154000Y-86870000D01*
X81224000Y-86870000D02*
X81224000Y-89030000D01*
X84384000Y-86870000D02*
X84384000Y-88330000D01*
X89464000Y-86870000D02*
X89464000Y-88330000D01*
X86304000Y-86870000D02*
X86304000Y-89030000D01*
X86304000Y-86870000D02*
X87234000Y-86870000D01*
X89464000Y-86870000D02*
X88534000Y-86870000D01*
X94544000Y-86870000D02*
X93614000Y-86870000D01*
X91384000Y-86870000D02*
X92314000Y-86870000D01*
X91384000Y-86870000D02*
X91384000Y-89030000D01*
X94544000Y-86870000D02*
X94544000Y-88330000D01*
X99624000Y-86870000D02*
X99624000Y-88330000D01*
X96464000Y-86870000D02*
X96464000Y-89030000D01*
X96464000Y-86870000D02*
X97394000Y-86870000D01*
X99624000Y-86870000D02*
X98694000Y-86870000D01*
X114356000Y-86870000D02*
X114356000Y-88330000D01*
X111196000Y-86870000D02*
X111196000Y-89030000D01*
X111196000Y-86870000D02*
X112126000Y-86870000D01*
X114356000Y-86870000D02*
X113426000Y-86870000D01*
X119436000Y-86870000D02*
X118506000Y-86870000D01*
X116276000Y-86870000D02*
X117206000Y-86870000D01*
X116276000Y-86870000D02*
X116276000Y-89030000D01*
X119436000Y-86870000D02*
X119436000Y-88330000D01*
X124516000Y-86870000D02*
X124516000Y-88330000D01*
X121356000Y-86870000D02*
X121356000Y-89030000D01*
X121356000Y-86870000D02*
X122286000Y-86870000D01*
X124516000Y-86870000D02*
X123586000Y-86870000D01*
X129596000Y-86870000D02*
X128666000Y-86870000D01*
X126436000Y-86870000D02*
X127366000Y-86870000D01*
X126436000Y-86870000D02*
X126436000Y-89030000D01*
X129596000Y-86870000D02*
X129596000Y-88330000D01*
X146104000Y-117364000D02*
X146104000Y-119364000D01*
X143964000Y-119364000D02*
X143964000Y-117364000D01*
X82750000Y-94218000D02*
X82750000Y-92218000D01*
X84890000Y-92218000D02*
X84890000Y-94218000D01*
X87830000Y-94250000D02*
X87830000Y-92250000D01*
X89970000Y-92250000D02*
X89970000Y-94250000D01*
X92910000Y-94250000D02*
X92910000Y-92250000D01*
X95050000Y-92250000D02*
X95050000Y-94250000D01*
X100130000Y-92250000D02*
X100130000Y-94250000D01*
X97990000Y-94250000D02*
X97990000Y-92250000D01*
X81334000Y-81010000D02*
X81334000Y-83010000D01*
X79194000Y-83010000D02*
X79194000Y-81010000D01*
X84274000Y-83010000D02*
X84274000Y-81010000D01*
X86414000Y-81010000D02*
X86414000Y-83010000D01*
X89354000Y-83010000D02*
X89354000Y-81010000D01*
X91494000Y-81010000D02*
X91494000Y-83010000D01*
X96574000Y-81010000D02*
X96574000Y-83010000D01*
X94434000Y-83010000D02*
X94434000Y-81010000D01*
X83874000Y-81010000D02*
X83874000Y-83010000D01*
X81734000Y-83010000D02*
X81734000Y-81010000D01*
X88954000Y-81010000D02*
X88954000Y-83010000D01*
X86814000Y-83010000D02*
X86814000Y-81010000D01*
X91894000Y-83010000D02*
X91894000Y-81010000D01*
X94034000Y-81010000D02*
X94034000Y-83010000D01*
X96974000Y-83010000D02*
X96974000Y-81010000D01*
X99114000Y-81010000D02*
X99114000Y-83010000D01*
X112722000Y-94472000D02*
X112722000Y-92472000D01*
X114862000Y-92472000D02*
X114862000Y-94472000D01*
X119942000Y-92472000D02*
X119942000Y-94472000D01*
X117802000Y-94472000D02*
X117802000Y-92472000D01*
X109166000Y-82820000D02*
X109166000Y-80820000D01*
X111306000Y-80820000D02*
X111306000Y-82820000D01*
X116386000Y-80820000D02*
X116386000Y-82820000D01*
X114246000Y-82820000D02*
X114246000Y-80820000D01*
X113846000Y-80820000D02*
X113846000Y-82820000D01*
X111706000Y-82820000D02*
X111706000Y-80820000D01*
X118926000Y-80820000D02*
X118926000Y-82820000D01*
X116786000Y-82820000D02*
X116786000Y-80820000D01*
X125022000Y-92440000D02*
X125022000Y-94440000D01*
X122882000Y-94440000D02*
X122882000Y-92440000D01*
X127962000Y-94440000D02*
X127962000Y-92440000D01*
X130102000Y-92440000D02*
X130102000Y-94440000D01*
X121466000Y-80820000D02*
X121466000Y-82820000D01*
X119326000Y-82820000D02*
X119326000Y-80820000D01*
X124406000Y-82820000D02*
X124406000Y-80820000D01*
X126546000Y-80820000D02*
X126546000Y-82820000D01*
X124006000Y-80820000D02*
X124006000Y-82820000D01*
X121866000Y-82820000D02*
X121866000Y-80820000D01*
X129086000Y-80820000D02*
X129086000Y-82820000D01*
X126946000Y-82820000D02*
X126946000Y-80820000D01*
X99330000Y-133550000D02*
X101330000Y-133550000D01*
X101330000Y-135690000D02*
X99330000Y-135690000D01*
X86090000Y-111560000D02*
X84090000Y-111560000D01*
X84090000Y-109420000D02*
X86090000Y-109420000D01*
X126730000Y-131880000D02*
X124730000Y-131880000D01*
X124730000Y-129740000D02*
X126730000Y-129740000D01*
D10*
X118950000Y-143150000D02*
X118900000Y-116400000D01*
X126950000Y-116400000D02*
X118950000Y-116400000D01*
X135000000Y-116400000D02*
X127000000Y-116400000D01*
X135050000Y-143150000D02*
X135000000Y-116400000D01*
X126950000Y-143150000D02*
X118950000Y-143150000D01*
X135050000Y-143150000D02*
X127050000Y-143150000D01*
X138500000Y-114750000D02*
X115600000Y-114750000D01*
X138500000Y-139750000D02*
X138500000Y-114750000D01*
X115500000Y-139750000D02*
X115500000Y-114750000D01*
X127000000Y-139750000D02*
X138500000Y-139750000D01*
X127000000Y-139750000D02*
X115500000Y-139750000D01*
D12*
X127280000Y-128200000D02*
X127280000Y-125250000D01*
X124180000Y-125800000D02*
X124180000Y-128200000D01*
X72135001Y-122025001D02*
X72135001Y-116015001D01*
X78955001Y-119775001D02*
X78955001Y-116015001D01*
X72135001Y-116015001D02*
X73395001Y-116015001D01*
X78955001Y-116015001D02*
X77695001Y-116015001D01*
X81680000Y-122210000D02*
X81680000Y-116200000D01*
X88500000Y-119960000D02*
X88500000Y-116200000D01*
X81680000Y-116200000D02*
X82940000Y-116200000D01*
X88500000Y-116200000D02*
X87240000Y-116200000D01*
X74588000Y-126246000D02*
X74588000Y-127246000D01*
X76288000Y-127246000D02*
X76288000Y-126246000D01*
X125230000Y-134200000D02*
X126230000Y-134200000D01*
X126230000Y-132500000D02*
X125230000Y-132500000D01*
X99830000Y-138264000D02*
X100830000Y-138264000D01*
X100830000Y-136564000D02*
X99830000Y-136564000D01*
X74002000Y-127246000D02*
X74002000Y-126246000D01*
X72302000Y-126246000D02*
X72302000Y-127246000D01*
X83654000Y-127246000D02*
X83654000Y-126246000D01*
X81954000Y-126246000D02*
X81954000Y-127246000D01*
X77128000Y-126226000D02*
X77128000Y-127226000D01*
X78828000Y-127226000D02*
X78828000Y-126226000D01*
X86526000Y-126246000D02*
X86526000Y-127246000D01*
X88226000Y-127246000D02*
X88226000Y-126246000D01*
D10*
X102362095Y-122642380D02*
X102362095Y-123451904D01*
X102409714Y-123547142D01*
X102457333Y-123594761D01*
X102552571Y-123642380D01*
X102743047Y-123642380D01*
X102838285Y-123594761D01*
X102885904Y-123547142D01*
X102933523Y-123451904D01*
X102933523Y-122642380D01*
X103362095Y-122737619D02*
X103409714Y-122690000D01*
X103504952Y-122642380D01*
X103743047Y-122642380D01*
X103838285Y-122690000D01*
X103885904Y-122737619D01*
X103933523Y-122832857D01*
X103933523Y-122928095D01*
X103885904Y-123070952D01*
X103314476Y-123642380D01*
X103933523Y-123642380D01*
X96313809Y-131532380D02*
X96885238Y-131532380D01*
X96599523Y-132532380D02*
X96599523Y-131532380D01*
X97123333Y-131532380D02*
X97742380Y-131532380D01*
X97409047Y-131913333D01*
X97551904Y-131913333D01*
X97647142Y-131960952D01*
X97694761Y-132008571D01*
X97742380Y-132103809D01*
X97742380Y-132341904D01*
X97694761Y-132437142D01*
X97647142Y-132484761D01*
X97551904Y-132532380D01*
X97266190Y-132532380D01*
X97170952Y-132484761D01*
X97123333Y-132437142D01*
X98170952Y-132437142D02*
X98218571Y-132484761D01*
X98170952Y-132532380D01*
X98123333Y-132484761D01*
X98170952Y-132437142D01*
X98170952Y-132532380D01*
X98599523Y-131627619D02*
X98647142Y-131580000D01*
X98742380Y-131532380D01*
X98980476Y-131532380D01*
X99075714Y-131580000D01*
X99123333Y-131627619D01*
X99170952Y-131722857D01*
X99170952Y-131818095D01*
X99123333Y-131960952D01*
X98551904Y-132532380D01*
X99170952Y-132532380D01*
X96313809Y-127722380D02*
X96885238Y-127722380D01*
X96599523Y-128722380D02*
X96599523Y-127722380D01*
X97123333Y-127722380D02*
X97742380Y-127722380D01*
X97409047Y-128103333D01*
X97551904Y-128103333D01*
X97647142Y-128150952D01*
X97694761Y-128198571D01*
X97742380Y-128293809D01*
X97742380Y-128531904D01*
X97694761Y-128627142D01*
X97647142Y-128674761D01*
X97551904Y-128722380D01*
X97266190Y-128722380D01*
X97170952Y-128674761D01*
X97123333Y-128627142D01*
X98170952Y-128627142D02*
X98218571Y-128674761D01*
X98170952Y-128722380D01*
X98123333Y-128674761D01*
X98170952Y-128627142D01*
X98170952Y-128722380D01*
X99170952Y-128722380D02*
X98599523Y-128722380D01*
X98885238Y-128722380D02*
X98885238Y-127722380D01*
X98790000Y-127865238D01*
X98694761Y-127960476D01*
X98599523Y-128008095D01*
X112863333Y-126849142D02*
X112815714Y-126896761D01*
X112672857Y-126944380D01*
X112577619Y-126944380D01*
X112434761Y-126896761D01*
X112339523Y-126801523D01*
X112291904Y-126706285D01*
X112244285Y-126515809D01*
X112244285Y-126372952D01*
X112291904Y-126182476D01*
X112339523Y-126087238D01*
X112434761Y-125992000D01*
X112577619Y-125944380D01*
X112672857Y-125944380D01*
X112815714Y-125992000D01*
X112863333Y-126039619D01*
X113244285Y-126039619D02*
X113291904Y-125992000D01*
X113387142Y-125944380D01*
X113625238Y-125944380D01*
X113720476Y-125992000D01*
X113768095Y-126039619D01*
X113815714Y-126134857D01*
X113815714Y-126230095D01*
X113768095Y-126372952D01*
X113196666Y-126944380D01*
X113815714Y-126944380D01*
X79271904Y-107132380D02*
X79271904Y-106132380D01*
X79510000Y-106132380D01*
X79652857Y-106180000D01*
X79748095Y-106275238D01*
X79795714Y-106370476D01*
X79843333Y-106560952D01*
X79843333Y-106703809D01*
X79795714Y-106894285D01*
X79748095Y-106989523D01*
X79652857Y-107084761D01*
X79510000Y-107132380D01*
X79271904Y-107132380D01*
X80795714Y-107132380D02*
X80224285Y-107132380D01*
X80510000Y-107132380D02*
X80510000Y-106132380D01*
X80414761Y-106275238D01*
X80319523Y-106370476D01*
X80224285Y-106418095D01*
X87296666Y-129754380D02*
X87296666Y-130468666D01*
X87249047Y-130611523D01*
X87153809Y-130706761D01*
X87010952Y-130754380D01*
X86915714Y-130754380D01*
X88296666Y-130754380D02*
X87725238Y-130754380D01*
X88010952Y-130754380D02*
X88010952Y-129754380D01*
X87915714Y-129897238D01*
X87820476Y-129992476D01*
X87725238Y-130040095D01*
X144700666Y-98258380D02*
X144700666Y-98972666D01*
X144653047Y-99115523D01*
X144557809Y-99210761D01*
X144414952Y-99258380D01*
X144319714Y-99258380D01*
X145129238Y-98353619D02*
X145176857Y-98306000D01*
X145272095Y-98258380D01*
X145510190Y-98258380D01*
X145605428Y-98306000D01*
X145653047Y-98353619D01*
X145700666Y-98448857D01*
X145700666Y-98544095D01*
X145653047Y-98686952D01*
X145081619Y-99258380D01*
X145700666Y-99258380D01*
X144700666Y-84542380D02*
X144700666Y-85256666D01*
X144653047Y-85399523D01*
X144557809Y-85494761D01*
X144414952Y-85542380D01*
X144319714Y-85542380D01*
X145081619Y-84542380D02*
X145700666Y-84542380D01*
X145367333Y-84923333D01*
X145510190Y-84923333D01*
X145605428Y-84970952D01*
X145653047Y-85018571D01*
X145700666Y-85113809D01*
X145700666Y-85351904D01*
X145653047Y-85447142D01*
X145605428Y-85494761D01*
X145510190Y-85542380D01*
X145224476Y-85542380D01*
X145129238Y-85494761D01*
X145081619Y-85447142D01*
X103298666Y-73112380D02*
X103298666Y-73826666D01*
X103251047Y-73969523D01*
X103155809Y-74064761D01*
X103012952Y-74112380D01*
X102917714Y-74112380D01*
X104203428Y-73445714D02*
X104203428Y-74112380D01*
X103965333Y-73064761D02*
X103727238Y-73779047D01*
X104346285Y-73779047D01*
X133016666Y-73112380D02*
X133016666Y-73826666D01*
X132969047Y-73969523D01*
X132873809Y-74064761D01*
X132730952Y-74112380D01*
X132635714Y-74112380D01*
X133969047Y-73112380D02*
X133492857Y-73112380D01*
X133445238Y-73588571D01*
X133492857Y-73540952D01*
X133588095Y-73493333D01*
X133826190Y-73493333D01*
X133921428Y-73540952D01*
X133969047Y-73588571D01*
X134016666Y-73683809D01*
X134016666Y-73921904D01*
X133969047Y-74017142D01*
X133921428Y-74064761D01*
X133826190Y-74112380D01*
X133588095Y-74112380D01*
X133492857Y-74064761D01*
X133445238Y-74017142D01*
X80224380Y-136723333D02*
X80938666Y-136723333D01*
X81081523Y-136770952D01*
X81176761Y-136866190D01*
X81224380Y-137009047D01*
X81224380Y-137104285D01*
X81224380Y-136247142D02*
X80224380Y-136247142D01*
X80224380Y-135866190D01*
X80272000Y-135770952D01*
X80319619Y-135723333D01*
X80414857Y-135675714D01*
X80557714Y-135675714D01*
X80652952Y-135723333D01*
X80700571Y-135770952D01*
X80748190Y-135866190D01*
X80748190Y-136247142D01*
X81224380Y-134723333D02*
X81224380Y-135294761D01*
X81224380Y-135009047D02*
X80224380Y-135009047D01*
X80367238Y-135104285D01*
X80462476Y-135199523D01*
X80510095Y-135294761D01*
X82256380Y-133623333D02*
X82256380Y-133004285D01*
X82637333Y-133337619D01*
X82637333Y-133194761D01*
X82684952Y-133099523D01*
X82732571Y-133051904D01*
X82827809Y-133004285D01*
X83065904Y-133004285D01*
X83161142Y-133051904D01*
X83208761Y-133099523D01*
X83256380Y-133194761D01*
X83256380Y-133480476D01*
X83208761Y-133575714D01*
X83161142Y-133623333D01*
X83256380Y-138204285D02*
X83256380Y-138775714D01*
X83256380Y-138490000D02*
X82256380Y-138490000D01*
X82399238Y-138585238D01*
X82494476Y-138680476D01*
X82542095Y-138775714D01*
X80851619Y-87725238D02*
X80804000Y-87820476D01*
X80708761Y-87915714D01*
X80565904Y-88058571D01*
X80518285Y-88153809D01*
X80518285Y-88249047D01*
X80756380Y-88201428D02*
X80708761Y-88296666D01*
X80613523Y-88391904D01*
X80423047Y-88439523D01*
X80089714Y-88439523D01*
X79899238Y-88391904D01*
X79804000Y-88296666D01*
X79756380Y-88201428D01*
X79756380Y-88010952D01*
X79804000Y-87915714D01*
X79899238Y-87820476D01*
X80089714Y-87772857D01*
X80423047Y-87772857D01*
X80613523Y-87820476D01*
X80708761Y-87915714D01*
X80756380Y-88010952D01*
X80756380Y-88201428D01*
X80756380Y-86820476D02*
X80756380Y-87391904D01*
X80756380Y-87106190D02*
X79756380Y-87106190D01*
X79899238Y-87201428D01*
X79994476Y-87296666D01*
X80042095Y-87391904D01*
X85931619Y-87725238D02*
X85884000Y-87820476D01*
X85788761Y-87915714D01*
X85645904Y-88058571D01*
X85598285Y-88153809D01*
X85598285Y-88249047D01*
X85836380Y-88201428D02*
X85788761Y-88296666D01*
X85693523Y-88391904D01*
X85503047Y-88439523D01*
X85169714Y-88439523D01*
X84979238Y-88391904D01*
X84884000Y-88296666D01*
X84836380Y-88201428D01*
X84836380Y-88010952D01*
X84884000Y-87915714D01*
X84979238Y-87820476D01*
X85169714Y-87772857D01*
X85503047Y-87772857D01*
X85693523Y-87820476D01*
X85788761Y-87915714D01*
X85836380Y-88010952D01*
X85836380Y-88201428D01*
X84931619Y-87391904D02*
X84884000Y-87344285D01*
X84836380Y-87249047D01*
X84836380Y-87010952D01*
X84884000Y-86915714D01*
X84931619Y-86868095D01*
X85026857Y-86820476D01*
X85122095Y-86820476D01*
X85264952Y-86868095D01*
X85836380Y-87439523D01*
X85836380Y-86820476D01*
X91011619Y-87725238D02*
X90964000Y-87820476D01*
X90868761Y-87915714D01*
X90725904Y-88058571D01*
X90678285Y-88153809D01*
X90678285Y-88249047D01*
X90916380Y-88201428D02*
X90868761Y-88296666D01*
X90773523Y-88391904D01*
X90583047Y-88439523D01*
X90249714Y-88439523D01*
X90059238Y-88391904D01*
X89964000Y-88296666D01*
X89916380Y-88201428D01*
X89916380Y-88010952D01*
X89964000Y-87915714D01*
X90059238Y-87820476D01*
X90249714Y-87772857D01*
X90583047Y-87772857D01*
X90773523Y-87820476D01*
X90868761Y-87915714D01*
X90916380Y-88010952D01*
X90916380Y-88201428D01*
X89916380Y-87439523D02*
X89916380Y-86820476D01*
X90297333Y-87153809D01*
X90297333Y-87010952D01*
X90344952Y-86915714D01*
X90392571Y-86868095D01*
X90487809Y-86820476D01*
X90725904Y-86820476D01*
X90821142Y-86868095D01*
X90868761Y-86915714D01*
X90916380Y-87010952D01*
X90916380Y-87296666D01*
X90868761Y-87391904D01*
X90821142Y-87439523D01*
X96091619Y-87725238D02*
X96044000Y-87820476D01*
X95948761Y-87915714D01*
X95805904Y-88058571D01*
X95758285Y-88153809D01*
X95758285Y-88249047D01*
X95996380Y-88201428D02*
X95948761Y-88296666D01*
X95853523Y-88391904D01*
X95663047Y-88439523D01*
X95329714Y-88439523D01*
X95139238Y-88391904D01*
X95044000Y-88296666D01*
X94996380Y-88201428D01*
X94996380Y-88010952D01*
X95044000Y-87915714D01*
X95139238Y-87820476D01*
X95329714Y-87772857D01*
X95663047Y-87772857D01*
X95853523Y-87820476D01*
X95948761Y-87915714D01*
X95996380Y-88010952D01*
X95996380Y-88201428D01*
X95329714Y-86915714D02*
X95996380Y-86915714D01*
X94948761Y-87153809D02*
X95663047Y-87391904D01*
X95663047Y-86772857D01*
X110823619Y-87725238D02*
X110776000Y-87820476D01*
X110680761Y-87915714D01*
X110537904Y-88058571D01*
X110490285Y-88153809D01*
X110490285Y-88249047D01*
X110728380Y-88201428D02*
X110680761Y-88296666D01*
X110585523Y-88391904D01*
X110395047Y-88439523D01*
X110061714Y-88439523D01*
X109871238Y-88391904D01*
X109776000Y-88296666D01*
X109728380Y-88201428D01*
X109728380Y-88010952D01*
X109776000Y-87915714D01*
X109871238Y-87820476D01*
X110061714Y-87772857D01*
X110395047Y-87772857D01*
X110585523Y-87820476D01*
X110680761Y-87915714D01*
X110728380Y-88010952D01*
X110728380Y-88201428D01*
X109728380Y-86868095D02*
X109728380Y-87344285D01*
X110204571Y-87391904D01*
X110156952Y-87344285D01*
X110109333Y-87249047D01*
X110109333Y-87010952D01*
X110156952Y-86915714D01*
X110204571Y-86868095D01*
X110299809Y-86820476D01*
X110537904Y-86820476D01*
X110633142Y-86868095D01*
X110680761Y-86915714D01*
X110728380Y-87010952D01*
X110728380Y-87249047D01*
X110680761Y-87344285D01*
X110633142Y-87391904D01*
X115903619Y-87725238D02*
X115856000Y-87820476D01*
X115760761Y-87915714D01*
X115617904Y-88058571D01*
X115570285Y-88153809D01*
X115570285Y-88249047D01*
X115808380Y-88201428D02*
X115760761Y-88296666D01*
X115665523Y-88391904D01*
X115475047Y-88439523D01*
X115141714Y-88439523D01*
X114951238Y-88391904D01*
X114856000Y-88296666D01*
X114808380Y-88201428D01*
X114808380Y-88010952D01*
X114856000Y-87915714D01*
X114951238Y-87820476D01*
X115141714Y-87772857D01*
X115475047Y-87772857D01*
X115665523Y-87820476D01*
X115760761Y-87915714D01*
X115808380Y-88010952D01*
X115808380Y-88201428D01*
X114808380Y-86915714D02*
X114808380Y-87106190D01*
X114856000Y-87201428D01*
X114903619Y-87249047D01*
X115046476Y-87344285D01*
X115236952Y-87391904D01*
X115617904Y-87391904D01*
X115713142Y-87344285D01*
X115760761Y-87296666D01*
X115808380Y-87201428D01*
X115808380Y-87010952D01*
X115760761Y-86915714D01*
X115713142Y-86868095D01*
X115617904Y-86820476D01*
X115379809Y-86820476D01*
X115284571Y-86868095D01*
X115236952Y-86915714D01*
X115189333Y-87010952D01*
X115189333Y-87201428D01*
X115236952Y-87296666D01*
X115284571Y-87344285D01*
X115379809Y-87391904D01*
X120983619Y-87725238D02*
X120936000Y-87820476D01*
X120840761Y-87915714D01*
X120697904Y-88058571D01*
X120650285Y-88153809D01*
X120650285Y-88249047D01*
X120888380Y-88201428D02*
X120840761Y-88296666D01*
X120745523Y-88391904D01*
X120555047Y-88439523D01*
X120221714Y-88439523D01*
X120031238Y-88391904D01*
X119936000Y-88296666D01*
X119888380Y-88201428D01*
X119888380Y-88010952D01*
X119936000Y-87915714D01*
X120031238Y-87820476D01*
X120221714Y-87772857D01*
X120555047Y-87772857D01*
X120745523Y-87820476D01*
X120840761Y-87915714D01*
X120888380Y-88010952D01*
X120888380Y-88201428D01*
X119888380Y-87439523D02*
X119888380Y-86772857D01*
X120888380Y-87201428D01*
X126063619Y-87725238D02*
X126016000Y-87820476D01*
X125920761Y-87915714D01*
X125777904Y-88058571D01*
X125730285Y-88153809D01*
X125730285Y-88249047D01*
X125968380Y-88201428D02*
X125920761Y-88296666D01*
X125825523Y-88391904D01*
X125635047Y-88439523D01*
X125301714Y-88439523D01*
X125111238Y-88391904D01*
X125016000Y-88296666D01*
X124968380Y-88201428D01*
X124968380Y-88010952D01*
X125016000Y-87915714D01*
X125111238Y-87820476D01*
X125301714Y-87772857D01*
X125635047Y-87772857D01*
X125825523Y-87820476D01*
X125920761Y-87915714D01*
X125968380Y-88010952D01*
X125968380Y-88201428D01*
X125396952Y-87201428D02*
X125349333Y-87296666D01*
X125301714Y-87344285D01*
X125206476Y-87391904D01*
X125158857Y-87391904D01*
X125063619Y-87344285D01*
X125016000Y-87296666D01*
X124968380Y-87201428D01*
X124968380Y-87010952D01*
X125016000Y-86915714D01*
X125063619Y-86868095D01*
X125158857Y-86820476D01*
X125206476Y-86820476D01*
X125301714Y-86868095D01*
X125349333Y-86915714D01*
X125396952Y-87010952D01*
X125396952Y-87201428D01*
X125444571Y-87296666D01*
X125492190Y-87344285D01*
X125587428Y-87391904D01*
X125777904Y-87391904D01*
X125873142Y-87344285D01*
X125920761Y-87296666D01*
X125968380Y-87201428D01*
X125968380Y-87010952D01*
X125920761Y-86915714D01*
X125873142Y-86868095D01*
X125777904Y-86820476D01*
X125587428Y-86820476D01*
X125492190Y-86868095D01*
X125444571Y-86915714D01*
X125396952Y-87010952D01*
X142327333Y-119070380D02*
X141994000Y-118594190D01*
X141755904Y-119070380D02*
X141755904Y-118070380D01*
X142136857Y-118070380D01*
X142232095Y-118118000D01*
X142279714Y-118165619D01*
X142327333Y-118260857D01*
X142327333Y-118403714D01*
X142279714Y-118498952D01*
X142232095Y-118546571D01*
X142136857Y-118594190D01*
X141755904Y-118594190D01*
X143279714Y-119070380D02*
X142708285Y-119070380D01*
X142994000Y-119070380D02*
X142994000Y-118070380D01*
X142898761Y-118213238D01*
X142803523Y-118308476D01*
X142708285Y-118356095D01*
X86304380Y-93384666D02*
X85828190Y-93718000D01*
X86304380Y-93956095D02*
X85304380Y-93956095D01*
X85304380Y-93575142D01*
X85352000Y-93479904D01*
X85399619Y-93432285D01*
X85494857Y-93384666D01*
X85637714Y-93384666D01*
X85732952Y-93432285D01*
X85780571Y-93479904D01*
X85828190Y-93575142D01*
X85828190Y-93956095D01*
X85399619Y-93003714D02*
X85352000Y-92956095D01*
X85304380Y-92860857D01*
X85304380Y-92622761D01*
X85352000Y-92527523D01*
X85399619Y-92479904D01*
X85494857Y-92432285D01*
X85590095Y-92432285D01*
X85732952Y-92479904D01*
X86304380Y-93051333D01*
X86304380Y-92432285D01*
X91384380Y-93416666D02*
X90908190Y-93750000D01*
X91384380Y-93988095D02*
X90384380Y-93988095D01*
X90384380Y-93607142D01*
X90432000Y-93511904D01*
X90479619Y-93464285D01*
X90574857Y-93416666D01*
X90717714Y-93416666D01*
X90812952Y-93464285D01*
X90860571Y-93511904D01*
X90908190Y-93607142D01*
X90908190Y-93988095D01*
X90384380Y-93083333D02*
X90384380Y-92464285D01*
X90765333Y-92797619D01*
X90765333Y-92654761D01*
X90812952Y-92559523D01*
X90860571Y-92511904D01*
X90955809Y-92464285D01*
X91193904Y-92464285D01*
X91289142Y-92511904D01*
X91336761Y-92559523D01*
X91384380Y-92654761D01*
X91384380Y-92940476D01*
X91336761Y-93035714D01*
X91289142Y-93083333D01*
X96464380Y-93416666D02*
X95988190Y-93750000D01*
X96464380Y-93988095D02*
X95464380Y-93988095D01*
X95464380Y-93607142D01*
X95512000Y-93511904D01*
X95559619Y-93464285D01*
X95654857Y-93416666D01*
X95797714Y-93416666D01*
X95892952Y-93464285D01*
X95940571Y-93511904D01*
X95988190Y-93607142D01*
X95988190Y-93988095D01*
X95797714Y-92559523D02*
X96464380Y-92559523D01*
X95416761Y-92797619D02*
X96131047Y-93035714D01*
X96131047Y-92416666D01*
X101544380Y-93416666D02*
X101068190Y-93750000D01*
X101544380Y-93988095D02*
X100544380Y-93988095D01*
X100544380Y-93607142D01*
X100592000Y-93511904D01*
X100639619Y-93464285D01*
X100734857Y-93416666D01*
X100877714Y-93416666D01*
X100972952Y-93464285D01*
X101020571Y-93511904D01*
X101068190Y-93607142D01*
X101068190Y-93988095D01*
X100544380Y-92511904D02*
X100544380Y-92988095D01*
X101020571Y-93035714D01*
X100972952Y-92988095D01*
X100925333Y-92892857D01*
X100925333Y-92654761D01*
X100972952Y-92559523D01*
X101020571Y-92511904D01*
X101115809Y-92464285D01*
X101353904Y-92464285D01*
X101449142Y-92511904D01*
X101496761Y-92559523D01*
X101544380Y-92654761D01*
X101544380Y-92892857D01*
X101496761Y-92988095D01*
X101449142Y-93035714D01*
X74112380Y-84748666D02*
X73636190Y-85082000D01*
X74112380Y-85320095D02*
X73112380Y-85320095D01*
X73112380Y-84939142D01*
X73160000Y-84843904D01*
X73207619Y-84796285D01*
X73302857Y-84748666D01*
X73445714Y-84748666D01*
X73540952Y-84796285D01*
X73588571Y-84843904D01*
X73636190Y-84939142D01*
X73636190Y-85320095D01*
X73112380Y-83891523D02*
X73112380Y-84082000D01*
X73160000Y-84177238D01*
X73207619Y-84224857D01*
X73350476Y-84320095D01*
X73540952Y-84367714D01*
X73921904Y-84367714D01*
X74017142Y-84320095D01*
X74064761Y-84272476D01*
X74112380Y-84177238D01*
X74112380Y-83986761D01*
X74064761Y-83891523D01*
X74017142Y-83843904D01*
X73921904Y-83796285D01*
X73683809Y-83796285D01*
X73588571Y-83843904D01*
X73540952Y-83891523D01*
X73493333Y-83986761D01*
X73493333Y-84177238D01*
X73540952Y-84272476D01*
X73588571Y-84320095D01*
X73683809Y-84367714D01*
X77160380Y-84748666D02*
X76684190Y-85082000D01*
X77160380Y-85320095D02*
X76160380Y-85320095D01*
X76160380Y-84939142D01*
X76208000Y-84843904D01*
X76255619Y-84796285D01*
X76350857Y-84748666D01*
X76493714Y-84748666D01*
X76588952Y-84796285D01*
X76636571Y-84843904D01*
X76684190Y-84939142D01*
X76684190Y-85320095D01*
X76160380Y-84415333D02*
X76160380Y-83748666D01*
X77160380Y-84177238D01*
X100528380Y-84494666D02*
X100052190Y-84828000D01*
X100528380Y-85066095D02*
X99528380Y-85066095D01*
X99528380Y-84685142D01*
X99576000Y-84589904D01*
X99623619Y-84542285D01*
X99718857Y-84494666D01*
X99861714Y-84494666D01*
X99956952Y-84542285D01*
X100004571Y-84589904D01*
X100052190Y-84685142D01*
X100052190Y-85066095D01*
X99956952Y-83923238D02*
X99909333Y-84018476D01*
X99861714Y-84066095D01*
X99766476Y-84113714D01*
X99718857Y-84113714D01*
X99623619Y-84066095D01*
X99576000Y-84018476D01*
X99528380Y-83923238D01*
X99528380Y-83732761D01*
X99576000Y-83637523D01*
X99623619Y-83589904D01*
X99718857Y-83542285D01*
X99766476Y-83542285D01*
X99861714Y-83589904D01*
X99909333Y-83637523D01*
X99956952Y-83732761D01*
X99956952Y-83923238D01*
X100004571Y-84018476D01*
X100052190Y-84066095D01*
X100147428Y-84113714D01*
X100337904Y-84113714D01*
X100433142Y-84066095D01*
X100480761Y-84018476D01*
X100528380Y-83923238D01*
X100528380Y-83732761D01*
X100480761Y-83637523D01*
X100433142Y-83589904D01*
X100337904Y-83542285D01*
X100147428Y-83542285D01*
X100052190Y-83589904D01*
X100004571Y-83637523D01*
X99956952Y-83732761D01*
X103576380Y-84494666D02*
X103100190Y-84828000D01*
X103576380Y-85066095D02*
X102576380Y-85066095D01*
X102576380Y-84685142D01*
X102624000Y-84589904D01*
X102671619Y-84542285D01*
X102766857Y-84494666D01*
X102909714Y-84494666D01*
X103004952Y-84542285D01*
X103052571Y-84589904D01*
X103100190Y-84685142D01*
X103100190Y-85066095D01*
X103576380Y-84018476D02*
X103576380Y-83828000D01*
X103528761Y-83732761D01*
X103481142Y-83685142D01*
X103338285Y-83589904D01*
X103147809Y-83542285D01*
X102766857Y-83542285D01*
X102671619Y-83589904D01*
X102624000Y-83637523D01*
X102576380Y-83732761D01*
X102576380Y-83923238D01*
X102624000Y-84018476D01*
X102671619Y-84066095D01*
X102766857Y-84113714D01*
X103004952Y-84113714D01*
X103100190Y-84066095D01*
X103147809Y-84018476D01*
X103195428Y-83923238D01*
X103195428Y-83732761D01*
X103147809Y-83637523D01*
X103100190Y-83589904D01*
X103004952Y-83542285D01*
X75636380Y-84716857D02*
X75160190Y-85050190D01*
X75636380Y-85288285D02*
X74636380Y-85288285D01*
X74636380Y-84907333D01*
X74684000Y-84812095D01*
X74731619Y-84764476D01*
X74826857Y-84716857D01*
X74969714Y-84716857D01*
X75064952Y-84764476D01*
X75112571Y-84812095D01*
X75160190Y-84907333D01*
X75160190Y-85288285D01*
X75636380Y-83764476D02*
X75636380Y-84335904D01*
X75636380Y-84050190D02*
X74636380Y-84050190D01*
X74779238Y-84145428D01*
X74874476Y-84240666D01*
X74922095Y-84335904D01*
X74636380Y-83145428D02*
X74636380Y-83050190D01*
X74684000Y-82954952D01*
X74731619Y-82907333D01*
X74826857Y-82859714D01*
X75017333Y-82812095D01*
X75255428Y-82812095D01*
X75445904Y-82859714D01*
X75541142Y-82907333D01*
X75588761Y-82954952D01*
X75636380Y-83050190D01*
X75636380Y-83145428D01*
X75588761Y-83240666D01*
X75541142Y-83288285D01*
X75445904Y-83335904D01*
X75255428Y-83383523D01*
X75017333Y-83383523D01*
X74826857Y-83335904D01*
X74731619Y-83288285D01*
X74684000Y-83240666D01*
X74636380Y-83145428D01*
X78684380Y-84716857D02*
X78208190Y-85050190D01*
X78684380Y-85288285D02*
X77684380Y-85288285D01*
X77684380Y-84907333D01*
X77732000Y-84812095D01*
X77779619Y-84764476D01*
X77874857Y-84716857D01*
X78017714Y-84716857D01*
X78112952Y-84764476D01*
X78160571Y-84812095D01*
X78208190Y-84907333D01*
X78208190Y-85288285D01*
X78684380Y-83764476D02*
X78684380Y-84335904D01*
X78684380Y-84050190D02*
X77684380Y-84050190D01*
X77827238Y-84145428D01*
X77922476Y-84240666D01*
X77970095Y-84335904D01*
X78684380Y-82812095D02*
X78684380Y-83383523D01*
X78684380Y-83097809D02*
X77684380Y-83097809D01*
X77827238Y-83193047D01*
X77922476Y-83288285D01*
X77970095Y-83383523D01*
X102052380Y-84462857D02*
X101576190Y-84796190D01*
X102052380Y-85034285D02*
X101052380Y-85034285D01*
X101052380Y-84653333D01*
X101100000Y-84558095D01*
X101147619Y-84510476D01*
X101242857Y-84462857D01*
X101385714Y-84462857D01*
X101480952Y-84510476D01*
X101528571Y-84558095D01*
X101576190Y-84653333D01*
X101576190Y-85034285D01*
X102052380Y-83510476D02*
X102052380Y-84081904D01*
X102052380Y-83796190D02*
X101052380Y-83796190D01*
X101195238Y-83891428D01*
X101290476Y-83986666D01*
X101338095Y-84081904D01*
X101147619Y-83129523D02*
X101100000Y-83081904D01*
X101052380Y-82986666D01*
X101052380Y-82748571D01*
X101100000Y-82653333D01*
X101147619Y-82605714D01*
X101242857Y-82558095D01*
X101338095Y-82558095D01*
X101480952Y-82605714D01*
X102052380Y-83177142D01*
X102052380Y-82558095D01*
X105100380Y-84462857D02*
X104624190Y-84796190D01*
X105100380Y-85034285D02*
X104100380Y-85034285D01*
X104100380Y-84653333D01*
X104148000Y-84558095D01*
X104195619Y-84510476D01*
X104290857Y-84462857D01*
X104433714Y-84462857D01*
X104528952Y-84510476D01*
X104576571Y-84558095D01*
X104624190Y-84653333D01*
X104624190Y-85034285D01*
X105100380Y-83510476D02*
X105100380Y-84081904D01*
X105100380Y-83796190D02*
X104100380Y-83796190D01*
X104243238Y-83891428D01*
X104338476Y-83986666D01*
X104386095Y-84081904D01*
X104100380Y-83177142D02*
X104100380Y-82558095D01*
X104481333Y-82891428D01*
X104481333Y-82748571D01*
X104528952Y-82653333D01*
X104576571Y-82605714D01*
X104671809Y-82558095D01*
X104909904Y-82558095D01*
X105005142Y-82605714D01*
X105052761Y-82653333D01*
X105100380Y-82748571D01*
X105100380Y-83034285D01*
X105052761Y-83129523D01*
X105005142Y-83177142D01*
X116276380Y-94114857D02*
X115800190Y-94448190D01*
X116276380Y-94686285D02*
X115276380Y-94686285D01*
X115276380Y-94305333D01*
X115324000Y-94210095D01*
X115371619Y-94162476D01*
X115466857Y-94114857D01*
X115609714Y-94114857D01*
X115704952Y-94162476D01*
X115752571Y-94210095D01*
X115800190Y-94305333D01*
X115800190Y-94686285D01*
X116276380Y-93162476D02*
X116276380Y-93733904D01*
X116276380Y-93448190D02*
X115276380Y-93448190D01*
X115419238Y-93543428D01*
X115514476Y-93638666D01*
X115562095Y-93733904D01*
X115609714Y-92305333D02*
X116276380Y-92305333D01*
X115228761Y-92543428D02*
X115943047Y-92781523D01*
X115943047Y-92162476D01*
X121356380Y-94114857D02*
X120880190Y-94448190D01*
X121356380Y-94686285D02*
X120356380Y-94686285D01*
X120356380Y-94305333D01*
X120404000Y-94210095D01*
X120451619Y-94162476D01*
X120546857Y-94114857D01*
X120689714Y-94114857D01*
X120784952Y-94162476D01*
X120832571Y-94210095D01*
X120880190Y-94305333D01*
X120880190Y-94686285D01*
X121356380Y-93162476D02*
X121356380Y-93733904D01*
X121356380Y-93448190D02*
X120356380Y-93448190D01*
X120499238Y-93543428D01*
X120594476Y-93638666D01*
X120642095Y-93733904D01*
X120356380Y-92257714D02*
X120356380Y-92733904D01*
X120832571Y-92781523D01*
X120784952Y-92733904D01*
X120737333Y-92638666D01*
X120737333Y-92400571D01*
X120784952Y-92305333D01*
X120832571Y-92257714D01*
X120927809Y-92210095D01*
X121165904Y-92210095D01*
X121261142Y-92257714D01*
X121308761Y-92305333D01*
X121356380Y-92400571D01*
X121356380Y-92638666D01*
X121308761Y-92733904D01*
X121261142Y-92781523D01*
X104084380Y-80398857D02*
X103608190Y-80732190D01*
X104084380Y-80970285D02*
X103084380Y-80970285D01*
X103084380Y-80589333D01*
X103132000Y-80494095D01*
X103179619Y-80446476D01*
X103274857Y-80398857D01*
X103417714Y-80398857D01*
X103512952Y-80446476D01*
X103560571Y-80494095D01*
X103608190Y-80589333D01*
X103608190Y-80970285D01*
X104084380Y-79446476D02*
X104084380Y-80017904D01*
X104084380Y-79732190D02*
X103084380Y-79732190D01*
X103227238Y-79827428D01*
X103322476Y-79922666D01*
X103370095Y-80017904D01*
X103084380Y-78589333D02*
X103084380Y-78779809D01*
X103132000Y-78875047D01*
X103179619Y-78922666D01*
X103322476Y-79017904D01*
X103512952Y-79065523D01*
X103893904Y-79065523D01*
X103989142Y-79017904D01*
X104036761Y-78970285D01*
X104084380Y-78875047D01*
X104084380Y-78684571D01*
X104036761Y-78589333D01*
X103989142Y-78541714D01*
X103893904Y-78494095D01*
X103655809Y-78494095D01*
X103560571Y-78541714D01*
X103512952Y-78589333D01*
X103465333Y-78684571D01*
X103465333Y-78875047D01*
X103512952Y-78970285D01*
X103560571Y-79017904D01*
X103655809Y-79065523D01*
X105608380Y-80398857D02*
X105132190Y-80732190D01*
X105608380Y-80970285D02*
X104608380Y-80970285D01*
X104608380Y-80589333D01*
X104656000Y-80494095D01*
X104703619Y-80446476D01*
X104798857Y-80398857D01*
X104941714Y-80398857D01*
X105036952Y-80446476D01*
X105084571Y-80494095D01*
X105132190Y-80589333D01*
X105132190Y-80970285D01*
X105608380Y-79446476D02*
X105608380Y-80017904D01*
X105608380Y-79732190D02*
X104608380Y-79732190D01*
X104751238Y-79827428D01*
X104846476Y-79922666D01*
X104894095Y-80017904D01*
X104608380Y-79113142D02*
X104608380Y-78446476D01*
X105608380Y-78875047D01*
X107132380Y-80398857D02*
X106656190Y-80732190D01*
X107132380Y-80970285D02*
X106132380Y-80970285D01*
X106132380Y-80589333D01*
X106180000Y-80494095D01*
X106227619Y-80446476D01*
X106322857Y-80398857D01*
X106465714Y-80398857D01*
X106560952Y-80446476D01*
X106608571Y-80494095D01*
X106656190Y-80589333D01*
X106656190Y-80970285D01*
X107132380Y-79446476D02*
X107132380Y-80017904D01*
X107132380Y-79732190D02*
X106132380Y-79732190D01*
X106275238Y-79827428D01*
X106370476Y-79922666D01*
X106418095Y-80017904D01*
X106560952Y-78875047D02*
X106513333Y-78970285D01*
X106465714Y-79017904D01*
X106370476Y-79065523D01*
X106322857Y-79065523D01*
X106227619Y-79017904D01*
X106180000Y-78970285D01*
X106132380Y-78875047D01*
X106132380Y-78684571D01*
X106180000Y-78589333D01*
X106227619Y-78541714D01*
X106322857Y-78494095D01*
X106370476Y-78494095D01*
X106465714Y-78541714D01*
X106513333Y-78589333D01*
X106560952Y-78684571D01*
X106560952Y-78875047D01*
X106608571Y-78970285D01*
X106656190Y-79017904D01*
X106751428Y-79065523D01*
X106941904Y-79065523D01*
X107037142Y-79017904D01*
X107084761Y-78970285D01*
X107132380Y-78875047D01*
X107132380Y-78684571D01*
X107084761Y-78589333D01*
X107037142Y-78541714D01*
X106941904Y-78494095D01*
X106751428Y-78494095D01*
X106656190Y-78541714D01*
X106608571Y-78589333D01*
X106560952Y-78684571D01*
X130754380Y-80652857D02*
X130278190Y-80986190D01*
X130754380Y-81224285D02*
X129754380Y-81224285D01*
X129754380Y-80843333D01*
X129802000Y-80748095D01*
X129849619Y-80700476D01*
X129944857Y-80652857D01*
X130087714Y-80652857D01*
X130182952Y-80700476D01*
X130230571Y-80748095D01*
X130278190Y-80843333D01*
X130278190Y-81224285D01*
X130754380Y-79700476D02*
X130754380Y-80271904D01*
X130754380Y-79986190D02*
X129754380Y-79986190D01*
X129897238Y-80081428D01*
X129992476Y-80176666D01*
X130040095Y-80271904D01*
X130754380Y-79224285D02*
X130754380Y-79033809D01*
X130706761Y-78938571D01*
X130659142Y-78890952D01*
X130516285Y-78795714D01*
X130325809Y-78748095D01*
X129944857Y-78748095D01*
X129849619Y-78795714D01*
X129802000Y-78843333D01*
X129754380Y-78938571D01*
X129754380Y-79129047D01*
X129802000Y-79224285D01*
X129849619Y-79271904D01*
X129944857Y-79319523D01*
X130182952Y-79319523D01*
X130278190Y-79271904D01*
X130325809Y-79224285D01*
X130373428Y-79129047D01*
X130373428Y-78938571D01*
X130325809Y-78843333D01*
X130278190Y-78795714D01*
X130182952Y-78748095D01*
X126436380Y-94082857D02*
X125960190Y-94416190D01*
X126436380Y-94654285D02*
X125436380Y-94654285D01*
X125436380Y-94273333D01*
X125484000Y-94178095D01*
X125531619Y-94130476D01*
X125626857Y-94082857D01*
X125769714Y-94082857D01*
X125864952Y-94130476D01*
X125912571Y-94178095D01*
X125960190Y-94273333D01*
X125960190Y-94654285D01*
X125531619Y-93701904D02*
X125484000Y-93654285D01*
X125436380Y-93559047D01*
X125436380Y-93320952D01*
X125484000Y-93225714D01*
X125531619Y-93178095D01*
X125626857Y-93130476D01*
X125722095Y-93130476D01*
X125864952Y-93178095D01*
X126436380Y-93749523D01*
X126436380Y-93130476D01*
X125436380Y-92511428D02*
X125436380Y-92416190D01*
X125484000Y-92320952D01*
X125531619Y-92273333D01*
X125626857Y-92225714D01*
X125817333Y-92178095D01*
X126055428Y-92178095D01*
X126245904Y-92225714D01*
X126341142Y-92273333D01*
X126388761Y-92320952D01*
X126436380Y-92416190D01*
X126436380Y-92511428D01*
X126388761Y-92606666D01*
X126341142Y-92654285D01*
X126245904Y-92701904D01*
X126055428Y-92749523D01*
X125817333Y-92749523D01*
X125626857Y-92701904D01*
X125531619Y-92654285D01*
X125484000Y-92606666D01*
X125436380Y-92511428D01*
X131516380Y-94082857D02*
X131040190Y-94416190D01*
X131516380Y-94654285D02*
X130516380Y-94654285D01*
X130516380Y-94273333D01*
X130564000Y-94178095D01*
X130611619Y-94130476D01*
X130706857Y-94082857D01*
X130849714Y-94082857D01*
X130944952Y-94130476D01*
X130992571Y-94178095D01*
X131040190Y-94273333D01*
X131040190Y-94654285D01*
X130611619Y-93701904D02*
X130564000Y-93654285D01*
X130516380Y-93559047D01*
X130516380Y-93320952D01*
X130564000Y-93225714D01*
X130611619Y-93178095D01*
X130706857Y-93130476D01*
X130802095Y-93130476D01*
X130944952Y-93178095D01*
X131516380Y-93749523D01*
X131516380Y-93130476D01*
X131516380Y-92178095D02*
X131516380Y-92749523D01*
X131516380Y-92463809D02*
X130516380Y-92463809D01*
X130659238Y-92559047D01*
X130754476Y-92654285D01*
X130802095Y-92749523D01*
X108656380Y-80398857D02*
X108180190Y-80732190D01*
X108656380Y-80970285D02*
X107656380Y-80970285D01*
X107656380Y-80589333D01*
X107704000Y-80494095D01*
X107751619Y-80446476D01*
X107846857Y-80398857D01*
X107989714Y-80398857D01*
X108084952Y-80446476D01*
X108132571Y-80494095D01*
X108180190Y-80589333D01*
X108180190Y-80970285D01*
X107751619Y-80017904D02*
X107704000Y-79970285D01*
X107656380Y-79875047D01*
X107656380Y-79636952D01*
X107704000Y-79541714D01*
X107751619Y-79494095D01*
X107846857Y-79446476D01*
X107942095Y-79446476D01*
X108084952Y-79494095D01*
X108656380Y-80065523D01*
X108656380Y-79446476D01*
X107751619Y-79065523D02*
X107704000Y-79017904D01*
X107656380Y-78922666D01*
X107656380Y-78684571D01*
X107704000Y-78589333D01*
X107751619Y-78541714D01*
X107846857Y-78494095D01*
X107942095Y-78494095D01*
X108084952Y-78541714D01*
X108656380Y-79113142D01*
X108656380Y-78494095D01*
X133802380Y-80652857D02*
X133326190Y-80986190D01*
X133802380Y-81224285D02*
X132802380Y-81224285D01*
X132802380Y-80843333D01*
X132850000Y-80748095D01*
X132897619Y-80700476D01*
X132992857Y-80652857D01*
X133135714Y-80652857D01*
X133230952Y-80700476D01*
X133278571Y-80748095D01*
X133326190Y-80843333D01*
X133326190Y-81224285D01*
X132897619Y-80271904D02*
X132850000Y-80224285D01*
X132802380Y-80129047D01*
X132802380Y-79890952D01*
X132850000Y-79795714D01*
X132897619Y-79748095D01*
X132992857Y-79700476D01*
X133088095Y-79700476D01*
X133230952Y-79748095D01*
X133802380Y-80319523D01*
X133802380Y-79700476D01*
X132802380Y-79367142D02*
X132802380Y-78748095D01*
X133183333Y-79081428D01*
X133183333Y-78938571D01*
X133230952Y-78843333D01*
X133278571Y-78795714D01*
X133373809Y-78748095D01*
X133611904Y-78748095D01*
X133707142Y-78795714D01*
X133754761Y-78843333D01*
X133802380Y-78938571D01*
X133802380Y-79224285D01*
X133754761Y-79319523D01*
X133707142Y-79367142D01*
X132278380Y-80652857D02*
X131802190Y-80986190D01*
X132278380Y-81224285D02*
X131278380Y-81224285D01*
X131278380Y-80843333D01*
X131326000Y-80748095D01*
X131373619Y-80700476D01*
X131468857Y-80652857D01*
X131611714Y-80652857D01*
X131706952Y-80700476D01*
X131754571Y-80748095D01*
X131802190Y-80843333D01*
X131802190Y-81224285D01*
X131373619Y-80271904D02*
X131326000Y-80224285D01*
X131278380Y-80129047D01*
X131278380Y-79890952D01*
X131326000Y-79795714D01*
X131373619Y-79748095D01*
X131468857Y-79700476D01*
X131564095Y-79700476D01*
X131706952Y-79748095D01*
X132278380Y-80319523D01*
X132278380Y-79700476D01*
X131611714Y-78843333D02*
X132278380Y-78843333D01*
X131230761Y-79081428D02*
X131945047Y-79319523D01*
X131945047Y-78700476D01*
X135326380Y-80652857D02*
X134850190Y-80986190D01*
X135326380Y-81224285D02*
X134326380Y-81224285D01*
X134326380Y-80843333D01*
X134374000Y-80748095D01*
X134421619Y-80700476D01*
X134516857Y-80652857D01*
X134659714Y-80652857D01*
X134754952Y-80700476D01*
X134802571Y-80748095D01*
X134850190Y-80843333D01*
X134850190Y-81224285D01*
X134421619Y-80271904D02*
X134374000Y-80224285D01*
X134326380Y-80129047D01*
X134326380Y-79890952D01*
X134374000Y-79795714D01*
X134421619Y-79748095D01*
X134516857Y-79700476D01*
X134612095Y-79700476D01*
X134754952Y-79748095D01*
X135326380Y-80319523D01*
X135326380Y-79700476D01*
X134326380Y-78795714D02*
X134326380Y-79271904D01*
X134802571Y-79319523D01*
X134754952Y-79271904D01*
X134707333Y-79176666D01*
X134707333Y-78938571D01*
X134754952Y-78843333D01*
X134802571Y-78795714D01*
X134897809Y-78748095D01*
X135135904Y-78748095D01*
X135231142Y-78795714D01*
X135278761Y-78843333D01*
X135326380Y-78938571D01*
X135326380Y-79176666D01*
X135278761Y-79271904D01*
X135231142Y-79319523D01*
X105021142Y-135072380D02*
X104687809Y-134596190D01*
X104449714Y-135072380D02*
X104449714Y-134072380D01*
X104830666Y-134072380D01*
X104925904Y-134120000D01*
X104973523Y-134167619D01*
X105021142Y-134262857D01*
X105021142Y-134405714D01*
X104973523Y-134500952D01*
X104925904Y-134548571D01*
X104830666Y-134596190D01*
X104449714Y-134596190D01*
X105402095Y-134167619D02*
X105449714Y-134120000D01*
X105544952Y-134072380D01*
X105783047Y-134072380D01*
X105878285Y-134120000D01*
X105925904Y-134167619D01*
X105973523Y-134262857D01*
X105973523Y-134358095D01*
X105925904Y-134500952D01*
X105354476Y-135072380D01*
X105973523Y-135072380D01*
X106830666Y-134072380D02*
X106640190Y-134072380D01*
X106544952Y-134120000D01*
X106497333Y-134167619D01*
X106402095Y-134310476D01*
X106354476Y-134500952D01*
X106354476Y-134881904D01*
X106402095Y-134977142D01*
X106449714Y-135024761D01*
X106544952Y-135072380D01*
X106735428Y-135072380D01*
X106830666Y-135024761D01*
X106878285Y-134977142D01*
X106925904Y-134881904D01*
X106925904Y-134643809D01*
X106878285Y-134548571D01*
X106830666Y-134500952D01*
X106735428Y-134453333D01*
X106544952Y-134453333D01*
X106449714Y-134500952D01*
X106402095Y-134548571D01*
X106354476Y-134643809D01*
X79113142Y-110942380D02*
X78779809Y-110466190D01*
X78541714Y-110942380D02*
X78541714Y-109942380D01*
X78922666Y-109942380D01*
X79017904Y-109990000D01*
X79065523Y-110037619D01*
X79113142Y-110132857D01*
X79113142Y-110275714D01*
X79065523Y-110370952D01*
X79017904Y-110418571D01*
X78922666Y-110466190D01*
X78541714Y-110466190D01*
X79494095Y-110037619D02*
X79541714Y-109990000D01*
X79636952Y-109942380D01*
X79875047Y-109942380D01*
X79970285Y-109990000D01*
X80017904Y-110037619D01*
X80065523Y-110132857D01*
X80065523Y-110228095D01*
X80017904Y-110370952D01*
X79446476Y-110942380D01*
X80065523Y-110942380D01*
X80398857Y-109942380D02*
X81065523Y-109942380D01*
X80636952Y-110942380D01*
X130421142Y-131262380D02*
X130087809Y-130786190D01*
X129849714Y-131262380D02*
X129849714Y-130262380D01*
X130230666Y-130262380D01*
X130325904Y-130310000D01*
X130373523Y-130357619D01*
X130421142Y-130452857D01*
X130421142Y-130595714D01*
X130373523Y-130690952D01*
X130325904Y-130738571D01*
X130230666Y-130786190D01*
X129849714Y-130786190D01*
X130802095Y-130357619D02*
X130849714Y-130310000D01*
X130944952Y-130262380D01*
X131183047Y-130262380D01*
X131278285Y-130310000D01*
X131325904Y-130357619D01*
X131373523Y-130452857D01*
X131373523Y-130548095D01*
X131325904Y-130690952D01*
X130754476Y-131262380D01*
X131373523Y-131262380D01*
X131944952Y-130690952D02*
X131849714Y-130643333D01*
X131802095Y-130595714D01*
X131754476Y-130500476D01*
X131754476Y-130452857D01*
X131802095Y-130357619D01*
X131849714Y-130310000D01*
X131944952Y-130262380D01*
X132135428Y-130262380D01*
X132230666Y-130310000D01*
X132278285Y-130357619D01*
X132325904Y-130452857D01*
X132325904Y-130500476D01*
X132278285Y-130595714D01*
X132230666Y-130643333D01*
X132135428Y-130690952D01*
X131944952Y-130690952D01*
X131849714Y-130738571D01*
X131802095Y-130786190D01*
X131754476Y-130881428D01*
X131754476Y-131071904D01*
X131802095Y-131167142D01*
X131849714Y-131214761D01*
X131944952Y-131262380D01*
X132135428Y-131262380D01*
X132230666Y-131214761D01*
X132278285Y-131167142D01*
X132325904Y-131071904D01*
X132325904Y-130881428D01*
X132278285Y-130786190D01*
X132230666Y-130738571D01*
X132135428Y-130690952D01*
X126492095Y-122388380D02*
X126492095Y-123197904D01*
X126539714Y-123293142D01*
X126587333Y-123340761D01*
X126682571Y-123388380D01*
X126873047Y-123388380D01*
X126968285Y-123340761D01*
X127015904Y-123293142D01*
X127063523Y-123197904D01*
X127063523Y-122388380D01*
X128063523Y-123388380D02*
X127492095Y-123388380D01*
X127777809Y-123388380D02*
X127777809Y-122388380D01*
X127682571Y-122531238D01*
X127587333Y-122626476D01*
X127492095Y-122674095D01*
X128270095Y-126472380D02*
X128270095Y-127281904D01*
X128317714Y-127377142D01*
X128365333Y-127424761D01*
X128460571Y-127472380D01*
X128651047Y-127472380D01*
X128746285Y-127424761D01*
X128793904Y-127377142D01*
X128841523Y-127281904D01*
X128841523Y-126472380D01*
X129222476Y-126472380D02*
X129841523Y-126472380D01*
X129508190Y-126853333D01*
X129651047Y-126853333D01*
X129746285Y-126900952D01*
X129793904Y-126948571D01*
X129841523Y-127043809D01*
X129841523Y-127281904D01*
X129793904Y-127377142D01*
X129746285Y-127424761D01*
X129651047Y-127472380D01*
X129365333Y-127472380D01*
X129270095Y-127424761D01*
X129222476Y-127377142D01*
X74930095Y-117562380D02*
X74930095Y-118371904D01*
X74977714Y-118467142D01*
X75025333Y-118514761D01*
X75120571Y-118562380D01*
X75311047Y-118562380D01*
X75406285Y-118514761D01*
X75453904Y-118467142D01*
X75501523Y-118371904D01*
X75501523Y-117562380D01*
X76406285Y-117895714D02*
X76406285Y-118562380D01*
X76168190Y-117514761D02*
X75930095Y-118229047D01*
X76549142Y-118229047D01*
X84328095Y-117562380D02*
X84328095Y-118371904D01*
X84375714Y-118467142D01*
X84423333Y-118514761D01*
X84518571Y-118562380D01*
X84709047Y-118562380D01*
X84804285Y-118514761D01*
X84851904Y-118467142D01*
X84899523Y-118371904D01*
X84899523Y-117562380D01*
X85851904Y-117562380D02*
X85375714Y-117562380D01*
X85328095Y-118038571D01*
X85375714Y-117990952D01*
X85470952Y-117943333D01*
X85709047Y-117943333D01*
X85804285Y-117990952D01*
X85851904Y-118038571D01*
X85899523Y-118133809D01*
X85899523Y-118371904D01*
X85851904Y-118467142D01*
X85804285Y-118514761D01*
X85709047Y-118562380D01*
X85470952Y-118562380D01*
X85375714Y-118514761D01*
X85328095Y-118467142D01*
X75271333Y-130151142D02*
X75223714Y-130198761D01*
X75080857Y-130246380D01*
X74985619Y-130246380D01*
X74842761Y-130198761D01*
X74747523Y-130103523D01*
X74699904Y-130008285D01*
X74652285Y-129817809D01*
X74652285Y-129674952D01*
X74699904Y-129484476D01*
X74747523Y-129389238D01*
X74842761Y-129294000D01*
X74985619Y-129246380D01*
X75080857Y-129246380D01*
X75223714Y-129294000D01*
X75271333Y-129341619D01*
X75604666Y-129246380D02*
X76271333Y-129246380D01*
X75842761Y-130246380D01*
X144272095Y-80970380D02*
X144272095Y-79970380D01*
X144272095Y-80446571D02*
X144843523Y-80446571D01*
X144843523Y-80970380D02*
X144843523Y-79970380D01*
X145843523Y-80970380D02*
X145272095Y-80970380D01*
X145557809Y-80970380D02*
X145557809Y-79970380D01*
X145462571Y-80113238D01*
X145367333Y-80208476D01*
X145272095Y-80256095D01*
X74168095Y-81224380D02*
X74168095Y-80224380D01*
X74168095Y-80700571D02*
X74739523Y-80700571D01*
X74739523Y-81224380D02*
X74739523Y-80224380D01*
X75168095Y-80319619D02*
X75215714Y-80272000D01*
X75310952Y-80224380D01*
X75549047Y-80224380D01*
X75644285Y-80272000D01*
X75691904Y-80319619D01*
X75739523Y-80414857D01*
X75739523Y-80510095D01*
X75691904Y-80652952D01*
X75120476Y-81224380D01*
X75739523Y-81224380D01*
X78232095Y-131008380D02*
X78232095Y-130008380D01*
X78232095Y-130484571D02*
X78803523Y-130484571D01*
X78803523Y-131008380D02*
X78803523Y-130008380D01*
X79184476Y-130008380D02*
X79803523Y-130008380D01*
X79470190Y-130389333D01*
X79613047Y-130389333D01*
X79708285Y-130436952D01*
X79755904Y-130484571D01*
X79803523Y-130579809D01*
X79803523Y-130817904D01*
X79755904Y-130913142D01*
X79708285Y-130960761D01*
X79613047Y-131008380D01*
X79327333Y-131008380D01*
X79232095Y-130960761D01*
X79184476Y-130913142D01*
X144238095Y-129484380D02*
X144238095Y-128484380D01*
X144238095Y-128960571D02*
X144809523Y-128960571D01*
X144809523Y-129484380D02*
X144809523Y-128484380D01*
X145714285Y-128817714D02*
X145714285Y-129484380D01*
X145476190Y-128436761D02*
X145238095Y-129151047D01*
X145857142Y-129151047D01*
X129373333Y-133707142D02*
X129325714Y-133754761D01*
X129182857Y-133802380D01*
X129087619Y-133802380D01*
X128944761Y-133754761D01*
X128849523Y-133659523D01*
X128801904Y-133564285D01*
X128754285Y-133373809D01*
X128754285Y-133230952D01*
X128801904Y-133040476D01*
X128849523Y-132945238D01*
X128944761Y-132850000D01*
X129087619Y-132802380D01*
X129182857Y-132802380D01*
X129325714Y-132850000D01*
X129373333Y-132897619D01*
X130325714Y-133802380D02*
X129754285Y-133802380D01*
X130040000Y-133802380D02*
X130040000Y-132802380D01*
X129944761Y-132945238D01*
X129849523Y-133040476D01*
X129754285Y-133088095D01*
X105243333Y-137771142D02*
X105195714Y-137818761D01*
X105052857Y-137866380D01*
X104957619Y-137866380D01*
X104814761Y-137818761D01*
X104719523Y-137723523D01*
X104671904Y-137628285D01*
X104624285Y-137437809D01*
X104624285Y-137294952D01*
X104671904Y-137104476D01*
X104719523Y-137009238D01*
X104814761Y-136914000D01*
X104957619Y-136866380D01*
X105052857Y-136866380D01*
X105195714Y-136914000D01*
X105243333Y-136961619D01*
X105624285Y-136961619D02*
X105671904Y-136914000D01*
X105767142Y-136866380D01*
X106005238Y-136866380D01*
X106100476Y-136914000D01*
X106148095Y-136961619D01*
X106195714Y-137056857D01*
X106195714Y-137152095D01*
X106148095Y-137294952D01*
X105576666Y-137866380D01*
X106195714Y-137866380D01*
X71731142Y-126912666D02*
X71778761Y-126960285D01*
X71826380Y-127103142D01*
X71826380Y-127198380D01*
X71778761Y-127341238D01*
X71683523Y-127436476D01*
X71588285Y-127484095D01*
X71397809Y-127531714D01*
X71254952Y-127531714D01*
X71064476Y-127484095D01*
X70969238Y-127436476D01*
X70874000Y-127341238D01*
X70826380Y-127198380D01*
X70826380Y-127103142D01*
X70874000Y-126960285D01*
X70921619Y-126912666D01*
X70826380Y-126579333D02*
X70826380Y-125960285D01*
X71207333Y-126293619D01*
X71207333Y-126150761D01*
X71254952Y-126055523D01*
X71302571Y-126007904D01*
X71397809Y-125960285D01*
X71635904Y-125960285D01*
X71731142Y-126007904D01*
X71778761Y-126055523D01*
X71826380Y-126150761D01*
X71826380Y-126436476D01*
X71778761Y-126531714D01*
X71731142Y-126579333D01*
X84923333Y-127103142D02*
X84875714Y-127150761D01*
X84732857Y-127198380D01*
X84637619Y-127198380D01*
X84494761Y-127150761D01*
X84399523Y-127055523D01*
X84351904Y-126960285D01*
X84304285Y-126769809D01*
X84304285Y-126626952D01*
X84351904Y-126436476D01*
X84399523Y-126341238D01*
X84494761Y-126246000D01*
X84637619Y-126198380D01*
X84732857Y-126198380D01*
X84875714Y-126246000D01*
X84923333Y-126293619D01*
X85780476Y-126531714D02*
X85780476Y-127198380D01*
X85542380Y-126150761D02*
X85304285Y-126865047D01*
X85923333Y-126865047D01*
X80085142Y-126892666D02*
X80132761Y-126940285D01*
X80180380Y-127083142D01*
X80180380Y-127178380D01*
X80132761Y-127321238D01*
X80037523Y-127416476D01*
X79942285Y-127464095D01*
X79751809Y-127511714D01*
X79608952Y-127511714D01*
X79418476Y-127464095D01*
X79323238Y-127416476D01*
X79228000Y-127321238D01*
X79180380Y-127178380D01*
X79180380Y-127083142D01*
X79228000Y-126940285D01*
X79275619Y-126892666D01*
X79180380Y-125987904D02*
X79180380Y-126464095D01*
X79656571Y-126511714D01*
X79608952Y-126464095D01*
X79561333Y-126368857D01*
X79561333Y-126130761D01*
X79608952Y-126035523D01*
X79656571Y-125987904D01*
X79751809Y-125940285D01*
X79989904Y-125940285D01*
X80085142Y-125987904D01*
X80132761Y-126035523D01*
X80180380Y-126130761D01*
X80180380Y-126368857D01*
X80132761Y-126464095D01*
X80085142Y-126511714D01*
X89495333Y-127103142D02*
X89447714Y-127150761D01*
X89304857Y-127198380D01*
X89209619Y-127198380D01*
X89066761Y-127150761D01*
X88971523Y-127055523D01*
X88923904Y-126960285D01*
X88876285Y-126769809D01*
X88876285Y-126626952D01*
X88923904Y-126436476D01*
X88971523Y-126341238D01*
X89066761Y-126246000D01*
X89209619Y-126198380D01*
X89304857Y-126198380D01*
X89447714Y-126246000D01*
X89495333Y-126293619D01*
X90352476Y-126198380D02*
X90162000Y-126198380D01*
X90066761Y-126246000D01*
X90019142Y-126293619D01*
X89923904Y-126436476D01*
X89876285Y-126626952D01*
X89876285Y-127007904D01*
X89923904Y-127103142D01*
X89971523Y-127150761D01*
X90066761Y-127198380D01*
X90257238Y-127198380D01*
X90352476Y-127150761D01*
X90400095Y-127103142D01*
X90447714Y-127007904D01*
X90447714Y-126769809D01*
X90400095Y-126674571D01*
X90352476Y-126626952D01*
X90257238Y-126579333D01*
X90066761Y-126579333D01*
X89971523Y-126626952D01*
X89923904Y-126674571D01*
X89876285Y-126769809D01*
M02*
